<svg xmlns="http://www.w3.org/2000/svg" xmlns:xlink="http://www.w3.org/1999/xlink" contentStyleType="text/css" height="3138px" preserveAspectRatio="none" style="width:568px;height:3138px;background:#FEFEFE;" version="1.1" viewBox="0 0 568 3138" width="568px" zoomAndPan="magnify"><title>Forward Rendering Pipeline Flow</title><defs/><g><rect fill="#FEFEFE" height="3138" style="stroke:none;stroke-width:1.0;" width="568" x="0" y="0"/><text fill="#000000" font-family="Verdana" font-size="22" font-weight="bold" lengthAdjust="spacing" textLength="409.9004" x="77.8591" y="37.1182">Forward Rendering Pipeline Flow</text><ellipse cx="267.4922" cy="62.7373" fill="#FFFFFF" rx="10" ry="10" style="stroke:#000000;stroke-width:1.0;"/><rect fill="#E8F4F8" height="247.3506" style="stroke:#000000;stroke-width:1.0;" width="214.1113" x="160.4365" y="82.7373"/><path d="M256.959,82.7373 L256.959,92.752 L246.959,102.752 L160.4365,102.752 " fill="none" style="stroke:#000000;stroke-width:1.0;"/><text fill="#000000" font-family="Verdana" font-size="14" lengthAdjust="spacing" textLength="86.5225" x="163.4365" y="97.8125">Initialization</text><rect fill="#F8F8F8" height="34.584" rx="12.5" ry="12.5" style="stroke:#888888;stroke-width:1.0;" width="140.8906" x="197.0469" y="119.752"/><text fill="#000000" font-family="Verdana" font-size="12" lengthAdjust="spacing" textLength="120.8906" x="207.0469" y="141.8164">Create Depth Buffer</text><rect fill="#F8F8F8" height="34.584" rx="12.5" ry="12.5" style="stroke:#888888;stroke-width:1.0;" width="183.7754" x="175.6045" y="174.3359"/><text fill="#000000" font-family="Verdana" font-size="12" lengthAdjust="spacing" textLength="163.7754" x="185.6045" y="196.4004">Create Shadow Maps Array</text><rect fill="#F8F8F8" height="34.584" rx="12.5" ry="12.5" style="stroke:#888888;stroke-width:1.0;" width="166.8828" x="184.0508" y="228.9199"/><text fill="#000000" font-family="Verdana" font-size="12" lengthAdjust="spacing" textLength="146.8828" x="194.0508" y="250.9844">Create HDR Color Buffer</text><rect fill="#F8F8F8" height="34.584" rx="12.5" ry="12.5" style="stroke:#888888;stroke-width:1.0;" width="194.1113" x="170.4365" y="283.5039"/><text fill="#000000" font-family="Verdana" font-size="12" lengthAdjust="spacing" textLength="174.1113" x="180.4365" y="305.5684">Load Shaders &amp; Create PSOs</text><rect fill="#FFE8E8" height="150.9966" style="stroke:#000000;stroke-width:1.0;" width="394.5532" x="168.0654" y="340.0879"/><path d="M262.3594,340.0879 L262.3594,350.1025 L252.3594,360.1025 L168.0654,360.1025 " fill="none" style="stroke:#000000;stroke-width:1.0;"/><text fill="#000000" font-family="Verdana" font-size="14" lengthAdjust="spacing" textLength="84.2939" x="171.0654" y="355.1631">Frame Start</text><rect fill="#F8F8F8" height="34.584" rx="12.5" ry="12.5" style="stroke:#888888;stroke-width:1.0;" width="178.8535" x="178.0654" y="377.1025"/><text fill="#000000" font-family="Verdana" font-size="12" lengthAdjust="spacing" textLength="158.8535" x="188.0654" y="399.167">Acquire SwapChain Image</text><path d="M369.252,421.6865 L369.252,446.3855 L349.252,450.3855 L369.252,454.3855 L369.252,479.0845 A0,0 0 0 0 369.252,479.0845 L552.6187,479.0845 A0,0 0 0 0 552.6187,479.0845 L552.6187,431.6865 L542.6187,421.6865 L369.252,421.6865 A0,0 0 0 0 369.252,421.6865 " fill="#FFFFFF" style="stroke:#000000;stroke-width:1.0;"/><path d="M542.6187,421.6865 L542.6187,431.6865 L552.6187,431.6865 L542.6187,421.6865 " fill="#FFFFFF" style="stroke:#000000;stroke-width:1.0;"/><text fill="#000000" font-family="Verdana" font-size="13" lengthAdjust="spacing" textLength="162.3667" x="375.252" y="439.7563">View/Projection matrices</text><text fill="#000000" font-family="Verdana" font-size="13" lengthAdjust="spacing" textLength="106.3359" x="375.252" y="455.5557">Camera position</text><text fill="#000000" font-family="Verdana" font-size="13" lengthAdjust="spacing" textLength="105.5742" x="375.252" y="471.355">Time, deltaTime</text><rect fill="#F8F8F8" height="34.584" rx="12.5" ry="12.5" style="stroke:#888888;stroke-width:1.0;" width="163.5195" x="185.7324" y="433.0935"/><text fill="#000000" font-family="Verdana" font-size="12" lengthAdjust="spacing" textLength="143.5195" x="195.7324" y="455.158">Update Frame Uniforms</text><rect fill="#E8FFE8" height="450.908" style="stroke:#000000;stroke-width:1.0;" width="400.6587" x="151.5215" y="501.0845"/><path d="M253.3965,501.0845 L253.3965,511.0991 L243.3965,521.0991 L151.5215,521.0991 " fill="none" style="stroke:#000000;stroke-width:1.0;"/><text fill="#000000" font-family="Verdana" font-size="14" lengthAdjust="spacing" textLength="91.875" x="154.5215" y="516.1597">Shadow Pass</text><rect fill="#F8F8F8" height="34.584" rx="12.5" ry="12.5" style="stroke:#888888;stroke-width:1.0;" width="157.9531" x="188.5156" y="538.0991"/><text fill="#000000" font-family="Verdana" font-size="12" lengthAdjust="spacing" textLength="137.9531" x="198.5156" y="560.1636">For Each Shadow Light</text><rect fill="#F8F8F8" height="34.584" rx="12.5" ry="12.5" style="stroke:#888888;stroke-width:1.0;" width="149.1758" x="192.9043" y="649.2422"/><text fill="#000000" font-family="Verdana" font-size="12" lengthAdjust="spacing" textLength="129.1758" x="202.9043" y="671.3066">Set Shadow Viewport</text><rect fill="#F8F8F8" height="34.584" rx="12.5" ry="12.5" style="stroke:#888888;stroke-width:1.0;" width="127.4961" x="203.7441" y="703.8262"/><text fill="#000000" font-family="Verdana" font-size="12" lengthAdjust="spacing" textLength="107.4961" x="213.7441" y="725.8906">Bind Shadow PSO</text><rect fill="#F8F8F8" height="34.584" rx="12.5" ry="12.5" style="stroke:#888888;stroke-width:1.0;" width="135.9746" x="199.5049" y="770.7332"/><text fill="#000000" font-family="Verdana" font-size="12" lengthAdjust="spacing" textLength="115.9746" x="209.5049" y="792.7976">Set Light View-Proj</text><path d="M369.4629,821.8098 L369.4629,838.6091 L349.4629,842.6091 L369.4629,846.6091 L369.4629,863.4084 A0,0 0 0 0 369.4629,863.4084 L521.1802,863.4084 A0,0 0 0 0 521.1802,863.4084 L521.1802,831.8098 L511.1802,821.8098 L369.4629,821.8098 A0,0 0 0 0 369.4629,821.8098 " fill="#FFFFFF" style="stroke:#000000;stroke-width:1.0;"/><path d="M511.1802,821.8098 L511.1802,831.8098 L521.1802,831.8098 L511.1802,821.8098 " fill="#FFFFFF" style="stroke:#000000;stroke-width:1.0;"/><text fill="#000000" font-family="Verdana" font-size="13" lengthAdjust="spacing" textLength="71.1572" x="375.4629" y="839.8796">Depth only</text><text fill="#000000" font-family="Verdana" font-size="13" lengthAdjust="spacing" textLength="130.7173" x="375.4629" y="855.679">No fragment shader</text><rect fill="#F8F8F8" height="34.584" rx="12.5" ry="12.5" style="stroke:#888888;stroke-width:1.0;" width="163.9414" x="185.5215" y="825.3171"/><text fill="#000000" font-family="Verdana" font-size="12" lengthAdjust="spacing" textLength="143.9414" x="195.5215" y="847.3816">Render Shadow Casters</text><polygon fill="#F8F8F8" points="232.4512,592.6831,302.5332,592.6831,314.5332,604.6831,302.5332,616.6831,232.4512,616.6831,220.4512,604.6831,232.4512,592.6831" style="stroke:#888888;stroke-width:1.0;"/><text fill="#000000" font-family="Verdana" font-size="11" lengthAdjust="spacing" textLength="18.7935" x="271.4922" y="627.7422">yes</text><text fill="#000000" font-family="Verdana" font-size="11" lengthAdjust="spacing" textLength="70.082" x="232.4512" y="609.0579">More Lights?</text><text fill="#000000" font-family="Verdana" font-size="11" lengthAdjust="spacing" textLength="13.6372" x="206.814" y="602.3735">no</text><rect fill="#F8F8F8" height="34.584" rx="12.5" ry="12.5" style="stroke:#888888;stroke-width:1.0;" width="193.1914" x="170.8965" y="905.4084"/><text fill="#000000" font-family="Verdana" font-size="12" lengthAdjust="spacing" textLength="173.1914" x="180.8965" y="927.4729">Generate Shadow Map Array</text><rect fill="#FFE8FF" height="205.6899" style="stroke:#000000;stroke-width:1.0;" width="493.0034" x="6.9155" y="961.9924"/><path d="M163.6831,961.9924 L163.6831,972.0071 L153.6831,982.0071 L6.9155,982.0071 " fill="none" style="stroke:#000000;stroke-width:1.0;"/><text fill="#000000" font-family="Verdana" font-size="14" lengthAdjust="spacing" textLength="146.7676" x="9.9155" y="977.0676">Z-Prepass (Optional)</text><polygon fill="#F8F8F8" points="221.905,999.0071,313.0793,999.0071,325.0793,1011.0071,313.0793,1023.0071,221.905,1023.0071,209.905,1011.0071,221.905,999.0071" style="stroke:#888888;stroke-width:1.0;"/><text fill="#000000" font-family="Verdana" font-size="11" lengthAdjust="spacing" textLength="91.1743" x="221.905" y="1015.3818">Complex Scene?</text><text fill="#000000" font-family="Verdana" font-size="11" lengthAdjust="spacing" textLength="18.7935" x="191.1116" y="1008.6975">yes</text><text fill="#000000" font-family="Verdana" font-size="11" lengthAdjust="spacing" textLength="13.6372" x="325.0793" y="1008.6975">no</text><rect fill="#F8F8F8" height="34.584" rx="12.5" ry="12.5" style="stroke:#888888;stroke-width:1.0;" width="140.2754" x="40.2559" y="1033.0071"/><text fill="#000000" font-family="Verdana" font-size="12" lengthAdjust="spacing" textLength="120.2754" x="50.2559" y="1055.0715">Bind Z-Prepass PSO</text><path d="M218.9561,1084.0837 L218.9561,1100.8831 L198.9561,1104.8831 L218.9561,1108.8831 L218.9561,1125.6824 A0,0 0 0 0 218.9561,1125.6824 L349.2627,1125.6824 A0,0 0 0 0 349.2627,1125.6824 L349.2627,1094.0837 L339.2627,1084.0837 L218.9561,1084.0837 A0,0 0 0 0 218.9561,1084.0837 " fill="#FFFFFF" style="stroke:#000000;stroke-width:1.0;"/><path d="M339.2627,1084.0837 L339.2627,1094.0837 L349.2627,1094.0837 L339.2627,1084.0837 " fill="#FFFFFF" style="stroke:#000000;stroke-width:1.0;"/><text fill="#000000" font-family="Verdana" font-size="13" lengthAdjust="spacing" textLength="108.6465" x="224.9561" y="1102.1536">Write depth only</text><text fill="#000000" font-family="Verdana" font-size="13" lengthAdjust="spacing" textLength="109.3066" x="224.9561" y="1117.9529">Early-Z rejection</text><rect fill="#F8F8F8" height="34.584" rx="12.5" ry="12.5" style="stroke:#888888;stroke-width:1.0;" width="177.125" x="21.8311" y="1087.5911"/><text fill="#000000" font-family="Verdana" font-size="12" lengthAdjust="spacing" textLength="157.125" x="31.8311" y="1109.6555">Render Opaque Geometry</text><rect fill="#F8F8F8" height="34.584" rx="12.5" ry="12.5" style="stroke:#888888;stroke-width:1.0;" width="110.6563" x="369.2627" y="1033.0071"/><text fill="#000000" font-family="Verdana" font-size="12" lengthAdjust="spacing" textLength="90.6563" x="379.2627" y="1055.0715">Skip Z-Prepass</text><polygon fill="#F8F8F8" points="267.4922,1131.6824,279.4922,1143.6824,267.4922,1155.6824,255.4922,1143.6824,267.4922,1131.6824" style="stroke:#888888;stroke-width:1.0;"/><rect fill="#E8E8FF" height="557.1948" style="stroke:#000000;stroke-width:1.0;" width="539.8706" x="6" y="1177.6824"/><path d="M147.2705,1177.6824 L147.2705,1187.697 L137.2705,1197.697 L6,1197.697 " fill="none" style="stroke:#000000;stroke-width:1.0;"/><text fill="#000000" font-family="Verdana" font-size="14" lengthAdjust="spacing" textLength="131.2705" x="9" y="1192.7576">Main Forward Pass</text><rect fill="#F8F8F8" height="34.584" rx="12.5" ry="12.5" style="stroke:#888888;stroke-width:1.0;" width="127.4727" x="203.7559" y="1214.697"/><text fill="#000000" font-family="Verdana" font-size="12" lengthAdjust="spacing" textLength="107.4727" x="213.7559" y="1236.7615">Clear Color Buffer</text><rect fill="#F8F8F8" height="34.584" rx="12.5" ry="12.5" style="stroke:#888888;stroke-width:1.0;" width="128.8379" x="203.0732" y="1269.281"/><text fill="#000000" font-family="Verdana" font-size="12" lengthAdjust="spacing" textLength="108.8379" x="213.0732" y="1291.3455">Bind Forward PSO</text><path d="M344.2881,1313.865 L344.2881,1338.564 L324.2881,1342.564 L344.2881,1346.564 L344.2881,1371.2629 A0,0 0 0 0 344.2881,1371.2629 L456.1484,1371.2629 A0,0 0 0 0 456.1484,1371.2629 L456.1484,1323.865 L446.1484,1313.865 L344.2881,1313.865 A0,0 0 0 0 344.2881,1313.865 " fill="#FFFFFF" style="stroke:#000000;stroke-width:1.0;"/><path d="M446.1484,1313.865 L446.1484,1323.865 L456.1484,1323.865 L446.1484,1313.865 " fill="#FFFFFF" style="stroke:#000000;stroke-width:1.0;"/><text fill="#000000" font-family="Verdana" font-size="13" lengthAdjust="spacing" textLength="89.0957" x="350.2881" y="1331.9348">1. By Pipeline</text><text fill="#000000" font-family="Verdana" font-size="13" lengthAdjust="spacing" textLength="90.8604" x="350.2881" y="1347.7341">2. By Material</text><text fill="#000000" font-family="Verdana" font-size="13" lengthAdjust="spacing" textLength="72.4395" x="350.2881" y="1363.5334">3. By Mesh</text><rect fill="#F8F8F8" height="34.584" rx="12.5" ry="12.5" style="stroke:#888888;stroke-width:1.0;" width="113.5918" x="210.6963" y="1325.272"/><text fill="#000000" font-family="Verdana" font-size="12" lengthAdjust="spacing" textLength="93.5918" x="220.6963" y="1347.3364">Sort Draw Calls</text><rect fill="#F8F8F8" height="34.584" rx="12.5" ry="12.5" style="stroke:#888888;stroke-width:1.0;" width="166.127" x="184.4287" y="1391.2629"/><text fill="#000000" font-family="Verdana" font-size="12" lengthAdjust="spacing" textLength="146.127" x="194.4287" y="1413.3274">For Each Opaque Object</text><path d="M34.9155,1492.406 L34.9155,1565.6033 A0,0 0 0 0 34.9155,1565.6033 L188.4229,1565.6033 A0,0 0 0 0 188.4229,1565.6033 L188.4229,1533.0046 L208.4229,1529.0046 L188.4229,1525.0046 L188.4229,1502.406 L178.4229,1492.406 L34.9155,1492.406 A0,0 0 0 0 34.9155,1492.406 " fill="#FFFFFF" style="stroke:#000000;stroke-width:1.0;"/><path d="M178.4229,1492.406 L178.4229,1502.406 L188.4229,1502.406 L178.4229,1492.406 " fill="#FFFFFF" style="stroke:#000000;stroke-width:1.0;"/><text fill="#000000" font-family="Verdana" font-size="13" lengthAdjust="spacing" textLength="121.6021" x="40.9155" y="1510.4758">Set 0: Frame Data</text><text fill="#000000" font-family="Verdana" font-size="13" lengthAdjust="spacing" textLength="109.5796" x="40.9155" y="1526.2751">Set 1: Pass Data</text><text fill="#000000" font-family="Verdana" font-size="13" lengthAdjust="spacing" textLength="132.5073" x="40.9155" y="1542.0745">Set 2: Material Data</text><text fill="#000000" font-family="Verdana" font-size="13" lengthAdjust="spacing" textLength="122.8335" x="40.9155" y="1557.8738">Set 3: Object Data</text><rect fill="#F8F8F8" height="34.584" rx="12.5" ry="12.5" style="stroke:#888888;stroke-width:1.0;" width="118.1387" x="208.4229" y="1511.7126"/><text fill="#000000" font-family="Verdana" font-size="12" lengthAdjust="spacing" textLength="98.1387" x="218.4229" y="1533.7771">Set Bind Groups</text><path d="M351.2197,1588.8953 L351.2197,1613.5942 L331.2197,1617.5942 L351.2197,1621.5942 L351.2197,1646.2932 A0,0 0 0 0 351.2197,1646.2932 L514.8706,1646.2932 A0,0 0 0 0 514.8706,1646.2932 L514.8706,1598.8953 L504.8706,1588.8953 L351.2197,1588.8953 A0,0 0 0 0 351.2197,1588.8953 " fill="#FFFFFF" style="stroke:#000000;stroke-width:1.0;"/><path d="M504.8706,1588.8953 L504.8706,1598.8953 L514.8706,1598.8953 L504.8706,1588.8953 " fill="#FFFFFF" style="stroke:#000000;stroke-width:1.0;"/><text fill="#000000" font-family="Verdana" font-size="13" lengthAdjust="spacing" textLength="126.9531" x="357.2197" y="1606.9651">Loop through lights</text><text fill="#000000" font-family="Verdana" font-size="13" lengthAdjust="spacing" textLength="142.6509" x="357.2197" y="1622.7644">Sample shadow maps</text><text fill="#000000" font-family="Verdana" font-size="13" lengthAdjust="spacing" textLength="122.0781" x="357.2197" y="1638.5637">Apply PBR shading</text><rect fill="#F8F8F8" height="34.584" rx="12.5" ry="12.5" style="stroke:#888888;stroke-width:1.0;" width="127.4551" x="203.7646" y="1600.3022"/><text fill="#000000" font-family="Verdana" font-size="12" lengthAdjust="spacing" textLength="107.4551" x="213.7646" y="1622.3667">Calculate Lighting</text><rect fill="#F8F8F8" height="34.584" rx="12.5" ry="12.5" style="stroke:#888888;stroke-width:1.0;" width="104.6094" x="215.1875" y="1666.2932"/><text fill="#000000" font-family="Verdana" font-size="12" lengthAdjust="spacing" textLength="84.6094" x="225.1875" y="1688.3577">Draw Indexed</text><polygon fill="#F8F8F8" points="228.1382,1445.8469,306.8462,1445.8469,318.8462,1457.8469,306.8462,1469.8469,228.1382,1469.8469,216.1382,1457.8469,228.1382,1445.8469" style="stroke:#888888;stroke-width:1.0;"/><text fill="#000000" font-family="Verdana" font-size="11" lengthAdjust="spacing" textLength="18.7935" x="271.4922" y="1480.906">yes</text><text fill="#000000" font-family="Verdana" font-size="11" lengthAdjust="spacing" textLength="78.708" x="228.1382" y="1462.2217">More Objects?</text><text fill="#000000" font-family="Verdana" font-size="11" lengthAdjust="spacing" textLength="13.6372" x="202.501" y="1455.5374">no</text><rect fill="#FFFFE8" height="443.8933" style="stroke:#000000;stroke-width:1.0;" width="328.0337" x="161.1807" y="1744.8772"/><path d="M302.5879,1744.8772 L302.5879,1754.8918 L292.5879,1764.8918 L161.1807,1764.8918 " fill="none" style="stroke:#000000;stroke-width:1.0;"/><text fill="#000000" font-family="Verdana" font-size="14" lengthAdjust="spacing" textLength="131.4072" x="164.1807" y="1759.9524">Transparency Pass</text><path d="M373.5176,1786.2842 L373.5176,1795.1838 L353.5176,1799.1838 L373.5176,1803.1838 L373.5176,1812.0835 A0,0 0 0 0 373.5176,1812.0835 L479.2144,1812.0835 A0,0 0 0 0 479.2144,1812.0835 L479.2144,1796.2842 L469.2144,1786.2842 L373.5176,1786.2842 A0,0 0 0 0 373.5176,1786.2842 " fill="#FFFFFF" style="stroke:#000000;stroke-width:1.0;"/><path d="M469.2144,1786.2842 L469.2144,1796.2842 L479.2144,1796.2842 L469.2144,1786.2842 " fill="#FFFFFF" style="stroke:#000000;stroke-width:1.0;"/><text fill="#000000" font-family="Verdana" font-size="13" lengthAdjust="spacing" textLength="84.6968" x="379.5176" y="1804.354">Back to front</text><rect fill="#F8F8F8" height="34.584" rx="12.5" ry="12.5" style="stroke:#888888;stroke-width:1.0;" width="172.0508" x="181.4668" y="1781.8918"/><text fill="#000000" font-family="Verdana" font-size="12" lengthAdjust="spacing" textLength="152.0508" x="191.4668" y="1803.9563">Sort Transparent Objects</text><rect fill="#F8F8F8" height="34.584" rx="12.5" ry="12.5" style="stroke:#888888;stroke-width:1.0;" width="116.627" x="209.1787" y="1836.4758"/><text fill="#000000" font-family="Verdana" font-size="12" lengthAdjust="spacing" textLength="96.627" x="219.1787" y="1858.5403">Enable Blending</text><rect fill="#F8F8F8" height="34.584" rx="12.5" ry="12.5" style="stroke:#888888;stroke-width:1.0;" width="140.7031" x="197.1406" y="1891.0598"/><text fill="#000000" font-family="Verdana" font-size="12" lengthAdjust="spacing" textLength="120.7031" x="207.1406" y="1913.1243">Disable Depth Write</text><rect fill="#F8F8F8" height="34.584" rx="12.5" ry="12.5" style="stroke:#888888;stroke-width:1.0;" width="192.623" x="171.1807" y="1945.6438"/><text fill="#000000" font-family="Verdana" font-size="12" lengthAdjust="spacing" textLength="172.623" x="181.1807" y="1967.7083">For Each Transparent Object</text><rect fill="#F8F8F8" height="34.584" rx="12.5" ry="12.5" style="stroke:#888888;stroke-width:1.0;" width="118.1387" x="208.4229" y="2056.7869"/><text fill="#000000" font-family="Verdana" font-size="12" lengthAdjust="spacing" textLength="98.1387" x="218.4229" y="2078.8513">Set Bind Groups</text><rect fill="#F8F8F8" height="34.584" rx="12.5" ry="12.5" style="stroke:#888888;stroke-width:1.0;" width="137.3691" x="198.8076" y="2120.1865"/><text fill="#000000" font-family="Verdana" font-size="12" lengthAdjust="spacing" textLength="117.3691" x="208.8076" y="2142.251">Draw with Blending</text><polygon fill="#F8F8F8" points="215.5752,2000.2278,319.4092,2000.2278,331.4092,2012.2278,319.4092,2024.2278,215.5752,2024.2278,203.5752,2012.2278,215.5752,2000.2278" style="stroke:#888888;stroke-width:1.0;"/><text fill="#000000" font-family="Verdana" font-size="11" lengthAdjust="spacing" textLength="18.7935" x="271.4922" y="2035.2869">yes</text><text fill="#000000" font-family="Verdana" font-size="11" lengthAdjust="spacing" textLength="103.834" x="215.5752" y="2016.6025">More Transparent?</text><text fill="#000000" font-family="Verdana" font-size="11" lengthAdjust="spacing" textLength="13.6372" x="189.938" y="2009.9182">no</text><rect fill="#F0F0F0" height="689.1555" style="stroke:#000000;stroke-width:1.0;" width="312.5737" x="179.2891" y="2198.7705"/><path d="M299.9561,2198.7705 L299.9561,2208.7852 L289.9561,2218.7852 L179.2891,2218.7852 " fill="none" style="stroke:#000000;stroke-width:1.0;"/><text fill="#000000" font-family="Verdana" font-size="14" lengthAdjust="spacing" textLength="110.667" x="182.2891" y="2213.8457">Post-Processing</text><rect fill="#F8F8F8" height="34.584" rx="12.5" ry="12.5" style="stroke:#888888;stroke-width:1.0;" width="156.4063" x="189.2891" y="2235.7852"/><text fill="#000000" font-family="Verdana" font-size="12" lengthAdjust="spacing" textLength="136.4063" x="199.2891" y="2257.8496">Bind Post-Process PSO</text><path d="M339.6299,2343.4458 L339.6299,2352.3455 L319.6299,2356.3455 L339.6299,2360.3455 L339.6299,2369.2451 A0,0 0 0 0 339.6299,2369.2451 L459.8628,2369.2451 A0,0 0 0 0 459.8628,2369.2451 L459.8628,2353.4458 L449.8628,2343.4458 L339.6299,2343.4458 A0,0 0 0 0 339.6299,2343.4458 " fill="#FFFFFF" style="stroke:#000000;stroke-width:1.0;"/><path d="M449.8628,2343.4458 L449.8628,2353.4458 L459.8628,2353.4458 L449.8628,2343.4458 " fill="#FFFFFF" style="stroke:#000000;stroke-width:1.0;"/><text fill="#000000" font-family="Verdana" font-size="13" lengthAdjust="spacing" textLength="99.2329" x="345.6299" y="2361.5156">Reinhard/ACES</text><rect fill="#F8F8F8" height="34.584" rx="12.5" ry="12.5" style="stroke:#888888;stroke-width:1.0;" width="104.2754" x="215.3545" y="2339.0535"/><text fill="#000000" font-family="Verdana" font-size="12" lengthAdjust="spacing" textLength="84.2754" x="225.3545" y="2361.1179">Tone Mapping</text><polygon fill="#F8F8F8" points="228.4631,2290.3691,306.5212,2290.3691,318.5212,2302.3691,306.5212,2314.3691,228.4631,2314.3691,216.4631,2302.3691,228.4631,2290.3691" style="stroke:#888888;stroke-width:1.0;"/><text fill="#000000" font-family="Verdana" font-size="11" lengthAdjust="spacing" textLength="18.7935" x="271.4922" y="2325.4282">yes</text><text fill="#000000" font-family="Verdana" font-size="11" lengthAdjust="spacing" textLength="78.0581" x="228.4631" y="2306.7439">HDR Enabled?</text><polygon fill="#F8F8F8" points="267.4922,2393.6375,279.4922,2405.6375,267.4922,2417.6375,255.4922,2405.6375,267.4922,2393.6375" style="stroke:#888888;stroke-width:1.0;"/><rect fill="#F8F8F8" height="34.584" rx="12.5" ry="12.5" style="stroke:#888888;stroke-width:1.0;" width="89.293" x="222.8457" y="2486.3218"/><text fill="#000000" font-family="Verdana" font-size="12" lengthAdjust="spacing" textLength="69.293" x="232.8457" y="2508.3862">Apply FXAA</text><polygon fill="#F8F8F8" points="226.21,2437.6375,308.7744,2437.6375,320.7744,2449.6375,308.7744,2461.6375,226.21,2461.6375,214.21,2449.6375,226.21,2437.6375" style="stroke:#888888;stroke-width:1.0;"/><text fill="#000000" font-family="Verdana" font-size="11" lengthAdjust="spacing" textLength="18.7935" x="271.4922" y="2472.6965">yes</text><text fill="#000000" font-family="Verdana" font-size="11" lengthAdjust="spacing" textLength="82.5645" x="226.21" y="2454.0122">FXAA Enabled?</text><polygon fill="#F8F8F8" points="267.4922,2540.9058,279.4922,2552.9058,267.4922,2564.9058,255.4922,2552.9058,267.4922,2540.9058" style="stroke:#888888;stroke-width:1.0;"/><rect fill="#F8F8F8" height="34.584" rx="12.5" ry="12.5" style="stroke:#888888;stroke-width:1.0;" width="103.3848" x="215.7998" y="2633.5901"/><text fill="#000000" font-family="Verdana" font-size="12" lengthAdjust="spacing" textLength="83.3848" x="225.7998" y="2655.6545">Extract Bright</text><rect fill="#F8F8F8" height="34.584" rx="12.5" ry="12.5" style="stroke:#888888;stroke-width:1.0;" width="103.1563" x="215.9141" y="2688.1741"/><text fill="#000000" font-family="Verdana" font-size="12" lengthAdjust="spacing" textLength="83.1563" x="225.9141" y="2710.2385">Gaussian Blur</text><rect fill="#F8F8F8" height="34.584" rx="12.5" ry="12.5" style="stroke:#888888;stroke-width:1.0;" width="83.5156" x="225.7344" y="2742.7581"/><text fill="#000000" font-family="Verdana" font-size="12" lengthAdjust="spacing" textLength="63.5156" x="235.7344" y="2764.8225">Composite</text><polygon fill="#F8F8F8" points="223.3525,2584.9058,311.6318,2584.9058,323.6318,2596.9058,311.6318,2608.9058,223.3525,2608.9058,211.3525,2596.9058,223.3525,2584.9058" style="stroke:#888888;stroke-width:1.0;"/><text fill="#000000" font-family="Verdana" font-size="11" lengthAdjust="spacing" textLength="18.7935" x="271.4922" y="2619.9648">yes</text><text fill="#000000" font-family="Verdana" font-size="11" lengthAdjust="spacing" textLength="88.2793" x="223.3525" y="2601.2805">Bloom Enabled?</text><polygon fill="#F8F8F8" points="267.4922,2797.342,279.4922,2809.342,267.4922,2821.342,255.4922,2809.342,267.4922,2797.342" style="stroke:#888888;stroke-width:1.0;"/><rect fill="#F8F8F8" height="34.584" rx="12.5" ry="12.5" style="stroke:#888888;stroke-width:1.0;" width="148.7891" x="193.0977" y="2841.342"/><text fill="#000000" font-family="Verdana" font-size="12" lengthAdjust="spacing" textLength="128.7891" x="203.0977" y="2863.4065">Output to SwapChain</text><rect fill="#E8F4F8" height="192.7666" style="stroke:#000000;stroke-width:1.0;" width="189.2148" x="172.8848" y="2897.926"/><path d="M258.627,2897.926 L258.627,2907.9407 L248.627,2917.9407 L172.8848,2917.9407 " fill="none" style="stroke:#000000;stroke-width:1.0;"/><text fill="#000000" font-family="Verdana" font-size="14" lengthAdjust="spacing" textLength="75.7422" x="175.8848" y="2913.0012">Frame End</text><rect fill="#F8F8F8" height="34.584" rx="12.5" ry="12.5" style="stroke:#888888;stroke-width:1.0;" width="169.2148" x="182.8848" y="2934.9407"/><text fill="#000000" font-family="Verdana" font-size="12" lengthAdjust="spacing" textLength="149.2148" x="192.8848" y="2957.0051">Submit Command Buffer</text><rect fill="#F8F8F8" height="34.584" rx="12.5" ry="12.5" style="stroke:#888888;stroke-width:1.0;" width="136.2207" x="199.3818" y="2989.5247"/><text fill="#000000" font-family="Verdana" font-size="12" lengthAdjust="spacing" textLength="116.2207" x="209.3818" y="3011.5891">Present SwapChain</text><rect fill="#F8F8F8" height="34.584" rx="12.5" ry="12.5" style="stroke:#888888;stroke-width:1.0;" width="138.5879" x="198.1982" y="3044.1086"/><text fill="#000000" font-family="Verdana" font-size="12" lengthAdjust="spacing" textLength="118.5879" x="208.1982" y="3066.1731">Signal Frame Fence</text><ellipse cx="267.4922" cy="3121.6926" fill="none" rx="11" ry="11" style="stroke:#000000;stroke-width:1.0;"/><ellipse cx="267.4922" cy="3121.6926" fill="#FFFFFF" rx="6" ry="6" style="stroke:#000000;stroke-width:1.0;"/><line style="stroke:#000000;stroke-width:1.0;" x1="267.4922" x2="267.4922" y1="154.3359" y2="174.3359"/><polygon fill="#000000" points="263.4922,164.3359,267.4922,174.3359,271.4922,164.3359,267.4922,168.3359" style="stroke:#000000;stroke-width:1.0;"/><line style="stroke:#000000;stroke-width:1.0;" x1="267.4922" x2="267.4922" y1="208.9199" y2="228.9199"/><polygon fill="#000000" points="263.4922,218.9199,267.4922,228.9199,271.4922,218.9199,267.4922,222.9199" style="stroke:#000000;stroke-width:1.0;"/><line style="stroke:#000000;stroke-width:1.0;" x1="267.4922" x2="267.4922" y1="263.5039" y2="283.5039"/><polygon fill="#000000" points="263.4922,273.5039,267.4922,283.5039,271.4922,273.5039,267.4922,277.5039" style="stroke:#000000;stroke-width:1.0;"/><line style="stroke:#000000;stroke-width:1.0;" x1="267.4922" x2="267.4922" y1="72.7373" y2="119.752"/><polygon fill="#000000" points="263.4922,109.752,267.4922,119.752,271.4922,109.752,267.4922,113.752" style="stroke:#000000;stroke-width:1.0;"/><line style="stroke:#000000;stroke-width:1.0;" x1="267.4922" x2="267.4922" y1="411.6865" y2="433.0935"/><polygon fill="#000000" points="263.4922,423.0935,267.4922,433.0935,271.4922,423.0935,267.4922,427.0935" style="stroke:#000000;stroke-width:1.0;"/><line style="stroke:#000000;stroke-width:1.0;" x1="267.4922" x2="267.4922" y1="318.0879" y2="377.1025"/><polygon fill="#000000" points="263.4922,367.1025,267.4922,377.1025,271.4922,367.1025,267.4922,371.1025" style="stroke:#000000;stroke-width:1.0;"/><line style="stroke:#000000;stroke-width:1.0;" x1="267.4922" x2="267.4922" y1="683.8262" y2="703.8262"/><polygon fill="#000000" points="263.4922,693.8262,267.4922,703.8262,271.4922,693.8262,267.4922,697.8262" style="stroke:#000000;stroke-width:1.0;"/><line style="stroke:#000000;stroke-width:1.0;" x1="267.4922" x2="267.4922" y1="738.4102" y2="770.7332"/><polygon fill="#000000" points="263.4922,760.7332,267.4922,770.7332,271.4922,760.7332,267.4922,764.7332" style="stroke:#000000;stroke-width:1.0;"/><line style="stroke:#000000;stroke-width:1.0;" x1="267.4922" x2="267.4922" y1="805.3171" y2="825.3171"/><polygon fill="#000000" points="263.4922,815.3171,267.4922,825.3171,271.4922,815.3171,267.4922,819.3171" style="stroke:#000000;stroke-width:1.0;"/><line style="stroke:#000000;stroke-width:1.0;" x1="267.4922" x2="267.4922" y1="616.6831" y2="649.2422"/><polygon fill="#000000" points="263.4922,639.2422,267.4922,649.2422,271.4922,639.2422,267.4922,643.2422" style="stroke:#000000;stroke-width:1.0;"/><line style="stroke:#000000;stroke-width:1.0;" x1="267.4922" x2="267.4922" y1="859.9011" y2="873.4084"/><line style="stroke:#000000;stroke-width:1.0;" x1="267.4922" x2="533.1802" y1="873.4084" y2="873.4084"/><polygon fill="#000000" points="529.1802,750.7332,533.1802,740.7332,537.1802,750.7332,533.1802,746.7332" style="stroke:#000000;stroke-width:1.0;"/><line style="stroke:#000000;stroke-width:1.0;" x1="533.1802" x2="533.1802" y1="604.6831" y2="873.4084"/><line style="stroke:#000000;stroke-width:1.0;" x1="533.1802" x2="314.5332" y1="604.6831" y2="604.6831"/><polygon fill="#000000" points="324.5332,600.6831,314.5332,604.6831,324.5332,608.6831,320.5332,604.6831" style="stroke:#000000;stroke-width:1.0;"/><line style="stroke:#000000;stroke-width:1.0;" x1="220.4512" x2="173.5215" y1="604.6831" y2="604.6831"/><polygon fill="#000000" points="169.5215,736.7332,173.5215,746.7332,177.5215,736.7332,173.5215,740.7332" style="stroke:#000000;stroke-width:1.0;"/><line style="stroke:#000000;stroke-width:1.0;" x1="173.5215" x2="173.5215" y1="604.6831" y2="885.4084"/><line style="stroke:#000000;stroke-width:1.0;" x1="173.5215" x2="267.4922" y1="885.4084" y2="885.4084"/><line style="stroke:#000000;stroke-width:1.0;" x1="267.4922" x2="267.4922" y1="885.4084" y2="905.4084"/><polygon fill="#000000" points="263.4922,895.4084,267.4922,905.4084,271.4922,895.4084,267.4922,899.4084" style="stroke:#000000;stroke-width:1.0;"/><line style="stroke:#000000;stroke-width:1.0;" x1="267.4922" x2="267.4922" y1="572.6831" y2="592.6831"/><polygon fill="#000000" points="263.4922,582.6831,267.4922,592.6831,271.4922,582.6831,267.4922,586.6831" style="stroke:#000000;stroke-width:1.0;"/><line style="stroke:#000000;stroke-width:1.0;" x1="267.4922" x2="267.4922" y1="467.6775" y2="538.0991"/><polygon fill="#000000" points="263.4922,528.0991,267.4922,538.0991,271.4922,528.0991,267.4922,532.0991" style="stroke:#000000;stroke-width:1.0;"/><line style="stroke:#000000;stroke-width:1.0;" x1="110.3936" x2="110.3936" y1="1067.5911" y2="1087.5911"/><polygon fill="#000000" points="106.3936,1077.5911,110.3936,1087.5911,114.3936,1077.5911,110.3936,1081.5911" style="stroke:#000000;stroke-width:1.0;"/><line style="stroke:#000000;stroke-width:1.0;" x1="209.905" x2="110.3936" y1="1011.0071" y2="1011.0071"/><line style="stroke:#000000;stroke-width:1.0;" x1="110.3936" x2="110.3936" y1="1011.0071" y2="1033.0071"/><polygon fill="#000000" points="106.3936,1023.0071,110.3936,1033.0071,114.3936,1023.0071,110.3936,1027.0071" style="stroke:#000000;stroke-width:1.0;"/><line style="stroke:#000000;stroke-width:1.0;" x1="325.0793" x2="424.5908" y1="1011.0071" y2="1011.0071"/><line style="stroke:#000000;stroke-width:1.0;" x1="424.5908" x2="424.5908" y1="1011.0071" y2="1033.0071"/><polygon fill="#000000" points="420.5908,1023.0071,424.5908,1033.0071,428.5908,1023.0071,424.5908,1027.0071" style="stroke:#000000;stroke-width:1.0;"/><line style="stroke:#000000;stroke-width:1.0;" x1="110.3936" x2="110.3936" y1="1122.175" y2="1143.6824"/><line style="stroke:#000000;stroke-width:1.0;" x1="110.3936" x2="255.4922" y1="1143.6824" y2="1143.6824"/><polygon fill="#000000" points="245.4922,1139.6824,255.4922,1143.6824,245.4922,1147.6824,249.4922,1143.6824" style="stroke:#000000;stroke-width:1.0;"/><line style="stroke:#000000;stroke-width:1.0;" x1="424.5908" x2="424.5908" y1="1067.5911" y2="1143.6824"/><line style="stroke:#000000;stroke-width:1.0;" x1="424.5908" x2="279.4922" y1="1143.6824" y2="1143.6824"/><polygon fill="#000000" points="289.4922,1139.6824,279.4922,1143.6824,289.4922,1147.6824,285.4922,1143.6824" style="stroke:#000000;stroke-width:1.0;"/><line style="stroke:#000000;stroke-width:1.0;" x1="267.4922" x2="267.4922" y1="939.9924" y2="999.0071"/><polygon fill="#000000" points="263.4922,989.0071,267.4922,999.0071,271.4922,989.0071,267.4922,993.0071" style="stroke:#000000;stroke-width:1.0;"/><line style="stroke:#000000;stroke-width:1.0;" x1="267.4922" x2="267.4922" y1="1249.281" y2="1269.281"/><polygon fill="#000000" points="263.4922,1259.281,267.4922,1269.281,271.4922,1259.281,267.4922,1263.281" style="stroke:#000000;stroke-width:1.0;"/><line style="stroke:#000000;stroke-width:1.0;" x1="267.4922" x2="267.4922" y1="1303.865" y2="1325.272"/><polygon fill="#000000" points="263.4922,1315.272,267.4922,1325.272,271.4922,1315.272,267.4922,1319.272" style="stroke:#000000;stroke-width:1.0;"/><line style="stroke:#000000;stroke-width:1.0;" x1="267.4922" x2="267.4922" y1="1359.856" y2="1391.2629"/><polygon fill="#000000" points="263.4922,1381.2629,267.4922,1391.2629,271.4922,1381.2629,267.4922,1385.2629" style="stroke:#000000;stroke-width:1.0;"/><line style="stroke:#000000;stroke-width:1.0;" x1="267.4922" x2="267.4922" y1="1546.2966" y2="1600.3022"/><polygon fill="#000000" points="263.4922,1590.3022,267.4922,1600.3022,271.4922,1590.3022,267.4922,1594.3022" style="stroke:#000000;stroke-width:1.0;"/><line style="stroke:#000000;stroke-width:1.0;" x1="267.4922" x2="267.4922" y1="1634.8862" y2="1666.2932"/><polygon fill="#000000" points="263.4922,1656.2932,267.4922,1666.2932,271.4922,1656.2932,267.4922,1660.2932" style="stroke:#000000;stroke-width:1.0;"/><line style="stroke:#000000;stroke-width:1.0;" x1="267.4922" x2="267.4922" y1="1469.8469" y2="1511.7126"/><polygon fill="#000000" points="263.4922,1501.7126,267.4922,1511.7126,271.4922,1501.7126,267.4922,1505.7126" style="stroke:#000000;stroke-width:1.0;"/><line style="stroke:#000000;stroke-width:1.0;" x1="267.4922" x2="267.4922" y1="1700.8772" y2="1710.8772"/><line style="stroke:#000000;stroke-width:1.0;" x1="267.4922" x2="526.8706" y1="1710.8772" y2="1710.8772"/><polygon fill="#000000" points="522.8706,1589.6033,526.8706,1579.6033,530.8706,1589.6033,526.8706,1585.6033" style="stroke:#000000;stroke-width:1.0;"/><line style="stroke:#000000;stroke-width:1.0;" x1="526.8706" x2="526.8706" y1="1457.8469" y2="1710.8772"/><line style="stroke:#000000;stroke-width:1.0;" x1="526.8706" x2="318.8462" y1="1457.8469" y2="1457.8469"/><polygon fill="#000000" points="328.8462,1453.8469,318.8462,1457.8469,328.8462,1461.8469,324.8462,1457.8469" style="stroke:#000000;stroke-width:1.0;"/><line style="stroke:#000000;stroke-width:1.0;" x1="216.1382" x2="22.9155" y1="1457.8469" y2="1457.8469"/><polygon fill="#000000" points="18.9155,1575.6033,22.9155,1585.6033,26.9155,1575.6033,22.9155,1579.6033" style="stroke:#000000;stroke-width:1.0;"/><line style="stroke:#000000;stroke-width:1.0;" x1="22.9155" x2="22.9155" y1="1457.8469" y2="1722.8772"/><line style="stroke:#000000;stroke-width:1.0;" x1="22.9155" x2="267.4922" y1="1722.8772" y2="1722.8772"/><line style="stroke:#000000;stroke-width:1.0;" x1="267.4922" x2="267.4922" y1="1722.8772" y2="1781.8918"/><polygon fill="#000000" points="263.4922,1771.8918,267.4922,1781.8918,271.4922,1771.8918,267.4922,1775.8918" style="stroke:#000000;stroke-width:1.0;"/><line style="stroke:#000000;stroke-width:1.0;" x1="267.4922" x2="267.4922" y1="1425.8469" y2="1445.8469"/><polygon fill="#000000" points="263.4922,1435.8469,267.4922,1445.8469,271.4922,1435.8469,267.4922,1439.8469" style="stroke:#000000;stroke-width:1.0;"/><line style="stroke:#000000;stroke-width:1.0;" x1="267.4922" x2="267.4922" y1="1155.6824" y2="1214.697"/><polygon fill="#000000" points="263.4922,1204.697,267.4922,1214.697,271.4922,1204.697,267.4922,1208.697" style="stroke:#000000;stroke-width:1.0;"/><line style="stroke:#000000;stroke-width:1.0;" x1="267.4922" x2="267.4922" y1="1816.4758" y2="1836.4758"/><polygon fill="#000000" points="263.4922,1826.4758,267.4922,1836.4758,271.4922,1826.4758,267.4922,1830.4758" style="stroke:#000000;stroke-width:1.0;"/><line style="stroke:#000000;stroke-width:1.0;" x1="267.4922" x2="267.4922" y1="1871.0598" y2="1891.0598"/><polygon fill="#000000" points="263.4922,1881.0598,267.4922,1891.0598,271.4922,1881.0598,267.4922,1885.0598" style="stroke:#000000;stroke-width:1.0;"/><line style="stroke:#000000;stroke-width:1.0;" x1="267.4922" x2="267.4922" y1="1925.6438" y2="1945.6438"/><polygon fill="#000000" points="263.4922,1935.6438,267.4922,1945.6438,271.4922,1935.6438,267.4922,1939.6438" style="stroke:#000000;stroke-width:1.0;"/><line style="stroke:#000000;stroke-width:1.0;" x1="267.4922" x2="267.4922" y1="2091.3708" y2="2120.1865"/><polygon fill="#000000" points="263.4922,2110.1865,267.4922,2120.1865,271.4922,2110.1865,267.4922,2114.1865" style="stroke:#000000;stroke-width:1.0;"/><line style="stroke:#000000;stroke-width:1.0;" x1="267.4922" x2="267.4922" y1="2024.2278" y2="2056.7869"/><polygon fill="#000000" points="263.4922,2046.7869,267.4922,2056.7869,271.4922,2046.7869,267.4922,2050.7869" style="stroke:#000000;stroke-width:1.0;"/><line style="stroke:#000000;stroke-width:1.0;" x1="267.4922" x2="267.4922" y1="2154.7705" y2="2164.7705"/><line style="stroke:#000000;stroke-width:1.0;" x1="267.4922" x2="348.1768" y1="2164.7705" y2="2164.7705"/><polygon fill="#000000" points="344.1768,2100.1865,348.1768,2090.1865,352.1768,2100.1865,348.1768,2096.1865" style="stroke:#000000;stroke-width:1.0;"/><line style="stroke:#000000;stroke-width:1.0;" x1="348.1768" x2="348.1768" y1="2012.2278" y2="2164.7705"/><line style="stroke:#000000;stroke-width:1.0;" x1="348.1768" x2="331.4092" y1="2012.2278" y2="2012.2278"/><polygon fill="#000000" points="341.4092,2008.2278,331.4092,2012.2278,341.4092,2016.2278,337.4092,2012.2278" style="stroke:#000000;stroke-width:1.0;"/><line style="stroke:#000000;stroke-width:1.0;" x1="203.5752" x2="186.8076" y1="2012.2278" y2="2012.2278"/><polygon fill="#000000" points="182.8076,2086.1865,186.8076,2096.1865,190.8076,2086.1865,186.8076,2090.1865" style="stroke:#000000;stroke-width:1.0;"/><line style="stroke:#000000;stroke-width:1.0;" x1="186.8076" x2="186.8076" y1="2012.2278" y2="2176.7705"/><line style="stroke:#000000;stroke-width:1.0;" x1="186.8076" x2="267.4922" y1="2176.7705" y2="2176.7705"/><line style="stroke:#000000;stroke-width:1.0;" x1="267.4922" x2="267.4922" y1="2176.7705" y2="2235.7852"/><polygon fill="#000000" points="263.4922,2225.7852,267.4922,2235.7852,271.4922,2225.7852,267.4922,2229.7852" style="stroke:#000000;stroke-width:1.0;"/><line style="stroke:#000000;stroke-width:1.0;" x1="267.4922" x2="267.4922" y1="1980.2278" y2="2000.2278"/><polygon fill="#000000" points="263.4922,1990.2278,267.4922,2000.2278,271.4922,1990.2278,267.4922,1994.2278" style="stroke:#000000;stroke-width:1.0;"/><line style="stroke:#000000;stroke-width:1.0;" x1="267.4922" x2="267.4922" y1="2314.3691" y2="2339.0535"/><polygon fill="#000000" points="263.4922,2329.0535,267.4922,2339.0535,271.4922,2329.0535,267.4922,2333.0535" style="stroke:#000000;stroke-width:1.0;"/><line style="stroke:#000000;stroke-width:1.0;" x1="318.5212" x2="469.8628" y1="2302.3691" y2="2302.3691"/><polygon fill="#000000" points="465.8628,2346.3455,469.8628,2356.3455,473.8628,2346.3455,469.8628,2350.3455" style="stroke:#000000;stroke-width:1.0;"/><line style="stroke:#000000;stroke-width:1.0;" x1="469.8628" x2="469.8628" y1="2302.3691" y2="2405.6375"/><line style="stroke:#000000;stroke-width:1.0;" x1="469.8628" x2="279.4922" y1="2405.6375" y2="2405.6375"/><polygon fill="#000000" points="289.4922,2401.6375,279.4922,2405.6375,289.4922,2409.6375,285.4922,2405.6375" style="stroke:#000000;stroke-width:1.0;"/><line style="stroke:#000000;stroke-width:1.0;" x1="267.4922" x2="267.4922" y1="2373.6375" y2="2393.6375"/><polygon fill="#000000" points="263.4922,2383.6375,267.4922,2393.6375,271.4922,2383.6375,267.4922,2387.6375" style="stroke:#000000;stroke-width:1.0;"/><line style="stroke:#000000;stroke-width:1.0;" x1="267.4922" x2="267.4922" y1="2270.3691" y2="2290.3691"/><polygon fill="#000000" points="263.4922,2280.3691,267.4922,2290.3691,271.4922,2280.3691,267.4922,2284.3691" style="stroke:#000000;stroke-width:1.0;"/><line style="stroke:#000000;stroke-width:1.0;" x1="267.4922" x2="267.4922" y1="2461.6375" y2="2486.3218"/><polygon fill="#000000" points="263.4922,2476.3218,267.4922,2486.3218,271.4922,2476.3218,267.4922,2480.3218" style="stroke:#000000;stroke-width:1.0;"/><line style="stroke:#000000;stroke-width:1.0;" x1="320.7744" x2="332.7744" y1="2449.6375" y2="2449.6375"/><polygon fill="#000000" points="328.7744,2493.6138,332.7744,2503.6138,336.7744,2493.6138,332.7744,2497.6138" style="stroke:#000000;stroke-width:1.0;"/><line style="stroke:#000000;stroke-width:1.0;" x1="332.7744" x2="332.7744" y1="2449.6375" y2="2552.9058"/><line style="stroke:#000000;stroke-width:1.0;" x1="332.7744" x2="279.4922" y1="2552.9058" y2="2552.9058"/><polygon fill="#000000" points="289.4922,2548.9058,279.4922,2552.9058,289.4922,2556.9058,285.4922,2552.9058" style="stroke:#000000;stroke-width:1.0;"/><line style="stroke:#000000;stroke-width:1.0;" x1="267.4922" x2="267.4922" y1="2520.9058" y2="2540.9058"/><polygon fill="#000000" points="263.4922,2530.9058,267.4922,2540.9058,271.4922,2530.9058,267.4922,2534.9058" style="stroke:#000000;stroke-width:1.0;"/><line style="stroke:#000000;stroke-width:1.0;" x1="267.4922" x2="267.4922" y1="2417.6375" y2="2437.6375"/><polygon fill="#000000" points="263.4922,2427.6375,267.4922,2437.6375,271.4922,2427.6375,267.4922,2431.6375" style="stroke:#000000;stroke-width:1.0;"/><line style="stroke:#000000;stroke-width:1.0;" x1="267.4922" x2="267.4922" y1="2668.1741" y2="2688.1741"/><polygon fill="#000000" points="263.4922,2678.1741,267.4922,2688.1741,271.4922,2678.1741,267.4922,2682.1741" style="stroke:#000000;stroke-width:1.0;"/><line style="stroke:#000000;stroke-width:1.0;" x1="267.4922" x2="267.4922" y1="2722.7581" y2="2742.7581"/><polygon fill="#000000" points="263.4922,2732.7581,267.4922,2742.7581,271.4922,2732.7581,267.4922,2736.7581" style="stroke:#000000;stroke-width:1.0;"/><line style="stroke:#000000;stroke-width:1.0;" x1="267.4922" x2="267.4922" y1="2608.9058" y2="2633.5901"/><polygon fill="#000000" points="263.4922,2623.5901,267.4922,2633.5901,271.4922,2623.5901,267.4922,2627.5901" style="stroke:#000000;stroke-width:1.0;"/><line style="stroke:#000000;stroke-width:1.0;" x1="323.6318" x2="335.6318" y1="2596.9058" y2="2596.9058"/><polygon fill="#000000" points="331.6318,2695.4661,335.6318,2705.4661,339.6318,2695.4661,335.6318,2699.4661" style="stroke:#000000;stroke-width:1.0;"/><line style="stroke:#000000;stroke-width:1.0;" x1="335.6318" x2="335.6318" y1="2596.9058" y2="2809.342"/><line style="stroke:#000000;stroke-width:1.0;" x1="335.6318" x2="279.4922" y1="2809.342" y2="2809.342"/><polygon fill="#000000" points="289.4922,2805.342,279.4922,2809.342,289.4922,2813.342,285.4922,2809.342" style="stroke:#000000;stroke-width:1.0;"/><line style="stroke:#000000;stroke-width:1.0;" x1="267.4922" x2="267.4922" y1="2777.342" y2="2797.342"/><polygon fill="#000000" points="263.4922,2787.342,267.4922,2797.342,271.4922,2787.342,267.4922,2791.342" style="stroke:#000000;stroke-width:1.0;"/><line style="stroke:#000000;stroke-width:1.0;" x1="267.4922" x2="267.4922" y1="2564.9058" y2="2584.9058"/><polygon fill="#000000" points="263.4922,2574.9058,267.4922,2584.9058,271.4922,2574.9058,267.4922,2578.9058" style="stroke:#000000;stroke-width:1.0;"/><line style="stroke:#000000;stroke-width:1.0;" x1="267.4922" x2="267.4922" y1="2821.342" y2="2841.342"/><polygon fill="#000000" points="263.4922,2831.342,267.4922,2841.342,271.4922,2831.342,267.4922,2835.342" style="stroke:#000000;stroke-width:1.0;"/><line style="stroke:#000000;stroke-width:1.0;" x1="267.4922" x2="267.4922" y1="2969.5247" y2="2989.5247"/><polygon fill="#000000" points="263.4922,2979.5247,267.4922,2989.5247,271.4922,2979.5247,267.4922,2983.5247" style="stroke:#000000;stroke-width:1.0;"/><line style="stroke:#000000;stroke-width:1.0;" x1="267.4922" x2="267.4922" y1="3024.1086" y2="3044.1086"/><polygon fill="#000000" points="263.4922,3034.1086,267.4922,3044.1086,271.4922,3034.1086,267.4922,3038.1086" style="stroke:#000000;stroke-width:1.0;"/><line style="stroke:#000000;stroke-width:1.0;" x1="267.4922" x2="267.4922" y1="2875.926" y2="2934.9407"/><polygon fill="#000000" points="263.4922,2924.9407,267.4922,2934.9407,271.4922,2924.9407,267.4922,2928.9407" style="stroke:#000000;stroke-width:1.0;"/><line style="stroke:#000000;stroke-width:1.0;" x1="267.4922" x2="267.4922" y1="3078.6926" y2="3110.6926"/><polygon fill="#000000" points="263.4922,3100.6926,267.4922,3110.6926,271.4922,3100.6926,267.4922,3104.6926" style="stroke:#000000;stroke-width:1.0;"/><!--SRC=[bLPBR-Cs4BxhLx2xG940tVSU3FbG-26b0PBQYBDjiRU9HLjiA99BKdMyY_tl7PAIBDfoqvKkqioGC_FDDqF-P4jQKQ8uC96OHoOKQAZ80wmVjrhMefX9BZLvcMVkxLd0sh9_cDrFJon7xXsobBgWkh4QZKP9OfdbbEHIxq0Nv8uAr3En9KkcA6S2LLpkaiHOq3P9S3TSmAGWBwu5VW1dNy7zlo0lir7-CH-HRmd19vrf2fQIELMs9DDwiw5w76bM9HHoHsv16JBH6lQn-hVv7GbnHejl91H-ATM6_4mQu-LgOSR9zoY-7FD6Bovk32xFir7M1JTPVwcPHkqErAn4sCbr1LlQ-FYa2hTfsE2JO1kfAnDqGg92isrf_Qzx_c1qzsQfvTzqxHrNO3LRKzCPp70R3KH9uoFhvFUieh-GWd8BxjFB4NxluoYN1gib61E0pW-vOEb81kko1VJ6HHUYtPKCQtjnAp5LBpQ_NX9coCMUciikZdH5RRlO9QEaRjPxxPI9ebKZpkDudT_MBtlbCEXf0vNQbJCm5ajsq0yWwPx05oduFXB_Bib6mxQYmXBZgz-fEyYQdoPf8KE6wHKL27z4k9PlCSYVCGEg469oiL1E1FooOKwUDsYp3RcOoKfn-aHMQzmP0SNk5SUGUj0E6yQuDSWi57ofARcYig9Mxv-5va_DK5uC0vI1vljNducc3G_FuCDD3vjGnKUc3g6EMnZPvWYUMzScxPpecDZ39frn2dgeQJqQtT8MYw1R8Tl8N8EZ2EVds-pTQpBTTrEf4x_tubkihyPXr8a_134rPNA2mL7RD6LOF3ZWJlicoCytZi_j2eUlEYOtfvkuWCxyRThCbJbOED6-IpsomyhtQPVdiC67j8asLaV9Tm24YW5VrzmrX-zZdFlFil16IeMKnuIt9U5-gCI1WEiEtwJOR1LEzqWzKOfZ6QTttW8T_fymFJskiMcUQ34UwFEOgFSQXC5_AjRxbgXvtX-PddC7CziM-PXyAN4dAx5k-4XXU-p913oWzobtdTAYbiwPyU8mn7o_ZeSeT-hwb7Szcn_ZNa1hnzon6uNtNvWjfR5kWEEvPN21G-ojUrl4lAU-qL4RkxdeJko0It5cAjvBl4_W_5LdY9RY_OE94gV4cyaiM_L6KUGe_sioUSPJe9ap79_RPSgbh9xP9dko6gzEPAeFXseuLA16e40WnBNkoTtPuCvvEkWsNTHMrTOHghjv35zRCb6StAXMzKF5BCxNgWAiHZHXSNeRnwRUjc4Ds-8nreoS73k2Ud_6IfNy2m00]--></g></svg>