<svg xmlns="http://www.w3.org/2000/svg" xmlns:xlink="http://www.w3.org/1999/xlink" contentStyleType="text/css" height="1305px" preserveAspectRatio="none" style="width:3375px;height:1305px;background:#FEFEFE;" version="1.1" viewBox="0 0 3375 1305" width="3375px" zoomAndPan="magnify"><title>WebGPU Backend v2 - Layered Architecture</title><defs/><g><rect fill="#FEFEFE" height="1305" style="stroke:none;stroke-width:1.0;" width="3375" x="0" y="0"/><text fill="#000000" font-family="Verdana" font-size="22" font-weight="bold" lengthAdjust="spacing" textLength="541.1055" x="1412.7178" y="37.1182">WebGPU Backend v2 - Layered Architecture</text><!--cluster Application Code--><g id="cluster_Application Code"><path d="M13.5,58.7373 L146.4678,58.7373 A3.75,3.75 0 0 1 148.9678,61.2373 L155.9678,81.752 L584.5,81.752 A2.5,2.5 0 0 1 587,84.252 L587,155.2373 A2.5,2.5 0 0 1 584.5,157.7373 L13.5,157.7373 A2.5,2.5 0 0 1 11,155.2373 L11,61.2373 A2.5,2.5 0 0 1 13.5,58.7373 " fill="#E8F4F8" style="stroke:#000000;stroke-width:1.0;"/><line style="stroke:#000000;stroke-width:1.0;" x1="11" x2="155.9678" y1="81.752" y2="81.752"/><text fill="#000000" font-family="Verdana" font-size="14" font-weight="bold" lengthAdjust="spacing" textLength="131.9678" x="15" y="74.8125">Application Code</text></g><!--cluster High-Level API--><g id="cluster_High-Level API"><path d="M231.5,206.7373 L350.4473,206.7373 A3.75,3.75 0 0 1 352.9473,209.2373 L359.9473,229.752 L595.5,229.752 A2.5,2.5 0 0 1 598,232.252 L598,595.2373 A2.5,2.5 0 0 1 595.5,597.7373 L231.5,597.7373 A2.5,2.5 0 0 1 229,595.2373 L229,209.2373 A2.5,2.5 0 0 1 231.5,206.7373 " fill="#FFE8E8" style="stroke:#000000;stroke-width:1.0;"/><line style="stroke:#000000;stroke-width:1.0;" x1="229" x2="359.9473" y1="229.752" y2="229.752"/><text fill="#000000" font-family="Verdana" font-size="14" font-weight="bold" lengthAdjust="spacing" textLength="117.9473" x="233" y="222.8125">High-Level API</text></g><!--cluster Rendering Layer--><g id="cluster_Rendering Layer"><path d="M624.5,352.7373 L754.7402,352.7373 A3.75,3.75 0 0 1 757.2402,355.2373 L764.2402,375.752 L1149.5,375.752 A2.5,2.5 0 0 1 1152,378.252 L1152,595.2373 A2.5,2.5 0 0 1 1149.5,597.7373 L624.5,597.7373 A2.5,2.5 0 0 1 622,595.2373 L622,355.2373 A2.5,2.5 0 0 1 624.5,352.7373 " fill="#E8FFE8" style="stroke:#000000;stroke-width:1.0;"/><line style="stroke:#000000;stroke-width:1.0;" x1="622" x2="764.2402" y1="375.752" y2="375.752"/><text fill="#000000" font-family="Verdana" font-size="14" font-weight="bold" lengthAdjust="spacing" textLength="129.2402" x="626" y="368.8125">Rendering Layer</text></g><!--cluster Resource Management--><g id="cluster_Resource Management"><path d="M1178.5,498.7373 L1358.4102,498.7373 A3.75,3.75 0 0 1 1360.9102,501.2373 L1367.9102,521.752 L1680.5,521.752 A2.5,2.5 0 0 1 1683,524.252 L1683,746.2373 A2.5,2.5 0 0 1 1680.5,748.7373 L1178.5,748.7373 A2.5,2.5 0 0 1 1176,746.2373 L1176,501.2373 A2.5,2.5 0 0 1 1178.5,498.7373 " fill="#FFE8FF" style="stroke:#000000;stroke-width:1.0;"/><line style="stroke:#000000;stroke-width:1.0;" x1="1176" x2="1367.9102" y1="521.752" y2="521.752"/><text fill="#000000" font-family="Verdana" font-size="14" font-weight="bold" lengthAdjust="spacing" textLength="178.9102" x="1180" y="514.8125">Resource Management</text></g><!--cluster Abstraction Layer--><g id="cluster_Abstraction Layer"><path d="M1709.5,649.7373 L1849.5635,649.7373 A3.75,3.75 0 0 1 1852.0635,652.2373 L1859.0635,672.752 L2019.5,672.752 A2.5,2.5 0 0 1 2022,675.252 L2022,1043.2373 A2.5,2.5 0 0 1 2019.5,1045.7373 L1709.5,1045.7373 A2.5,2.5 0 0 1 1707,1043.2373 L1707,652.2373 A2.5,2.5 0 0 1 1709.5,649.7373 " fill="#E8E8FF" style="stroke:#000000;stroke-width:1.0;"/><line style="stroke:#000000;stroke-width:1.0;" x1="1707" x2="1859.0635" y1="672.752" y2="672.752"/><text fill="#000000" font-family="Verdana" font-size="14" font-weight="bold" lengthAdjust="spacing" textLength="139.0635" x="1711" y="665.8125">Abstraction Layer</text></g><!--cluster WebGPU Backend--><g id="cluster_WebGPU Backend"><path d="M2048.5,800.7373 L2188.8574,800.7373 A3.75,3.75 0 0 1 2191.3574,803.2373 L2198.3574,823.752 L2867.5,823.752 A2.5,2.5 0 0 1 2870,826.252 L2870,1043.2373 A2.5,2.5 0 0 1 2867.5,1045.7373 L2048.5,1045.7373 A2.5,2.5 0 0 1 2046,1043.2373 L2046,803.2373 A2.5,2.5 0 0 1 2048.5,800.7373 " fill="#FFFFE8" style="stroke:#000000;stroke-width:1.0;"/><line style="stroke:#000000;stroke-width:1.0;" x1="2046" x2="2198.3574" y1="823.752" y2="823.752"/><text fill="#000000" font-family="Verdana" font-size="14" font-weight="bold" lengthAdjust="spacing" textLength="139.3574" x="2050" y="816.8125">WebGPU Backend</text></g><!--cluster WebGPU Native--><g id="cluster_WebGPU Native"><path d="M2896.5,946.7373 L3020.916,946.7373 A3.75,3.75 0 0 1 3023.416,949.2373 L3030.416,969.752 L3262.5,969.752 A2.5,2.5 0 0 1 3265,972.252 L3265,1296.2373 A2.5,2.5 0 0 1 3262.5,1298.7373 L2896.5,1298.7373 A2.5,2.5 0 0 1 2894,1296.2373 L2894,949.2373 A2.5,2.5 0 0 1 2896.5,946.7373 " fill="#F0F0F0" style="stroke:#000000;stroke-width:1.0;"/><line style="stroke:#000000;stroke-width:1.0;" x1="2894" x2="3030.416" y1="969.752" y2="969.752"/><text fill="#000000" font-family="Verdana" font-size="14" font-weight="bold" lengthAdjust="spacing" textLength="123.416" x="2898" y="962.8125">WebGPU Native</text></g><!--entity GameLogic--><g id="elem_GameLogic"><rect fill="#F8F8F8" height="47.0146" rx="2.5" ry="2.5" style="stroke:#888888;stroke-width:1.0;" width="122.291" x="449" y="94.7373"/><rect fill="#F8F8F8" height="10" style="stroke:#888888;stroke-width:1.0;" width="15" x="551.291" y="99.7373"/><rect fill="#F8F8F8" height="2" style="stroke:#888888;stroke-width:1.0;" width="4" x="549.291" y="101.7373"/><rect fill="#F8F8F8" height="2" style="stroke:#888888;stroke-width:1.0;" width="4" x="549.291" y="105.7373"/><text fill="#000000" font-family="Verdana" font-size="14" lengthAdjust="spacing" textLength="82.291" x="464" y="128.8125">Game Logic</text></g><!--entity SceneMgmt--><g id="elem_SceneMgmt"><rect fill="#F8F8F8" height="47.0146" rx="2.5" ry="2.5" style="stroke:#888888;stroke-width:1.0;" width="178.1953" x="236" y="94.7373"/><rect fill="#F8F8F8" height="10" style="stroke:#888888;stroke-width:1.0;" width="15" x="394.1953" y="99.7373"/><rect fill="#F8F8F8" height="2" style="stroke:#888888;stroke-width:1.0;" width="4" x="392.1953" y="101.7373"/><rect fill="#F8F8F8" height="2" style="stroke:#888888;stroke-width:1.0;" width="4" x="392.1953" y="105.7373"/><text fill="#000000" font-family="Verdana" font-size="14" lengthAdjust="spacing" textLength="138.1953" x="251" y="128.8125">Scene Management</text></g><!--entity ECS--><g id="elem_ECS"><rect fill="#F8F8F8" height="47.0146" rx="2.5" ry="2.5" style="stroke:#888888;stroke-width:1.0;" width="173.7725" x="27" y="94.7373"/><rect fill="#F8F8F8" height="10" style="stroke:#888888;stroke-width:1.0;" width="15" x="180.7725" y="99.7373"/><rect fill="#F8F8F8" height="2" style="stroke:#888888;stroke-width:1.0;" width="4" x="178.7725" y="101.7373"/><rect fill="#F8F8F8" height="2" style="stroke:#888888;stroke-width:1.0;" width="4" x="178.7725" y="105.7373"/><text fill="#000000" font-family="Verdana" font-size="14" lengthAdjust="spacing" textLength="133.7725" x="42" y="128.8125">Entity Components</text></g><!--entity App--><g id="elem_App"><rect fill="#F8F8F8" height="47.0146" rx="2.5" ry="2.5" style="stroke:#888888;stroke-width:1.0;" width="117.1162" x="451.5" y="242.7373"/><rect fill="#F8F8F8" height="10" style="stroke:#888888;stroke-width:1.0;" width="15" x="548.6162" y="247.7373"/><rect fill="#F8F8F8" height="2" style="stroke:#888888;stroke-width:1.0;" width="4" x="546.6162" y="249.7373"/><rect fill="#F8F8F8" height="2" style="stroke:#888888;stroke-width:1.0;" width="4" x="546.6162" y="253.7373"/><text fill="#000000" font-family="Verdana" font-size="14" lengthAdjust="spacing" textLength="77.1162" x="466.5" y="276.8125">Application</text></g><!--entity Scene--><g id="elem_Scene"><rect fill="#F8F8F8" height="47.0146" rx="2.5" ry="2.5" style="stroke:#888888;stroke-width:1.0;" width="82.4033" x="402" y="388.7373"/><rect fill="#F8F8F8" height="10" style="stroke:#888888;stroke-width:1.0;" width="15" x="464.4033" y="393.7373"/><rect fill="#F8F8F8" height="2" style="stroke:#888888;stroke-width:1.0;" width="4" x="462.4033" y="395.7373"/><rect fill="#F8F8F8" height="2" style="stroke:#888888;stroke-width:1.0;" width="4" x="462.4033" y="399.7373"/><text fill="#000000" font-family="Verdana" font-size="14" lengthAdjust="spacing" textLength="42.4033" x="417" y="422.8125">Scene</text></g><!--entity Camera--><g id="elem_Camera"><rect fill="#F8F8F8" height="47.0146" rx="2.5" ry="2.5" style="stroke:#888888;stroke-width:1.0;" width="94.5234" x="245.5" y="534.7373"/><rect fill="#F8F8F8" height="10" style="stroke:#888888;stroke-width:1.0;" width="15" x="320.0234" y="539.7373"/><rect fill="#F8F8F8" height="2" style="stroke:#888888;stroke-width:1.0;" width="4" x="318.0234" y="541.7373"/><rect fill="#F8F8F8" height="2" style="stroke:#888888;stroke-width:1.0;" width="4" x="318.0234" y="545.7373"/><text fill="#000000" font-family="Verdana" font-size="14" lengthAdjust="spacing" textLength="54.5234" x="260.5" y="568.8125">Camera</text></g><!--entity Light--><g id="elem_Light"><rect fill="#F8F8F8" height="47.0146" rx="2.5" ry="2.5" style="stroke:#888888;stroke-width:1.0;" width="74.7334" x="375.5" y="534.7373"/><rect fill="#F8F8F8" height="10" style="stroke:#888888;stroke-width:1.0;" width="15" x="430.2334" y="539.7373"/><rect fill="#F8F8F8" height="2" style="stroke:#888888;stroke-width:1.0;" width="4" x="428.2334" y="541.7373"/><rect fill="#F8F8F8" height="2" style="stroke:#888888;stroke-width:1.0;" width="4" x="428.2334" y="545.7373"/><text fill="#000000" font-family="Verdana" font-size="14" lengthAdjust="spacing" textLength="34.7334" x="390.5" y="568.8125">Light</text></g><!--entity Material--><g id="elem_Material"><rect fill="#F8F8F8" height="47.0146" rx="2.5" ry="2.5" style="stroke:#888888;stroke-width:1.0;" width="96.1299" x="486" y="534.7373"/><rect fill="#F8F8F8" height="10" style="stroke:#888888;stroke-width:1.0;" width="15" x="562.1299" y="539.7373"/><rect fill="#F8F8F8" height="2" style="stroke:#888888;stroke-width:1.0;" width="4" x="560.1299" y="541.7373"/><rect fill="#F8F8F8" height="2" style="stroke:#888888;stroke-width:1.0;" width="4" x="560.1299" y="545.7373"/><text fill="#000000" font-family="Verdana" font-size="14" lengthAdjust="spacing" textLength="56.1299" x="501" y="568.8125">Material</text></g><!--entity SceneRenderer--><g id="elem_SceneRenderer"><rect fill="#F8F8F8" height="47.0146" rx="2.5" ry="2.5" style="stroke:#888888;stroke-width:1.0;" width="146.6885" x="820.5" y="388.7373"/><rect fill="#F8F8F8" height="10" style="stroke:#888888;stroke-width:1.0;" width="15" x="947.1885" y="393.7373"/><rect fill="#F8F8F8" height="2" style="stroke:#888888;stroke-width:1.0;" width="4" x="945.1885" y="395.7373"/><rect fill="#F8F8F8" height="2" style="stroke:#888888;stroke-width:1.0;" width="4" x="945.1885" y="399.7373"/><text fill="#000000" font-family="Verdana" font-size="14" lengthAdjust="spacing" textLength="106.6885" x="835.5" y="422.8125">SceneRenderer</text></g><!--entity RenderGraph--><g id="elem_RenderGraph"><rect fill="#F8F8F8" height="47.0146" rx="2.5" ry="2.5" style="stroke:#888888;stroke-width:1.0;" width="132.791" x="827.5" y="534.7373"/><rect fill="#F8F8F8" height="10" style="stroke:#888888;stroke-width:1.0;" width="15" x="940.291" y="539.7373"/><rect fill="#F8F8F8" height="2" style="stroke:#888888;stroke-width:1.0;" width="4" x="938.291" y="541.7373"/><rect fill="#F8F8F8" height="2" style="stroke:#888888;stroke-width:1.0;" width="4" x="938.291" y="545.7373"/><text fill="#000000" font-family="Verdana" font-size="14" lengthAdjust="spacing" textLength="92.791" x="842.5" y="568.8125">RenderGraph</text></g><!--entity Culling--><g id="elem_Culling"><rect fill="#F8F8F8" height="47.0146" rx="2.5" ry="2.5" style="stroke:#888888;stroke-width:1.0;" width="140.3652" x="996" y="534.7373"/><rect fill="#F8F8F8" height="10" style="stroke:#888888;stroke-width:1.0;" width="15" x="1116.3652" y="539.7373"/><rect fill="#F8F8F8" height="2" style="stroke:#888888;stroke-width:1.0;" width="4" x="1114.3652" y="541.7373"/><rect fill="#F8F8F8" height="2" style="stroke:#888888;stroke-width:1.0;" width="4" x="1114.3652" y="545.7373"/><text fill="#000000" font-family="Verdana" font-size="14" lengthAdjust="spacing" textLength="100.3652" x="1011" y="568.8125">CullingSystem</text></g><!--entity Batching--><g id="elem_Batching"><rect fill="#F8F8F8" height="47.0146" rx="2.5" ry="2.5" style="stroke:#888888;stroke-width:1.0;" width="153.7227" x="638" y="534.7373"/><rect fill="#F8F8F8" height="10" style="stroke:#888888;stroke-width:1.0;" width="15" x="771.7227" y="539.7373"/><rect fill="#F8F8F8" height="2" style="stroke:#888888;stroke-width:1.0;" width="4" x="769.7227" y="541.7373"/><rect fill="#F8F8F8" height="2" style="stroke:#888888;stroke-width:1.0;" width="4" x="769.7227" y="545.7373"/><text fill="#000000" font-family="Verdana" font-size="14" lengthAdjust="spacing" textLength="113.7227" x="653" y="568.8125">BatchingSystem</text></g><!--entity MatSystem--><g id="elem_MatSystem"><rect fill="#F8F8F8" height="47.0146" rx="2.5" ry="2.5" style="stroke:#888888;stroke-width:1.0;" width="148.7529" x="1434.5" y="534.7373"/><rect fill="#F8F8F8" height="10" style="stroke:#888888;stroke-width:1.0;" width="15" x="1563.2529" y="539.7373"/><rect fill="#F8F8F8" height="2" style="stroke:#888888;stroke-width:1.0;" width="4" x="1561.2529" y="541.7373"/><rect fill="#F8F8F8" height="2" style="stroke:#888888;stroke-width:1.0;" width="4" x="1561.2529" y="545.7373"/><text fill="#000000" font-family="Verdana" font-size="14" lengthAdjust="spacing" textLength="108.7529" x="1449.5" y="568.8125">MaterialSystem</text></g><!--entity MeshMgr--><g id="elem_MeshMgr"><rect fill="#F8F8F8" height="47.0146" rx="2.5" ry="2.5" style="stroke:#888888;stroke-width:1.0;" width="136.8037" x="1192.5" y="534.7373"/><rect fill="#F8F8F8" height="10" style="stroke:#888888;stroke-width:1.0;" width="15" x="1309.3037" y="539.7373"/><rect fill="#F8F8F8" height="2" style="stroke:#888888;stroke-width:1.0;" width="4" x="1307.3037" y="541.7373"/><rect fill="#F8F8F8" height="2" style="stroke:#888888;stroke-width:1.0;" width="4" x="1307.3037" y="545.7373"/><text fill="#000000" font-family="Verdana" font-size="14" lengthAdjust="spacing" textLength="96.8037" x="1207.5" y="568.8125">MeshManager</text></g><!--entity TexCache--><g id="elem_TexCache"><rect fill="#F8F8F8" height="47.0146" rx="2.5" ry="2.5" style="stroke:#888888;stroke-width:1.0;" width="136.6191" x="1361.5" y="685.7373"/><rect fill="#F8F8F8" height="10" style="stroke:#888888;stroke-width:1.0;" width="15" x="1478.1191" y="690.7373"/><rect fill="#F8F8F8" height="2" style="stroke:#888888;stroke-width:1.0;" width="4" x="1476.1191" y="692.7373"/><rect fill="#F8F8F8" height="2" style="stroke:#888888;stroke-width:1.0;" width="4" x="1476.1191" y="696.7373"/><text fill="#000000" font-family="Verdana" font-size="14" lengthAdjust="spacing" textLength="96.6191" x="1376.5" y="719.8125">TextureCache</text></g><!--entity ShaderCache--><g id="elem_ShaderCache"><rect fill="#F8F8F8" height="47.0146" rx="2.5" ry="2.5" style="stroke:#888888;stroke-width:1.0;" width="132.5518" x="1533.5" y="685.7373"/><rect fill="#F8F8F8" height="10" style="stroke:#888888;stroke-width:1.0;" width="15" x="1646.0518" y="690.7373"/><rect fill="#F8F8F8" height="2" style="stroke:#888888;stroke-width:1.0;" width="4" x="1644.0518" y="692.7373"/><rect fill="#F8F8F8" height="2" style="stroke:#888888;stroke-width:1.0;" width="4" x="1644.0518" y="696.7373"/><text fill="#000000" font-family="Verdana" font-size="14" lengthAdjust="spacing" textLength="92.5518" x="1548.5" y="719.8125">ShaderCache</text></g><!--entity ResPool--><g id="elem_ResPool"><rect fill="#F8F8F8" height="47.0146" rx="2.5" ry="2.5" style="stroke:#888888;stroke-width:1.0;" width="133.6113" x="1192" y="685.7373"/><rect fill="#F8F8F8" height="10" style="stroke:#888888;stroke-width:1.0;" width="15" x="1305.6113" y="690.7373"/><rect fill="#F8F8F8" height="2" style="stroke:#888888;stroke-width:1.0;" width="4" x="1303.6113" y="692.7373"/><rect fill="#F8F8F8" height="2" style="stroke:#888888;stroke-width:1.0;" width="4" x="1303.6113" y="696.7373"/><text fill="#000000" font-family="Verdana" font-size="14" lengthAdjust="spacing" textLength="93.6113" x="1207" y="719.8125">ResourcePool</text></g><!--entity IDevice--><g id="elem_IDevice"><rect fill="#F8F8F8" height="47.0146" rx="2.5" ry="2.5" style="stroke:#888888;stroke-width:1.0;" width="92.7803" x="1811.5" y="685.7373"/><rect fill="#F8F8F8" height="10" style="stroke:#888888;stroke-width:1.0;" width="15" x="1884.2803" y="690.7373"/><rect fill="#F8F8F8" height="2" style="stroke:#888888;stroke-width:1.0;" width="4" x="1882.2803" y="692.7373"/><rect fill="#F8F8F8" height="2" style="stroke:#888888;stroke-width:1.0;" width="4" x="1882.2803" y="696.7373"/><text fill="#000000" font-family="Verdana" font-size="14" lengthAdjust="spacing" textLength="52.7803" x="1826.5" y="719.8125">IDevice</text></g><!--entity CmdBuf--><g id="elem_CmdBuf"><rect fill="#F8F8F8" height="47.0146" rx="2.5" ry="2.5" style="stroke:#888888;stroke-width:1.0;" width="154.1123" x="1723" y="836.7373"/><rect fill="#F8F8F8" height="10" style="stroke:#888888;stroke-width:1.0;" width="15" x="1857.1123" y="841.7373"/><rect fill="#F8F8F8" height="2" style="stroke:#888888;stroke-width:1.0;" width="4" x="1855.1123" y="843.7373"/><rect fill="#F8F8F8" height="2" style="stroke:#888888;stroke-width:1.0;" width="4" x="1855.1123" y="847.7373"/><text fill="#000000" font-family="Verdana" font-size="14" lengthAdjust="spacing" textLength="114.1123" x="1738" y="870.8125">CommandBuffer</text></g><!--entity Pipeline--><g id="elem_Pipeline"><rect fill="#F8F8F8" height="47.0146" rx="2.5" ry="2.5" style="stroke:#888888;stroke-width:1.0;" width="94.2295" x="1912" y="836.7373"/><rect fill="#F8F8F8" height="10" style="stroke:#888888;stroke-width:1.0;" width="15" x="1986.2295" y="841.7373"/><rect fill="#F8F8F8" height="2" style="stroke:#888888;stroke-width:1.0;" width="4" x="1984.2295" y="843.7373"/><rect fill="#F8F8F8" height="2" style="stroke:#888888;stroke-width:1.0;" width="4" x="1984.2295" y="847.7373"/><text fill="#000000" font-family="Verdana" font-size="14" lengthAdjust="spacing" textLength="54.2295" x="1927" y="870.8125">Pipeline</text></g><!--entity BindGroup--><g id="elem_BindGroup"><rect fill="#F8F8F8" height="47.0146" rx="2.5" ry="2.5" style="stroke:#888888;stroke-width:1.0;" width="113.9307" x="1743" y="982.7373"/><rect fill="#F8F8F8" height="10" style="stroke:#888888;stroke-width:1.0;" width="15" x="1836.9307" y="987.7373"/><rect fill="#F8F8F8" height="2" style="stroke:#888888;stroke-width:1.0;" width="4" x="1834.9307" y="989.7373"/><rect fill="#F8F8F8" height="2" style="stroke:#888888;stroke-width:1.0;" width="4" x="1834.9307" y="993.7373"/><text fill="#000000" font-family="Verdana" font-size="14" lengthAdjust="spacing" textLength="73.9307" x="1758" y="1016.8125">BindGroup</text></g><!--entity WGPUDevice--><g id="elem_WGPUDevice"><rect fill="#F8F8F8" height="47.0146" rx="2.5" ry="2.5" style="stroke:#888888;stroke-width:1.0;" width="147.3379" x="2393.5" y="836.7373"/><rect fill="#F8F8F8" height="10" style="stroke:#888888;stroke-width:1.0;" width="15" x="2520.8379" y="841.7373"/><rect fill="#F8F8F8" height="2" style="stroke:#888888;stroke-width:1.0;" width="4" x="2518.8379" y="843.7373"/><rect fill="#F8F8F8" height="2" style="stroke:#888888;stroke-width:1.0;" width="4" x="2518.8379" y="847.7373"/><text fill="#000000" font-family="Verdana" font-size="14" lengthAdjust="spacing" textLength="107.3379" x="2408.5" y="870.8125">WebGPUDevice</text></g><!--entity WGPUEncoder--><g id="elem_WGPUEncoder"><rect fill="#F8F8F8" height="47.0146" rx="2.5" ry="2.5" style="stroke:#888888;stroke-width:1.0;" width="228.4873" x="2235" y="982.7373"/><rect fill="#F8F8F8" height="10" style="stroke:#888888;stroke-width:1.0;" width="15" x="2443.4873" y="987.7373"/><rect fill="#F8F8F8" height="2" style="stroke:#888888;stroke-width:1.0;" width="4" x="2441.4873" y="989.7373"/><rect fill="#F8F8F8" height="2" style="stroke:#888888;stroke-width:1.0;" width="4" x="2441.4873" y="993.7373"/><text fill="#000000" font-family="Verdana" font-size="14" lengthAdjust="spacing" textLength="188.4873" x="2250" y="1016.8125">WebGPUCommandEncoder</text></g><!--entity PipeCache--><g id="elem_PipeCache"><rect fill="#F8F8F8" height="47.0146" rx="2.5" ry="2.5" style="stroke:#888888;stroke-width:1.0;" width="136.9063" x="2062.5" y="982.7373"/><rect fill="#F8F8F8" height="10" style="stroke:#888888;stroke-width:1.0;" width="15" x="2179.4063" y="987.7373"/><rect fill="#F8F8F8" height="2" style="stroke:#888888;stroke-width:1.0;" width="4" x="2177.4063" y="989.7373"/><rect fill="#F8F8F8" height="2" style="stroke:#888888;stroke-width:1.0;" width="4" x="2177.4063" y="993.7373"/><text fill="#000000" font-family="Verdana" font-size="14" lengthAdjust="spacing" textLength="96.9063" x="2077.5" y="1016.8125">PipelineCache</text></g><!--entity BGAlloc--><g id="elem_BGAlloc"><rect fill="#F8F8F8" height="47.0146" rx="2.5" ry="2.5" style="stroke:#888888;stroke-width:1.0;" width="175.3721" x="2498.5" y="982.7373"/><rect fill="#F8F8F8" height="10" style="stroke:#888888;stroke-width:1.0;" width="15" x="2653.8721" y="987.7373"/><rect fill="#F8F8F8" height="2" style="stroke:#888888;stroke-width:1.0;" width="4" x="2651.8721" y="989.7373"/><rect fill="#F8F8F8" height="2" style="stroke:#888888;stroke-width:1.0;" width="4" x="2651.8721" y="993.7373"/><text fill="#000000" font-family="Verdana" font-size="14" lengthAdjust="spacing" textLength="135.3721" x="2513.5" y="1016.8125">BindGroupAllocator</text></g><!--entity FrameMgr--><g id="elem_FrameMgr"><rect fill="#F8F8F8" height="47.0146" rx="2.5" ry="2.5" style="stroke:#888888;stroke-width:1.0;" width="144.8975" x="2708.5" y="982.7373"/><rect fill="#F8F8F8" height="10" style="stroke:#888888;stroke-width:1.0;" width="15" x="2833.3975" y="987.7373"/><rect fill="#F8F8F8" height="2" style="stroke:#888888;stroke-width:1.0;" width="4" x="2831.3975" y="989.7373"/><rect fill="#F8F8F8" height="2" style="stroke:#888888;stroke-width:1.0;" width="4" x="2831.3975" y="993.7373"/><text fill="#000000" font-family="Verdana" font-size="14" lengthAdjust="spacing" textLength="104.8975" x="2723.5" y="1016.8125">FrameManager</text></g><!--entity Instance--><g id="elem_Instance"><rect fill="#F8F8F8" height="47.0146" rx="2.5" ry="2.5" style="stroke:#888888;stroke-width:1.0;" width="150.9404" x="2910.5" y="982.7373"/><rect fill="#F8F8F8" height="10" style="stroke:#888888;stroke-width:1.0;" width="15" x="3041.4404" y="987.7373"/><rect fill="#F8F8F8" height="2" style="stroke:#888888;stroke-width:1.0;" width="4" x="3039.4404" y="989.7373"/><rect fill="#F8F8F8" height="2" style="stroke:#888888;stroke-width:1.0;" width="4" x="3039.4404" y="993.7373"/><text fill="#000000" font-family="Verdana" font-size="14" lengthAdjust="spacing" textLength="110.9404" x="2925.5" y="1016.8125">wgpu::Instance</text></g><!--entity Device--><g id="elem_Device"><rect fill="#F8F8F8" height="47.0146" rx="2.5" ry="2.5" style="stroke:#888888;stroke-width:1.0;" width="137.3643" x="2917.5" y="1111.7373"/><rect fill="#F8F8F8" height="10" style="stroke:#888888;stroke-width:1.0;" width="15" x="3034.8643" y="1116.7373"/><rect fill="#F8F8F8" height="2" style="stroke:#888888;stroke-width:1.0;" width="4" x="3032.8643" y="1118.7373"/><rect fill="#F8F8F8" height="2" style="stroke:#888888;stroke-width:1.0;" width="4" x="3032.8643" y="1122.7373"/><text fill="#000000" font-family="Verdana" font-size="14" lengthAdjust="spacing" textLength="97.3643" x="2932.5" y="1145.8125">wgpu::Device</text></g><!--entity Queue--><g id="elem_Queue"><rect fill="#F8F8F8" height="47.0146" rx="2.5" ry="2.5" style="stroke:#888888;stroke-width:1.0;" width="135.8945" x="2910" y="1235.7373"/><rect fill="#F8F8F8" height="10" style="stroke:#888888;stroke-width:1.0;" width="15" x="3025.8945" y="1240.7373"/><rect fill="#F8F8F8" height="2" style="stroke:#888888;stroke-width:1.0;" width="4" x="3023.8945" y="1242.7373"/><rect fill="#F8F8F8" height="2" style="stroke:#888888;stroke-width:1.0;" width="4" x="3023.8945" y="1246.7373"/><text fill="#000000" font-family="Verdana" font-size="14" lengthAdjust="spacing" textLength="95.8945" x="2925" y="1269.8125">wgpu::Queue</text></g><!--entity SwapChain--><g id="elem_SwapChain"><rect fill="#F8F8F8" height="47.0146" rx="2.5" ry="2.5" style="stroke:#888888;stroke-width:1.0;" width="168.3789" x="3081" y="1235.7373"/><rect fill="#F8F8F8" height="10" style="stroke:#888888;stroke-width:1.0;" width="15" x="3229.3789" y="1240.7373"/><rect fill="#F8F8F8" height="2" style="stroke:#888888;stroke-width:1.0;" width="4" x="3227.3789" y="1242.7373"/><rect fill="#F8F8F8" height="2" style="stroke:#888888;stroke-width:1.0;" width="4" x="3227.3789" y="1246.7373"/><text fill="#000000" font-family="Verdana" font-size="14" lengthAdjust="spacing" textLength="128.3789" x="3096" y="1269.8125">wgpu::SwapChain</text></g><g id="elem_GMN65"><path d="M1699,529.7373 L1699,587.1353 L1802.6782,587.1353 L1802.6782,539.7373 L1792.6782,529.7373 L1699,529.7373 " fill="#FFFFFF" style="stroke:#000000;stroke-width:1.0;"/><path d="M1792.6782,529.7373 L1792.6782,539.7373 L1802.6782,539.7373 L1792.6782,529.7373 " fill="#FFFFFF" style="stroke:#000000;stroke-width:1.0;"/><text fill="#000000" font-family="Verdana" font-size="13" lengthAdjust="spacing" textLength="66.041" x="1705" y="547.8071">Automatic</text><text fill="#000000" font-family="Verdana" font-size="13" lengthAdjust="spacing" textLength="62.6006" x="1705" y="563.6064">Draw Call</text><text fill="#000000" font-family="Verdana" font-size="13" lengthAdjust="spacing" textLength="82.6782" x="1705" y="579.4058">Optimization</text></g><g id="elem_GMN68"><path d="M2038.5,680.7373 L2038.5,738.1353 L2143.8794,738.1353 L2143.8794,690.7373 L2133.8794,680.7373 L2038.5,680.7373 " fill="#FFFFFF" style="stroke:#000000;stroke-width:1.0;"/><path d="M2133.8794,680.7373 L2133.8794,690.7373 L2143.8794,690.7373 L2133.8794,680.7373 " fill="#FFFFFF" style="stroke:#000000;stroke-width:1.0;"/><text fill="#000000" font-family="Verdana" font-size="13" lengthAdjust="spacing" textLength="66.041" x="2044.5" y="698.8071">Automatic</text><text fill="#000000" font-family="Verdana" font-size="13" lengthAdjust="spacing" textLength="52.4761" x="2044.5" y="714.6064">Memory</text><text fill="#000000" font-family="Verdana" font-size="13" lengthAdjust="spacing" textLength="84.3794" x="2044.5" y="730.4058">Management</text></g><g id="elem_GMN71"><path d="M3281.5,977.7373 L3281.5,1035.1353 L3368.541,1035.1353 L3368.541,987.7373 L3358.541,977.7373 L3281.5,977.7373 " fill="#FFFFFF" style="stroke:#000000;stroke-width:1.0;"/><path d="M3358.541,977.7373 L3358.541,987.7373 L3368.541,987.7373 L3358.541,977.7373 " fill="#FFFFFF" style="stroke:#000000;stroke-width:1.0;"/><text fill="#000000" font-family="Verdana" font-size="13" lengthAdjust="spacing" textLength="66.041" x="3287.5" y="995.8071">Automatic</text><text fill="#000000" font-family="Verdana" font-size="13" lengthAdjust="spacing" textLength="26.9585" x="3287.5" y="1011.6064">PSO</text><text fill="#000000" font-family="Verdana" font-size="13" lengthAdjust="spacing" textLength="51.7778" x="3287.5" y="1027.4058">Caching</text></g><g id="elem_GMN74"><path d="M1838,529.7373 L1838,587.1353 L1949.8286,587.1353 L1949.8286,539.7373 L1939.8286,529.7373 L1838,529.7373 " fill="#FFFFFF" style="stroke:#000000;stroke-width:1.0;"/><path d="M1939.8286,529.7373 L1939.8286,539.7373 L1949.8286,539.7373 L1939.8286,529.7373 " fill="#FFFFFF" style="stroke:#000000;stroke-width:1.0;"/><text fill="#000000" font-family="Verdana" font-size="13" lengthAdjust="spacing" textLength="66.041" x="1844" y="547.8071">Automatic</text><text fill="#000000" font-family="Verdana" font-size="13" lengthAdjust="spacing" textLength="90.8286" x="1844" y="563.6064">Pass Ordering</text><text fill="#000000" font-family="Verdana" font-size="13" lengthAdjust="spacing" textLength="65.4634" x="1844" y="579.4058">&amp; Barriers</text></g><!--link App to Scene--><g id="link_App_Scene"><path d="M499.38,290.0573 C486.84,317.0173 468.6202,356.1669 456.1002,383.0869 " fill="none" id="App-to-Scene" style="stroke:#000000;stroke-width:1.0;"/><polygon fill="#000000" points="453.57,388.5273,460.9923,382.0535,455.6785,383.9936,453.7384,378.6799,453.57,388.5273" style="stroke:#000000;stroke-width:1.0;"/><text fill="#000000" font-family="Verdana" font-size="13" lengthAdjust="spacing" textLength="59.103" x="485" y="333.8071">manages</text></g><!--link Scene to Camera--><g id="link_Scene_Camera"><path d="M401.98,434.9973 C387.85,443.5373 372.46,454.0973 360,465.7373 C337.99,486.2973 321.51,509.8669 309.28,529.6069 " fill="none" id="Scene-to-Camera" style="stroke:#000000;stroke-width:1.0;"/><polygon fill="#000000" points="306.12,534.7073,314.2603,529.1633,308.7533,530.4569,307.4597,524.95,306.12,534.7073" style="stroke:#000000;stroke-width:1.0;"/><text fill="#000000" font-family="Verdana" font-size="13" lengthAdjust="spacing" textLength="54.3867" x="361" y="479.8071">contains</text></g><!--link Scene to Light--><g id="link_Scene_Light"><path d="M435.92,435.8273 C433.2,445.0473 430.22,455.8373 428,465.7373 C422.79,488.9873 419.4238,509.9955 416.8138,528.5955 " fill="none" id="Scene-to-Light" style="stroke:#000000;stroke-width:1.0;"/><polygon fill="#000000" points="415.98,534.5373,421.1918,526.1805,416.6748,529.5858,413.2695,525.0688,415.98,534.5373" style="stroke:#000000;stroke-width:1.0;"/><text fill="#000000" font-family="Verdana" font-size="13" lengthAdjust="spacing" textLength="54.3867" x="429" y="479.8071">contains</text></g><!--link Scene to Material--><g id="link_Scene_Material"><path d="M464.44,435.7873 C472.36,444.7273 481.08,455.3473 488,465.7373 C502.78,487.9373 513.5996,510.0516 522.0396,529.1016 " fill="none" id="Scene-to-Material" style="stroke:#000000;stroke-width:1.0;"/><polygon fill="#000000" points="524.47,534.5873,524.4815,524.7385,522.4447,530.0159,517.1672,527.979,524.47,534.5873" style="stroke:#000000;stroke-width:1.0;"/><text fill="#000000" font-family="Verdana" font-size="13" lengthAdjust="spacing" textLength="29.5166" x="499" y="479.8071">uses</text></g><!--link SceneRenderer to RenderGraph--><g id="link_SceneRenderer_RenderGraph"><path d="M894,436.0573 C894,463.0173 894,501.6073 894,528.5273 " fill="none" id="SceneRenderer-to-RenderGraph" style="stroke:#000000;stroke-width:1.0;"/><polygon fill="#000000" points="894,534.5273,898,525.5273,894,529.5273,890,525.5273,894,534.5273" style="stroke:#000000;stroke-width:1.0;"/><text fill="#000000" font-family="Verdana" font-size="13" lengthAdjust="spacing" textLength="57.8208" x="895" y="479.8071">executes</text></g><!--link SceneRenderer to Culling--><g id="link_SceneRenderer_Culling"><path d="M923.62,435.9073 C935.36,445.0373 948.93,455.7573 961,465.7373 C988.77,488.6873 1015.2979,511.9285 1036.3779,530.6885 " fill="none" id="SceneRenderer-to-Culling" style="stroke:#000000;stroke-width:1.0;"/><polygon fill="#000000" points="1040.86,534.6773,1036.7961,525.706,1037.1249,531.3533,1031.4776,531.6821,1040.86,534.6773" style="stroke:#000000;stroke-width:1.0;"/><text fill="#000000" font-family="Verdana" font-size="13" lengthAdjust="spacing" textLength="29.5166" x="979" y="479.8071">uses</text></g><!--link SceneRenderer to Batching--><g id="link_SceneRenderer_Batching"><path d="M861.7,435.9773 C849.15,445.0273 834.74,455.6673 822,465.7373 C793.43,488.3173 766.3694,511.638 744.9794,530.508 " fill="none" id="SceneRenderer-to-Batching" style="stroke:#000000;stroke-width:1.0;"/><polygon fill="#000000" points="740.48,534.4773,749.8753,531.5229,744.2295,531.1695,744.5829,525.5237,740.48,534.4773" style="stroke:#000000;stroke-width:1.0;"/><text fill="#000000" font-family="Verdana" font-size="13" lengthAdjust="spacing" textLength="62.2388" x="823" y="479.8071">optimizes</text></g><!--link MatSystem to ShaderCache--><g id="link_MatSystem_ShaderCache"><path d="M1522.82,581.8673 C1539.92,609.8773 1565.7637,652.1661 1582.9237,680.2761 " fill="none" id="MatSystem-to-ShaderCache" style="stroke:#000000;stroke-width:1.0;"/><polygon fill="#000000" points="1586.05,685.3973,1584.7747,675.6314,1583.4448,681.1297,1577.9465,679.7997,1586.05,685.3973" style="stroke:#000000;stroke-width:1.0;"/><text fill="#000000" font-family="Verdana" font-size="13" lengthAdjust="spacing" textLength="57.0591" x="1555" y="630.8071">compiles</text></g><!--link MatSystem to TexCache--><g id="link_MatSystem_TexCache"><path d="M1488.12,581.7673 C1479.5,591.8973 1469.93,604.3573 1463,616.7373 C1450.62,638.8373 1443.0819,660.6921 1437.5819,679.7721 " fill="none" id="MatSystem-to-TexCache" style="stroke:#000000;stroke-width:1.0;"/><polygon fill="#000000" points="1435.92,685.5373,1442.2563,677.9974,1437.3049,680.7329,1434.5693,675.7815,1435.92,685.5373" style="stroke:#000000;stroke-width:1.0;"/><text fill="#000000" font-family="Verdana" font-size="13" lengthAdjust="spacing" textLength="68.415" x="1464" y="630.8071">references</text></g><!--link MeshMgr to ResPool--><g id="link_MeshMgr_ResPool"><path d="M1260.7,581.8673 C1260.32,609.8773 1259.759,651.2878 1259.389,679.3978 " fill="none" id="MeshMgr-to-ResPool" style="stroke:#000000;stroke-width:1.0;"/><polygon fill="#000000" points="1259.31,685.3973,1263.4281,676.4507,1259.3758,680.3977,1255.4288,676.3454,1259.31,685.3973" style="stroke:#000000;stroke-width:1.0;"/><text fill="#000000" font-family="Verdana" font-size="13" lengthAdjust="spacing" textLength="57.0527" x="1261" y="630.8071">allocates</text></g><!--link IDevice to CmdBuf--><g id="link_IDevice_CmdBuf"><path d="M1849.19,732.8673 C1838.29,760.8773 1822.0061,802.6958 1811.0661,830.8058 " fill="none" id="IDevice-to-CmdBuf" style="stroke:#000000;stroke-width:1.0;"/><polygon fill="#000000" points="1808.89,836.3973,1815.8818,829.4608,1810.7034,831.7377,1808.4265,826.5594,1808.89,836.3973" style="stroke:#000000;stroke-width:1.0;"/><text fill="#000000" font-family="Verdana" font-size="13" lengthAdjust="spacing" textLength="47.5122" x="1835" y="781.8071">creates</text></g><!--link IDevice to Pipeline--><g id="link_IDevice_Pipeline"><path d="M1873.34,732.8673 C1892.32,760.8773 1921.104,803.3204 1940.154,831.4304 " fill="none" id="IDevice-to-Pipeline" style="stroke:#000000;stroke-width:1.0;"/><polygon fill="#000000" points="1943.52,836.3973,1941.7822,826.703,1940.715,832.2582,1935.1597,831.191,1943.52,836.3973" style="stroke:#000000;stroke-width:1.0;"/><text fill="#000000" font-family="Verdana" font-size="13" lengthAdjust="spacing" textLength="59.103" x="1909" y="781.8071">manages</text></g><!--link CmdBuf to BindGroup--><g id="link_CmdBuf_BindGroup"><path d="M1800,884.0573 C1800,911.0173 1800,949.6073 1800,976.5273 " fill="none" id="CmdBuf-to-BindGroup" style="stroke:#000000;stroke-width:1.0;"/><polygon fill="#000000" points="1800,982.5273,1804,973.5273,1800,977.5273,1796,973.5273,1800,982.5273" style="stroke:#000000;stroke-width:1.0;"/><text fill="#000000" font-family="Verdana" font-size="13" lengthAdjust="spacing" textLength="34.7661" x="1801" y="927.8071">binds</text></g><!--link WGPUDevice to WGPUEncoder--><g id="link_WGPUDevice_WGPUEncoder"><path d="M2448.3,884.0573 C2426.21,911.0173 2393.473,950.9665 2371.413,977.8865 " fill="none" id="WGPUDevice-to-WGPUEncoder" style="stroke:#000000;stroke-width:1.0;"/><polygon fill="#000000" points="2367.61,982.5273,2376.4084,978.1014,2370.7792,978.66,2370.2206,973.0307,2367.61,982.5273" style="stroke:#000000;stroke-width:1.0;"/><text fill="#000000" font-family="Verdana" font-size="13" lengthAdjust="spacing" textLength="47.5122" x="2423" y="927.8071">creates</text></g><!--link WGPUDevice to PipeCache--><g id="link_WGPUDevice_PipeCache"><path d="M2393.26,876.9573 C2342.26,889.5473 2273.8,909.8873 2218,938.7373 C2195.2,950.5273 2176.8042,964.471 2160.2142,978.701 " fill="none" id="WGPUDevice-to-PipeCache" style="stroke:#000000;stroke-width:1.0;"/><polygon fill="#000000" points="2155.66,982.6073,2165.0955,979.7839,2159.4552,979.352,2159.8871,973.7117,2155.66,982.6073" style="stroke:#000000;stroke-width:1.0;"/><text fill="#000000" font-family="Verdana" font-size="13" lengthAdjust="spacing" textLength="44.0972" x="2270" y="927.8071">caches</text></g><!--link WGPUDevice to BGAlloc--><g id="link_WGPUDevice_BGAlloc"><path d="M2485.86,884.0573 C2508.14,911.0173 2541.1685,950.9817 2563.4085,977.9017 " fill="none" id="WGPUDevice-to-BGAlloc" style="stroke:#000000;stroke-width:1.0;"/><polygon fill="#000000" points="2567.23,982.5273,2564.5815,973.0412,2564.0454,978.6726,2558.4141,978.1365,2567.23,982.5273" style="stroke:#000000;stroke-width:1.0;"/><text fill="#000000" font-family="Verdana" font-size="13" lengthAdjust="spacing" textLength="59.103" x="2523" y="927.8071">manages</text></g><!--link WGPUDevice to FrameMgr--><g id="link_WGPUDevice_FrameMgr"><path d="M2540.69,880.5873 C2585.54,893.8373 2643.21,913.5673 2691,938.7373 C2714.03,950.8673 2732.9605,964.7249 2750.2105,978.7949 " fill="none" id="WGPUDevice-to-FrameMgr" style="stroke:#000000;stroke-width:1.0;"/><polygon fill="#000000" points="2754.86,982.5873,2750.414,973.7991,2750.9854,979.427,2745.3575,979.9984,2754.86,982.5873" style="stroke:#000000;stroke-width:1.0;"/><text fill="#000000" font-family="Verdana" font-size="13" lengthAdjust="spacing" textLength="84.2715" x="2674" y="927.8071">synchronizes</text></g><!--link Instance to Device--><g id="link_Instance_Device"><path d="M2986,1029.9473 C2986,1053.0573 2986,1082.6873 2986,1105.7273 " fill="none" id="Instance-to-Device" style="stroke:#000000;stroke-width:1.0;"/><polygon fill="#000000" points="2986,1111.7273,2990,1102.7273,2986,1106.7273,2982,1102.7273,2986,1111.7273" style="stroke:#000000;stroke-width:1.0;"/><text fill="#000000" font-family="Verdana" font-size="13" lengthAdjust="spacing" textLength="47.5122" x="2987" y="1078.8071">creates</text></g><!--link Device to Queue--><g id="link_Device_Queue"><path d="M2984.51,1158.8973 C2983.08,1180.8073 2981.3015,1207.8401 2979.8715,1229.7101 " fill="none" id="Device-to-Queue" style="stroke:#000000;stroke-width:1.0;"/><polygon fill="#000000" points="2979.48,1235.6973,2984.0587,1226.9775,2979.8062,1230.708,2976.0757,1226.4555,2979.48,1235.6973" style="stroke:#000000;stroke-width:1.0;"/><text fill="#000000" font-family="Verdana" font-size="13" lengthAdjust="spacing" textLength="55.415" x="2983" y="1202.8071">provides</text></g><!--link Device to SwapChain--><g id="link_Device_SwapChain"><path d="M3019.25,1158.8973 C3051.4,1180.8073 3094.8819,1210.4483 3126.9719,1232.3183 " fill="none" id="Device-to-SwapChain" style="stroke:#000000;stroke-width:1.0;"/><polygon fill="#000000" points="3131.93,1235.6973,3126.7456,1227.3234,3127.7983,1232.8815,3122.2402,1233.9342,3131.93,1235.6973" style="stroke:#000000;stroke-width:1.0;"/><text fill="#000000" font-family="Verdana" font-size="13" lengthAdjust="spacing" textLength="47.5122" x="3087" y="1202.8071">creates</text></g><!--link GameLogic to App--><g id="link_GameLogic_App"><path d="M510,142.0473 C510,169.4773 510,209.2273 510,236.5873 " fill="none" id="GameLogic-to-App" style="stroke:#000000;stroke-width:1.0;"/><polygon fill="#000000" points="510,242.5873,514,233.5873,510,237.5873,506,233.5873,510,242.5873" style="stroke:#000000;stroke-width:1.0;"/><text fill="#000000" font-family="Verdana" font-size="13" lengthAdjust="spacing" textLength="29.5166" x="511" y="187.8071">uses</text></g><!--link App to SceneRenderer--><g id="link_App_SceneRenderer"><path d="M568.74,289.2673 C640.49,316.1673 755.6121,359.3405 828.0621,386.5105 " fill="none" id="App-to-SceneRenderer" style="stroke:#000000;stroke-width:1.0;"/><polygon fill="#000000" points="833.68,388.6173,826.6576,381.7118,828.9984,386.8616,823.8485,389.2024,833.68,388.6173" style="stroke:#000000;stroke-width:1.0;"/><text fill="#000000" font-family="Verdana" font-size="13" lengthAdjust="spacing" textLength="81.8086" x="691" y="333.8071">renders with</text></g><!--link SceneRenderer to MatSystem--><g id="link_SceneRenderer_MatSystem"><path d="M967.68,420.7973 C1058.25,431.2273 1216.05,453.1573 1347,490.7373 C1386.74,502.1473 1424.5156,517.7194 1456.3156,532.1394 " fill="none" id="SceneRenderer-to-MatSystem" style="stroke:#000000;stroke-width:1.0;"/><polygon fill="#000000" points="1461.78,534.6173,1455.2353,527.2575,1457.2263,532.5524,1451.9314,534.5434,1461.78,534.6173" style="stroke:#000000;stroke-width:1.0;"/><text fill="#000000" font-family="Verdana" font-size="13" lengthAdjust="spacing" textLength="47.7026" x="1312" y="479.8071">queries</text></g><!--link MatSystem to IDevice--><g id="link_MatSystem_IDevice"><path d="M1562.01,581.8673 C1629.99,610.8873 1741.2816,658.412 1805.9716,686.022 " fill="none" id="MatSystem-to-IDevice" style="stroke:#000000;stroke-width:1.0;"/><polygon fill="#000000" points="1811.49,688.3773,1804.7826,681.1655,1806.8913,686.4146,1801.6422,688.5233,1811.49,688.3773" style="stroke:#000000;stroke-width:1.0;"/><text fill="#000000" font-family="Verdana" font-size="13" lengthAdjust="spacing" textLength="59.8267" x="1684" y="630.8071">abstracts</text></g><!--link IDevice to WGPUDevice--><g id="link_IDevice_WGPUDevice"><path d="M1904.55,724.2173 C1937.06,733.7973 1981.53,746.5773 2021,756.7373 C2151.42,790.2973 2298.7856,823.0888 2387.4556,842.2688 " fill="none" id="IDevice-to-WGPUDevice" style="stroke:#000000;stroke-width:1.0;stroke-dasharray:7.0,7.0;"/><polygon fill="#000000" points="2393.32,843.5373,2385.3691,837.725,2388.433,842.4802,2383.6778,845.5441,2393.32,843.5373" style="stroke:#000000;stroke-width:1.0;"/><text fill="#000000" font-family="Verdana" font-size="13" lengthAdjust="spacing" textLength="76.1338" x="2131" y="781.8071">implements</text></g><!--link WGPUDevice to Instance--><g id="link_WGPUDevice_Instance"><path d="M2540.67,866.9973 C2623.3,875.3573 2760.14,894.9473 2870,938.7373 C2899.22,950.3873 2924.9365,965.1184 2947.4465,979.4284 " fill="none" id="WGPUDevice-to-Instance" style="stroke:#000000;stroke-width:1.0;"/><polygon fill="#000000" points="2952.51,982.6473,2947.0608,974.4433,2948.2905,979.9649,2942.7689,981.1946,2952.51,982.6473" style="stroke:#000000;stroke-width:1.0;"/><text fill="#000000" font-family="Verdana" font-size="13" lengthAdjust="spacing" textLength="38.8667" x="2839" y="927.8071">wraps</text></g><!--link Batching to GMN65--><g id="link_Batching_GMN65"><path d="M734.01,534.5373 C754.32,511.3073 788.85,477.3773 827.5,463.2373 C914.95,431.2573 1580.44,425.3573 1665.5,463.2373 C1695.7,476.6873 1719.71,506.6673 1734.5,529.3673 " fill="none" id="Batching-GMN65" style="stroke:#000000;stroke-width:1.0;stroke-dasharray:7.0,7.0;"/></g><!--link ResPool to GMN68--><g id="link_ResPool_GMN68"><path d="M1278.51,685.5273 C1297.28,664.7373 1327.73,635.9773 1361.5,623.7373 C1395.09,611.5673 1971.46,610.1673 2004.5,623.7373 C2032.43,635.2073 2056.15,660.5473 2071.64,680.6773 " fill="none" id="ResPool-GMN68" style="stroke:#000000;stroke-width:1.0;stroke-dasharray:7.0,7.0;"/></g><!--link PipeCache to GMN71--><g id="link_PipeCache_GMN71"><path d="M2148.28,982.5773 C2166.84,959.3773 2198.68,925.4673 2235.5,911.2373 C2287.94,890.9673 3196.71,887.1273 3247.5,911.2373 C3276.15,924.8373 3297.7,954.7873 3310.72,977.4473 " fill="none" id="PipeCache-GMN71" style="stroke:#000000;stroke-width:1.0;stroke-dasharray:7.0,7.0;"/></g><!--link GMN74 to RenderGraph--><g id="link_GMN74_RenderGraph"><path d="M1876.14,529.3273 C1860.24,506.5973 1834.7,476.6073 1803.5,463.2373 C1721.08,427.9173 1079.98,430.4973 996.5,463.2373 C960.13,477.4973 928.97,511.3973 910.85,534.5873 " fill="none" id="GMN74-RenderGraph" style="stroke:#000000;stroke-width:1.0;stroke-dasharray:7.0,7.0;"/></g><!--SRC=[TLPDZzis4BthLx09q9usA88S31y2U1tBNM2twzOjSiZcGCjZYmX5gYHbnmtotpFyaYXAiG6RCtpapBmPpUWNKqC3fEMKYK9_OQAbYZRaGAilPoKxSLnBBXLvNMxiDq5Kiccb067k9z25_Sv2fJg22h35Ob4KXXaEv2CSjhj_YRq9n95Stf8xyaXleE18LgggcO7AT0gAeaK8FGDvjMfRpYfgc1HaBO_mYhpUBCftvO9yAmX-UflaqvPYW8_opAhFX6fYHIVbk7q50iWJ5MYWGOr3E-NJkJ4vUYFGznlQ3Xhju9lrllYUkFa7EzTtZt01JbQx1tIoB3UBpOoJIJpk8fHd_HkSohVN69UYRjylSy0Z-kA3Sgjy-uaQK8noXuY20xaVT8ZStRttjicID8udxVQypkvwoxXTIM6mfF9zP_ddsz4i8ZgDbwTK_esbWPlYx4l39xoSuzBTv-6W1iAY9eTx_LRHjdRWH9vmt76E7knlsa3ZgVQQ77XF3PRj21bL0wKZhrpyYMca0Bv2rPcKun4uc8vSpOEYLKJ9rh26_J-XLSjELMdXXp8joocrCK59NAZoqWGBklQN-YGu-JoX_n_uQf_jDQrgNzseSC8ahJMrtQF79V8qfJwedPGyv5JRzS1zxxKlwk4gLvnDotYWT0oClY5AmGbP5bN4-UX26fqr157E9JxL6UUhWpQALgvv3SKyp_Z31xYmoaSSrfEgb0q-ZSVxxdGALAyRA-Mu7Mi1AyRV5OL9vJ9nt68xRttHHcbWBZZXIz3PiPGfeB5IKq2qaZMCSCuLQBI0a0EknqoD9uChpFbdtWCJhZxsuZmqaBOH5KuFrHy9yi-e6whFQcPhhmzevNCl_UNtMoVdw1879AHFYLU4nyJz394umX8lC-8pOE-XXTd_MLJmAqjG1efE8KhVH5KhAIQD9AJgJvnX5pkEoz_jTvgfwxdjbii7eGqLiQw3C0zDaZgVK0_xguFEezng7hI_qdPTu-Jn7IHAINK7LrpOWO4nomajpX1kjqfUs76wtz-VN86K_OODWhjHhslMQd80SmKGXDjMe8l-1SNTOUTkwF2Z4TntUTk9x5AJApDrCHq1GmTRalywRDzurRYhFVI1qj2PT15rRzwyJwjXILZJSZScT95LIS_TabnnX6aRwQepii5OAtB2-B7FQqA5aCQ7N-0AY78l1VAK3gl-t8lueEWLNomuVn7FVeIvmzdPeUScHv-WaUg6__rioqwbpqXoRhT_VX5MR-UrEy7X5Coa4pezGhKcpyg_eho8Np4OXLHZFdy0]--></g></svg>