<svg xmlns="http://www.w3.org/2000/svg" xmlns:xlink="http://www.w3.org/1999/xlink" contentStyleType="text/css" height="2664px" preserveAspectRatio="none" style="width:1579px;height:2664px;background:#FEFEFE;" version="1.1" viewBox="0 0 1579 2664" width="1579px" zoomAndPan="magnify"><title>Application Mesh Rendering Flow - Simplified API</title><defs/><g><rect fill="#FEFEFE" height="2664" style="stroke:none;stroke-width:1.0;" width="1579" x="0" y="0"/><text fill="#000000" font-family="Verdana" font-size="22" font-weight="bold" lengthAdjust="spacing" textLength="613.0459" x="481.9475" y="37.1182">Application Mesh Rendering Flow - Simplified API</text><rect fill="#FFFFFF" height="2366.7515" style="stroke:#000000;stroke-width:1.0;" width="10" x="174.3857" y="206.3506"/><rect fill="#FFFFFF" height="72.5986" style="stroke:#000000;stroke-width:1.0;" width="10" x="464.3784" y="466.9458"/><rect fill="#FFFFFF" height="72.5986" style="stroke:#000000;stroke-width:1.0;" width="10" x="464.3784" y="642.9424"/><rect fill="#FFFFFF" height="266.3945" style="stroke:#000000;stroke-width:1.0;" width="10" x="464.3784" y="745.3403"/><rect fill="#FFFFFF" height="183.7959" style="stroke:#000000;stroke-width:1.0;" width="10" x="464.3784" y="1041.5342"/><rect fill="#FFFFFF" height="1065.3774" style="stroke:#000000;stroke-width:1.0;" width="10" x="621.2944" y="1366.5273"/><rect fill="#FFFFFF" height="252.5952" style="stroke:#000000;stroke-width:1.0;" width="10" x="794.8433" y="1559.1226"/><rect fill="#FFFFFF" height="238.3945" style="stroke:#000000;stroke-width:1.0;" width="10" x="794.8433" y="1981.7144"/><rect fill="#FFFFFF" height="206.7959" style="stroke:#000000;stroke-width:1.0;" width="10" x="971.894" y="775.1396"/><rect fill="#FFFFFF" height="124.1973" style="stroke:#000000;stroke-width:1.0;" width="10" x="971.894" y="1071.3335"/><rect fill="#FFFFFF" height="200.9966" style="stroke:#000000;stroke-width:1.0;" width="10" x="1185.9263" y="236.1499"/><rect fill="#FFFFFF" height="560.5884" style="stroke:#000000;stroke-width:1.0;" width="10" x="1185.9263" y="1841.5171"/><rect fill="#FFFFFF" height="72.5986" style="stroke:#000000;stroke-width:1.0;" width="10" x="1394.6836" y="2256.9082"/><rect fill="#FFFFFF" height="120.1973" style="stroke:#000000;stroke-width:1.0;" width="384.1235" x="887.4717" y="832.939"/><rect fill="#FFFFFF" height="1155.7754" style="stroke:#000000;stroke-width:1.0;" width="1449.1133" x="113.8276" y="1284.1294"/><rect fill="#FFFFFF" height="285.9932" style="stroke:#000000;stroke-width:1.0;" width="812.834" x="545.9502" y="1942.1157"/><rect fill="#FFFFFF" height="47.5986" style="stroke:#000000;stroke-width:1.0;" width="545.1475" x="726.4478" y="2113.9116"/><line style="stroke:#000000;stroke-width:1.0;" x1="28" x2="28" y1="130.752" y2="2582.1021"/><line style="stroke:#000000;stroke-width:1.0;" x1="178.8276" x2="178.8276" y1="130.752" y2="2582.1021"/><line style="stroke:#000000;stroke-width:1.0;" x1="469.1768" x2="469.1768" y1="130.752" y2="2582.1021"/><line style="stroke:#000000;stroke-width:1.0;" x1="625.9502" x2="625.9502" y1="130.752" y2="2582.1021"/><line style="stroke:#000000;stroke-width:1.0;" x1="799.4478" x2="799.4478" y1="130.752" y2="2582.1021"/><line style="stroke:#000000;stroke-width:1.0;" x1="976.4717" x2="976.4717" y1="130.752" y2="2582.1021"/><line style="stroke:#000000;stroke-width:1.0;" x1="1190.2573" x2="1190.2573" y1="130.752" y2="2582.1021"/><line style="stroke:#000000;stroke-width:1.0;" x1="1398.9111" x2="1398.9111" y1="130.752" y2="2582.1021"/><text fill="#000000" font-family="Verdana" font-size="14" lengthAdjust="spacing" textLength="31.8555" x="10" y="127.8125">User</text><ellipse cx="28.9277" cy="61.7373" fill="#FFFFFF" rx="8" ry="8" style="stroke:#000000;stroke-width:1.0;"/><path d="M28.9277,69.7373 L28.9277,96.7373 M15.9277,77.7373 L41.9277,77.7373 M28.9277,96.7373 L15.9277,111.7373 M28.9277,96.7373 L41.9277,111.7373 " fill="none" style="stroke:#000000;stroke-width:1.0;"/><text fill="#000000" font-family="Verdana" font-size="14" lengthAdjust="spacing" textLength="31.8555" x="10" y="2595.1772">User</text><ellipse cx="28.9277" cy="2607.1167" fill="#FFFFFF" rx="8" ry="8" style="stroke:#000000;stroke-width:1.0;"/><path d="M28.9277,2615.1167 L28.9277,2642.1167 M15.9277,2623.1167 L41.9277,2623.1167 M28.9277,2642.1167 L15.9277,2657.1167 M28.9277,2642.1167 L41.9277,2657.1167 " fill="none" style="stroke:#000000;stroke-width:1.0;"/><rect fill="#F8F8F8" height="31.0146" rx="2.5" ry="2.5" style="stroke:#000000;stroke-width:1.0;" width="91.1162" x="133.8276" y="98.7373"/><text fill="#000000" font-family="Verdana" font-size="14" lengthAdjust="spacing" textLength="77.1162" x="140.8276" y="119.8125">Application</text><rect fill="#F8F8F8" height="31.0146" rx="2.5" ry="2.5" style="stroke:#000000;stroke-width:1.0;" width="91.1162" x="133.8276" y="2581.1021"/><text fill="#000000" font-family="Verdana" font-size="14" lengthAdjust="spacing" textLength="77.1162" x="140.8276" y="2602.1772">Application</text><rect fill="#F8F8F8" height="31.0146" rx="2.5" ry="2.5" style="stroke:#000000;stroke-width:1.0;" width="56.4033" x="441.1768" y="98.7373"/><text fill="#000000" font-family="Verdana" font-size="14" lengthAdjust="spacing" textLength="42.4033" x="448.1768" y="119.8125">Scene</text><rect fill="#F8F8F8" height="31.0146" rx="2.5" ry="2.5" style="stroke:#000000;stroke-width:1.0;" width="56.4033" x="441.1768" y="2581.1021"/><text fill="#000000" font-family="Verdana" font-size="14" lengthAdjust="spacing" textLength="42.4033" x="448.1768" y="2602.1772">Scene</text><rect fill="#F8F8F8" height="31.0146" rx="2.5" ry="2.5" style="stroke:#000000;stroke-width:1.0;" width="120.6885" x="565.9502" y="98.7373"/><text fill="#000000" font-family="Verdana" font-size="14" lengthAdjust="spacing" textLength="106.6885" x="572.9502" y="119.8125">SceneRenderer</text><rect fill="#F8F8F8" height="31.0146" rx="2.5" ry="2.5" style="stroke:#000000;stroke-width:1.0;" width="120.6885" x="565.9502" y="2581.1021"/><text fill="#000000" font-family="Verdana" font-size="14" lengthAdjust="spacing" textLength="106.6885" x="572.9502" y="2602.1772">SceneRenderer</text><rect fill="#F8F8F8" height="31.0146" rx="2.5" ry="2.5" style="stroke:#000000;stroke-width:1.0;" width="106.791" x="746.4478" y="98.7373"/><text fill="#000000" font-family="Verdana" font-size="14" lengthAdjust="spacing" textLength="92.791" x="753.4478" y="119.8125">RenderGraph</text><rect fill="#F8F8F8" height="31.0146" rx="2.5" ry="2.5" style="stroke:#000000;stroke-width:1.0;" width="106.791" x="746.4478" y="2581.1021"/><text fill="#000000" font-family="Verdana" font-size="14" lengthAdjust="spacing" textLength="92.791" x="753.4478" y="2602.1772">RenderGraph</text><rect fill="#F8F8F8" height="31.0146" rx="2.5" ry="2.5" style="stroke:#000000;stroke-width:1.0;" width="138.8447" x="907.4717" y="98.7373"/><text fill="#000000" font-family="Verdana" font-size="14" lengthAdjust="spacing" textLength="124.8447" x="914.4717" y="119.8125">ResourceManager</text><rect fill="#F8F8F8" height="31.0146" rx="2.5" ry="2.5" style="stroke:#000000;stroke-width:1.0;" width="138.8447" x="907.4717" y="2581.1021"/><text fill="#000000" font-family="Verdana" font-size="14" lengthAdjust="spacing" textLength="124.8447" x="914.4717" y="2602.1772">ResourceManager</text><rect fill="#F8F8F8" height="31.0146" rx="2.5" ry="2.5" style="stroke:#000000;stroke-width:1.0;" width="121.3379" x="1130.2573" y="98.7373"/><text fill="#000000" font-family="Verdana" font-size="14" lengthAdjust="spacing" textLength="107.3379" x="1137.2573" y="119.8125">WebGPUDevice</text><rect fill="#F8F8F8" height="31.0146" rx="2.5" ry="2.5" style="stroke:#000000;stroke-width:1.0;" width="121.3379" x="1130.2573" y="2581.1021"/><text fill="#000000" font-family="Verdana" font-size="14" lengthAdjust="spacing" textLength="107.3379" x="1137.2573" y="2602.1772">WebGPUDevice</text><rect fill="#F8F8F8" height="31.0146" rx="2.5" ry="2.5" style="stroke:#000000;stroke-width:1.0;" width="43.5449" x="1377.9111" y="98.7373"/><text fill="#000000" font-family="Verdana" font-size="14" lengthAdjust="spacing" textLength="29.5449" x="1384.9111" y="119.8125">GPU</text><rect fill="#F8F8F8" height="31.0146" rx="2.5" ry="2.5" style="stroke:#000000;stroke-width:1.0;" width="43.5449" x="1377.9111" y="2581.1021"/><text fill="#000000" font-family="Verdana" font-size="14" lengthAdjust="spacing" textLength="29.5449" x="1384.9111" y="2602.1772">GPU</text><rect fill="#FFFFFF" height="2366.7515" style="stroke:#000000;stroke-width:1.0;" width="10" x="174.3857" y="206.3506"/><rect fill="#FFFFFF" height="72.5986" style="stroke:#000000;stroke-width:1.0;" width="10" x="464.3784" y="466.9458"/><rect fill="#FFFFFF" height="72.5986" style="stroke:#000000;stroke-width:1.0;" width="10" x="464.3784" y="642.9424"/><rect fill="#FFFFFF" height="266.3945" style="stroke:#000000;stroke-width:1.0;" width="10" x="464.3784" y="745.3403"/><rect fill="#FFFFFF" height="183.7959" style="stroke:#000000;stroke-width:1.0;" width="10" x="464.3784" y="1041.5342"/><rect fill="#FFFFFF" height="1065.3774" style="stroke:#000000;stroke-width:1.0;" width="10" x="621.2944" y="1366.5273"/><rect fill="#FFFFFF" height="252.5952" style="stroke:#000000;stroke-width:1.0;" width="10" x="794.8433" y="1559.1226"/><rect fill="#FFFFFF" height="238.3945" style="stroke:#000000;stroke-width:1.0;" width="10" x="794.8433" y="1981.7144"/><rect fill="#FFFFFF" height="206.7959" style="stroke:#000000;stroke-width:1.0;" width="10" x="971.894" y="775.1396"/><rect fill="#FFFFFF" height="124.1973" style="stroke:#000000;stroke-width:1.0;" width="10" x="971.894" y="1071.3335"/><rect fill="#FFFFFF" height="200.9966" style="stroke:#000000;stroke-width:1.0;" width="10" x="1185.9263" y="236.1499"/><rect fill="#FFFFFF" height="560.5884" style="stroke:#000000;stroke-width:1.0;" width="10" x="1185.9263" y="1841.5171"/><rect fill="#FFFFFF" height="72.5986" style="stroke:#000000;stroke-width:1.0;" width="10" x="1394.6836" y="2256.9082"/><rect fill="#FFFFFF" height="3" style="stroke:#FFFFFF;stroke-width:1.0;" width="1567.9409" x="5" y="161.6516"/><line style="stroke:#000000;stroke-width:0.5;" x1="5" x2="1572.9409" y1="161.6516" y2="161.6516"/><line style="stroke:#000000;stroke-width:0.5;" x1="5" x2="1572.9409" y1="164.6516" y2="164.6516"/><rect fill="#FFFFFF" height="23.7993" style="stroke:#000000;stroke-width:1.0;" width="167.3403" x="705.3003" y="150.752"/><text fill="#000000" font-family="Verdana" font-size="13" font-weight="bold" lengthAdjust="spacing" textLength="148.897" x="711.3003" y="167.8218">Initialization (Once)</text><polygon fill="#666666" points="162.3857,202.3506,172.3857,206.3506,162.3857,210.3506,166.3857,206.3506" style="stroke:#666666;stroke-width:1.0;"/><line style="stroke:#666666;stroke-width:1.0;" x1="28.9277" x2="168.3857" y1="206.3506" y2="206.3506"/><text fill="#000000" font-family="Verdana" font-size="13" lengthAdjust="spacing" textLength="126.458" x="35.9277" y="201.6211">CreateApplication()</text><polygon fill="#666666" points="1173.9263,232.1499,1183.9263,236.1499,1173.9263,240.1499,1177.9263,236.1499" style="stroke:#666666;stroke-width:1.0;"/><line style="stroke:#666666;stroke-width:1.0;" x1="184.3857" x2="1179.9263" y1="236.1499" y2="236.1499"/><text fill="#000000" font-family="Verdana" font-size="13" lengthAdjust="spacing" textLength="67.2788" x="191.3857" y="231.4204">Initialize()</text><line style="stroke:#666666;stroke-width:1.0;" x1="1195.9263" x2="1237.9263" y1="265.9492" y2="265.9492"/><line style="stroke:#666666;stroke-width:1.0;" x1="1237.9263" x2="1237.9263" y1="265.9492" y2="278.9492"/><line style="stroke:#666666;stroke-width:1.0;" x1="1196.9263" x2="1237.9263" y1="278.9492" y2="278.9492"/><polygon fill="#666666" points="1206.9263,274.9492,1196.9263,278.9492,1206.9263,282.9492,1202.9263,278.9492" style="stroke:#666666;stroke-width:1.0;"/><text fill="#000000" font-family="Verdana" font-size="13" lengthAdjust="spacing" textLength="110.9951" x="1202.9263" y="261.2197">CreateInstance()</text><line style="stroke:#666666;stroke-width:1.0;" x1="1195.9263" x2="1237.9263" y1="308.7485" y2="308.7485"/><line style="stroke:#666666;stroke-width:1.0;" x1="1237.9263" x2="1237.9263" y1="308.7485" y2="321.7485"/><line style="stroke:#666666;stroke-width:1.0;" x1="1196.9263" x2="1237.9263" y1="321.7485" y2="321.7485"/><polygon fill="#666666" points="1206.9263,317.7485,1196.9263,321.7485,1206.9263,325.7485,1202.9263,321.7485" style="stroke:#666666;stroke-width:1.0;"/><text fill="#000000" font-family="Verdana" font-size="13" lengthAdjust="spacing" textLength="115.8638" x="1202.9263" y="304.019">RequestAdapter()</text><line style="stroke:#666666;stroke-width:1.0;" x1="1195.9263" x2="1237.9263" y1="351.5479" y2="351.5479"/><line style="stroke:#666666;stroke-width:1.0;" x1="1237.9263" x2="1237.9263" y1="351.5479" y2="364.5479"/><line style="stroke:#666666;stroke-width:1.0;" x1="1196.9263" x2="1237.9263" y1="364.5479" y2="364.5479"/><polygon fill="#666666" points="1206.9263,360.5479,1196.9263,364.5479,1206.9263,368.5479,1202.9263,364.5479" style="stroke:#666666;stroke-width:1.0;"/><text fill="#000000" font-family="Verdana" font-size="13" lengthAdjust="spacing" textLength="98.3887" x="1202.9263" y="346.8184">CreateDevice()</text><line style="stroke:#666666;stroke-width:1.0;" x1="1195.9263" x2="1237.9263" y1="394.3472" y2="394.3472"/><line style="stroke:#666666;stroke-width:1.0;" x1="1237.9263" x2="1237.9263" y1="394.3472" y2="407.3472"/><line style="stroke:#666666;stroke-width:1.0;" x1="1196.9263" x2="1237.9263" y1="407.3472" y2="407.3472"/><polygon fill="#666666" points="1206.9263,403.3472,1196.9263,407.3472,1206.9263,411.3472,1202.9263,407.3472" style="stroke:#666666;stroke-width:1.0;"/><text fill="#000000" font-family="Verdana" font-size="13" lengthAdjust="spacing" textLength="127.188" x="1202.9263" y="389.6177">CreateSwapChain()</text><polygon fill="#666666" points="195.3857,433.1465,185.3857,437.1465,195.3857,441.1465,191.3857,437.1465" style="stroke:#666666;stroke-width:1.0;"/><line style="stroke:#666666;stroke-width:1.0;stroke-dasharray:2.0,2.0;" x1="189.3857" x2="1189.9263" y1="437.1465" y2="437.1465"/><text fill="#000000" font-family="Verdana" font-size="13" lengthAdjust="spacing" textLength="40.3838" x="201.3857" y="432.417">Ready</text><polygon fill="#666666" points="452.3784,462.9458,462.3784,466.9458,452.3784,470.9458,456.3784,466.9458" style="stroke:#666666;stroke-width:1.0;"/><line style="stroke:#666666;stroke-width:1.0;" x1="184.3857" x2="458.3784" y1="466.9458" y2="466.9458"/><text fill="#000000" font-family="Verdana" font-size="13" lengthAdjust="spacing" textLength="94.2246" x="191.3857" y="462.2163">CreateScene()</text><line style="stroke:#666666;stroke-width:1.0;" x1="474.3784" x2="516.3784" y1="496.7451" y2="496.7451"/><line style="stroke:#666666;stroke-width:1.0;" x1="516.3784" x2="516.3784" y1="496.7451" y2="509.7451"/><line style="stroke:#666666;stroke-width:1.0;" x1="475.3784" x2="516.3784" y1="509.7451" y2="509.7451"/><polygon fill="#666666" points="485.3784,505.7451,475.3784,509.7451,485.3784,513.7451,481.3784,509.7451" style="stroke:#666666;stroke-width:1.0;"/><text fill="#000000" font-family="Verdana" font-size="13" lengthAdjust="spacing" textLength="122.916" x="481.3784" y="492.0156">InitializeSystems()</text><polygon fill="#666666" points="195.3857,535.5444,185.3857,539.5444,195.3857,543.5444,191.3857,539.5444" style="stroke:#666666;stroke-width:1.0;"/><line style="stroke:#666666;stroke-width:1.0;stroke-dasharray:2.0,2.0;" x1="189.3857" x2="468.3784" y1="539.5444" y2="539.5444"/><text fill="#000000" font-family="Verdana" font-size="13" lengthAdjust="spacing" textLength="47.6392" x="201.3857" y="534.8149">Scene*</text><polygon fill="#666666" points="39.9277,565.3438,29.9277,569.3438,39.9277,573.3438,35.9277,569.3438" style="stroke:#666666;stroke-width:1.0;"/><line style="stroke:#666666;stroke-width:1.0;stroke-dasharray:2.0,2.0;" x1="33.9277" x2="173.3857" y1="569.3438" y2="569.3438"/><text fill="#000000" font-family="Verdana" font-size="13" lengthAdjust="spacing" textLength="116.562" x="45.9277" y="564.6143">Application Ready</text><rect fill="#FFFFFF" height="3" style="stroke:#FFFFFF;stroke-width:1.0;" width="1567.9409" x="5" y="598.2434"/><line style="stroke:#000000;stroke-width:0.5;" x1="5" x2="1572.9409" y1="598.2434" y2="598.2434"/><line style="stroke:#000000;stroke-width:0.5;" x1="5" x2="1572.9409" y1="601.2434" y2="601.2434"/><rect fill="#FFFFFF" height="23.7993" style="stroke:#000000;stroke-width:1.0;" width="241.2905" x="668.3252" y="587.3438"/><text fill="#000000" font-family="Verdana" font-size="13" font-weight="bold" lengthAdjust="spacing" textLength="222.8472" x="674.3252" y="604.4136">Content Creation (Simple API)</text><polygon fill="#666666" points="452.3784,638.9424,462.3784,642.9424,452.3784,646.9424,456.3784,642.9424" style="stroke:#666666;stroke-width:1.0;"/><line style="stroke:#666666;stroke-width:1.0;" x1="28.9277" x2="458.3784" y1="642.9424" y2="642.9424"/><text fill="#000000" font-family="Verdana" font-size="13" lengthAdjust="spacing" textLength="137.8838" x="35.9277" y="638.2129">CreateEntity("Cube")</text><line style="stroke:#666666;stroke-width:1.0;" x1="474.3784" x2="516.3784" y1="672.7417" y2="672.7417"/><line style="stroke:#666666;stroke-width:1.0;" x1="516.3784" x2="516.3784" y1="672.7417" y2="685.7417"/><line style="stroke:#666666;stroke-width:1.0;" x1="475.3784" x2="516.3784" y1="685.7417" y2="685.7417"/><polygon fill="#666666" points="485.3784,681.7417,475.3784,685.7417,485.3784,689.7417,481.3784,685.7417" style="stroke:#666666;stroke-width:1.0;"/><text fill="#000000" font-family="Verdana" font-size="13" lengthAdjust="spacing" textLength="101.1182" x="481.3784" y="668.0122">AllocateEntity()</text><polygon fill="#666666" points="39.9277,711.541,29.9277,715.541,39.9277,719.541,35.9277,715.541" style="stroke:#666666;stroke-width:1.0;"/><line style="stroke:#666666;stroke-width:1.0;stroke-dasharray:2.0,2.0;" x1="33.9277" x2="468.3784" y1="715.541" y2="715.541"/><text fill="#000000" font-family="Verdana" font-size="13" lengthAdjust="spacing" textLength="46.2173" x="45.9277" y="710.8115">Entity*</text><polygon fill="#666666" points="452.3784,741.3403,462.3784,745.3403,452.3784,749.3403,456.3784,745.3403" style="stroke:#666666;stroke-width:1.0;"/><line style="stroke:#666666;stroke-width:1.0;" x1="28.9277" x2="458.3784" y1="745.3403" y2="745.3403"/><text fill="#000000" font-family="Verdana" font-size="13" lengthAdjust="spacing" textLength="416.4507" x="35.9277" y="740.6108">entity-&gt;AddComponent&lt;MeshRenderer&gt;(PrimitiveMesh::Cube)</text><polygon fill="#666666" points="959.894,771.1396,969.894,775.1396,959.894,779.1396,963.894,775.1396" style="stroke:#666666;stroke-width:1.0;"/><line style="stroke:#666666;stroke-width:1.0;" x1="474.3784" x2="965.894" y1="775.1396" y2="775.1396"/><text fill="#000000" font-family="Verdana" font-size="13" lengthAdjust="spacing" textLength="160.4243" x="481.3784" y="770.4102">GetOrCreateMesh(Cube)</text><line style="stroke:#666666;stroke-width:1.0;" x1="981.894" x2="1023.894" y1="804.939" y2="804.939"/><line style="stroke:#666666;stroke-width:1.0;" x1="1023.894" x2="1023.894" y1="804.939" y2="817.939"/><line style="stroke:#666666;stroke-width:1.0;" x1="982.894" x2="1023.894" y1="817.939" y2="817.939"/><polygon fill="#666666" points="992.894,813.939,982.894,817.939,992.894,821.939,988.894,817.939" style="stroke:#666666;stroke-width:1.0;"/><text fill="#000000" font-family="Verdana" font-size="13" lengthAdjust="spacing" textLength="90.9492" x="988.894" y="800.2095">CheckCache()</text><path d="M887.4717,832.939 L951.521,832.939 L951.521,840.7383 L941.521,850.7383 L887.4717,850.7383 L887.4717,832.939 " fill="#FFFFFF" style="stroke:#000000;stroke-width:1.0;"/><rect fill="none" height="120.1973" style="stroke:#000000;stroke-width:1.0;" width="384.1235" x="887.4717" y="832.939"/><text fill="#000000" font-family="Verdana" font-size="13" font-weight="bold" lengthAdjust="spacing" textLength="19.0493" x="902.4717" y="847.0088">alt</text><text fill="#000000" font-family="Verdana" font-size="11" font-weight="bold" lengthAdjust="spacing" textLength="88.3813" x="966.521" y="845.998">[Not in cache]</text><line style="stroke:#666666;stroke-width:1.0;" x1="981.894" x2="1023.894" y1="872.5376" y2="872.5376"/><line style="stroke:#666666;stroke-width:1.0;" x1="1023.894" x2="1023.894" y1="872.5376" y2="885.5376"/><line style="stroke:#666666;stroke-width:1.0;" x1="982.894" x2="1023.894" y1="885.5376" y2="885.5376"/><polygon fill="#666666" points="992.894,881.5376,982.894,885.5376,992.894,889.5376,988.894,885.5376" style="stroke:#666666;stroke-width:1.0;"/><text fill="#000000" font-family="Verdana" font-size="13" lengthAdjust="spacing" textLength="169.438" x="988.894" y="867.8081">GenerateCubeGeometry()</text><polygon fill="#666666" points="1178.9263,911.3369,1188.9263,915.3369,1178.9263,919.3369,1182.9263,915.3369" style="stroke:#666666;stroke-width:1.0;"/><line style="stroke:#666666;stroke-width:1.0;" x1="981.894" x2="1184.9263" y1="915.3369" y2="915.3369"/><text fill="#000000" font-family="Verdana" font-size="13" lengthAdjust="spacing" textLength="137.1602" x="988.894" y="910.6074">CreateVertexBuffer()</text><polygon fill="#666666" points="1178.9263,941.1362,1188.9263,945.1362,1178.9263,949.1362,1182.9263,945.1362" style="stroke:#666666;stroke-width:1.0;"/><line style="stroke:#666666;stroke-width:1.0;" x1="981.894" x2="1184.9263" y1="945.1362" y2="945.1362"/><text fill="#000000" font-family="Verdana" font-size="13" lengthAdjust="spacing" textLength="131.6567" x="988.894" y="940.4067">CreateIndexBuffer()</text><polygon fill="#666666" points="485.3784,977.9355,475.3784,981.9355,485.3784,985.9355,481.3784,981.9355" style="stroke:#666666;stroke-width:1.0;"/><line style="stroke:#666666;stroke-width:1.0;stroke-dasharray:2.0,2.0;" x1="479.3784" x2="975.894" y1="981.9355" y2="981.9355"/><text fill="#000000" font-family="Verdana" font-size="13" lengthAdjust="spacing" textLength="78.9141" x="491.3784" y="977.2061">MeshHandle</text><polygon fill="#666666" points="39.9277,1007.7349,29.9277,1011.7349,39.9277,1015.7349,35.9277,1011.7349" style="stroke:#666666;stroke-width:1.0;"/><line style="stroke:#666666;stroke-width:1.0;stroke-dasharray:2.0,2.0;" x1="33.9277" x2="468.3784" y1="1011.7349" y2="1011.7349"/><text fill="#000000" font-family="Verdana" font-size="13" lengthAdjust="spacing" textLength="101.6577" x="45.9277" y="1007.0054">MeshRenderer*</text><polygon fill="#666666" points="452.3784,1037.5342,462.3784,1041.5342,452.3784,1045.5342,456.3784,1041.5342" style="stroke:#666666;stroke-width:1.0;"/><line style="stroke:#666666;stroke-width:1.0;" x1="28.9277" x2="458.3784" y1="1041.5342" y2="1041.5342"/><text fill="#000000" font-family="Verdana" font-size="13" lengthAdjust="spacing" textLength="196.771" x="35.9277" y="1036.8047">entity-&gt;SetMaterial("default")</text><polygon fill="#666666" points="959.894,1067.3335,969.894,1071.3335,959.894,1075.3335,963.894,1071.3335" style="stroke:#666666;stroke-width:1.0;"/><line style="stroke:#666666;stroke-width:1.0;" x1="474.3784" x2="965.894" y1="1071.3335" y2="1071.3335"/><text fill="#000000" font-family="Verdana" font-size="13" lengthAdjust="spacing" textLength="202.7695" x="481.3784" y="1066.604">GetOrCreateMaterial("default")</text><line style="stroke:#666666;stroke-width:1.0;" x1="981.894" x2="1023.894" y1="1101.1328" y2="1101.1328"/><line style="stroke:#666666;stroke-width:1.0;" x1="1023.894" x2="1023.894" y1="1101.1328" y2="1114.1328"/><line style="stroke:#666666;stroke-width:1.0;" x1="982.894" x2="1023.894" y1="1114.1328" y2="1114.1328"/><polygon fill="#666666" points="992.894,1110.1328,982.894,1114.1328,992.894,1118.1328,988.894,1114.1328" style="stroke:#666666;stroke-width:1.0;"/><text fill="#000000" font-family="Verdana" font-size="13" lengthAdjust="spacing" textLength="180.0322" x="988.894" y="1096.4033">LoadShader("default.wgsl")</text><polygon fill="#666666" points="1178.9263,1150.8318,1188.9263,1154.8318,1178.9263,1158.8318,1182.9263,1154.8318" style="stroke:#666666;stroke-width:1.0;"/><line style="stroke:#666666;stroke-width:1.0;" x1="981.894" x2="1184.9263" y1="1154.8318" y2="1154.8318"/><text fill="#000000" font-family="Verdana" font-size="13" lengthAdjust="spacing" textLength="105.2061" x="988.894" y="1150.1023">CreatePipeline()</text><path d="M1195,1127.1328 L1195,1168.1328 L1370,1168.1328 L1370,1137.1328 L1360,1127.1328 L1195,1127.1328 " fill="#FFFFFF" style="stroke:#000000;stroke-width:1.0;"/><path d="M1360,1127.1328 L1360,1137.1328 L1370,1137.1328 L1360,1127.1328 " fill="#FFFFFF" style="stroke:#000000;stroke-width:1.0;"/><text fill="#000000" font-family="Verdana" font-size="13" lengthAdjust="spacing" textLength="154.8193" x="1201" y="1145.2026">Automatic PSO creation</text><text fill="#000000" font-family="Verdana" font-size="13" lengthAdjust="spacing" textLength="78.1777" x="1201" y="1161.002">and caching</text><polygon fill="#666666" points="485.3784,1191.5308,475.3784,1195.5308,485.3784,1199.5308,481.3784,1195.5308" style="stroke:#666666;stroke-width:1.0;"/><line style="stroke:#666666;stroke-width:1.0;stroke-dasharray:2.0,2.0;" x1="479.3784" x2="975.894" y1="1195.5308" y2="1195.5308"/><text fill="#000000" font-family="Verdana" font-size="13" lengthAdjust="spacing" textLength="97.335" x="491.3784" y="1190.8013">MaterialHandle</text><polygon fill="#666666" points="39.9277,1221.3301,29.9277,1225.3301,39.9277,1229.3301,35.9277,1225.3301" style="stroke:#666666;stroke-width:1.0;"/><line style="stroke:#666666;stroke-width:1.0;stroke-dasharray:2.0,2.0;" x1="33.9277" x2="468.3784" y1="1225.3301" y2="1225.3301"/><text fill="#000000" font-family="Verdana" font-size="13" lengthAdjust="spacing" textLength="33.8774" x="45.9277" y="1220.6006">Done</text><rect fill="#FFFFFF" height="3" style="stroke:#FFFFFF;stroke-width:1.0;" width="1567.9409" x="5" y="1254.2297"/><line style="stroke:#000000;stroke-width:0.5;" x1="5" x2="1572.9409" y1="1254.2297" y2="1254.2297"/><line style="stroke:#000000;stroke-width:0.5;" x1="5" x2="1572.9409" y1="1257.2297" y2="1257.2297"/><rect fill="#FFFFFF" height="23.7993" style="stroke:#000000;stroke-width:1.0;" width="237.1455" x="670.3977" y="1243.3301"/><text fill="#000000" font-family="Verdana" font-size="13" font-weight="bold" lengthAdjust="spacing" textLength="218.7021" x="676.3977" y="1260.3999">Frame Rendering (Automatic)</text><path d="M113.8276,1284.1294 L190.2104,1284.1294 L190.2104,1291.9287 L180.2104,1301.9287 L113.8276,1301.9287 L113.8276,1284.1294 " fill="#FFFFFF" style="stroke:#000000;stroke-width:1.0;"/><rect fill="none" height="1155.7754" style="stroke:#000000;stroke-width:1.0;" width="1449.1133" x="113.8276" y="1284.1294"/><text fill="#000000" font-family="Verdana" font-size="13" font-weight="bold" lengthAdjust="spacing" textLength="31.3828" x="128.8276" y="1298.1992">loop</text><text fill="#000000" font-family="Verdana" font-size="11" font-weight="bold" lengthAdjust="spacing" textLength="89.2246" x="205.2104" y="1297.1885">[Every Frame]</text><line style="stroke:#666666;stroke-width:1.0;" x1="184.3857" x2="226.3857" y1="1323.728" y2="1323.728"/><line style="stroke:#666666;stroke-width:1.0;" x1="226.3857" x2="226.3857" y1="1323.728" y2="1336.728"/><line style="stroke:#666666;stroke-width:1.0;" x1="185.3857" x2="226.3857" y1="1336.728" y2="1336.728"/><polygon fill="#666666" points="195.3857,1332.728,185.3857,1336.728,195.3857,1340.728,191.3857,1336.728" style="stroke:#666666;stroke-width:1.0;"/><text fill="#000000" font-family="Verdana" font-size="13" lengthAdjust="spacing" textLength="122.5034" x="191.3857" y="1318.9985">Update(deltaTime)</text><polygon fill="#666666" points="609.2944,1362.5273,619.2944,1366.5273,609.2944,1370.5273,613.2944,1366.5273" style="stroke:#666666;stroke-width:1.0;"/><line style="stroke:#666666;stroke-width:1.0;" x1="184.3857" x2="615.2944" y1="1366.5273" y2="1366.5273"/><text fill="#000000" font-family="Verdana" font-size="13" lengthAdjust="spacing" textLength="134.8433" x="191.3857" y="1361.7979">RenderScene(scene)</text><polygon fill="#666666" points="480.3784,1392.3267,470.3784,1396.3267,480.3784,1400.3267,476.3784,1396.3267" style="stroke:#666666;stroke-width:1.0;"/><line style="stroke:#666666;stroke-width:1.0;" x1="474.3784" x2="620.2944" y1="1396.3267" y2="1396.3267"/><text fill="#000000" font-family="Verdana" font-size="13" lengthAdjust="spacing" textLength="115.1465" x="486.3784" y="1391.5972">GetRenderables()</text><polygon fill="#666666" points="609.2944,1422.126,619.2944,1426.126,609.2944,1430.126,613.2944,1426.126" style="stroke:#666666;stroke-width:1.0;"/><line style="stroke:#666666;stroke-width:1.0;stroke-dasharray:2.0,2.0;" x1="469.3784" x2="615.2944" y1="1426.126" y2="1426.126"/><text fill="#000000" font-family="Verdana" font-size="13" lengthAdjust="spacing" textLength="60.6519" x="476.3784" y="1421.3965">EntityList</text><line style="stroke:#666666;stroke-width:1.0;" x1="631.2944" x2="673.2944" y1="1460.325" y2="1460.325"/><line style="stroke:#666666;stroke-width:1.0;" x1="673.2944" x2="673.2944" y1="1460.325" y2="1473.325"/><line style="stroke:#666666;stroke-width:1.0;" x1="632.2944" x2="673.2944" y1="1473.325" y2="1473.325"/><polygon fill="#666666" points="642.2944,1469.325,632.2944,1473.325,642.2944,1477.325,638.2944,1473.325" style="stroke:#666666;stroke-width:1.0;"/><text fill="#000000" font-family="Verdana" font-size="13" lengthAdjust="spacing" textLength="107.9229" x="638.2944" y="1455.5955">PerformCulling()</text><path d="M767.9229,1439.126 L767.9229,1480.126 L922.9229,1480.126 L922.9229,1449.126 L912.9229,1439.126 L767.9229,1439.126 " fill="#FFFFFF" style="stroke:#000000;stroke-width:1.0;"/><path d="M912.9229,1439.126 L912.9229,1449.126 L922.9229,1449.126 L912.9229,1439.126 " fill="#FFFFFF" style="stroke:#000000;stroke-width:1.0;"/><text fill="#000000" font-family="Verdana" font-size="13" lengthAdjust="spacing" textLength="121.7227" x="773.9229" y="1457.1958">Automatic frustum</text><text fill="#000000" font-family="Verdana" font-size="13" lengthAdjust="spacing" textLength="134.9893" x="773.9229" y="1472.9951">and occlusion culling</text><line style="stroke:#666666;stroke-width:1.0;" x1="631.2944" x2="673.2944" y1="1511.9236" y2="1511.9236"/><line style="stroke:#666666;stroke-width:1.0;" x1="673.2944" x2="673.2944" y1="1511.9236" y2="1524.9236"/><line style="stroke:#666666;stroke-width:1.0;" x1="632.2944" x2="673.2944" y1="1524.9236" y2="1524.9236"/><polygon fill="#666666" points="642.2944,1520.9236,632.2944,1524.9236,642.2944,1528.9236,638.2944,1524.9236" style="stroke:#666666;stroke-width:1.0;"/><text fill="#000000" font-family="Verdana" font-size="13" lengthAdjust="spacing" textLength="101.3086" x="638.2944" y="1507.1941">SortAndBatch()</text><path d="M761.3086,1490.7246 L761.3086,1531.7246 L908.3086,1531.7246 L908.3086,1500.7246 L898.3086,1490.7246 L761.3086,1490.7246 " fill="#FFFFFF" style="stroke:#000000;stroke-width:1.0;"/><path d="M898.3086,1490.7246 L898.3086,1500.7246 L908.3086,1500.7246 L898.3086,1490.7246 " fill="#FFFFFF" style="stroke:#000000;stroke-width:1.0;"/><text fill="#000000" font-family="Verdana" font-size="13" lengthAdjust="spacing" textLength="126.5342" x="767.3086" y="1508.7944">Automatic batching</text><text fill="#000000" font-family="Verdana" font-size="13" lengthAdjust="spacing" textLength="95.0942" x="767.3086" y="1524.5938">and instancing</text><polygon fill="#666666" points="782.8433,1555.1226,792.8433,1559.1226,782.8433,1563.1226,786.8433,1559.1226" style="stroke:#666666;stroke-width:1.0;"/><line style="stroke:#666666;stroke-width:1.0;" x1="631.2944" x2="788.8433" y1="1559.1226" y2="1559.1226"/><text fill="#000000" font-family="Verdana" font-size="13" lengthAdjust="spacing" textLength="83.9414" x="638.2944" y="1554.3931">BuildGraph()</text><line style="stroke:#666666;stroke-width:1.0;" x1="804.8433" x2="846.8433" y1="1588.9219" y2="1588.9219"/><line style="stroke:#666666;stroke-width:1.0;" x1="846.8433" x2="846.8433" y1="1588.9219" y2="1601.9219"/><line style="stroke:#666666;stroke-width:1.0;" x1="805.8433" x2="846.8433" y1="1601.9219" y2="1601.9219"/><polygon fill="#666666" points="815.8433,1597.9219,805.8433,1601.9219,815.8433,1605.9219,811.8433,1601.9219" style="stroke:#666666;stroke-width:1.0;"/><text fill="#000000" font-family="Verdana" font-size="13" lengthAdjust="spacing" textLength="117.6348" x="811.8433" y="1584.1924">AddShadowPass()</text><line style="stroke:#666666;stroke-width:1.0;" x1="804.8433" x2="846.8433" y1="1631.7212" y2="1631.7212"/><line style="stroke:#666666;stroke-width:1.0;" x1="846.8433" x2="846.8433" y1="1631.7212" y2="1644.7212"/><line style="stroke:#666666;stroke-width:1.0;" x1="805.8433" x2="846.8433" y1="1644.7212" y2="1644.7212"/><polygon fill="#666666" points="815.8433,1640.7212,805.8433,1644.7212,815.8433,1648.7212,811.8433,1644.7212" style="stroke:#666666;stroke-width:1.0;"/><text fill="#000000" font-family="Verdana" font-size="13" lengthAdjust="spacing" textLength="130.5522" x="811.8433" y="1626.9917">AddGeometryPass()</text><line style="stroke:#666666;stroke-width:1.0;" x1="804.8433" x2="846.8433" y1="1674.5205" y2="1674.5205"/><line style="stroke:#666666;stroke-width:1.0;" x1="846.8433" x2="846.8433" y1="1674.5205" y2="1687.5205"/><line style="stroke:#666666;stroke-width:1.0;" x1="805.8433" x2="846.8433" y1="1687.5205" y2="1687.5205"/><polygon fill="#666666" points="815.8433,1683.5205,805.8433,1687.5205,815.8433,1691.5205,811.8433,1687.5205" style="stroke:#666666;stroke-width:1.0;"/><text fill="#000000" font-family="Verdana" font-size="13" lengthAdjust="spacing" textLength="118.2314" x="811.8433" y="1669.791">AddLightingPass()</text><line style="stroke:#666666;stroke-width:1.0;" x1="804.8433" x2="846.8433" y1="1717.3198" y2="1717.3198"/><line style="stroke:#666666;stroke-width:1.0;" x1="846.8433" x2="846.8433" y1="1717.3198" y2="1730.3198"/><line style="stroke:#666666;stroke-width:1.0;" x1="805.8433" x2="846.8433" y1="1730.3198" y2="1730.3198"/><polygon fill="#666666" points="815.8433,1726.3198,805.8433,1730.3198,815.8433,1734.3198,811.8433,1730.3198" style="stroke:#666666;stroke-width:1.0;"/><text fill="#000000" font-family="Verdana" font-size="13" lengthAdjust="spacing" textLength="143.0508" x="811.8433" y="1712.5903">AddPostProcessPass()</text><line style="stroke:#666666;stroke-width:1.0;" x1="804.8433" x2="846.8433" y1="1764.5188" y2="1764.5188"/><line style="stroke:#666666;stroke-width:1.0;" x1="846.8433" x2="846.8433" y1="1764.5188" y2="1777.5188"/><line style="stroke:#666666;stroke-width:1.0;" x1="805.8433" x2="846.8433" y1="1777.5188" y2="1777.5188"/><polygon fill="#666666" points="815.8433,1773.5188,805.8433,1777.5188,815.8433,1781.5188,811.8433,1777.5188" style="stroke:#666666;stroke-width:1.0;"/><text fill="#000000" font-family="Verdana" font-size="13" lengthAdjust="spacing" textLength="113.3247" x="811.8433" y="1759.7893">OptimizePasses()</text><path d="M946.3247,1743.3198 L946.3247,1784.3198 L1108.3247,1784.3198 L1108.3247,1753.3198 L1098.3247,1743.3198 L946.3247,1743.3198 " fill="#FFFFFF" style="stroke:#000000;stroke-width:1.0;"/><path d="M1098.3247,1743.3198 L1098.3247,1753.3198 L1108.3247,1753.3198 L1098.3247,1743.3198 " fill="#FFFFFF" style="stroke:#000000;stroke-width:1.0;"/><text fill="#000000" font-family="Verdana" font-size="13" lengthAdjust="spacing" textLength="100.0645" x="952.3247" y="1761.3896">Automatic pass</text><text fill="#000000" font-family="Verdana" font-size="13" lengthAdjust="spacing" textLength="141.9272" x="952.3247" y="1777.189">ordering and merging</text><polygon fill="#666666" points="642.2944,1807.7178,632.2944,1811.7178,642.2944,1815.7178,638.2944,1811.7178" style="stroke:#666666;stroke-width:1.0;"/><line style="stroke:#666666;stroke-width:1.0;stroke-dasharray:2.0,2.0;" x1="636.2944" x2="798.8433" y1="1811.7178" y2="1811.7178"/><text fill="#000000" font-family="Verdana" font-size="13" lengthAdjust="spacing" textLength="105.022" x="648.2944" y="1806.9883">Compiled Graph</text><polygon fill="#666666" points="1173.9263,1837.5171,1183.9263,1841.5171,1173.9263,1845.5171,1177.9263,1841.5171" style="stroke:#666666;stroke-width:1.0;"/><line style="stroke:#666666;stroke-width:1.0;" x1="631.2944" x2="1179.9263" y1="1841.5171" y2="1841.5171"/><text fill="#000000" font-family="Verdana" font-size="13" lengthAdjust="spacing" textLength="89.5718" x="638.2944" y="1836.7876">BeginFrame()</text><line style="stroke:#666666;stroke-width:1.0;" x1="1195.9263" x2="1237.9263" y1="1871.3164" y2="1871.3164"/><line style="stroke:#666666;stroke-width:1.0;" x1="1237.9263" x2="1237.9263" y1="1871.3164" y2="1884.3164"/><line style="stroke:#666666;stroke-width:1.0;" x1="1196.9263" x2="1237.9263" y1="1884.3164" y2="1884.3164"/><polygon fill="#666666" points="1206.9263,1880.3164,1196.9263,1884.3164,1206.9263,1888.3164,1202.9263,1884.3164" style="stroke:#666666;stroke-width:1.0;"/><text fill="#000000" font-family="Verdana" font-size="13" lengthAdjust="spacing" textLength="174.7573" x="1202.9263" y="1866.5869">AcquireSwapChainImage()</text><line style="stroke:#666666;stroke-width:1.0;" x1="1195.9263" x2="1237.9263" y1="1914.1157" y2="1914.1157"/><line style="stroke:#666666;stroke-width:1.0;" x1="1237.9263" x2="1237.9263" y1="1914.1157" y2="1927.1157"/><line style="stroke:#666666;stroke-width:1.0;" x1="1196.9263" x2="1237.9263" y1="1927.1157" y2="1927.1157"/><polygon fill="#666666" points="1206.9263,1923.1157,1196.9263,1927.1157,1206.9263,1931.1157,1202.9263,1927.1157" style="stroke:#666666;stroke-width:1.0;"/><text fill="#000000" font-family="Verdana" font-size="13" lengthAdjust="spacing" textLength="153.645" x="1202.9263" y="1909.3862">GetCommandEncoder()</text><path d="M545.9502,1942.1157 L622.333,1942.1157 L622.333,1949.915 L612.333,1959.915 L545.9502,1959.915 L545.9502,1942.1157 " fill="#FFFFFF" style="stroke:#000000;stroke-width:1.0;"/><rect fill="none" height="285.9932" style="stroke:#000000;stroke-width:1.0;" width="812.834" x="545.9502" y="1942.1157"/><text fill="#000000" font-family="Verdana" font-size="13" font-weight="bold" lengthAdjust="spacing" textLength="31.3828" x="560.9502" y="1956.1855">loop</text><text fill="#000000" font-family="Verdana" font-size="11" font-weight="bold" lengthAdjust="spacing" textLength="97.2813" x="637.333" y="1955.1748">[For Each Pass]</text><polygon fill="#666666" points="782.8433,1977.7144,792.8433,1981.7144,782.8433,1985.7144,786.8433,1981.7144" style="stroke:#666666;stroke-width:1.0;"/><line style="stroke:#666666;stroke-width:1.0;" x1="631.2944" x2="788.8433" y1="1981.7144" y2="1981.7144"/><text fill="#000000" font-family="Verdana" font-size="13" lengthAdjust="spacing" textLength="144.5488" x="638.2944" y="1976.9849">ExecutePass(encoder)</text><polygon fill="#666666" points="1173.9263,2007.5137,1183.9263,2011.5137,1173.9263,2015.5137,1177.9263,2011.5137" style="stroke:#666666;stroke-width:1.0;"/><line style="stroke:#666666;stroke-width:1.0;" x1="804.8433" x2="1179.9263" y1="2011.5137" y2="2011.5137"/><text fill="#000000" font-family="Verdana" font-size="13" lengthAdjust="spacing" textLength="123.9507" x="811.8433" y="2006.7842">BeginRenderPass()</text><polygon fill="#666666" points="1173.9263,2040.313,1183.9263,2044.313,1173.9263,2048.313,1177.9263,2044.313" style="stroke:#666666;stroke-width:1.0;"/><line style="stroke:#666666;stroke-width:1.0;" x1="804.8433" x2="1179.9263" y1="2044.313" y2="2044.313"/><text fill="#000000" font-family="Verdana" font-size="13" lengthAdjust="spacing" textLength="83.916" x="811.8433" y="2039.5835">SetPipeline()</text><path d="M1200,2024.5137 L1200,2049.5137 L1300,2049.5137 L1300,2034.5137 L1290,2024.5137 L1200,2024.5137 " fill="#FFFFFF" style="stroke:#000000;stroke-width:1.0;"/><path d="M1290,2024.5137 L1290,2034.5137 L1300,2034.5137 L1290,2024.5137 " fill="#FFFFFF" style="stroke:#000000;stroke-width:1.0;"/><text fill="#000000" font-family="Verdana" font-size="13" lengthAdjust="spacing" textLength="79.2568" x="1206" y="2042.5835">Cached PSO</text><polygon fill="#666666" points="1173.9263,2084.012,1183.9263,2088.012,1173.9263,2092.012,1177.9263,2088.012" style="stroke:#666666;stroke-width:1.0;"/><line style="stroke:#666666;stroke-width:1.0;" x1="804.8433" x2="1179.9263" y1="2088.012" y2="2088.012"/><text fill="#000000" font-family="Verdana" font-size="13" lengthAdjust="spacing" textLength="108.9829" x="811.8433" y="2083.2825">SetBindGroups()</text><path d="M1200,2060.313 L1200,2101.313 L1347,2101.313 L1347,2070.313 L1337,2060.313 L1200,2060.313 " fill="#FFFFFF" style="stroke:#000000;stroke-width:1.0;"/><path d="M1337,2060.313 L1337,2070.313 L1347,2070.313 L1337,2060.313 " fill="#FFFFFF" style="stroke:#000000;stroke-width:1.0;"/><text fill="#000000" font-family="Verdana" font-size="13" lengthAdjust="spacing" textLength="126.8579" x="1206" y="2078.3828">Automatic resource</text><text fill="#000000" font-family="Verdana" font-size="13" lengthAdjust="spacing" textLength="47.8867" x="1206" y="2094.1821">binding</text><path d="M726.4478,2113.9116 L802.8306,2113.9116 L802.8306,2121.7109 L792.8306,2131.7109 L726.4478,2131.7109 L726.4478,2113.9116 " fill="#FFFFFF" style="stroke:#000000;stroke-width:1.0;"/><rect fill="none" height="47.5986" style="stroke:#000000;stroke-width:1.0;" width="545.1475" x="726.4478" y="2113.9116"/><text fill="#000000" font-family="Verdana" font-size="13" font-weight="bold" lengthAdjust="spacing" textLength="31.3828" x="741.4478" y="2127.9814">loop</text><text fill="#000000" font-family="Verdana" font-size="11" font-weight="bold" lengthAdjust="spacing" textLength="101.5405" x="817.8306" y="2126.9707">[For Each Draw]</text><polygon fill="#666666" points="1173.9263,2149.5103,1183.9263,2153.5103,1173.9263,2157.5103,1177.9263,2153.5103" style="stroke:#666666;stroke-width:1.0;"/><line style="stroke:#666666;stroke-width:1.0;" x1="804.8433" x2="1179.9263" y1="2153.5103" y2="2153.5103"/><text fill="#000000" font-family="Verdana" font-size="13" lengthAdjust="spacing" textLength="45.8174" x="811.8433" y="2148.7808">Draw()</text><polygon fill="#666666" points="1173.9263,2186.3096,1183.9263,2190.3096,1173.9263,2194.3096,1177.9263,2190.3096" style="stroke:#666666;stroke-width:1.0;"/><line style="stroke:#666666;stroke-width:1.0;" x1="804.8433" x2="1179.9263" y1="2190.3096" y2="2190.3096"/><text fill="#000000" font-family="Verdana" font-size="13" lengthAdjust="spacing" textLength="111.9473" x="811.8433" y="2185.5801">EndRenderPass()</text><polygon fill="#666666" points="642.2944,2216.1089,632.2944,2220.1089,642.2944,2224.1089,638.2944,2220.1089" style="stroke:#666666;stroke-width:1.0;"/><line style="stroke:#666666;stroke-width:1.0;stroke-dasharray:2.0,2.0;" x1="636.2944" x2="798.8433" y1="2220.1089" y2="2220.1089"/><text fill="#000000" font-family="Verdana" font-size="13" lengthAdjust="spacing" textLength="95.6528" x="648.2944" y="2215.3794">Pass Complete</text><polygon fill="#666666" points="1382.6836,2252.9082,1392.6836,2256.9082,1382.6836,2260.9082,1386.6836,2256.9082" style="stroke:#666666;stroke-width:1.0;"/><line style="stroke:#666666;stroke-width:1.0;" x1="1195.9263" x2="1388.6836" y1="2256.9082" y2="2256.9082"/><text fill="#000000" font-family="Verdana" font-size="13" lengthAdjust="spacing" textLength="162.0112" x="1202.9263" y="2252.1787">Submit(commandBuffer)</text><line style="stroke:#666666;stroke-width:1.0;" x1="1404.6836" x2="1446.6836" y1="2286.7075" y2="2286.7075"/><line style="stroke:#666666;stroke-width:1.0;" x1="1446.6836" x2="1446.6836" y1="2286.7075" y2="2299.7075"/><line style="stroke:#666666;stroke-width:1.0;" x1="1405.6836" x2="1446.6836" y1="2299.7075" y2="2299.7075"/><polygon fill="#666666" points="1415.6836,2295.7075,1405.6836,2299.7075,1415.6836,2303.7075,1411.6836,2299.7075" style="stroke:#666666;stroke-width:1.0;"/><text fill="#000000" font-family="Verdana" font-size="13" lengthAdjust="spacing" textLength="129.2573" x="1411.6836" y="2281.978">Execute Commands</text><polygon fill="#666666" points="1206.9263,2325.5068,1196.9263,2329.5068,1206.9263,2333.5068,1202.9263,2329.5068" style="stroke:#666666;stroke-width:1.0;"/><line style="stroke:#666666;stroke-width:1.0;stroke-dasharray:2.0,2.0;" x1="1200.9263" x2="1398.6836" y1="2329.5068" y2="2329.5068"/><text fill="#000000" font-family="Verdana" font-size="13" lengthAdjust="spacing" textLength="61.8896" x="1212.9263" y="2324.7773">Complete</text><line style="stroke:#666666;stroke-width:1.0;" x1="1195.9263" x2="1237.9263" y1="2359.3062" y2="2359.3062"/><line style="stroke:#666666;stroke-width:1.0;" x1="1237.9263" x2="1237.9263" y1="2359.3062" y2="2372.3062"/><line style="stroke:#666666;stroke-width:1.0;" x1="1196.9263" x2="1237.9263" y1="2372.3062" y2="2372.3062"/><polygon fill="#666666" points="1206.9263,2368.3062,1196.9263,2372.3062,1206.9263,2376.3062,1202.9263,2372.3062" style="stroke:#666666;stroke-width:1.0;"/><text fill="#000000" font-family="Verdana" font-size="13" lengthAdjust="spacing" textLength="60.8042" x="1202.9263" y="2354.5767">Present()</text><polygon fill="#666666" points="642.2944,2398.1055,632.2944,2402.1055,642.2944,2406.1055,638.2944,2402.1055" style="stroke:#666666;stroke-width:1.0;"/><line style="stroke:#666666;stroke-width:1.0;stroke-dasharray:2.0,2.0;" x1="636.2944" x2="1189.9263" y1="2402.1055" y2="2402.1055"/><text fill="#000000" font-family="Verdana" font-size="13" lengthAdjust="spacing" textLength="107.6753" x="648.2944" y="2397.376">Frame Complete</text><polygon fill="#666666" points="195.3857,2427.9048,185.3857,2431.9048,195.3857,2435.9048,191.3857,2431.9048" style="stroke:#666666;stroke-width:1.0;"/><line style="stroke:#666666;stroke-width:1.0;stroke-dasharray:2.0,2.0;" x1="189.3857" x2="625.2944" y1="2431.9048" y2="2431.9048"/><text fill="#000000" font-family="Verdana" font-size="13" lengthAdjust="spacing" textLength="33.8774" x="201.3857" y="2427.1753">Done</text><rect fill="#FFFFFF" height="3" style="stroke:#FFFFFF;stroke-width:1.0;" width="1567.9409" x="5" y="2467.8044"/><line style="stroke:#000000;stroke-width:0.5;" x1="5" x2="1572.9409" y1="2467.8044" y2="2467.8044"/><line style="stroke:#000000;stroke-width:0.5;" x1="5" x2="1572.9409" y1="2470.8044" y2="2470.8044"/><rect fill="#FFFFFF" height="23.7993" style="stroke:#000000;stroke-width:1.0;" width="170.4507" x="703.7451" y="2456.9048"/><text fill="#000000" font-family="Verdana" font-size="13" font-weight="bold" lengthAdjust="spacing" textLength="152.0073" x="709.7451" y="2473.9746">Cleanup (Automatic)</text><polygon fill="#666666" points="162.3857,2508.5034,172.3857,2512.5034,162.3857,2516.5034,166.3857,2512.5034" style="stroke:#666666;stroke-width:1.0;"/><line style="stroke:#666666;stroke-width:1.0;" x1="28.9277" x2="168.3857" y1="2512.5034" y2="2512.5034"/><text fill="#000000" font-family="Verdana" font-size="13" lengthAdjust="spacing" textLength="77.124" x="35.9277" y="2507.7739">Shutdown()</text><path d="M413,2525.5034 L413,2566.5034 L1033,2566.5034 L1033,2535.5034 L1023,2525.5034 L413,2525.5034 " fill="#FFFFFF" style="stroke:#000000;stroke-width:1.0;"/><path d="M1023,2525.5034 L1023,2535.5034 L1033,2535.5034 L1023,2525.5034 " fill="#FFFFFF" style="stroke:#000000;stroke-width:1.0;"/><text fill="#000000" font-family="Verdana" font-size="13" lengthAdjust="spacing" textLength="178.1343" x="594.3494" y="2543.5732">Automatic cleanup via RAII</text><text fill="#000000" font-family="Verdana" font-size="13" lengthAdjust="spacing" textLength="248.4409" x="594.3494" y="2559.3726">Reference counting handles resources</text><!--SRC=[bLVBRkCs5DthArXtunHDbq5XD05inqaD98qGD-qc6vgwjeXGf8Qauiby_LoIUb2oxCp4Y2nHvpvuxel-nUPG02a5vJ8nRroMLDE2R2bxssjLoMofXDBarxkL-qG80ryga0pcMgj33RgwkeeGUBMSyP9AkpXIzwVx98dbLW2PbwNWZ5gk97a4avDda1beBlVaJgW3kIGRNY1ano4ZytIT99HPLFDYG2UH6JA9D4q8DKvp7x1X8C6_ydSZBuDjq1xKFFHnOVLUqpBtA7ytX1XLQGQFLD9zgymyxWUg_eVjVVfo2- -S1RV2RH-4Y60dVKcIwskobjnoAlYtGDdq2UDmGQwl4qS8kRnnsvwHfGPg8M9aUk5uu- -uwed1VmSE5cUTLeY1jJ_XAuO7zMjfB4NpA78CUNOvOkmyewK5FGe9MiBJ6S3cGCjbZZaQOPfzFWFDFf8CXYut-_DHRHMvXtX_8GtyDG9tN6m-Z8N2e4YDQSpwnzzYkq6LjueW5ujPBxM3eow0IoKjO6IzJpw4Fi719NSla3tVLnBBvMCwMLPRc7owXRaGYdLIiV_1jV1YP0T3w-21bpVp3CktA9N4XRzSdJRLSJDDDI-GiNTmoxEPy_2qWw4EPkGUx9CEMtDYqu5KNIxXAvPRvi3UbfJbFf32ad-K9LmIvfOIWd_7ClTeMwDMP-CUL05MEqxwu7xE_GVQmjT5jTlvt3q7NICF7H9PQRtkM7HR_9lAJ43CUBt9OMnYTdyYGXkmZuZIcBhJIGOxMWax-Rb0d1C_6P47HRDDJj7TLkwFmzu853v5MSfB4DpNebIeM_DzRZ5hAwiAh0b6qiqJONLzl4eapiSNPy8OjxNNFyplBIRn2ArOcdSukY0QGDFM8r-OGgcIhDv1VmIaJukwqVYsy59cg72QWR3qNrv0I9mOriHrLj-5bcJSDO0Zv-lfqwfeLgBOO_32AjqAC7MYTlljh8LwV-36Zklha2dedTB5iX8OeNsjSZnAErqPMnKXG8enKHdNprWG_SpGHcaxbzc2MfQVDRDr25GOxF0mT4uQyFDuHXOL5vc_dmw83GFRBVcxI0Pxd4jaTKYfQSWSmJGjv3pgmMq3lJoFIfMngLOCZ3a3V2ejjjXlu21jcCV9AX7oAfMkCzWnLe3UDtJLcdk1S7sT2pnTTSn4rT4j7b7T5FK2KB-lY27NzJHsQyVJVSw-L5ntutrTu6cfrd2CnbH7HmlSq4eobRLjsLzyPTxXgN25RO8uclpoYTnOVGLMMS_c58AoYnO_il7MJ2yslTq7Ar48pyjWhuvwO0EB8-f7NEOQuO-fMt29wQwgqfnGsAM8he-dhtABGarcz2pq-RpLzD2-6dN08IAxRWX-xlLAPgEqZUMeW_X45M2XHOwcQMDya4TuVaQYgYqULQOi958OsiFsWETixqNwqehL2KFg13GT81vjiNUnPxN24tcTOZXmX0_olhVvC9PEwOzgR52XpLZo0syWrOuNHvS_bWgWiYg7Cw_tgsAJLnRRespcji9P6CRDxytnA4uqLgjyvvGypzVhLomJ9DpzSYGCVn2wzaXoFxPDcvKc-Gu0]--></g></svg>