<svg xmlns="http://www.w3.org/2000/svg" xmlns:xlink="http://www.w3.org/1999/xlink" contentStyleType="text/css" height="1821px" preserveAspectRatio="none" style="width:1121px;height:1821px;background:#FEFEFE;" version="1.1" viewBox="0 0 1121 1821" width="1121px" zoomAndPan="magnify"><title>Modern GPU Frame Execution Flow</title><defs/><g><rect fill="#FEFEFE" height="1821" style="stroke:none;stroke-width:1.0;" width="1121" x="0" y="0"/><text fill="#000000" font-family="Verdana" font-size="22" font-weight="bold" lengthAdjust="spacing" textLength="432.0615" x="343.3291" y="37.1182">Modern GPU Frame Execution Flow</text><rect fill="#FFFFFF" height="754.187" style="stroke:#000000;stroke-width:1.0;" width="10" x="290.9009" y="219.9492"/><rect fill="#FFFFFF" height="377.9932" style="stroke:#000000;stroke-width:1.0;" width="10" x="828.6465" y="1107.3335"/><rect fill="#FFFFFF" height="622.7891" style="stroke:#000000;stroke-width:1.0;" width="506.9297" x="30" y="278.7485"/><rect fill="#FFFFFF" height="188.9966" style="stroke:#000000;stroke-width:1.0;" width="318.1123" x="202.4214" y="461.7451"/><line style="stroke:#000000;stroke-width:1.0;" x1="98" x2="98" y1="84.752" y2="1785.7212"/><line style="stroke:#000000;stroke-width:1.0;" x1="295.4214" x2="295.4214" y1="84.752" y2="1785.7212"/><line style="stroke:#000000;stroke-width:1.0;" x1="536.4126" x2="536.4126" y1="84.752" y2="1785.7212"/><line style="stroke:#000000;stroke-width:1.0;" x1="679.4468" x2="679.4468" y1="84.752" y2="1785.7212"/><line style="stroke:#000000;stroke-width:1.0;" x1="832.874" x2="832.874" y1="84.752" y2="1785.7212"/><line style="stroke:#000000;stroke-width:1.0;" x1="1006.1851" x2="1006.1851" y1="84.752" y2="1785.7212"/><rect fill="#F8F8F8" height="31.0146" rx="2.5" ry="2.5" style="stroke:#888888;stroke-width:1.0;" width="96.3184" x="50" y="52.7373"/><text fill="#000000" font-family="Verdana" font-size="14" lengthAdjust="spacing" textLength="82.3184" x="57" y="73.8125">CPU Thread</text><rect fill="#F8F8F8" height="31.0146" rx="2.5" ry="2.5" style="stroke:#888888;stroke-width:1.0;" width="96.3184" x="50" y="1784.7212"/><text fill="#000000" font-family="Verdana" font-size="14" lengthAdjust="spacing" textLength="82.3184" x="57" y="1805.7964">CPU Thread</text><rect fill="#F8F8F8" height="31.0146" rx="2.5" ry="2.5" style="stroke:#888888;stroke-width:1.0;" width="146.959" x="222.4214" y="52.7373"/><text fill="#000000" font-family="Verdana" font-size="14" lengthAdjust="spacing" textLength="132.959" x="229.4214" y="73.8125">Command Encoder</text><rect fill="#F8F8F8" height="31.0146" rx="2.5" ry="2.5" style="stroke:#888888;stroke-width:1.0;" width="146.959" x="222.4214" y="1784.7212"/><text fill="#000000" font-family="Verdana" font-size="14" lengthAdjust="spacing" textLength="132.959" x="229.4214" y="1805.7964">Command Encoder</text><rect fill="#F8F8F8" height="31.0146" rx="2.5" ry="2.5" style="stroke:#888888;stroke-width:1.0;" width="133.0342" x="470.4126" y="52.7373"/><text fill="#000000" font-family="Verdana" font-size="14" lengthAdjust="spacing" textLength="119.0342" x="477.4126" y="73.8125">Command Buffer</text><rect fill="#F8F8F8" height="31.0146" rx="2.5" ry="2.5" style="stroke:#888888;stroke-width:1.0;" width="133.0342" x="470.4126" y="1784.7212"/><text fill="#000000" font-family="Verdana" font-size="14" lengthAdjust="spacing" textLength="119.0342" x="477.4126" y="1805.7964">Command Buffer</text><rect fill="#F8F8F8" height="31.0146" rx="2.5" ry="2.5" style="stroke:#888888;stroke-width:1.0;" width="93.8848" x="633.4468" y="52.7373"/><text fill="#000000" font-family="Verdana" font-size="14" lengthAdjust="spacing" textLength="79.8848" x="640.4468" y="73.8125">GPU Queue</text><rect fill="#F8F8F8" height="31.0146" rx="2.5" ry="2.5" style="stroke:#888888;stroke-width:1.0;" width="93.8848" x="633.4468" y="1784.7212"/><text fill="#000000" font-family="Verdana" font-size="14" lengthAdjust="spacing" textLength="79.8848" x="640.4468" y="1805.7964">GPU Queue</text><rect fill="#F8F8F8" height="31.0146" rx="2.5" ry="2.5" style="stroke:#888888;stroke-width:1.0;" width="43.5449" x="811.874" y="52.7373"/><text fill="#000000" font-family="Verdana" font-size="14" lengthAdjust="spacing" textLength="29.5449" x="818.874" y="73.8125">GPU</text><rect fill="#F8F8F8" height="31.0146" rx="2.5" ry="2.5" style="stroke:#888888;stroke-width:1.0;" width="43.5449" x="811.874" y="1784.7212"/><text fill="#000000" font-family="Verdana" font-size="14" lengthAdjust="spacing" textLength="29.5449" x="818.874" y="1805.7964">GPU</text><rect fill="#F8F8F8" height="31.0146" rx="2.5" ry="2.5" style="stroke:#888888;stroke-width:1.0;" width="91.9023" x="961.1851" y="52.7373"/><text fill="#000000" font-family="Verdana" font-size="14" lengthAdjust="spacing" textLength="77.9023" x="968.1851" y="73.8125">SwapChain</text><rect fill="#F8F8F8" height="31.0146" rx="2.5" ry="2.5" style="stroke:#888888;stroke-width:1.0;" width="91.9023" x="961.1851" y="1784.7212"/><text fill="#000000" font-family="Verdana" font-size="14" lengthAdjust="spacing" textLength="77.9023" x="968.1851" y="1805.7964">SwapChain</text><rect fill="#FFFFFF" height="754.187" style="stroke:#000000;stroke-width:1.0;" width="10" x="290.9009" y="219.9492"/><rect fill="#FFFFFF" height="377.9932" style="stroke:#000000;stroke-width:1.0;" width="10" x="828.6465" y="1107.3335"/><rect fill="#FFFFFF" height="3" style="stroke:#FFFFFF;stroke-width:1.0;" width="1109.7197" x="5" y="115.6516"/><line style="stroke:#000000;stroke-width:0.5;" x1="5" x2="1114.7197" y1="115.6516" y2="115.6516"/><line style="stroke:#000000;stroke-width:0.5;" x1="5" x2="1114.7197" y1="118.6516" y2="118.6516"/><rect fill="#FFFFFF" height="23.7993" style="stroke:#000000;stroke-width:1.0;" width="170.4189" x="474.6504" y="104.752"/><text fill="#000000" font-family="Verdana" font-size="13" font-weight="bold" lengthAdjust="spacing" textLength="151.9756" x="480.6504" y="121.8218">Frame N Preparation</text><polygon fill="#666666" points="995.1362,156.3506,1005.1362,160.3506,995.1362,164.3506,999.1362,160.3506" style="stroke:#666666;stroke-width:1.0;"/><line style="stroke:#666666;stroke-width:1.0;" x1="98.1592" x2="1001.1362" y1="160.3506" y2="160.3506"/><text fill="#000000" font-family="Verdana" font-size="13" lengthAdjust="spacing" textLength="132.7041" x="105.1592" y="155.6211">AcquireNextImage()</text><polygon fill="#666666" points="109.1592,186.1499,99.1592,190.1499,109.1592,194.1499,105.1592,190.1499" style="stroke:#666666;stroke-width:1.0;"/><line style="stroke:#666666;stroke-width:1.0;stroke-dasharray:2.0,2.0;" x1="103.1592" x2="1006.1362" y1="190.1499" y2="190.1499"/><text fill="#000000" font-family="Verdana" font-size="13" lengthAdjust="spacing" textLength="79.0029" x="115.1592" y="185.4204">ImageIndex</text><polygon fill="#666666" points="278.9009,215.9492,288.9009,219.9492,278.9009,223.9492,282.9009,219.9492" style="stroke:#666666;stroke-width:1.0;"/><line style="stroke:#666666;stroke-width:1.0;" x1="98.1592" x2="284.9009" y1="219.9492" y2="219.9492"/><text fill="#000000" font-family="Verdana" font-size="13" lengthAdjust="spacing" textLength="173.7417" x="105.1592" y="215.2197">CreateCommandEncoder()</text><rect fill="#FFFFFF" height="3" style="stroke:#FFFFFF;stroke-width:1.0;" width="1109.7197" x="5" y="248.8489"/><line style="stroke:#000000;stroke-width:0.5;" x1="5" x2="1114.7197" y1="248.8489" y2="248.8489"/><line style="stroke:#000000;stroke-width:0.5;" x1="5" x2="1114.7197" y1="251.8489" y2="251.8489"/><rect fill="#FFFFFF" height="23.7993" style="stroke:#000000;stroke-width:1.0;" width="297.3403" x="411.1897" y="237.9492"/><text fill="#000000" font-family="Verdana" font-size="13" font-weight="bold" lengthAdjust="spacing" textLength="278.897" x="417.1897" y="255.019">Command Recording (Can be Parallel)</text><path d="M30,278.7485 L285.8057,278.7485 L285.8057,286.5479 L275.8057,296.5479 L30,296.5479 L30,278.7485 " fill="#FFFFFF" style="stroke:#000000;stroke-width:1.0;"/><rect fill="none" height="622.7891" style="stroke:#000000;stroke-width:1.0;" width="506.9297" x="30" y="278.7485"/><text fill="#000000" font-family="Verdana" font-size="13" font-weight="bold" lengthAdjust="spacing" textLength="210.8057" x="45" y="292.8184">Parallel Command Recording</text><polygon fill="#666666" points="278.9009,314.3472,288.9009,318.3472,278.9009,322.3472,282.9009,318.3472" style="stroke:#666666;stroke-width:1.0;"/><line style="stroke:#666666;stroke-width:1.0;" x1="98.1592" x2="284.9009" y1="318.3472" y2="318.3472"/><text fill="#000000" font-family="Verdana" font-size="13" lengthAdjust="spacing" textLength="163.395" x="105.1592" y="313.6177">BeginRenderPass(target)</text><line style="stroke:#666666;stroke-width:1.0;" x1="300.9009" x2="342.9009" y1="348.1465" y2="348.1465"/><line style="stroke:#666666;stroke-width:1.0;" x1="342.9009" x2="342.9009" y1="348.1465" y2="361.1465"/><line style="stroke:#666666;stroke-width:1.0;" x1="301.9009" x2="342.9009" y1="361.1465" y2="361.1465"/><polygon fill="#666666" points="311.9009,357.1465,301.9009,361.1465,311.9009,365.1465,307.9009,361.1465" style="stroke:#666666;stroke-width:1.0;"/><text fill="#000000" font-family="Verdana" font-size="13" lengthAdjust="spacing" textLength="110.8745" x="307.9009" y="343.417">SetPipeline(PSO)</text><line style="stroke:#666666;stroke-width:1.0;" x1="300.9009" x2="342.9009" y1="390.9458" y2="390.9458"/><line style="stroke:#666666;stroke-width:1.0;" x1="342.9009" x2="342.9009" y1="390.9458" y2="403.9458"/><line style="stroke:#666666;stroke-width:1.0;" x1="301.9009" x2="342.9009" y1="403.9458" y2="403.9458"/><polygon fill="#666666" points="311.9009,399.9458,301.9009,403.9458,311.9009,407.9458,307.9009,403.9458" style="stroke:#666666;stroke-width:1.0;"/><text fill="#000000" font-family="Verdana" font-size="13" lengthAdjust="spacing" textLength="188.8428" x="307.9009" y="386.2163">SetBindGroup(0, frameData)</text><line style="stroke:#666666;stroke-width:1.0;" x1="300.9009" x2="342.9009" y1="433.7451" y2="433.7451"/><line style="stroke:#666666;stroke-width:1.0;" x1="342.9009" x2="342.9009" y1="433.7451" y2="446.7451"/><line style="stroke:#666666;stroke-width:1.0;" x1="301.9009" x2="342.9009" y1="446.7451" y2="446.7451"/><polygon fill="#666666" points="311.9009,442.7451,301.9009,446.7451,311.9009,450.7451,307.9009,446.7451" style="stroke:#666666;stroke-width:1.0;"/><text fill="#000000" font-family="Verdana" font-size="13" lengthAdjust="spacing" textLength="204.3374" x="307.9009" y="429.0156">SetBindGroup(1, materialData)</text><path d="M202.4214,461.7451 L278.8042,461.7451 L278.8042,469.5444 L268.8042,479.5444 L202.4214,479.5444 L202.4214,461.7451 " fill="#FFFFFF" style="stroke:#000000;stroke-width:1.0;"/><rect fill="none" height="188.9966" style="stroke:#000000;stroke-width:1.0;" width="318.1123" x="202.4214" y="461.7451"/><text fill="#000000" font-family="Verdana" font-size="13" font-weight="bold" lengthAdjust="spacing" textLength="31.3828" x="217.4214" y="475.8149">loop</text><text fill="#000000" font-family="Verdana" font-size="11" font-weight="bold" lengthAdjust="spacing" textLength="124.1582" x="293.8042" y="474.8042">[For each DrawCall]</text><line style="stroke:#666666;stroke-width:1.0;" x1="300.9009" x2="342.9009" y1="501.3438" y2="501.3438"/><line style="stroke:#666666;stroke-width:1.0;" x1="342.9009" x2="342.9009" y1="501.3438" y2="514.3438"/><line style="stroke:#666666;stroke-width:1.0;" x1="301.9009" x2="342.9009" y1="514.3438" y2="514.3438"/><polygon fill="#666666" points="311.9009,510.3438,301.9009,514.3438,311.9009,518.3438,307.9009,514.3438" style="stroke:#666666;stroke-width:1.0;"/><text fill="#000000" font-family="Verdana" font-size="13" lengthAdjust="spacing" textLength="190.6328" x="307.9009" y="496.6143">SetBindGroup(2, objectData)</text><line style="stroke:#666666;stroke-width:1.0;" x1="300.9009" x2="342.9009" y1="544.1431" y2="544.1431"/><line style="stroke:#666666;stroke-width:1.0;" x1="342.9009" x2="342.9009" y1="544.1431" y2="557.1431"/><line style="stroke:#666666;stroke-width:1.0;" x1="301.9009" x2="342.9009" y1="557.1431" y2="557.1431"/><polygon fill="#666666" points="311.9009,553.1431,301.9009,557.1431,311.9009,561.1431,307.9009,557.1431" style="stroke:#666666;stroke-width:1.0;"/><text fill="#000000" font-family="Verdana" font-size="13" lengthAdjust="spacing" textLength="115.8701" x="307.9009" y="539.4136">SetVertexBuffer()</text><line style="stroke:#666666;stroke-width:1.0;" x1="300.9009" x2="342.9009" y1="586.9424" y2="586.9424"/><line style="stroke:#666666;stroke-width:1.0;" x1="342.9009" x2="342.9009" y1="586.9424" y2="599.9424"/><line style="stroke:#666666;stroke-width:1.0;" x1="301.9009" x2="342.9009" y1="599.9424" y2="599.9424"/><polygon fill="#666666" points="311.9009,595.9424,301.9009,599.9424,311.9009,603.9424,307.9009,599.9424" style="stroke:#666666;stroke-width:1.0;"/><text fill="#000000" font-family="Verdana" font-size="13" lengthAdjust="spacing" textLength="110.3667" x="307.9009" y="582.2129">SetIndexBuffer()</text><line style="stroke:#666666;stroke-width:1.0;" x1="300.9009" x2="342.9009" y1="629.7417" y2="629.7417"/><line style="stroke:#666666;stroke-width:1.0;" x1="342.9009" x2="342.9009" y1="629.7417" y2="642.7417"/><line style="stroke:#666666;stroke-width:1.0;" x1="301.9009" x2="342.9009" y1="642.7417" y2="642.7417"/><polygon fill="#666666" points="311.9009,638.7417,301.9009,642.7417,311.9009,646.7417,307.9009,642.7417" style="stroke:#666666;stroke-width:1.0;"/><text fill="#000000" font-family="Verdana" font-size="13" lengthAdjust="spacing" textLength="98.8965" x="307.9009" y="625.0122">DrawIndexed()</text><line style="stroke:#666666;stroke-width:1.0;" x1="300.9009" x2="342.9009" y1="679.541" y2="679.541"/><line style="stroke:#666666;stroke-width:1.0;" x1="342.9009" x2="342.9009" y1="679.541" y2="692.541"/><line style="stroke:#666666;stroke-width:1.0;" x1="301.9009" x2="342.9009" y1="692.541" y2="692.541"/><polygon fill="#666666" points="311.9009,688.541,301.9009,692.541,311.9009,696.541,307.9009,692.541" style="stroke:#666666;stroke-width:1.0;"/><text fill="#000000" font-family="Verdana" font-size="13" lengthAdjust="spacing" textLength="111.9473" x="307.9009" y="674.8115">EndRenderPass()</text><polygon fill="#666666" points="278.9009,718.3403,288.9009,722.3403,278.9009,726.3403,282.9009,722.3403" style="stroke:#666666;stroke-width:1.0;"/><line style="stroke:#666666;stroke-width:1.0;" x1="98.1592" x2="284.9009" y1="722.3403" y2="722.3403"/><text fill="#000000" font-family="Verdana" font-size="13" lengthAdjust="spacing" textLength="136.354" x="105.1592" y="717.6108">BeginComputePass()</text><line style="stroke:#666666;stroke-width:1.0;" x1="300.9009" x2="342.9009" y1="752.1396" y2="752.1396"/><line style="stroke:#666666;stroke-width:1.0;" x1="342.9009" x2="342.9009" y1="752.1396" y2="765.1396"/><line style="stroke:#666666;stroke-width:1.0;" x1="301.9009" x2="342.9009" y1="765.1396" y2="765.1396"/><polygon fill="#666666" points="311.9009,761.1396,301.9009,765.1396,311.9009,769.1396,307.9009,765.1396" style="stroke:#666666;stroke-width:1.0;"/><text fill="#000000" font-family="Verdana" font-size="13" lengthAdjust="spacing" textLength="142.7207" x="307.9009" y="747.4102">SetComputePipeline()</text><line style="stroke:#666666;stroke-width:1.0;" x1="300.9009" x2="342.9009" y1="794.939" y2="794.939"/><line style="stroke:#666666;stroke-width:1.0;" x1="342.9009" x2="342.9009" y1="794.939" y2="807.939"/><line style="stroke:#666666;stroke-width:1.0;" x1="301.9009" x2="342.9009" y1="807.939" y2="807.939"/><polygon fill="#666666" points="311.9009,803.939,301.9009,807.939,311.9009,811.939,307.9009,807.939" style="stroke:#666666;stroke-width:1.0;"/><text fill="#000000" font-family="Verdana" font-size="13" lengthAdjust="spacing" textLength="207.0288" x="307.9009" y="790.2095">SetBindGroup(0, computeData)</text><line style="stroke:#666666;stroke-width:1.0;" x1="300.9009" x2="342.9009" y1="837.7383" y2="837.7383"/><line style="stroke:#666666;stroke-width:1.0;" x1="342.9009" x2="342.9009" y1="837.7383" y2="850.7383"/><line style="stroke:#666666;stroke-width:1.0;" x1="301.9009" x2="342.9009" y1="850.7383" y2="850.7383"/><polygon fill="#666666" points="311.9009,846.7383,301.9009,850.7383,311.9009,854.7383,307.9009,850.7383" style="stroke:#666666;stroke-width:1.0;"/><text fill="#000000" font-family="Verdana" font-size="13" lengthAdjust="spacing" textLength="109.0083" x="307.9009" y="833.0088">Dispatch(x, y, z)</text><line style="stroke:#666666;stroke-width:1.0;" x1="300.9009" x2="342.9009" y1="880.5376" y2="880.5376"/><line style="stroke:#666666;stroke-width:1.0;" x1="342.9009" x2="342.9009" y1="880.5376" y2="893.5376"/><line style="stroke:#666666;stroke-width:1.0;" x1="301.9009" x2="342.9009" y1="893.5376" y2="893.5376"/><polygon fill="#666666" points="311.9009,889.5376,301.9009,893.5376,311.9009,897.5376,307.9009,893.5376" style="stroke:#666666;stroke-width:1.0;"/><text fill="#000000" font-family="Verdana" font-size="13" lengthAdjust="spacing" textLength="124.3506" x="307.9009" y="875.8081">EndComputePass()</text><rect fill="#FFFFFF" height="3" style="stroke:#FFFFFF;stroke-width:1.0;" width="1109.7197" x="5" y="929.4373"/><line style="stroke:#000000;stroke-width:0.5;" x1="5" x2="1114.7197" y1="929.4373" y2="929.4373"/><line style="stroke:#000000;stroke-width:0.5;" x1="5" x2="1114.7197" y1="932.4373" y2="932.4373"/><rect fill="#FFFFFF" height="23.7993" style="stroke:#000000;stroke-width:1.0;" width="226.2148" x="446.7524" y="918.5376"/><text fill="#000000" font-family="Verdana" font-size="13" font-weight="bold" lengthAdjust="spacing" textLength="207.7715" x="452.7524" y="935.6074">Command Buffer Generation</text><polygon fill="#666666" points="524.9297,970.1362,534.9297,974.1362,524.9297,978.1362,528.9297,974.1362" style="stroke:#666666;stroke-width:1.0;"/><line style="stroke:#666666;stroke-width:1.0;" x1="295.9009" x2="530.9297" y1="974.1362" y2="974.1362"/><text fill="#000000" font-family="Verdana" font-size="13" lengthAdjust="spacing" textLength="49.6387" x="302.9009" y="969.4067">Finish()</text><polygon fill="#666666" points="109.1592,999.9355,99.1592,1003.9355,109.1592,1007.9355,105.1592,1003.9355" style="stroke:#666666;stroke-width:1.0;"/><line style="stroke:#666666;stroke-width:1.0;stroke-dasharray:2.0,2.0;" x1="103.1592" x2="535.9297" y1="1003.9355" y2="1003.9355"/><text fill="#000000" font-family="Verdana" font-size="13" lengthAdjust="spacing" textLength="105.9614" x="115.1592" y="999.2061">CommandBuffer</text><rect fill="#FFFFFF" height="3" style="stroke:#FFFFFF;stroke-width:1.0;" width="1109.7197" x="5" y="1032.8352"/><line style="stroke:#000000;stroke-width:0.5;" x1="5" x2="1114.7197" y1="1032.8352" y2="1032.8352"/><line style="stroke:#000000;stroke-width:0.5;" x1="5" x2="1114.7197" y1="1035.8352" y2="1035.8352"/><rect fill="#FFFFFF" height="23.7993" style="stroke:#000000;stroke-width:1.0;" width="137.354" x="491.1829" y="1021.9355"/><text fill="#000000" font-family="Verdana" font-size="13" font-weight="bold" lengthAdjust="spacing" textLength="118.9106" x="497.1829" y="1039.0054">GPU Submission</text><polygon fill="#666666" points="668.3892,1073.5342,678.3892,1077.5342,668.3892,1081.5342,672.3892,1077.5342" style="stroke:#666666;stroke-width:1.0;"/><line style="stroke:#666666;stroke-width:1.0;" x1="98.1592" x2="674.3892" y1="1077.5342" y2="1077.5342"/><text fill="#000000" font-family="Verdana" font-size="13" lengthAdjust="spacing" textLength="164.3154" x="105.1592" y="1072.8047">Submit(CommandBuffer)</text><polygon fill="#666666" points="816.6465,1103.3335,826.6465,1107.3335,816.6465,1111.3335,820.6465,1107.3335" style="stroke:#666666;stroke-width:1.0;"/><line style="stroke:#666666;stroke-width:1.0;" x1="680.3892" x2="822.6465" y1="1107.3335" y2="1107.3335"/><text fill="#000000" font-family="Verdana" font-size="13" lengthAdjust="spacing" textLength="129.2573" x="687.3892" y="1102.604">Execute Commands</text><polygon fill="#666666" points="668.3892,1133.1328,678.3892,1137.1328,668.3892,1141.1328,672.3892,1137.1328" style="stroke:#666666;stroke-width:1.0;"/><line style="stroke:#666666;stroke-width:1.0;" x1="98.1592" x2="674.3892" y1="1137.1328" y2="1137.1328"/><text fill="#000000" font-family="Verdana" font-size="13" lengthAdjust="spacing" textLength="89.9209" x="105.1592" y="1132.4033">Signal(Fence)</text><rect fill="#FFFFFF" height="3" style="stroke:#FFFFFF;stroke-width:1.0;" width="1109.7197" x="5" y="1166.0325"/><line style="stroke:#000000;stroke-width:0.5;" x1="5" x2="1114.7197" y1="1166.0325" y2="1166.0325"/><line style="stroke:#000000;stroke-width:0.5;" x1="5" x2="1114.7197" y1="1169.0325" y2="1169.0325"/><rect fill="#FFFFFF" height="23.7993" style="stroke:#000000;stroke-width:1.0;" width="232.6133" x="443.5532" y="1155.1328"/><text fill="#000000" font-family="Verdana" font-size="13" font-weight="bold" lengthAdjust="spacing" textLength="214.1699" x="449.5532" y="1172.2026">Asynchronous GPU Execution</text><line style="stroke:#666666;stroke-width:1.0;" x1="838.6465" x2="880.6465" y1="1210.7314" y2="1210.7314"/><line style="stroke:#666666;stroke-width:1.0;" x1="880.6465" x2="880.6465" y1="1210.7314" y2="1223.7314"/><line style="stroke:#666666;stroke-width:1.0;" x1="839.6465" x2="880.6465" y1="1223.7314" y2="1223.7314"/><polygon fill="#666666" points="849.6465,1219.7314,839.6465,1223.7314,849.6465,1227.7314,845.6465,1223.7314" style="stroke:#666666;stroke-width:1.0;"/><text fill="#000000" font-family="Verdana" font-size="13" lengthAdjust="spacing" textLength="116.543" x="845.6465" y="1206.002">Vertex Processing</text><line style="stroke:#666666;stroke-width:1.0;" x1="838.6465" x2="880.6465" y1="1253.5308" y2="1253.5308"/><line style="stroke:#666666;stroke-width:1.0;" x1="880.6465" x2="880.6465" y1="1253.5308" y2="1266.5308"/><line style="stroke:#666666;stroke-width:1.0;" x1="839.6465" x2="880.6465" y1="1266.5308" y2="1266.5308"/><polygon fill="#666666" points="849.6465,1262.5308,839.6465,1266.5308,849.6465,1270.5308,845.6465,1266.5308" style="stroke:#666666;stroke-width:1.0;"/><text fill="#000000" font-family="Verdana" font-size="13" lengthAdjust="spacing" textLength="85.0459" x="845.6465" y="1248.8013">Rasterization</text><line style="stroke:#666666;stroke-width:1.0;" x1="838.6465" x2="880.6465" y1="1296.3301" y2="1296.3301"/><line style="stroke:#666666;stroke-width:1.0;" x1="880.6465" x2="880.6465" y1="1296.3301" y2="1309.3301"/><line style="stroke:#666666;stroke-width:1.0;" x1="839.6465" x2="880.6465" y1="1309.3301" y2="1309.3301"/><polygon fill="#666666" points="849.6465,1305.3301,839.6465,1309.3301,849.6465,1313.3301,845.6465,1309.3301" style="stroke:#666666;stroke-width:1.0;"/><text fill="#000000" font-family="Verdana" font-size="13" lengthAdjust="spacing" textLength="136.4683" x="845.6465" y="1291.6006">Fragment Processing</text><line style="stroke:#666666;stroke-width:1.0;" x1="838.6465" x2="880.6465" y1="1339.1294" y2="1339.1294"/><line style="stroke:#666666;stroke-width:1.0;" x1="880.6465" x2="880.6465" y1="1339.1294" y2="1352.1294"/><line style="stroke:#666666;stroke-width:1.0;" x1="839.6465" x2="880.6465" y1="1352.1294" y2="1352.1294"/><polygon fill="#666666" points="849.6465,1348.1294,839.6465,1352.1294,849.6465,1356.1294,845.6465,1352.1294" style="stroke:#666666;stroke-width:1.0;"/><text fill="#000000" font-family="Verdana" font-size="13" lengthAdjust="spacing" textLength="139.4897" x="845.6465" y="1334.3999">ROP (Render Output)</text><rect fill="#FFFFFF" height="3" style="stroke:#FFFFFF;stroke-width:1.0;" width="1109.7197" x="5" y="1381.0291"/><line style="stroke:#000000;stroke-width:0.5;" x1="5" x2="1114.7197" y1="1381.0291" y2="1381.0291"/><line style="stroke:#000000;stroke-width:0.5;" x1="5" x2="1114.7197" y1="1384.0291" y2="1384.0291"/><rect fill="#FFFFFF" height="23.7993" style="stroke:#000000;stroke-width:1.0;" width="162.2622" x="478.7288" y="1370.1294"/><text fill="#000000" font-family="Verdana" font-size="13" font-weight="bold" lengthAdjust="spacing" textLength="143.8188" x="484.7288" y="1387.1992">Frame Presentation</text><polygon fill="#666666" points="668.3892,1421.728,678.3892,1425.728,668.3892,1429.728,672.3892,1425.728" style="stroke:#666666;stroke-width:1.0;"/><line style="stroke:#666666;stroke-width:1.0;" x1="98.1592" x2="674.3892" y1="1425.728" y2="1425.728"/><text fill="#000000" font-family="Verdana" font-size="13" lengthAdjust="spacing" textLength="79.1172" x="105.1592" y="1420.9985">Wait(Fence)</text><polygon fill="#666666" points="109.1592,1451.5273,99.1592,1455.5273,109.1592,1459.5273,105.1592,1455.5273" style="stroke:#666666;stroke-width:1.0;"/><line style="stroke:#666666;stroke-width:1.0;stroke-dasharray:2.0,2.0;" x1="103.1592" x2="679.3892" y1="1455.5273" y2="1455.5273"/><text fill="#000000" font-family="Verdana" font-size="13" lengthAdjust="spacing" textLength="61.8896" x="115.1592" y="1450.7979">Complete</text><polygon fill="#666666" points="995.1362,1481.3267,1005.1362,1485.3267,995.1362,1489.3267,999.1362,1485.3267" style="stroke:#666666;stroke-width:1.0;"/><line style="stroke:#666666;stroke-width:1.0;" x1="833.6465" x2="1001.1362" y1="1485.3267" y2="1485.3267"/><text fill="#000000" font-family="Verdana" font-size="13" lengthAdjust="spacing" textLength="60.8042" x="840.6465" y="1480.5972">Present()</text><line style="stroke:#666666;stroke-width:1.0;" x1="1007.1362" x2="1049.1362" y1="1515.126" y2="1515.126"/><line style="stroke:#666666;stroke-width:1.0;" x1="1049.1362" x2="1049.1362" y1="1515.126" y2="1528.126"/><line style="stroke:#666666;stroke-width:1.0;" x1="1008.1362" x2="1049.1362" y1="1528.126" y2="1528.126"/><polygon fill="#666666" points="1018.1362,1524.126,1008.1362,1528.126,1018.1362,1532.126,1014.1362,1528.126" style="stroke:#666666;stroke-width:1.0;"/><text fill="#000000" font-family="Verdana" font-size="13" lengthAdjust="spacing" textLength="93.5835" x="1014.1362" y="1510.3965">SwapBuffers()</text><rect fill="#FFFFFF" height="3" style="stroke:#FFFFFF;stroke-width:1.0;" width="1109.7197" x="5" y="1557.0256"/><line style="stroke:#000000;stroke-width:0.5;" x1="5" x2="1114.7197" y1="1557.0256" y2="1557.0256"/><line style="stroke:#000000;stroke-width:0.5;" x1="5" x2="1114.7197" y1="1560.0256" y2="1560.0256"/><rect fill="#FFFFFF" height="23.7993" style="stroke:#000000;stroke-width:1.0;" width="293.1318" x="413.2939" y="1546.126"/><text fill="#000000" font-family="Verdana" font-size="13" font-weight="bold" lengthAdjust="spacing" textLength="274.6885" x="419.2939" y="1563.1958">Frame N+1 Preparation (Overlapped)</text><path d="M10,1584.9253 L10,1641.9253 L187,1641.9253 L187,1594.9253 L177,1584.9253 L10,1584.9253 " fill="#FFFFFF" style="stroke:#000000;stroke-width:1.0;"/><path d="M177,1584.9253 L177,1594.9253 L187,1594.9253 L177,1584.9253 " fill="#FFFFFF" style="stroke:#000000;stroke-width:1.0;"/><text fill="#000000" font-family="Verdana" font-size="13" lengthAdjust="spacing" textLength="156.0635" x="16" y="1602.9951">CPU can start preparing</text><text fill="#000000" font-family="Verdana" font-size="13" lengthAdjust="spacing" textLength="141.9907" x="16" y="1618.7944">next frame while GPU</text><text fill="#000000" font-family="Verdana" font-size="13" lengthAdjust="spacing" textLength="104.8823" x="16" y="1634.5938">is still rendering</text><line style="stroke:#666666;stroke-width:1.0;" x1="98.1592" x2="140.1592" y1="1669.1226" y2="1669.1226"/><line style="stroke:#666666;stroke-width:1.0;" x1="140.1592" x2="140.1592" y1="1669.1226" y2="1682.1226"/><line style="stroke:#666666;stroke-width:1.0;" x1="99.1592" x2="140.1592" y1="1682.1226" y2="1682.1226"/><polygon fill="#666666" points="109.1592,1678.1226,99.1592,1682.1226,109.1592,1686.1226,105.1592,1682.1226" style="stroke:#666666;stroke-width:1.0;"/><text fill="#000000" font-family="Verdana" font-size="13" lengthAdjust="spacing" textLength="127.3721" x="105.1592" y="1664.3931">Update Game Logic</text><line style="stroke:#666666;stroke-width:1.0;" x1="98.1592" x2="140.1592" y1="1711.9219" y2="1711.9219"/><line style="stroke:#666666;stroke-width:1.0;" x1="140.1592" x2="140.1592" y1="1711.9219" y2="1724.9219"/><line style="stroke:#666666;stroke-width:1.0;" x1="99.1592" x2="140.1592" y1="1724.9219" y2="1724.9219"/><polygon fill="#666666" points="109.1592,1720.9219,99.1592,1724.9219,109.1592,1728.9219,105.1592,1724.9219" style="stroke:#666666;stroke-width:1.0;"/><text fill="#000000" font-family="Verdana" font-size="13" lengthAdjust="spacing" textLength="109.6938" x="105.1592" y="1707.1924">Update Uniforms</text><line style="stroke:#666666;stroke-width:1.0;" x1="98.1592" x2="140.1592" y1="1754.7212" y2="1754.7212"/><line style="stroke:#666666;stroke-width:1.0;" x1="140.1592" x2="140.1592" y1="1754.7212" y2="1767.7212"/><line style="stroke:#666666;stroke-width:1.0;" x1="99.1592" x2="140.1592" y1="1767.7212" y2="1767.7212"/><polygon fill="#666666" points="109.1592,1763.7212,99.1592,1767.7212,109.1592,1771.7212,105.1592,1767.7212" style="stroke:#666666;stroke-width:1.0;"/><text fill="#000000" font-family="Verdana" font-size="13" lengthAdjust="spacing" textLength="44.332" x="105.1592" y="1749.9917">Culling</text><!--SRC=[XLHDRzf04BtxLqpJYr69rFGG8IGg1GTGf3QueMalkIphmTvclUkiruNartTsRGSRI8eb19utNszctWUROOvGI2PKK3uALJ33SbWp_fWQNQaaqb8R-3YVkQU3AF6fGiNnoXYzRK2NbvST17rRmKN1b9qUXHkvvmsmDWcQ1ZWQZOB02YiHlcjwhM0HtyESN11cE-IL5Lh1NEfj47HYm5b4i9-PGPQS0Ik1_XxOTPupbS1CSHUt1irEOwRLPjD2fds8g-P7XHLwg_zr1F2cnM41goqheenez-PL50IJITFOBSG67I- -kSaaSCsSVoNG6AxuKoKCtkBEtkGinN0Gh28u9ok1nk3VtQW4Tq7h5St6414H5fj-cfR9at4h_fB1TUxIjmtV8QSX29L26345QuIOgf4IvS2LuqPPlBuwzWg0FftiKqo5kaEgoiIiB4FBJ8fsKCDcBMg5DXO5Ig4mZ5VB4-QfKCd2vGu_3s7ZgBfcbhqBl1X2JWqQmUGUwx-arWNCQSUGyGok3Tj6r8utlHFlon3q-WzokuzsXFw5nkAkNfhm3OmVqJiGLu_7ODBOYRvzyNlWJ2KTPZlz7V9FKoegYnrOhw3Mt4xWV_Jp6dzg0DUYB9ZbMRWRmlCGNWR79VUBSQrrrw_c1HQei7C3jVzq37EXH9cHNuBT1Owc-pDe8jM1V6ntgAjgdOkox1-LlzbnRRDXpt4GUAD3BLpKMd2mZLxkxyTTzs50aIecmxaJoO4luQfyLZmpMkdAwq57mAYSHUtj4zKRH2gWELAzT55TwnqhtKQ_U6fw5fAFD4TIbxSybp64zRh0ih8qWa57TaXqId8-L9scdz-Cw6cwQMZfi5r8j1YqoPnGDT7wOt8yERcg8Ku2QwRT5dJqxzD5Jm73vLyqaXK59bv_bAPGcjurwIaf9vagILSi5DwHEdzGYaIorWdOPaBwz0-qEuGKKeBnH3YENgNIXRil4b-gS_kcKy5FMU-Ls6YJbprRL4dfmlq3]--></g></svg>