<svg xmlns="http://www.w3.org/2000/svg" xmlns:xlink="http://www.w3.org/1999/xlink" contentStyleType="text/css" height="2563px" preserveAspectRatio="none" style="width:1399px;height:2563px;background:#FEFEFE;" version="1.1" viewBox="0 0 1399 2563" width="1399px" zoomAndPan="magnify"><title>WebGPU Mesh Rendering - Initialization Sequence</title><defs/><g><rect fill="#FEFEFE" height="2563" style="stroke:none;stroke-width:1.0;" width="1399" x="0" y="0"/><text fill="#000000" font-family="Verdana" font-size="22" font-weight="bold" lengthAdjust="spacing" textLength="623.7344" x="386.397" y="37.1182">WebGPU Mesh Rendering - Initialization Sequence</text><rect fill="#FFFFFF" height="2358.3174" style="stroke:#000000;stroke-width:1.0;" width="10" x="325.6846" y="160.3506"/><rect fill="#FFFFFF" height="1326.1406" style="stroke:#000000;stroke-width:1.0;" width="10" x="330.6846" y="1192.5273"/><rect fill="#FFFFFF" height="424.7598" style="stroke:#000000;stroke-width:1.0;" width="10" x="335.6846" y="2093.9082"/><rect fill="#FFFFFF" height="197.1646" style="stroke:#000000;stroke-width:1.0;" width="10" x="340.6846" y="2321.5034"/><rect fill="#FFFFFF" height="1913.3276" style="stroke:#000000;stroke-width:1.0;" width="10" x="563.623" y="605.3403"/><rect fill="#FFFFFF" height="1025.9468" style="stroke:#000000;stroke-width:1.0;" width="10" x="718.4985" y="1492.7212"/><rect fill="#FFFFFF" height="136.9966" style="stroke:#000000;stroke-width:1.0;" width="1058.6245" x="250.0156" y="953.1328"/><rect fill="#FFFFFF" height="398.1904" style="stroke:#000000;stroke-width:1.0;" width="1142.5127" x="240.0156" y="1593.3198"/><rect fill="#FFFFFF" height="77.3979" style="stroke:#000000;stroke-width:1.0;" width="1058.6245" x="250.0156" y="1647.9185"/><rect fill="#FFFFFF" height="114.5659" style="stroke:#000000;stroke-width:1.0;" width="1058.6245" x="250.0156" y="2336.5034"/><rect fill="#FFFFFF" height="45.168" style="stroke:none;stroke-width:1.0;" width="1058.6245" x="250.0156" y="2405.9014"/><line style="stroke:#000000;stroke-width:1.0;" x1="65" x2="65" y1="84.752" y2="2527.668"/><line style="stroke:#000000;stroke-width:1.0;" x1="330.0156" x2="330.0156" y1="84.752" y2="2527.668"/><line style="stroke:#000000;stroke-width:1.0;" x1="568.2007" x2="568.2007" y1="84.752" y2="2527.668"/><line style="stroke:#000000;stroke-width:1.0;" x1="723.0454" x2="723.0454" y1="84.752" y2="2527.668"/><line style="stroke:#000000;stroke-width:1.0;" x1="934.604" x2="934.604" y1="84.752" y2="2527.668"/><line style="stroke:#000000;stroke-width:1.0;" x1="1086.5444" x2="1086.5444" y1="84.752" y2="2527.668"/><line style="stroke:#000000;stroke-width:1.0;" x1="1232.2759" x2="1232.2759" y1="84.752" y2="2527.668"/><rect fill="#F8F8F8" height="31.0146" rx="2.5" ry="2.5" style="stroke:#000000;stroke-width:1.0;" width="91.1162" x="20" y="52.7373"/><text fill="#000000" font-family="Verdana" font-size="14" lengthAdjust="spacing" textLength="77.1162" x="27" y="73.8125">Application</text><rect fill="#F8F8F8" height="31.0146" rx="2.5" ry="2.5" style="stroke:#000000;stroke-width:1.0;" width="91.1162" x="20" y="2526.668"/><text fill="#000000" font-family="Verdana" font-size="14" lengthAdjust="spacing" textLength="77.1162" x="27" y="2547.7432">Application</text><rect fill="#F8F8F8" height="31.0146" rx="2.5" ry="2.5" style="stroke:#000000;stroke-width:1.0;" width="121.3379" x="270.0156" y="52.7373"/><text fill="#000000" font-family="Verdana" font-size="14" lengthAdjust="spacing" textLength="107.3379" x="277.0156" y="73.8125">WebGPUDevice</text><rect fill="#F8F8F8" height="31.0146" rx="2.5" ry="2.5" style="stroke:#000000;stroke-width:1.0;" width="121.3379" x="270.0156" y="2526.668"/><text fill="#000000" font-family="Verdana" font-size="14" lengthAdjust="spacing" textLength="107.3379" x="277.0156" y="2547.7432">WebGPUDevice</text><rect fill="#F8F8F8" height="31.0146" rx="2.5" ry="2.5" style="stroke:#000000;stroke-width:1.0;" width="138.8447" x="499.2007" y="52.7373"/><text fill="#000000" font-family="Verdana" font-size="14" lengthAdjust="spacing" textLength="124.8447" x="506.2007" y="73.8125">ResourceManager</text><rect fill="#F8F8F8" height="31.0146" rx="2.5" ry="2.5" style="stroke:#000000;stroke-width:1.0;" width="138.8447" x="499.2007" y="2526.668"/><text fill="#000000" font-family="Verdana" font-size="14" lengthAdjust="spacing" textLength="124.8447" x="506.2007" y="2547.7432">ResourceManager</text><rect fill="#F8F8F8" height="31.0146" rx="2.5" ry="2.5" style="stroke:#000000;stroke-width:1.0;" width="110.9063" x="668.0454" y="52.7373"/><text fill="#000000" font-family="Verdana" font-size="14" lengthAdjust="spacing" textLength="96.9063" x="675.0454" y="73.8125">PipelineCache</text><rect fill="#F8F8F8" height="31.0146" rx="2.5" ry="2.5" style="stroke:#000000;stroke-width:1.0;" width="110.9063" x="668.0454" y="2526.668"/><text fill="#000000" font-family="Verdana" font-size="14" lengthAdjust="spacing" textLength="96.9063" x="675.0454" y="2547.7432">PipelineCache</text><rect fill="#F8F8F8" height="31.0146" rx="2.5" ry="2.5" style="stroke:#000000;stroke-width:1.0;" width="124.9404" x="872.604" y="52.7373"/><text fill="#000000" font-family="Verdana" font-size="14" lengthAdjust="spacing" textLength="110.9404" x="879.604" y="73.8125">wgpu::Instance</text><rect fill="#F8F8F8" height="31.0146" rx="2.5" ry="2.5" style="stroke:#000000;stroke-width:1.0;" width="124.9404" x="872.604" y="2526.668"/><text fill="#000000" font-family="Verdana" font-size="14" lengthAdjust="spacing" textLength="110.9404" x="879.604" y="2547.7432">wgpu::Instance</text><rect fill="#F8F8F8" height="31.0146" rx="2.5" ry="2.5" style="stroke:#000000;stroke-width:1.0;" width="119.7314" x="1027.5444" y="52.7373"/><text fill="#000000" font-family="Verdana" font-size="14" lengthAdjust="spacing" textLength="105.7314" x="1034.5444" y="73.8125">wgpu::Adapter</text><rect fill="#F8F8F8" height="31.0146" rx="2.5" ry="2.5" style="stroke:#000000;stroke-width:1.0;" width="119.7314" x="1027.5444" y="2526.668"/><text fill="#000000" font-family="Verdana" font-size="14" lengthAdjust="spacing" textLength="105.7314" x="1034.5444" y="2547.7432">wgpu::Adapter</text><rect fill="#F8F8F8" height="31.0146" rx="2.5" ry="2.5" style="stroke:#000000;stroke-width:1.0;" width="111.3643" x="1177.2759" y="52.7373"/><text fill="#000000" font-family="Verdana" font-size="14" lengthAdjust="spacing" textLength="97.3643" x="1184.2759" y="73.8125">wgpu::Device</text><rect fill="#F8F8F8" height="31.0146" rx="2.5" ry="2.5" style="stroke:#000000;stroke-width:1.0;" width="111.3643" x="1177.2759" y="2526.668"/><text fill="#000000" font-family="Verdana" font-size="14" lengthAdjust="spacing" textLength="97.3643" x="1184.2759" y="2547.7432">wgpu::Device</text><rect fill="#FFFFFF" height="2358.3174" style="stroke:#000000;stroke-width:1.0;" width="10" x="325.6846" y="160.3506"/><rect fill="#FFFFFF" height="1326.1406" style="stroke:#000000;stroke-width:1.0;" width="10" x="330.6846" y="1192.5273"/><rect fill="#FFFFFF" height="424.7598" style="stroke:#000000;stroke-width:1.0;" width="10" x="335.6846" y="2093.9082"/><rect fill="#FFFFFF" height="197.1646" style="stroke:#000000;stroke-width:1.0;" width="10" x="340.6846" y="2321.5034"/><rect fill="#FFFFFF" height="1913.3276" style="stroke:#000000;stroke-width:1.0;" width="10" x="563.623" y="605.3403"/><rect fill="#FFFFFF" height="1025.9468" style="stroke:#000000;stroke-width:1.0;" width="10" x="718.4985" y="1492.7212"/><rect fill="#FFFFFF" height="3" style="stroke:#FFFFFF;stroke-width:1.0;" width="1387.5283" x="5" y="115.6516"/><line style="stroke:#000000;stroke-width:0.5;" x1="5" x2="1392.5283" y1="115.6516" y2="115.6516"/><line style="stroke:#000000;stroke-width:0.5;" x1="5" x2="1392.5283" y1="118.6516" y2="118.6516"/><rect fill="#FFFFFF" height="23.7993" style="stroke:#000000;stroke-width:1.0;" width="165.2139" x="616.1572" y="104.752"/><text fill="#000000" font-family="Verdana" font-size="13" font-weight="bold" lengthAdjust="spacing" textLength="146.7705" x="622.1572" y="121.8218">Device Initialization</text><polygon fill="#666666" points="313.6846,156.3506,323.6846,160.3506,313.6846,164.3506,317.6846,160.3506" style="stroke:#666666;stroke-width:1.0;"/><line style="stroke:#666666;stroke-width:1.0;" x1="65.5581" x2="319.6846" y1="160.3506" y2="160.3506"/><text fill="#000000" font-family="Verdana" font-size="13" lengthAdjust="spacing" textLength="154.521" x="72.5581" y="155.6211">CreateWebGPUDevice()</text><polygon fill="#666666" points="923.0742,186.1499,933.0742,190.1499,923.0742,194.1499,927.0742,190.1499" style="stroke:#666666;stroke-width:1.0;"/><line style="stroke:#666666;stroke-width:1.0;" x1="335.6846" x2="929.0742" y1="190.1499" y2="190.1499"/><text fill="#000000" font-family="Verdana" font-size="13" lengthAdjust="spacing" textLength="110.9951" x="342.6846" y="185.4204">CreateInstance()</text><polygon fill="#666666" points="346.6846,215.9492,336.6846,219.9492,346.6846,223.9492,342.6846,219.9492" style="stroke:#666666;stroke-width:1.0;"/><line style="stroke:#666666;stroke-width:1.0;stroke-dasharray:2.0,2.0;" x1="340.6846" x2="934.0742" y1="219.9492" y2="219.9492"/><text fill="#000000" font-family="Verdana" font-size="13" lengthAdjust="spacing" textLength="54.2407" x="352.6846" y="215.2197">instance</text><polygon fill="#666666" points="923.0742,245.7485,933.0742,249.7485,923.0742,253.7485,927.0742,249.7485" style="stroke:#666666;stroke-width:1.0;"/><line style="stroke:#666666;stroke-width:1.0;" x1="335.6846" x2="929.0742" y1="249.7485" y2="249.7485"/><text fill="#000000" font-family="Verdana" font-size="13" lengthAdjust="spacing" textLength="141.1719" x="342.6846" y="245.019">EnumerateAdapters()</text><polygon fill="#666666" points="346.6846,275.5479,336.6846,279.5479,346.6846,283.5479,342.6846,279.5479" style="stroke:#666666;stroke-width:1.0;"/><line style="stroke:#666666;stroke-width:1.0;stroke-dasharray:2.0,2.0;" x1="340.6846" x2="934.0742" y1="279.5479" y2="279.5479"/><text fill="#000000" font-family="Verdana" font-size="13" lengthAdjust="spacing" textLength="68.8086" x="352.6846" y="274.8184">adapters[]</text><line style="stroke:#666666;stroke-width:1.0;" x1="335.6846" x2="377.6846" y1="313.7468" y2="313.7468"/><line style="stroke:#666666;stroke-width:1.0;" x1="377.6846" x2="377.6846" y1="313.7468" y2="326.7468"/><line style="stroke:#666666;stroke-width:1.0;" x1="336.6846" x2="377.6846" y1="326.7468" y2="326.7468"/><polygon fill="#666666" points="346.6846,322.7468,336.6846,326.7468,346.6846,330.7468,342.6846,326.7468" style="stroke:#666666;stroke-width:1.0;"/><text fill="#000000" font-family="Verdana" font-size="13" lengthAdjust="spacing" textLength="131.5044" x="342.6846" y="309.0173">SelectBestAdapter()</text><path d="M495.5044,292.5479 L495.5044,333.5479 L654.5044,333.5479 L654.5044,302.5479 L644.5044,292.5479 L495.5044,292.5479 " fill="#FFFFFF" style="stroke:#000000;stroke-width:1.0;"/><path d="M644.5044,292.5479 L644.5044,302.5479 L654.5044,302.5479 L644.5044,292.5479 " fill="#FFFFFF" style="stroke:#000000;stroke-width:1.0;"/><text fill="#000000" font-family="Verdana" font-size="13" lengthAdjust="spacing" textLength="128.8574" x="501.5044" y="310.6177">Prefer Discrete GPU</text><text fill="#000000" font-family="Verdana" font-size="13" lengthAdjust="spacing" textLength="138.7661" x="501.5044" y="326.417">Check features/limits</text><polygon fill="#666666" points="1075.4102,356.9458,1085.4102,360.9458,1075.4102,364.9458,1079.4102,360.9458" style="stroke:#666666;stroke-width:1.0;"/><line style="stroke:#666666;stroke-width:1.0;" x1="335.6846" x2="1081.4102" y1="360.9458" y2="360.9458"/><text fill="#000000" font-family="Verdana" font-size="13" lengthAdjust="spacing" textLength="173.2593" x="342.6846" y="356.2163">RequestDevice(descriptor)</text><polygon fill="#666666" points="1220.958,386.7451,1230.958,390.7451,1220.958,394.7451,1224.958,390.7451" style="stroke:#666666;stroke-width:1.0;"/><line style="stroke:#666666;stroke-width:1.0;stroke-dasharray:2.0,2.0;" x1="1087.4102" x2="1226.958" y1="390.7451" y2="390.7451"/><text fill="#000000" font-family="Verdana" font-size="13" lengthAdjust="spacing" textLength="41.6216" x="1094.4102" y="386.0156">device</text><polygon fill="#666666" points="1220.958,416.5444,1230.958,420.5444,1220.958,424.5444,1224.958,420.5444" style="stroke:#666666;stroke-width:1.0;"/><line style="stroke:#666666;stroke-width:1.0;" x1="335.6846" x2="1226.958" y1="420.5444" y2="420.5444"/><text fill="#000000" font-family="Verdana" font-size="13" lengthAdjust="spacing" textLength="76.9272" x="342.6846" y="415.8149">GetQueue()</text><polygon fill="#666666" points="346.6846,446.3438,336.6846,450.3438,346.6846,454.3438,342.6846,450.3438" style="stroke:#666666;stroke-width:1.0;"/><line style="stroke:#666666;stroke-width:1.0;stroke-dasharray:2.0,2.0;" x1="340.6846" x2="1231.958" y1="450.3438" y2="450.3438"/><text fill="#000000" font-family="Verdana" font-size="13" lengthAdjust="spacing" textLength="40.041" x="352.6846" y="445.6143">queue</text><line style="stroke:#666666;stroke-width:1.0;" x1="335.6846" x2="377.6846" y1="484.5427" y2="484.5427"/><line style="stroke:#666666;stroke-width:1.0;" x1="377.6846" x2="377.6846" y1="484.5427" y2="497.5427"/><line style="stroke:#666666;stroke-width:1.0;" x1="336.6846" x2="377.6846" y1="497.5427" y2="497.5427"/><polygon fill="#666666" points="346.6846,493.5427,336.6846,497.5427,346.6846,501.5427,342.6846,497.5427" style="stroke:#666666;stroke-width:1.0;"/><text fill="#000000" font-family="Verdana" font-size="13" lengthAdjust="spacing" textLength="127.188" x="342.6846" y="479.8132">CreateSwapChain()</text><path d="M491.188,463.3438 L491.188,504.3438 L620.188,504.3438 L620.188,473.3438 L610.188,463.3438 L491.188,463.3438 " fill="#FFFFFF" style="stroke:#000000;stroke-width:1.0;"/><path d="M610.188,463.3438 L610.188,473.3438 L620.188,473.3438 L610.188,463.3438 " fill="#FFFFFF" style="stroke:#000000;stroke-width:1.0;"/><text fill="#000000" font-family="Verdana" font-size="13" lengthAdjust="spacing" textLength="108.7607" x="497.188" y="481.4136">Platform-specific</text><text fill="#000000" font-family="Verdana" font-size="13" lengthAdjust="spacing" textLength="104.6919" x="497.188" y="497.2129">surface creation</text><polygon fill="#666666" points="76.5581,527.7417,66.5581,531.7417,76.5581,535.7417,72.5581,531.7417" style="stroke:#666666;stroke-width:1.0;"/><line style="stroke:#666666;stroke-width:1.0;stroke-dasharray:2.0,2.0;" x1="70.5581" x2="324.6846" y1="531.7417" y2="531.7417"/><text fill="#000000" font-family="Verdana" font-size="13" lengthAdjust="spacing" textLength="107.9355" x="82.5581" y="527.0122">WebGPUDevice*</text><rect fill="#FFFFFF" height="3" style="stroke:#FFFFFF;stroke-width:1.0;" width="1387.5283" x="5" y="560.6414"/><line style="stroke:#000000;stroke-width:0.5;" x1="5" x2="1392.5283" y1="560.6414" y2="560.6414"/><line style="stroke:#000000;stroke-width:0.5;" x1="5" x2="1392.5283" y1="563.6414" y2="563.6414"/><rect fill="#FFFFFF" height="23.7993" style="stroke:#000000;stroke-width:1.0;" width="148.1069" x="624.7107" y="549.7417"/><text fill="#000000" font-family="Verdana" font-size="13" font-weight="bold" lengthAdjust="spacing" textLength="129.6636" x="630.7107" y="566.8115">Resource Loading</text><polygon fill="#666666" points="551.623,601.3403,561.623,605.3403,551.623,609.3403,555.623,605.3403" style="stroke:#666666;stroke-width:1.0;"/><line style="stroke:#666666;stroke-width:1.0;" x1="65.5581" x2="557.623" y1="605.3403" y2="605.3403"/><text fill="#000000" font-family="Verdana" font-size="13" lengthAdjust="spacing" textLength="154.5083" x="72.5581" y="600.6108">LoadMesh("model.gltf")</text><line style="stroke:#666666;stroke-width:1.0;" x1="573.623" x2="615.623" y1="639.5393" y2="639.5393"/><line style="stroke:#666666;stroke-width:1.0;" x1="615.623" x2="615.623" y1="639.5393" y2="652.5393"/><line style="stroke:#666666;stroke-width:1.0;" x1="574.623" x2="615.623" y1="652.5393" y2="652.5393"/><polygon fill="#666666" points="584.623,648.5393,574.623,652.5393,584.623,656.5393,580.623,652.5393" style="stroke:#666666;stroke-width:1.0;"/><text fill="#000000" font-family="Verdana" font-size="13" lengthAdjust="spacing" textLength="80.3169" x="580.623" y="634.8098">ParseGLTF()</text><path d="M682.3169,618.3403 L682.3169,659.3403 L817.3169,659.3403 L817.3169,628.3403 L807.3169,618.3403 L682.3169,618.3403 " fill="#FFFFFF" style="stroke:#000000;stroke-width:1.0;"/><path d="M807.3169,618.3403 L807.3169,628.3403 L817.3169,628.3403 L807.3169,618.3403 " fill="#FFFFFF" style="stroke:#000000;stroke-width:1.0;"/><text fill="#000000" font-family="Verdana" font-size="13" lengthAdjust="spacing" textLength="106.5518" x="688.3169" y="636.4102">Extract vertices,</text><text fill="#000000" font-family="Verdana" font-size="13" lengthAdjust="spacing" textLength="114.6323" x="688.3169" y="652.2095">indices, materials</text><polygon fill="#666666" points="346.6846,682.7383,336.6846,686.7383,346.6846,690.7383,342.6846,686.7383" style="stroke:#666666;stroke-width:1.0;"/><line style="stroke:#666666;stroke-width:1.0;" x1="340.6846" x2="562.623" y1="686.7383" y2="686.7383"/><text fill="#000000" font-family="Verdana" font-size="13" lengthAdjust="spacing" textLength="166.7212" x="352.6846" y="682.0088">CreateBuffer(vertexData)</text><polygon fill="#666666" points="1220.958,712.5376,1230.958,716.5376,1220.958,720.5376,1224.958,716.5376" style="stroke:#666666;stroke-width:1.0;"/><line style="stroke:#666666;stroke-width:1.0;" x1="335.6846" x2="1226.958" y1="716.5376" y2="716.5376"/><text fill="#000000" font-family="Verdana" font-size="13" lengthAdjust="spacing" textLength="123.811" x="342.6846" y="711.8081">CreateBuffer(desc)</text><polygon fill="#666666" points="346.6846,742.3369,336.6846,746.3369,346.6846,750.3369,342.6846,746.3369" style="stroke:#666666;stroke-width:1.0;"/><line style="stroke:#666666;stroke-width:1.0;stroke-dasharray:2.0,2.0;" x1="340.6846" x2="1231.958" y1="746.3369" y2="746.3369"/><text fill="#000000" font-family="Verdana" font-size="13" lengthAdjust="spacing" textLength="81.1167" x="352.6846" y="741.6074">vertexBuffer</text><polygon fill="#666666" points="551.623,772.1362,561.623,776.1362,551.623,780.1362,555.623,776.1362" style="stroke:#666666;stroke-width:1.0;"/><line style="stroke:#666666;stroke-width:1.0;stroke-dasharray:2.0,2.0;" x1="335.6846" x2="557.623" y1="776.1362" y2="776.1362"/><text fill="#000000" font-family="Verdana" font-size="13" lengthAdjust="spacing" textLength="84.7856" x="342.6846" y="771.4067">BufferHandle</text><polygon fill="#666666" points="346.6846,801.9355,336.6846,805.9355,346.6846,809.9355,342.6846,805.9355" style="stroke:#666666;stroke-width:1.0;"/><line style="stroke:#666666;stroke-width:1.0;" x1="340.6846" x2="562.623" y1="805.9355" y2="805.9355"/><text fill="#000000" font-family="Verdana" font-size="13" lengthAdjust="spacing" textLength="160.5068" x="352.6846" y="801.2061">CreateBuffer(indexData)</text><polygon fill="#666666" points="1220.958,831.7349,1230.958,835.7349,1220.958,839.7349,1224.958,835.7349" style="stroke:#666666;stroke-width:1.0;"/><line style="stroke:#666666;stroke-width:1.0;" x1="335.6846" x2="1226.958" y1="835.7349" y2="835.7349"/><text fill="#000000" font-family="Verdana" font-size="13" lengthAdjust="spacing" textLength="123.811" x="342.6846" y="831.0054">CreateBuffer(desc)</text><polygon fill="#666666" points="346.6846,861.5342,336.6846,865.5342,346.6846,869.5342,342.6846,865.5342" style="stroke:#666666;stroke-width:1.0;"/><line style="stroke:#666666;stroke-width:1.0;stroke-dasharray:2.0,2.0;" x1="340.6846" x2="1231.958" y1="865.5342" y2="865.5342"/><text fill="#000000" font-family="Verdana" font-size="13" lengthAdjust="spacing" textLength="74.9023" x="352.6846" y="860.8047">indexBuffer</text><polygon fill="#666666" points="551.623,891.3335,561.623,895.3335,551.623,899.3335,555.623,895.3335" style="stroke:#666666;stroke-width:1.0;"/><line style="stroke:#666666;stroke-width:1.0;stroke-dasharray:2.0,2.0;" x1="335.6846" x2="557.623" y1="895.3335" y2="895.3335"/><text fill="#000000" font-family="Verdana" font-size="13" lengthAdjust="spacing" textLength="84.7856" x="342.6846" y="890.604">BufferHandle</text><line style="stroke:#666666;stroke-width:1.0;" x1="573.623" x2="615.623" y1="925.1328" y2="925.1328"/><line style="stroke:#666666;stroke-width:1.0;" x1="615.623" x2="615.623" y1="925.1328" y2="938.1328"/><line style="stroke:#666666;stroke-width:1.0;" x1="574.623" x2="615.623" y1="938.1328" y2="938.1328"/><polygon fill="#666666" points="584.623,934.1328,574.623,938.1328,584.623,942.1328,580.623,938.1328" style="stroke:#666666;stroke-width:1.0;"/><text fill="#000000" font-family="Verdana" font-size="13" lengthAdjust="spacing" textLength="99.7026" x="580.623" y="920.4033">LoadTextures()</text><path d="M250.0156,953.1328 L326.3984,953.1328 L326.3984,960.9321 L316.3984,970.9321 L250.0156,970.9321 L250.0156,953.1328 " fill="#FFFFFF" style="stroke:#000000;stroke-width:1.0;"/><rect fill="none" height="136.9966" style="stroke:#000000;stroke-width:1.0;" width="1058.6245" x="250.0156" y="953.1328"/><text fill="#000000" font-family="Verdana" font-size="13" font-weight="bold" lengthAdjust="spacing" textLength="31.3828" x="265.0156" y="967.2026">loop</text><text fill="#000000" font-family="Verdana" font-size="11" font-weight="bold" lengthAdjust="spacing" textLength="113.9048" x="341.3984" y="966.1919">[For each texture]</text><polygon fill="#666666" points="346.6846,988.7314,336.6846,992.7314,346.6846,996.7314,342.6846,992.7314" style="stroke:#666666;stroke-width:1.0;"/><line style="stroke:#666666;stroke-width:1.0;" x1="340.6846" x2="562.623" y1="992.7314" y2="992.7314"/><text fill="#000000" font-family="Verdana" font-size="13" lengthAdjust="spacing" textLength="175.5571" x="352.6846" y="988.002">CreateTexture(imageData)</text><polygon fill="#666666" points="1220.958,1018.5308,1230.958,1022.5308,1220.958,1026.5308,1224.958,1022.5308" style="stroke:#666666;stroke-width:1.0;"/><line style="stroke:#666666;stroke-width:1.0;" x1="335.6846" x2="1226.958" y1="1022.5308" y2="1022.5308"/><text fill="#000000" font-family="Verdana" font-size="13" lengthAdjust="spacing" textLength="134.3291" x="342.6846" y="1017.8013">CreateTexture(desc)</text><polygon fill="#666666" points="346.6846,1048.3301,336.6846,1052.3301,346.6846,1056.3301,342.6846,1052.3301" style="stroke:#666666;stroke-width:1.0;"/><line style="stroke:#666666;stroke-width:1.0;stroke-dasharray:2.0,2.0;" x1="340.6846" x2="1231.958" y1="1052.3301" y2="1052.3301"/><text fill="#000000" font-family="Verdana" font-size="13" lengthAdjust="spacing" textLength="47.2012" x="352.6846" y="1047.6006">texture</text><polygon fill="#666666" points="551.623,1078.1294,561.623,1082.1294,551.623,1086.1294,555.623,1082.1294" style="stroke:#666666;stroke-width:1.0;"/><line style="stroke:#666666;stroke-width:1.0;stroke-dasharray:2.0,2.0;" x1="335.6846" x2="557.623" y1="1082.1294" y2="1082.1294"/><text fill="#000000" font-family="Verdana" font-size="13" lengthAdjust="spacing" textLength="95.3037" x="342.6846" y="1077.3999">TextureHandle</text><polygon fill="#666666" points="76.5581,1114.9287,66.5581,1118.9287,76.5581,1122.9287,72.5581,1118.9287" style="stroke:#666666;stroke-width:1.0;"/><line style="stroke:#666666;stroke-width:1.0;stroke-dasharray:2.0,2.0;" x1="70.5581" x2="562.623" y1="1118.9287" y2="1118.9287"/><text fill="#000000" font-family="Verdana" font-size="13" lengthAdjust="spacing" textLength="78.9141" x="82.5581" y="1114.1992">MeshHandle</text><rect fill="#FFFFFF" height="3" style="stroke:#FFFFFF;stroke-width:1.0;" width="1387.5283" x="5" y="1147.8284"/><line style="stroke:#000000;stroke-width:0.5;" x1="5" x2="1392.5283" y1="1147.8284" y2="1147.8284"/><line style="stroke:#000000;stroke-width:0.5;" x1="5" x2="1392.5283" y1="1150.8284" y2="1150.8284"/><rect fill="#FFFFFF" height="23.7993" style="stroke:#000000;stroke-width:1.0;" width="161.5513" x="617.9885" y="1136.9287"/><text fill="#000000" font-family="Verdana" font-size="13" font-weight="bold" lengthAdjust="spacing" textLength="143.1079" x="623.9885" y="1153.9985">Shader Compilation</text><polygon fill="#666666" points="318.6846,1188.5273,328.6846,1192.5273,318.6846,1196.5273,322.6846,1192.5273" style="stroke:#666666;stroke-width:1.0;"/><line style="stroke:#666666;stroke-width:1.0;" x1="65.5581" x2="324.6846" y1="1192.5273" y2="1192.5273"/><text fill="#000000" font-family="Verdana" font-size="13" lengthAdjust="spacing" textLength="170.2822" x="72.5581" y="1187.7979">LoadShader("mesh.wgsl")</text><line style="stroke:#666666;stroke-width:1.0;" x1="340.6846" x2="382.6846" y1="1222.3267" y2="1222.3267"/><line style="stroke:#666666;stroke-width:1.0;" x1="382.6846" x2="382.6846" y1="1222.3267" y2="1235.3267"/><line style="stroke:#666666;stroke-width:1.0;" x1="341.6846" x2="382.6846" y1="1235.3267" y2="1235.3267"/><polygon fill="#666666" points="351.6846,1231.3267,341.6846,1235.3267,351.6846,1239.3267,347.6846,1235.3267" style="stroke:#666666;stroke-width:1.0;"/><text fill="#000000" font-family="Verdana" font-size="13" lengthAdjust="spacing" textLength="147.9766" x="347.6846" y="1217.5972">ReadFile("mesh.wgsl")</text><line style="stroke:#666666;stroke-width:1.0;" x1="340.6846" x2="382.6846" y1="1269.5256" y2="1269.5256"/><line style="stroke:#666666;stroke-width:1.0;" x1="382.6846" x2="382.6846" y1="1269.5256" y2="1282.5256"/><line style="stroke:#666666;stroke-width:1.0;" x1="341.6846" x2="382.6846" y1="1282.5256" y2="1282.5256"/><polygon fill="#666666" points="351.6846,1278.5256,341.6846,1282.5256,351.6846,1286.5256,347.6846,1282.5256" style="stroke:#666666;stroke-width:1.0;"/><text fill="#000000" font-family="Verdana" font-size="13" lengthAdjust="spacing" textLength="128.8511" x="347.6846" y="1264.7961">PreprocessShader()</text><path d="M502.8511,1248.3267 L502.8511,1289.3267 L631.8511,1289.3267 L631.8511,1258.3267 L621.8511,1248.3267 L502.8511,1248.3267 " fill="#FFFFFF" style="stroke:#000000;stroke-width:1.0;"/><path d="M621.8511,1248.3267 L621.8511,1258.3267 L631.8511,1258.3267 L621.8511,1248.3267 " fill="#FFFFFF" style="stroke:#000000;stroke-width:1.0;"/><text fill="#000000" font-family="Verdana" font-size="13" lengthAdjust="spacing" textLength="107.4912" x="508.8511" y="1266.3965">Handle includes,</text><text fill="#000000" font-family="Verdana" font-size="13" lengthAdjust="spacing" textLength="108.5703" x="508.8511" y="1282.1958">defines, variants</text><polygon fill="#666666" points="1220.958,1312.7246,1230.958,1316.7246,1220.958,1320.7246,1224.958,1316.7246" style="stroke:#666666;stroke-width:1.0;"/><line style="stroke:#666666;stroke-width:1.0;" x1="340.6846" x2="1226.958" y1="1316.7246" y2="1316.7246"/><text fill="#000000" font-family="Verdana" font-size="13" lengthAdjust="spacing" textLength="176.7251" x="347.6846" y="1311.9951">CreateShaderModule(wgsl)</text><line style="stroke:#666666;stroke-width:1.0;" x1="1232.958" x2="1274.958" y1="1346.5239" y2="1346.5239"/><line style="stroke:#666666;stroke-width:1.0;" x1="1274.958" x2="1274.958" y1="1346.5239" y2="1359.5239"/><line style="stroke:#666666;stroke-width:1.0;" x1="1233.958" x2="1274.958" y1="1359.5239" y2="1359.5239"/><polygon fill="#666666" points="1243.958,1355.5239,1233.958,1359.5239,1243.958,1363.5239,1239.958,1359.5239" style="stroke:#666666;stroke-width:1.0;"/><text fill="#000000" font-family="Verdana" font-size="13" lengthAdjust="spacing" textLength="103.4541" x="1239.958" y="1341.7944">CompileWGSL()</text><polygon fill="#666666" points="351.6846,1385.3232,341.6846,1389.3232,351.6846,1393.3232,347.6846,1389.3232" style="stroke:#666666;stroke-width:1.0;"/><line style="stroke:#666666;stroke-width:1.0;stroke-dasharray:2.0,2.0;" x1="345.6846" x2="1231.958" y1="1389.3232" y2="1389.3232"/><text fill="#000000" font-family="Verdana" font-size="13" lengthAdjust="spacing" textLength="90.6826" x="357.6846" y="1384.5938">shaderModule</text><polygon fill="#666666" points="76.5581,1415.1226,66.5581,1419.1226,76.5581,1423.1226,72.5581,1419.1226" style="stroke:#666666;stroke-width:1.0;"/><line style="stroke:#666666;stroke-width:1.0;stroke-dasharray:2.0,2.0;" x1="70.5581" x2="329.6846" y1="1419.1226" y2="1419.1226"/><text fill="#000000" font-family="Verdana" font-size="13" lengthAdjust="spacing" textLength="91.5269" x="82.5581" y="1414.3931">ShaderHandle</text><rect fill="#FFFFFF" height="3" style="stroke:#FFFFFF;stroke-width:1.0;" width="1387.5283" x="5" y="1448.0222"/><line style="stroke:#000000;stroke-width:0.5;" x1="5" x2="1392.5283" y1="1448.0222" y2="1448.0222"/><line style="stroke:#000000;stroke-width:0.5;" x1="5" x2="1392.5283" y1="1451.0222" y2="1451.0222"/><rect fill="#FFFFFF" height="23.7993" style="stroke:#000000;stroke-width:1.0;" width="143.0986" x="627.2148" y="1437.1226"/><text fill="#000000" font-family="Verdana" font-size="13" font-weight="bold" lengthAdjust="spacing" textLength="124.6553" x="633.2148" y="1454.1924">Pipeline Creation</text><polygon fill="#666666" points="706.4985,1488.7212,716.4985,1492.7212,706.4985,1496.7212,710.4985,1492.7212" style="stroke:#666666;stroke-width:1.0;"/><line style="stroke:#666666;stroke-width:1.0;" x1="65.5581" x2="712.4985" y1="1492.7212" y2="1492.7212"/><text fill="#000000" font-family="Verdana" font-size="13" lengthAdjust="spacing" textLength="180.9971" x="72.5581" y="1487.9917">CreateRenderPipeline(desc)</text><line style="stroke:#666666;stroke-width:1.0;" x1="728.4985" x2="770.4985" y1="1522.5205" y2="1522.5205"/><line style="stroke:#666666;stroke-width:1.0;" x1="770.4985" x2="770.4985" y1="1522.5205" y2="1535.5205"/><line style="stroke:#666666;stroke-width:1.0;" x1="729.4985" x2="770.4985" y1="1535.5205" y2="1535.5205"/><polygon fill="#666666" points="739.4985,1531.5205,729.4985,1535.5205,739.4985,1539.5205,735.4985,1535.5205" style="stroke:#666666;stroke-width:1.0;"/><text fill="#000000" font-family="Verdana" font-size="13" lengthAdjust="spacing" textLength="140.8545" x="735.4985" y="1517.791">HashDescriptor(desc)</text><line style="stroke:#666666;stroke-width:1.0;" x1="728.4985" x2="770.4985" y1="1565.3198" y2="1565.3198"/><line style="stroke:#666666;stroke-width:1.0;" x1="770.4985" x2="770.4985" y1="1565.3198" y2="1578.3198"/><line style="stroke:#666666;stroke-width:1.0;" x1="729.4985" x2="770.4985" y1="1578.3198" y2="1578.3198"/><polygon fill="#666666" points="739.4985,1574.3198,729.4985,1578.3198,739.4985,1582.3198,735.4985,1578.3198" style="stroke:#666666;stroke-width:1.0;"/><text fill="#000000" font-family="Verdana" font-size="13" lengthAdjust="spacing" textLength="121.9829" x="735.4985" y="1560.5903">CheckCache(hash)</text><path d="M240.0156,1593.3198 L304.0649,1593.3198 L304.0649,1601.1191 L294.0649,1611.1191 L240.0156,1611.1191 L240.0156,1593.3198 " fill="#FFFFFF" style="stroke:#000000;stroke-width:1.0;"/><rect fill="none" height="398.1904" style="stroke:#000000;stroke-width:1.0;" width="1142.5127" x="240.0156" y="1593.3198"/><text fill="#000000" font-family="Verdana" font-size="13" font-weight="bold" lengthAdjust="spacing" textLength="19.0493" x="255.0156" y="1607.3896">alt</text><text fill="#000000" font-family="Verdana" font-size="11" font-weight="bold" lengthAdjust="spacing" textLength="140.1426" x="319.0649" y="1606.3789">[Pipeline not in cache]</text><polygon fill="#666666" points="351.6846,1628.9185,341.6846,1632.9185,351.6846,1636.9185,347.6846,1632.9185" style="stroke:#666666;stroke-width:1.0;"/><line style="stroke:#666666;stroke-width:1.0;" x1="345.6846" x2="717.4985" y1="1632.9185" y2="1632.9185"/><text fill="#000000" font-family="Verdana" font-size="13" lengthAdjust="spacing" textLength="174.2495" x="357.6846" y="1628.189">CreateBindGroupLayouts()</text><path d="M250.0156,1647.9185 L326.3984,1647.9185 L326.3984,1655.7178 L316.3984,1665.7178 L250.0156,1665.7178 L250.0156,1647.9185 " fill="#FFFFFF" style="stroke:#000000;stroke-width:1.0;"/><rect fill="none" height="77.3979" style="stroke:#000000;stroke-width:1.0;" width="1058.6245" x="250.0156" y="1647.9185"/><text fill="#000000" font-family="Verdana" font-size="13" font-weight="bold" lengthAdjust="spacing" textLength="31.3828" x="265.0156" y="1661.9883">loop</text><text fill="#000000" font-family="Verdana" font-size="11" font-weight="bold" lengthAdjust="spacing" textLength="124.0884" x="341.3984" y="1660.9775">[For each set (0-3)]</text><polygon fill="#666666" points="1220.958,1683.5171,1230.958,1687.5171,1220.958,1691.5171,1224.958,1687.5171" style="stroke:#666666;stroke-width:1.0;"/><line style="stroke:#666666;stroke-width:1.0;" x1="340.6846" x2="1226.958" y1="1687.5171" y2="1687.5171"/><text fill="#000000" font-family="Verdana" font-size="13" lengthAdjust="spacing" textLength="212.2021" x="347.6846" y="1682.7876">CreateBindGroupLayout(entries)</text><polygon fill="#666666" points="351.6846,1713.3164,341.6846,1717.3164,351.6846,1721.3164,347.6846,1717.3164" style="stroke:#666666;stroke-width:1.0;"/><line style="stroke:#666666;stroke-width:1.0;stroke-dasharray:2.0,2.0;" x1="345.6846" x2="1231.958" y1="1717.3164" y2="1717.3164"/><text fill="#000000" font-family="Verdana" font-size="13" lengthAdjust="spacing" textLength="111.814" x="357.6846" y="1712.5869">bindGroupLayout</text><polygon fill="#666666" points="706.4985,1750.1157,716.4985,1754.1157,706.4985,1758.1157,710.4985,1754.1157" style="stroke:#666666;stroke-width:1.0;"/><line style="stroke:#666666;stroke-width:1.0;stroke-dasharray:2.0,2.0;" x1="340.6846" x2="712.4985" y1="1754.1157" y2="1754.1157"/><text fill="#000000" font-family="Verdana" font-size="13" lengthAdjust="spacing" textLength="58.8872" x="347.6846" y="1749.3862">layouts[]</text><polygon fill="#666666" points="351.6846,1779.915,341.6846,1783.915,351.6846,1787.915,347.6846,1783.915" style="stroke:#666666;stroke-width:1.0;"/><line style="stroke:#666666;stroke-width:1.0;" x1="345.6846" x2="717.4985" y1="1783.915" y2="1783.915"/><text fill="#000000" font-family="Verdana" font-size="13" lengthAdjust="spacing" textLength="196.2632" x="357.6846" y="1779.1855">CreatePipelineLayout(layouts)</text><polygon fill="#666666" points="1220.958,1809.7144,1230.958,1813.7144,1220.958,1817.7144,1224.958,1813.7144" style="stroke:#666666;stroke-width:1.0;"/><line style="stroke:#666666;stroke-width:1.0;" x1="340.6846" x2="1226.958" y1="1813.7144" y2="1813.7144"/><text fill="#000000" font-family="Verdana" font-size="13" lengthAdjust="spacing" textLength="149.1826" x="347.6846" y="1808.9849">CreatePipelineLayout()</text><polygon fill="#666666" points="351.6846,1839.5137,341.6846,1843.5137,351.6846,1847.5137,347.6846,1843.5137" style="stroke:#666666;stroke-width:1.0;"/><line style="stroke:#666666;stroke-width:1.0;stroke-dasharray:2.0,2.0;" x1="345.6846" x2="1231.958" y1="1843.5137" y2="1843.5137"/><text fill="#000000" font-family="Verdana" font-size="13" lengthAdjust="spacing" textLength="94.5928" x="357.6846" y="1838.7842">pipelineLayout</text><polygon fill="#666666" points="1220.958,1888.1123,1230.958,1892.1123,1220.958,1896.1123,1224.958,1892.1123" style="stroke:#666666;stroke-width:1.0;"/><line style="stroke:#666666;stroke-width:1.0;" x1="728.4985" x2="1226.958" y1="1892.1123" y2="1892.1123"/><text fill="#000000" font-family="Verdana" font-size="13" lengthAdjust="spacing" textLength="202.8457" x="735.4985" y="1887.3828">CreateRenderPipeline(fullDesc)</text><path d="M1237,1856.5137 L1237,1913.5137 L1366,1913.5137 L1366,1866.5137 L1356,1856.5137 L1237,1856.5137 " fill="#FFFFFF" style="stroke:#000000;stroke-width:1.0;"/><path d="M1356,1856.5137 L1356,1866.5137 L1366,1866.5137 L1356,1856.5137 " fill="#FFFFFF" style="stroke:#000000;stroke-width:1.0;"/><text fill="#000000" font-family="Verdana" font-size="13" lengthAdjust="spacing" textLength="92.3457" x="1243" y="1874.5835">Vertex layout,</text><text fill="#000000" font-family="Verdana" font-size="13" lengthAdjust="spacing" textLength="108.5703" x="1243" y="1890.3828">Shaders, States,</text><text fill="#000000" font-family="Verdana" font-size="13" lengthAdjust="spacing" textLength="95.2339" x="1243" y="1906.1821">Pipeline layout</text><polygon fill="#666666" points="739.4985,1936.7109,729.4985,1940.7109,739.4985,1944.7109,735.4985,1940.7109" style="stroke:#666666;stroke-width:1.0;"/><line style="stroke:#666666;stroke-width:1.0;stroke-dasharray:2.0,2.0;" x1="733.4985" x2="1231.958" y1="1940.7109" y2="1940.7109"/><text fill="#000000" font-family="Verdana" font-size="13" lengthAdjust="spacing" textLength="50.6162" x="745.4985" y="1935.9814">pipeline</text><line style="stroke:#666666;stroke-width:1.0;" x1="728.4985" x2="770.4985" y1="1970.5103" y2="1970.5103"/><line style="stroke:#666666;stroke-width:1.0;" x1="770.4985" x2="770.4985" y1="1970.5103" y2="1983.5103"/><line style="stroke:#666666;stroke-width:1.0;" x1="729.4985" x2="770.4985" y1="1983.5103" y2="1983.5103"/><polygon fill="#666666" points="739.4985,1979.5103,729.4985,1983.5103,739.4985,1987.5103,735.4985,1983.5103" style="stroke:#666666;stroke-width:1.0;"/><text fill="#000000" font-family="Verdana" font-size="13" lengthAdjust="spacing" textLength="177.5757" x="735.4985" y="1965.7808">CacheStore(hash, pipeline)</text><polygon fill="#666666" points="76.5581,2016.3096,66.5581,2020.3096,76.5581,2024.3096,72.5581,2020.3096" style="stroke:#666666;stroke-width:1.0;"/><line style="stroke:#666666;stroke-width:1.0;stroke-dasharray:2.0,2.0;" x1="70.5581" x2="717.4985" y1="2020.3096" y2="2020.3096"/><text fill="#000000" font-family="Verdana" font-size="13" lengthAdjust="spacing" textLength="95.5703" x="82.5581" y="2015.5801">PipelineHandle</text><rect fill="#FFFFFF" height="3" style="stroke:#FFFFFF;stroke-width:1.0;" width="1387.5283" x="5" y="2049.2092"/><line style="stroke:#000000;stroke-width:0.5;" x1="5" x2="1392.5283" y1="2049.2092" y2="2049.2092"/><line style="stroke:#000000;stroke-width:0.5;" x1="5" x2="1392.5283" y1="2052.2092" y2="2052.2092"/><rect fill="#FFFFFF" height="23.7993" style="stroke:#000000;stroke-width:1.0;" width="166.0454" x="615.7415" y="2038.3096"/><text fill="#000000" font-family="Verdana" font-size="13" font-weight="bold" lengthAdjust="spacing" textLength="147.6021" x="621.7415" y="2055.3794">Bind Group Creation</text><polygon fill="#666666" points="323.6846,2089.9082,333.6846,2093.9082,323.6846,2097.9082,327.6846,2093.9082" style="stroke:#666666;stroke-width:1.0;"/><line style="stroke:#666666;stroke-width:1.0;" x1="65.5581" x2="329.6846" y1="2093.9082" y2="2093.9082"/><text fill="#000000" font-family="Verdana" font-size="13" lengthAdjust="spacing" textLength="236.1265" x="72.5581" y="2089.1787">CreateBindGroup(layout, resources)</text><line style="stroke:#666666;stroke-width:1.0;" x1="345.6846" x2="387.6846" y1="2123.7075" y2="2123.7075"/><line style="stroke:#666666;stroke-width:1.0;" x1="387.6846" x2="387.6846" y1="2123.7075" y2="2136.7075"/><line style="stroke:#666666;stroke-width:1.0;" x1="346.6846" x2="387.6846" y1="2136.7075" y2="2136.7075"/><polygon fill="#666666" points="356.6846,2132.7075,346.6846,2136.7075,356.6846,2140.7075,352.6846,2136.7075" style="stroke:#666666;stroke-width:1.0;"/><text fill="#000000" font-family="Verdana" font-size="13" lengthAdjust="spacing" textLength="130.9204" x="352.6846" y="2118.978">ValidateResources()</text><polygon fill="#666666" points="1220.958,2173.4065,1230.958,2177.4065,1220.958,2181.4065,1224.958,2177.4065" style="stroke:#666666;stroke-width:1.0;"/><line style="stroke:#666666;stroke-width:1.0;" x1="345.6846" x2="1226.958" y1="2177.4065" y2="2177.4065"/><text fill="#000000" font-family="Verdana" font-size="13" lengthAdjust="spacing" textLength="152.8896" x="352.6846" y="2172.677">CreateBindGroup(desc)</text><path d="M1237,2149.7075 L1237,2190.7075 L1380,2190.7075 L1380,2159.7075 L1370,2149.7075 L1237,2149.7075 " fill="#FFFFFF" style="stroke:#000000;stroke-width:1.0;"/><path d="M1370,2149.7075 L1370,2159.7075 L1380,2159.7075 L1370,2149.7075 " fill="#FFFFFF" style="stroke:#000000;stroke-width:1.0;"/><text fill="#000000" font-family="Verdana" font-size="13" lengthAdjust="spacing" textLength="83.6367" x="1243" y="2167.7773">Bind buffers,</text><text fill="#000000" font-family="Verdana" font-size="13" lengthAdjust="spacing" textLength="122.2305" x="1243" y="2183.5767">textures, samplers</text><polygon fill="#666666" points="356.6846,2214.1055,346.6846,2218.1055,356.6846,2222.1055,352.6846,2218.1055" style="stroke:#666666;stroke-width:1.0;"/><line style="stroke:#666666;stroke-width:1.0;stroke-dasharray:2.0,2.0;" x1="350.6846" x2="1231.958" y1="2218.1055" y2="2218.1055"/><text fill="#000000" font-family="Verdana" font-size="13" lengthAdjust="spacing" textLength="67.8374" x="362.6846" y="2213.376">bindGroup</text><polygon fill="#666666" points="76.5581,2243.9048,66.5581,2247.9048,76.5581,2251.9048,72.5581,2247.9048" style="stroke:#666666;stroke-width:1.0;"/><line style="stroke:#666666;stroke-width:1.0;stroke-dasharray:2.0,2.0;" x1="70.5581" x2="334.6846" y1="2247.9048" y2="2247.9048"/><text fill="#000000" font-family="Verdana" font-size="13" lengthAdjust="spacing" textLength="113.8643" x="82.5581" y="2243.1753">BindGroupHandle</text><rect fill="#FFFFFF" height="3" style="stroke:#FFFFFF;stroke-width:1.0;" width="1387.5283" x="5" y="2276.8044"/><line style="stroke:#000000;stroke-width:0.5;" x1="5" x2="1392.5283" y1="2276.8044" y2="2276.8044"/><line style="stroke:#000000;stroke-width:0.5;" x1="5" x2="1392.5283" y1="2279.8044" y2="2279.8044"/><rect fill="#FFFFFF" height="23.7993" style="stroke:#000000;stroke-width:1.0;" width="173.6055" x="611.9614" y="2265.9048"/><text fill="#000000" font-family="Verdana" font-size="13" font-weight="bold" lengthAdjust="spacing" textLength="155.1621" x="617.9614" y="2282.9746">Uniform Buffer Setup</text><polygon fill="#666666" points="328.6846,2317.5034,338.6846,2321.5034,328.6846,2325.5034,332.6846,2321.5034" style="stroke:#666666;stroke-width:1.0;"/><line style="stroke:#666666;stroke-width:1.0;" x1="65.5581" x2="334.6846" y1="2321.5034" y2="2321.5034"/><text fill="#000000" font-family="Verdana" font-size="13" lengthAdjust="spacing" textLength="235.4092" x="72.5581" y="2316.7739">CreateUniformBuffer(size, dynamic)</text><path d="M250.0156,2336.5034 L314.0649,2336.5034 L314.0649,2344.3027 L304.0649,2354.3027 L250.0156,2354.3027 L250.0156,2336.5034 " fill="#FFFFFF" style="stroke:#000000;stroke-width:1.0;"/><rect fill="none" height="114.5659" style="stroke:#000000;stroke-width:1.0;" width="1058.6245" x="250.0156" y="2336.5034"/><text fill="#000000" font-family="Verdana" font-size="13" font-weight="bold" lengthAdjust="spacing" textLength="19.0493" x="265.0156" y="2350.5732">alt</text><text fill="#000000" font-family="Verdana" font-size="11" font-weight="bold" lengthAdjust="spacing" textLength="106.6538" x="329.0649" y="2349.5625">[Dynamic buffer]</text><line style="stroke:#666666;stroke-width:1.0;" x1="350.6846" x2="392.6846" y1="2380.5017" y2="2380.5017"/><line style="stroke:#666666;stroke-width:1.0;" x1="392.6846" x2="392.6846" y1="2380.5017" y2="2393.5017"/><line style="stroke:#666666;stroke-width:1.0;" x1="351.6846" x2="392.6846" y1="2393.5017" y2="2393.5017"/><polygon fill="#666666" points="361.6846,2389.5017,351.6846,2393.5017,361.6846,2397.5017,357.6846,2393.5017" style="stroke:#666666;stroke-width:1.0;"/><text fill="#000000" font-family="Verdana" font-size="13" lengthAdjust="spacing" textLength="173.9385" x="357.6846" y="2375.7722">CreateRingBuffer(size * 3)</text><path d="M567.9385,2359.3027 L567.9385,2400.3027 L701.9385,2400.3027 L701.9385,2369.3027 L691.9385,2359.3027 L567.9385,2359.3027 " fill="#FFFFFF" style="stroke:#000000;stroke-width:1.0;"/><path d="M691.9385,2359.3027 L691.9385,2369.3027 L701.9385,2369.3027 L691.9385,2359.3027 " fill="#FFFFFF" style="stroke:#000000;stroke-width:1.0;"/><text fill="#000000" font-family="Verdana" font-size="13" lengthAdjust="spacing" textLength="99.7598" x="573.9385" y="2377.3726">Triple buffering</text><text fill="#000000" font-family="Verdana" font-size="13" lengthAdjust="spacing" textLength="113.8135" x="573.9385" y="2393.1719">for frame overlap</text><line style="stroke:#000000;stroke-width:1.0;stroke-dasharray:2.0,2.0;" x1="250.0156" x2="1308.6401" y1="2406.9014" y2="2406.9014"/><text fill="#000000" font-family="Verdana" font-size="11" font-weight="bold" lengthAdjust="spacing" textLength="88.7251" x="255.0156" y="2417.9604">[Static buffer]</text><polygon fill="#666666" points="1220.958,2439.0693,1230.958,2443.0693,1220.958,2447.0693,1224.958,2443.0693" style="stroke:#666666;stroke-width:1.0;"/><line style="stroke:#666666;stroke-width:1.0;" x1="350.6846" x2="1226.958" y1="2443.0693" y2="2443.0693"/><text fill="#000000" font-family="Verdana" font-size="13" lengthAdjust="spacing" textLength="156.8315" x="357.6846" y="2438.3398">CreateBuffer(UNIFORM)</text><polygon fill="#666666" points="361.6846,2475.8687,351.6846,2479.8687,361.6846,2483.8687,357.6846,2479.8687" style="stroke:#666666;stroke-width:1.0;"/><line style="stroke:#666666;stroke-width:1.0;stroke-dasharray:2.0,2.0;" x1="355.6846" x2="1231.958" y1="2479.8687" y2="2479.8687"/><text fill="#000000" font-family="Verdana" font-size="13" lengthAdjust="spacing" textLength="38.7588" x="367.6846" y="2475.1392">buffer</text><polygon fill="#666666" points="76.5581,2505.668,66.5581,2509.668,76.5581,2513.668,72.5581,2509.668" style="stroke:#666666;stroke-width:1.0;"/><line style="stroke:#666666;stroke-width:1.0;stroke-dasharray:2.0,2.0;" x1="70.5581" x2="339.6846" y1="2509.668" y2="2509.668"/><text fill="#000000" font-family="Verdana" font-size="13" lengthAdjust="spacing" textLength="84.7856" x="82.5581" y="2504.9385">BufferHandle</text><!--SRC=[hLTDRziu4BthLt2z5wU8kmiK20e3MI2nOpT0lFNQINFOzC18Ovi8HQaabQJzzJlyaYXRSWDq4o2rfJUFCu_pXknlUWSva99J9XBrn4H99St98qsVjhAeH3OfU279xxChyniX57ohGAHm8MNnua5dPsSH0lzgbhAI2drvGFVH_2Q9Pfe3kOV7-VAEB43jo0f41fA9BHcHQy4qevpze9eLWgpzaaaIKPF1HLbobbh8W515y7iRuEYdyCnIi0ZtiGrQWIegcSA22he5QN7uRB6LRToIbS2PW0bDTuvjkVxSXhnioseylXPAK-5N35-wW1SPBRLVqN_kWaNvtxjoakJytDUoBzNvUO8oaD5V_lsOJ2HG3R4KmvE4ffezu-EW2C4VJuYX8UaG7BvZe066hsGKBSD2eGRHotSbgXmaKlfwrJ5AwZ7_VkqY3QWrS4Zr9IZjEJsbAB0yoROxFIPB2HkGPCfKAW4VenGFOhA3z8biiC1AWlg3ivnfrRMIvnrZMs0VAkrLp03PMAaBwHRqC5k2twWnoHfzzrXho1pqFnLKGLt_lAN4D_F-c0XkdzOlj9piqD1T4d2gDuNCHwg4b6rO-Y1K9JSKUL8JZCsJ15vJSrcEITmqxspJ1REGcu9cngjDlpdFZEqRO-ZX82youE-tN6y6KSTvRvdytCSuU4cbWldDxQoZWgjNBP65F8En2AZJ1y54PZ-H79absY3QluQyBT9bjS5U61eMU9rIJK_wDgQ5DxlTlq6EpK5RT55jxkqdAZ8ERquJA_p_ihHalvPalCkty6gju_UA5qL9PZZa0ISaqUwbVNEiJayoP3bEtwRGeyM6cARQlehti-Yes9D59UD1b8HqWnLCHtk8yS5wH_6m8fCYBndlcxn68mT4Bs3y-vUjueEV3TyGlGAQpHY7Tcmt5kTRAGjqWlBh7Rh79OyjaF8gi-R9O8F76PhdcQ9rHFVisrFUqI-AhCB4J4fxpHO7M6tWVhw-EJBPL4HuC7_SQf7iuGnssRHLnzCuPEck4W7iswHMtHpR9XtyjuxxHDLkMi_pgB5Ya3qmxF4_t27-fD6BSjtaXggZp2GrmBhnFC-Unz6GSxmTbJVqUr7fOAH3CodGPFZdw4Fp_lWmQFCEGMZ9GBMZktRZiHrOuuqZEYnaLU4kTtz8rvBq5Xrqyhdvy3UuVY_mkF7B5hWtjRqbzXfdKt4-RSsOs55VxCptzQEVNBUYdzOQgOp3wfRWxIpYXAs68TlUF5t_cOvQOt-w_ZkjmqxgiMNXmJvX-SX0fZE8tU4k2_Lqfz-ZKoBzwQ_UEiE-uCKqixhwmE796uPCit3ZmrXuMyIZFQYCodx6e_2AvYN7XybF-_jWrDHhHcBT2MPkJFvCn8kcHjdwrF9WVmuhzWDEIVPTq9obtMgPcJ5r05zCXmNQQwpmnXKjGDwH3zsjUOjp38UzeyMW1u6vaGt-vmn8WNSLJalNCbo1RTTZENJVDEx-lfvzNYsQrklLtF4U21vVDFu3]--></g></svg>