<svg xmlns="http://www.w3.org/2000/svg" xmlns:xlink="http://www.w3.org/1999/xlink" contentStyleType="text/css" height="747px" preserveAspectRatio="none" style="width:2543px;height:747px;background:#FEFEFE;" version="1.1" viewBox="0 0 2543 747" width="2543px" zoomAndPan="magnify"><title>Modern GPU Resource Binding Model (WebGPU/Vulkan/Metal Style)</title><defs/><g><rect fill="#FEFEFE" height="747" style="stroke:none;stroke-width:1.0;" width="2543" x="0" y="0"/><text fill="#000000" font-family="Verdana" font-size="22" font-weight="bold" lengthAdjust="spacing" textLength="846.8281" x="843.5859" y="37.1182">Modern GPU Resource Binding Model (WebGPU/Vulkan/Metal Style)</text><!--cluster Binding Frequency Hierarchy--><g id="cluster_Binding Frequency Hierarchy"><path d="M13.5,94.9173 L241.9727,94.9173 A3.75,3.75 0 0 1 244.4727,97.4173 L251.4727,117.932 L959.5,117.932 A2.5,2.5 0 0 1 962,120.432 L962,290.4173 A2.5,2.5 0 0 1 959.5,292.9173 L13.5,292.9173 A2.5,2.5 0 0 1 11,290.4173 L11,97.4173 A2.5,2.5 0 0 1 13.5,94.9173 " fill="#E8F4F8" style="stroke:#000000;stroke-width:1.0;"/><line style="stroke:#000000;stroke-width:1.0;" x1="11" x2="251.4727" y1="117.932" y2="117.932"/><text fill="#000000" font-family="Verdana" font-size="14" font-weight="bold" lengthAdjust="spacing" textLength="227.4727" x="15" y="110.9925">Binding Frequency Hierarchy</text></g><!--cluster WebGPU Implementation--><g id="cluster_WebGPU Implementation"><path d="M988.5,103.4173 L1189.041,103.4173 A3.75,3.75 0 0 1 1191.541,105.9173 L1198.541,126.432 L1640.5,126.432 A2.5,2.5 0 0 1 1643,128.932 L1643,738.4173 A2.5,2.5 0 0 1 1640.5,740.9173 L988.5,740.9173 A2.5,2.5 0 0 1 986,738.4173 L986,105.9173 A2.5,2.5 0 0 1 988.5,103.4173 " fill="#F8F8E8" style="stroke:#000000;stroke-width:1.0;"/><line style="stroke:#000000;stroke-width:1.0;" x1="986" x2="1198.541" y1="126.432" y2="126.432"/><text fill="#000000" font-family="Verdana" font-size="14" font-weight="bold" lengthAdjust="spacing" textLength="199.541" x="990" y="119.4925">WebGPU Implementation</text></g><!--cluster Resource Types--><g id="cluster_Resource Types"><path d="M1669.5,576.9173 L1793.9639,576.9173 A3.75,3.75 0 0 1 1796.4639,579.4173 L1803.4639,599.932 L2533.5,599.932 A2.5,2.5 0 0 1 2536,602.432 L2536,704.4173 A2.5,2.5 0 0 1 2533.5,706.9173 L1669.5,706.9173 A2.5,2.5 0 0 1 1667,704.4173 L1667,579.4173 A2.5,2.5 0 0 1 1669.5,576.9173 " fill="#F0F0F0" style="stroke:#000000;stroke-width:1.0;"/><line style="stroke:#000000;stroke-width:1.0;" x1="1667" x2="1803.4639" y1="599.932" y2="599.932"/><text fill="#000000" font-family="Verdana" font-size="14" font-weight="bold" lengthAdjust="spacing" textLength="123.4639" x="1671" y="592.9925">Resource Types</text></g><!--class Set 0: Per-Frame--><g id="elem_Set 0: Per-Frame"><rect codeLine="9" fill="#FFE8E8" height="146.0879" id="Set 0: Per-Frame" rx="2.5" ry="2.5" style="stroke:#888888;stroke-width:1.0;" width="194.8916" x="27.5" y="130.9173"/><ellipse cx="60.6885" cy="144.9173" fill="#FFFFFF" rx="9" ry="9" style="stroke:#000000;stroke-width:1.0;"/><path d="M63.4541,146.4486 L65.8447,147.1986 Q65.2979,149.1829 64.0166,150.1517 Q62.751,151.1204 60.7822,151.1204 Q58.3604,151.1204 56.7979,149.4642 Q55.251,147.8079 55.251,144.9329 Q55.251,141.9017 56.8135,140.2298 Q58.376,138.5423 60.9385,138.5423 Q63.1729,138.5423 64.5635,139.8548 Q65.3916,140.6361 65.8135,142.1048 L63.376,142.6829 Q63.1572,141.7298 62.4697,141.1829 Q61.7979,140.6361 60.8135,140.6361 Q59.4541,140.6361 58.6104,141.6204 Q57.7822,142.5892 57.7822,144.7611 Q57.7822,147.0579 58.6104,148.0423 Q59.4385,149.0267 60.7666,149.0267 Q61.751,149.0267 62.4541,148.4017 Q63.1572,147.7767 63.4541,146.4486 Z " fill="#000000"/><text fill="#000000" font-family="Verdana" font-size="14" lengthAdjust="spacing" textLength="122.0283" x="77.1748" y="150.4852">Set 0: Per-Frame</text><line style="stroke:#888888;stroke-width:1.0;" x1="28.5" x2="221.3916" y1="158.9173" y2="158.9173"/><ellipse cx="38.5" cy="172.9246" fill="none" rx="3" ry="3" style="stroke:#000000;stroke-width:1.0;"/><text fill="#000000" font-family="Verdana" font-size="14" lengthAdjust="spacing" textLength="81.9561" x="45.5" y="176.9925">View Matrix</text><ellipse cx="38.5" cy="189.9393" fill="none" rx="3" ry="3" style="stroke:#000000;stroke-width:1.0;"/><text fill="#000000" font-family="Verdana" font-size="14" lengthAdjust="spacing" textLength="118.8291" x="45.5" y="194.0071">Projection Matrix</text><ellipse cx="38.5" cy="206.9539" fill="none" rx="3" ry="3" style="stroke:#000000;stroke-width:1.0;"/><text fill="#000000" font-family="Verdana" font-size="14" lengthAdjust="spacing" textLength="34.4258" x="45.5" y="211.0218">Time</text><ellipse cx="38.5" cy="223.9686" fill="none" rx="3" ry="3" style="stroke:#000000;stroke-width:1.0;"/><text fill="#000000" font-family="Verdana" font-size="14" lengthAdjust="spacing" textLength="85.1621" x="45.5" y="228.0364">Lights Array</text><ellipse cx="38.5" cy="240.9832" fill="none" rx="3" ry="3" style="stroke:#000000;stroke-width:1.0;"/><text fill="#000000" font-family="Verdana" font-size="14" lengthAdjust="spacing" textLength="96.6602" x="45.5" y="245.0511">Shadow Maps</text><text fill="#000000" font-family="Verdana" font-size="14" lengthAdjust="spacing" textLength="170.8916" x="45.5" y="262.0657">Update: Once per frame</text><line style="stroke:#888888;stroke-width:1.0;" x1="28.5" x2="221.3916" y1="269.0052" y2="269.0052"/></g><!--class Set 1: Per-Pass--><g id="elem_Set 1: Per-Pass"><rect codeLine="18" fill="#E8FFE8" height="112.0586" id="Set 1: Per-Pass" rx="2.5" ry="2.5" style="stroke:#888888;stroke-width:1.0;" width="198.7607" x="491.5" y="147.9173"/><ellipse cx="532.5898" cy="161.9173" fill="#FFFFFF" rx="9" ry="9" style="stroke:#000000;stroke-width:1.0;"/><path d="M535.3555,163.4486 L537.7461,164.1986 Q537.1992,166.1829 535.918,167.1517 Q534.6523,168.1204 532.6836,168.1204 Q530.2617,168.1204 528.6992,166.4642 Q527.1523,164.8079 527.1523,161.9329 Q527.1523,158.9017 528.7148,157.2298 Q530.2773,155.5423 532.8398,155.5423 Q535.0742,155.5423 536.4648,156.8548 Q537.293,157.6361 537.7148,159.1048 L535.2773,159.6829 Q535.0586,158.7298 534.3711,158.1829 Q533.6992,157.6361 532.7148,157.6361 Q531.3555,157.6361 530.5117,158.6204 Q529.6836,159.5892 529.6836,161.7611 Q529.6836,164.0579 530.5117,165.0423 Q531.3398,166.0267 532.668,166.0267 Q533.6523,166.0267 534.3555,165.4017 Q535.0586,164.7767 535.3555,163.4486 Z " fill="#000000"/><text fill="#000000" font-family="Verdana" font-size="14" lengthAdjust="spacing" textLength="109.0811" x="550.0898" y="167.4852">Set 1: Per-Pass</text><line style="stroke:#888888;stroke-width:1.0;" x1="492.5" x2="689.2607" y1="175.9173" y2="175.9173"/><ellipse cx="502.5" cy="189.9246" fill="none" rx="3" ry="3" style="stroke:#000000;stroke-width:1.0;"/><text fill="#000000" font-family="Verdana" font-size="14" lengthAdjust="spacing" textLength="133.5742" x="509.5" y="193.9925">Render Target Info</text><ellipse cx="502.5" cy="206.9393" fill="none" rx="3" ry="3" style="stroke:#000000;stroke-width:1.0;"/><text fill="#000000" font-family="Verdana" font-size="14" lengthAdjust="spacing" textLength="106.3809" x="509.5" y="211.0071">Pass Constants</text><ellipse cx="502.5" cy="223.9539" fill="none" rx="3" ry="3" style="stroke:#000000;stroke-width:1.0;"/><text fill="#000000" font-family="Verdana" font-size="14" lengthAdjust="spacing" textLength="174.7607" x="509.5" y="228.0218">Post-process Parameters</text><text fill="#000000" font-family="Verdana" font-size="14" lengthAdjust="spacing" textLength="161.3486" x="509.5" y="245.0364">Update: Once per pass</text><line style="stroke:#888888;stroke-width:1.0;" x1="492.5" x2="689.2607" y1="251.9759" y2="251.9759"/></g><!--class Set 2: Per-Material--><g id="elem_Set 2: Per-Material"><rect codeLine="25" fill="#E8E8FF" height="146.0879" id="Set 2: Per-Material" rx="2.5" ry="2.5" style="stroke:#888888;stroke-width:1.0;" width="220.0479" x="726" y="130.9173"/><ellipse cx="765.3877" cy="144.9173" fill="#FFFFFF" rx="9" ry="9" style="stroke:#000000;stroke-width:1.0;"/><path d="M768.1533,146.4486 L770.5439,147.1986 Q769.9971,149.1829 768.7158,150.1517 Q767.4502,151.1204 765.4814,151.1204 Q763.0596,151.1204 761.4971,149.4642 Q759.9502,147.8079 759.9502,144.9329 Q759.9502,141.9017 761.5127,140.2298 Q763.0752,138.5423 765.6377,138.5423 Q767.8721,138.5423 769.2627,139.8548 Q770.0908,140.6361 770.5127,142.1048 L768.0752,142.6829 Q767.8564,141.7298 767.1689,141.1829 Q766.4971,140.6361 765.5127,140.6361 Q764.1533,140.6361 763.3096,141.6204 Q762.4814,142.5892 762.4814,144.7611 Q762.4814,147.0579 763.3096,148.0423 Q764.1377,149.0267 765.4658,149.0267 Q766.4502,149.0267 767.1533,148.4017 Q767.8564,147.7767 768.1533,146.4486 Z " fill="#000000"/><text fill="#000000" font-family="Verdana" font-size="14" lengthAdjust="spacing" textLength="133.7725" x="782.8877" y="150.4852">Set 2: Per-Material</text><line style="stroke:#888888;stroke-width:1.0;" x1="727" x2="945.0479" y1="158.9173" y2="158.9173"/><ellipse cx="737" cy="172.9246" fill="none" rx="3" ry="3" style="stroke:#000000;stroke-width:1.0;"/><text fill="#000000" font-family="Verdana" font-size="14" lengthAdjust="spacing" textLength="131.9951" x="744" y="176.9925">Material Properties</text><ellipse cx="737" cy="189.9393" fill="none" rx="3" ry="3" style="stroke:#000000;stroke-width:1.0;"/><text fill="#000000" font-family="Verdana" font-size="14" lengthAdjust="spacing" textLength="107.8301" x="744" y="194.0071">Diffuse Texture</text><ellipse cx="737" cy="206.9539" fill="none" rx="3" ry="3" style="stroke:#000000;stroke-width:1.0;"/><text fill="#000000" font-family="Verdana" font-size="14" lengthAdjust="spacing" textLength="84.6631" x="744" y="211.0218">Normal Map</text><ellipse cx="737" cy="223.9686" fill="none" rx="3" ry="3" style="stroke:#000000;stroke-width:1.0;"/><text fill="#000000" font-family="Verdana" font-size="14" lengthAdjust="spacing" textLength="135.7002" x="744" y="228.0364">Metallic/Roughness</text><ellipse cx="737" cy="240.9832" fill="none" rx="3" ry="3" style="stroke:#000000;stroke-width:1.0;"/><text fill="#000000" font-family="Verdana" font-size="14" lengthAdjust="spacing" textLength="131.0723" x="744" y="245.0511">Material Constants</text><text fill="#000000" font-family="Verdana" font-size="14" lengthAdjust="spacing" textLength="196.0479" x="744" y="262.0657">Update: Per material switch</text><line style="stroke:#888888;stroke-width:1.0;" x1="727" x2="945.0479" y1="269.0052" y2="269.0052"/></g><!--class Set 3: Per-Object--><g id="elem_Set 3: Per-Object"><rect codeLine="34" fill="#FFE8FF" height="129.0732" id="Set 3: Per-Object" rx="2.5" ry="2.5" style="stroke:#888888;stroke-width:1.0;" width="198.8838" x="257.5" y="139.4173"/><ellipse cx="291.8882" cy="153.4173" fill="#FFFFFF" rx="9" ry="9" style="stroke:#000000;stroke-width:1.0;"/><path d="M294.6538,154.9486 L297.0444,155.6986 Q296.4976,157.6829 295.2163,158.6517 Q293.9507,159.6204 291.9819,159.6204 Q289.5601,159.6204 287.9976,157.9642 Q286.4507,156.3079 286.4507,153.4329 Q286.4507,150.4017 288.0132,148.7298 Q289.5757,147.0423 292.1382,147.0423 Q294.3726,147.0423 295.7632,148.3548 Q296.5913,149.1361 297.0132,150.6048 L294.5757,151.1829 Q294.3569,150.2298 293.6694,149.6829 Q292.9976,149.1361 292.0132,149.1361 Q290.6538,149.1361 289.8101,150.1204 Q288.9819,151.0892 288.9819,153.2611 Q288.9819,155.5579 289.8101,156.5423 Q290.6382,157.5267 291.9663,157.5267 Q292.9507,157.5267 293.6538,156.9017 Q294.3569,156.2767 294.6538,154.9486 Z " fill="#000000"/><text fill="#000000" font-family="Verdana" font-size="14" lengthAdjust="spacing" textLength="123.3545" x="308.6411" y="158.9852">Set 3: Per-Object</text><line style="stroke:#888888;stroke-width:1.0;" x1="258.5" x2="455.3838" y1="167.4173" y2="167.4173"/><ellipse cx="268.5" cy="181.4246" fill="none" rx="3" ry="3" style="stroke:#000000;stroke-width:1.0;"/><text fill="#000000" font-family="Verdana" font-size="14" lengthAdjust="spacing" textLength="89.9473" x="275.5" y="185.4925">Model Matrix</text><ellipse cx="268.5" cy="198.4393" fill="none" rx="3" ry="3" style="stroke:#000000;stroke-width:1.0;"/><text fill="#000000" font-family="Verdana" font-size="14" lengthAdjust="spacing" textLength="67.3135" x="275.5" y="202.5071">Object ID</text><ellipse cx="268.5" cy="215.4539" fill="none" rx="3" ry="3" style="stroke:#000000;stroke-width:1.0;"/><text fill="#000000" font-family="Verdana" font-size="14" lengthAdjust="spacing" textLength="98.5059" x="275.5" y="219.5218">Instance Data</text><text fill="#000000" font-family="Verdana" font-size="14" lengthAdjust="spacing" textLength="168.7656" x="275.5" y="236.5364">Update: Every draw call</text><line style="stroke:#888888;stroke-width:1.0;" x1="258.5" x2="455.3838" y1="243.4759" y2="243.4759"/><ellipse cx="268.5" cy="257.4832" fill="#FFFFFF" rx="3" ry="3" style="stroke:#000000;stroke-width:1.0;"/><text fill="#000000" font-family="Verdana" font-size="14" lengthAdjust="spacing" textLength="174.8838" x="275.5" y="261.5511">Bone Matrices (skinning)</text></g><!--class BindGroupLayout--><g id="elem_BindGroupLayout"><rect codeLine="44" fill="#F8F8F8" height="95.0439" id="BindGroupLayout" rx="2.5" ry="2.5" style="stroke:#888888;stroke-width:1.0;" width="266.1152" x="1032" y="604.4173"/><ellipse cx="1100.6626" cy="618.4173" fill="#FFFFFF" rx="9" ry="9" style="stroke:#000000;stroke-width:1.0;"/><path d="M1103.4282,619.9486 L1105.8188,620.6986 Q1105.272,622.6829 1103.9907,623.6517 Q1102.7251,624.6204 1100.7563,624.6204 Q1098.3345,624.6204 1096.772,622.9642 Q1095.2251,621.3079 1095.2251,618.4329 Q1095.2251,615.4017 1096.7876,613.7298 Q1098.3501,612.0423 1100.9126,612.0423 Q1103.147,612.0423 1104.5376,613.3548 Q1105.3657,614.1361 1105.7876,615.6048 L1103.3501,616.1829 Q1103.1313,615.2298 1102.4438,614.6829 Q1101.772,614.1361 1100.7876,614.1361 Q1099.4282,614.1361 1098.5845,615.1204 Q1097.7563,616.0892 1097.7563,618.2611 Q1097.7563,620.5579 1098.5845,621.5423 Q1099.4126,622.5267 1100.7407,622.5267 Q1101.7251,622.5267 1102.4282,621.9017 Q1103.1313,621.2767 1103.4282,619.9486 Z " fill="#000000"/><text fill="#000000" font-family="Verdana" font-size="14" lengthAdjust="spacing" textLength="121.29" x="1118.1626" y="623.9852">BindGroupLayout</text><line style="stroke:#888888;stroke-width:1.0;" x1="1033" x2="1297.1152" y1="632.4173" y2="632.4173"/><rect fill="none" height="6" style="stroke:#000000;stroke-width:1.0;" width="6" x="1040" y="643.4246"/><text fill="#000000" font-family="Verdana" font-size="14" lengthAdjust="spacing" textLength="230.9385" x="1050" y="650.4925">entries: BindGroupLayoutEntry[]</text><line style="stroke:#888888;stroke-width:1.0;" x1="1033" x2="1297.1152" y1="657.432" y2="657.432"/><ellipse cx="1043" cy="671.4393" fill="#FFFFFF" rx="3" ry="3" style="stroke:#000000;stroke-width:1.0;"/><text fill="#000000" font-family="Verdana" font-size="14" lengthAdjust="spacing" textLength="232.9209" x="1050" y="675.5071">AddBinding(binding, type, stage)</text><ellipse cx="1043" cy="688.4539" fill="#FFFFFF" rx="3" ry="3" style="stroke:#000000;stroke-width:1.0;"/><text fill="#000000" font-family="Verdana" font-size="14" lengthAdjust="spacing" textLength="242.1152" x="1050" y="692.5218">Create(): wgpu::BindGroupLayout</text></g><!--class BindGroup--><g id="elem_BindGroup"><rect codeLine="50" fill="#F8F8F8" height="146.0879" id="BindGroup" rx="2.5" ry="2.5" style="stroke:#888888;stroke-width:1.0;" width="292.4336" x="1335" y="355.9173"/><ellipse cx="1440.5015" cy="369.9173" fill="#FFFFFF" rx="9" ry="9" style="stroke:#000000;stroke-width:1.0;"/><path d="M1443.2671,371.4486 L1445.6577,372.1986 Q1445.1108,374.1829 1443.8296,375.1517 Q1442.564,376.1204 1440.5952,376.1204 Q1438.1733,376.1204 1436.6108,374.4642 Q1435.064,372.8079 1435.064,369.9329 Q1435.064,366.9017 1436.6265,365.2298 Q1438.189,363.5423 1440.7515,363.5423 Q1442.9858,363.5423 1444.3765,364.8548 Q1445.2046,365.6361 1445.6265,367.1048 L1443.189,367.6829 Q1442.9702,366.7298 1442.2827,366.1829 Q1441.6108,365.6361 1440.6265,365.6361 Q1439.2671,365.6361 1438.4233,366.6204 Q1437.5952,367.5892 1437.5952,369.7611 Q1437.5952,372.0579 1438.4233,373.0423 Q1439.2515,374.0267 1440.5796,374.0267 Q1441.564,374.0267 1442.2671,373.4017 Q1442.9702,372.7767 1443.2671,371.4486 Z " fill="#000000"/><text fill="#000000" font-family="Verdana" font-size="14" lengthAdjust="spacing" textLength="73.9307" x="1458.0015" y="375.4852">BindGroup</text><line style="stroke:#888888;stroke-width:1.0;" x1="1336" x2="1626.4336" y1="383.9173" y2="383.9173"/><rect fill="none" height="6" style="stroke:#000000;stroke-width:1.0;" width="6" x="1343" y="394.9246"/><text fill="#000000" font-family="Verdana" font-size="14" lengthAdjust="spacing" textLength="175.9775" x="1353" y="401.9925">layout: BindGroupLayout</text><rect fill="none" height="6" style="stroke:#000000;stroke-width:1.0;" width="6" x="1343" y="411.9393"/><text fill="#000000" font-family="Verdana" font-size="14" lengthAdjust="spacing" textLength="156.1943" x="1353" y="419.0071">resources: Resource[]</text><line style="stroke:#888888;stroke-width:1.0;" x1="1336" x2="1626.4336" y1="425.9466" y2="425.9466"/><ellipse cx="1346" cy="439.9539" fill="#FFFFFF" rx="3" ry="3" style="stroke:#000000;stroke-width:1.0;"/><text fill="#000000" font-family="Verdana" font-size="14" lengthAdjust="spacing" textLength="268.4336" x="1353" y="444.0218">SetBuffer(binding, buffer, offset, size)</text><ellipse cx="1346" cy="456.9686" fill="#FFFFFF" rx="3" ry="3" style="stroke:#000000;stroke-width:1.0;"/><text fill="#000000" font-family="Verdana" font-size="14" lengthAdjust="spacing" textLength="202.501" x="1353" y="461.0364">SetTexture(binding, texture)</text><ellipse cx="1346" cy="473.9832" fill="#FFFFFF" rx="3" ry="3" style="stroke:#000000;stroke-width:1.0;"/><text fill="#000000" font-family="Verdana" font-size="14" lengthAdjust="spacing" textLength="212.3994" x="1353" y="478.0511">SetSampler(binding, sampler)</text><ellipse cx="1346" cy="490.9979" fill="#FFFFFF" rx="3" ry="3" style="stroke:#000000;stroke-width:1.0;"/><text fill="#000000" font-family="Verdana" font-size="14" lengthAdjust="spacing" textLength="194.7559" x="1353" y="495.0657">Create(): wgpu::BindGroup</text></g><!--class PipelineLayout--><g id="elem_PipelineLayout"><rect codeLine="59" fill="#F8F8F8" height="95.0439" id="PipelineLayout" rx="2.5" ry="2.5" style="stroke:#888888;stroke-width:1.0;" width="296.9932" x="1002.5" y="381.4173"/><ellipse cx="1096.4521" cy="395.4173" fill="#FFFFFF" rx="9" ry="9" style="stroke:#000000;stroke-width:1.0;"/><path d="M1099.2178,396.9486 L1101.6084,397.6986 Q1101.0615,399.6829 1099.7803,400.6517 Q1098.5146,401.6204 1096.5459,401.6204 Q1094.124,401.6204 1092.5615,399.9642 Q1091.0146,398.3079 1091.0146,395.4329 Q1091.0146,392.4017 1092.5771,390.7298 Q1094.1396,389.0423 1096.7021,389.0423 Q1098.9365,389.0423 1100.3271,390.3548 Q1101.1553,391.1361 1101.5771,392.6048 L1099.1396,393.1829 Q1098.9209,392.2298 1098.2334,391.6829 Q1097.5615,391.1361 1096.5771,391.1361 Q1095.2178,391.1361 1094.374,392.1204 Q1093.5459,393.0892 1093.5459,395.2611 Q1093.5459,397.5579 1094.374,398.5423 Q1095.2021,399.5267 1096.5303,399.5267 Q1097.5146,399.5267 1098.2178,398.9017 Q1098.9209,398.2767 1099.2178,396.9486 Z " fill="#000000"/><text fill="#000000" font-family="Verdana" font-size="14" lengthAdjust="spacing" textLength="101.5889" x="1113.9521" y="400.9852">PipelineLayout</text><line style="stroke:#888888;stroke-width:1.0;" x1="1003.5" x2="1298.4932" y1="409.4173" y2="409.4173"/><rect fill="none" height="6" style="stroke:#000000;stroke-width:1.0;" width="6" x="1010.5" y="420.4246"/><text fill="#000000" font-family="Verdana" font-size="14" lengthAdjust="spacing" textLength="272.9932" x="1020.5" y="427.4925">bindGroupLayouts: BindGroupLayout[]</text><line style="stroke:#888888;stroke-width:1.0;" x1="1003.5" x2="1298.4932" y1="434.432" y2="434.432"/><ellipse cx="1013.5" cy="448.4393" fill="#FFFFFF" rx="3" ry="3" style="stroke:#000000;stroke-width:1.0;"/><text fill="#000000" font-family="Verdana" font-size="14" lengthAdjust="spacing" textLength="232.0049" x="1020.5" y="452.5071">SetBindGroupLayout(set, layout)</text><ellipse cx="1013.5" cy="465.4539" fill="#FFFFFF" rx="3" ry="3" style="stroke:#000000;stroke-width:1.0;"/><text fill="#000000" font-family="Verdana" font-size="14" lengthAdjust="spacing" textLength="222.4141" x="1020.5" y="469.5218">Create(): wgpu::PipelineLayout</text></g><!--class BindGroupAllocator--><g id="elem_BindGroupAllocator"><rect codeLine="65" fill="#F8F8F8" height="129.0732" id="BindGroupAllocator" rx="2.5" ry="2.5" style="stroke:#888888;stroke-width:1.0;" width="220.6426" x="1394.5" y="139.4173"/><ellipse cx="1433.3853" cy="153.4173" fill="#FFFFFF" rx="9" ry="9" style="stroke:#000000;stroke-width:1.0;"/><path d="M1436.1509,154.9486 L1438.5415,155.6986 Q1437.9946,157.6829 1436.7134,158.6517 Q1435.4478,159.6204 1433.479,159.6204 Q1431.0571,159.6204 1429.4946,157.9642 Q1427.9478,156.3079 1427.9478,153.4329 Q1427.9478,150.4017 1429.5103,148.7298 Q1431.0728,147.0423 1433.6353,147.0423 Q1435.8696,147.0423 1437.2603,148.3548 Q1438.0884,149.1361 1438.5103,150.6048 L1436.0728,151.1829 Q1435.854,150.2298 1435.1665,149.6829 Q1434.4946,149.1361 1433.5103,149.1361 Q1432.1509,149.1361 1431.3071,150.1204 Q1430.479,151.0892 1430.479,153.2611 Q1430.479,155.5579 1431.3071,156.5423 Q1432.1353,157.5267 1433.4634,157.5267 Q1434.4478,157.5267 1435.1509,156.9017 Q1435.854,156.2767 1436.1509,154.9486 Z " fill="#000000"/><text fill="#000000" font-family="Verdana" font-size="14" lengthAdjust="spacing" textLength="135.3721" x="1450.8853" y="158.9852">BindGroupAllocator</text><line style="stroke:#888888;stroke-width:1.0;" x1="1395.5" x2="1614.1426" y1="167.4173" y2="167.4173"/><rect fill="none" height="6" style="stroke:#000000;stroke-width:1.0;" width="6" x="1402.5" y="178.4246"/><text fill="#000000" font-family="Verdana" font-size="14" lengthAdjust="spacing" textLength="186.6279" x="1412.5" y="185.4925">pools: Map&lt;Layout, Pool&gt;</text><rect fill="none" height="6" style="stroke:#000000;stroke-width:1.0;" width="6" x="1402.5" y="195.4393"/><text fill="#000000" font-family="Verdana" font-size="14" lengthAdjust="spacing" textLength="137.5186" x="1412.5" y="202.5071">frameIndex: uint32</text><line style="stroke:#888888;stroke-width:1.0;" x1="1395.5" x2="1614.1426" y1="209.4466" y2="209.4466"/><ellipse cx="1405.5" cy="223.4539" fill="#FFFFFF" rx="3" ry="3" style="stroke:#000000;stroke-width:1.0;"/><text fill="#000000" font-family="Verdana" font-size="14" lengthAdjust="spacing" textLength="196.6426" x="1412.5" y="227.5218">Allocate(layout): BindGroup</text><ellipse cx="1405.5" cy="240.4686" fill="#FFFFFF" rx="3" ry="3" style="stroke:#000000;stroke-width:1.0;"/><text fill="#000000" font-family="Verdana" font-size="14" lengthAdjust="spacing" textLength="133.3008" x="1412.5" y="244.5364">Reset(frameIndex)</text><ellipse cx="1405.5" cy="257.4832" fill="#FFFFFF" rx="3" ry="3" style="stroke:#000000;stroke-width:1.0;"/><text fill="#000000" font-family="Verdana" font-size="14" lengthAdjust="spacing" textLength="119.2529" x="1412.5" y="261.5511">GarbageCollect()</text></g><!--class DynamicBuffer--><g id="elem_DynamicBuffer"><rect codeLine="73" fill="#F8F8F8" height="146.0879" id="DynamicBuffer" rx="2.5" ry="2.5" style="stroke:#888888;stroke-width:1.0;" width="284.5449" x="1338.5" y="578.9173"/><ellipse cx="1425.1685" cy="592.9173" fill="#FFFFFF" rx="9" ry="9" style="stroke:#000000;stroke-width:1.0;"/><path d="M1427.9341,594.4486 L1430.3247,595.1986 Q1429.7778,597.1829 1428.4966,598.1517 Q1427.231,599.1204 1425.2622,599.1204 Q1422.8403,599.1204 1421.2778,597.4642 Q1419.731,595.8079 1419.731,592.9329 Q1419.731,589.9017 1421.2935,588.2298 Q1422.856,586.5423 1425.4185,586.5423 Q1427.6528,586.5423 1429.0435,587.8548 Q1429.8716,588.6361 1430.2935,590.1048 L1427.856,590.6829 Q1427.6372,589.7298 1426.9497,589.1829 Q1426.2778,588.6361 1425.2935,588.6361 Q1423.9341,588.6361 1423.0903,589.6204 Q1422.2622,590.5892 1422.2622,592.7611 Q1422.2622,595.0579 1423.0903,596.0423 Q1423.9185,597.0267 1425.2466,597.0267 Q1426.231,597.0267 1426.9341,596.4017 Q1427.6372,595.7767 1427.9341,594.4486 Z " fill="#000000"/><text fill="#000000" font-family="Verdana" font-size="14" lengthAdjust="spacing" textLength="103.708" x="1442.6685" y="598.4852">DynamicBuffer</text><line style="stroke:#888888;stroke-width:1.0;" x1="1339.5" x2="1622.0449" y1="606.9173" y2="606.9173"/><rect fill="none" height="6" style="stroke:#000000;stroke-width:1.0;" width="6" x="1346.5" y="617.9246"/><text fill="#000000" font-family="Verdana" font-size="14" lengthAdjust="spacing" textLength="146.1113" x="1356.5" y="624.9925">buffer: wgpu::Buffer</text><rect fill="none" height="6" style="stroke:#000000;stroke-width:1.0;" width="6" x="1346.5" y="634.9393"/><text fill="#000000" font-family="Verdana" font-size="14" lengthAdjust="spacing" textLength="92.0186" x="1356.5" y="642.0071">offset: size_t</text><rect fill="none" height="6" style="stroke:#000000;stroke-width:1.0;" width="6" x="1346.5" y="651.9539"/><text fill="#000000" font-family="Verdana" font-size="14" lengthAdjust="spacing" textLength="79.3584" x="1356.5" y="659.0218">size: size_t</text><line style="stroke:#888888;stroke-width:1.0;" x1="1339.5" x2="1622.0449" y1="665.9613" y2="665.9613"/><ellipse cx="1349.5" cy="679.9686" fill="#FFFFFF" rx="3" ry="3" style="stroke:#000000;stroke-width:1.0;"/><text fill="#000000" font-family="Verdana" font-size="14" lengthAdjust="spacing" textLength="91.1709" x="1356.5" y="684.0364">Map(): void*</text><ellipse cx="1349.5" cy="696.9832" fill="#FFFFFF" rx="3" ry="3" style="stroke:#000000;stroke-width:1.0;"/><text fill="#000000" font-family="Verdana" font-size="14" lengthAdjust="spacing" textLength="62.5693" x="1356.5" y="701.0511">Unmap()</text><ellipse cx="1349.5" cy="713.9979" fill="#FFFFFF" rx="3" ry="3" style="stroke:#000000;stroke-width:1.0;"/><text fill="#000000" font-family="Verdana" font-size="14" lengthAdjust="spacing" textLength="260.5449" x="1356.5" y="718.0657">GetBindingResource(): BufferBinding</text></g><!--class UniformBuffer--><g id="elem_UniformBuffer"><rect codeLine="84" fill="#F8F8F8" height="78.0293" id="UniformBuffer" rx="2.5" ry="2.5" style="stroke:#888888;stroke-width:1.0;" width="221.043" x="1683.5" y="612.9173"/><ellipse cx="1740.9844" cy="626.9173" fill="#FFFFFF" rx="9" ry="9" style="stroke:#000000;stroke-width:1.0;"/><path d="M1743.75,628.4486 L1746.1406,629.1986 Q1745.5938,631.1829 1744.3125,632.1517 Q1743.0469,633.1204 1741.0781,633.1204 Q1738.6563,633.1204 1737.0938,631.4642 Q1735.5469,629.8079 1735.5469,626.9329 Q1735.5469,623.9017 1737.1094,622.2298 Q1738.6719,620.5423 1741.2344,620.5423 Q1743.4688,620.5423 1744.8594,621.8548 Q1745.6875,622.6361 1746.1094,624.1048 L1743.6719,624.6829 Q1743.4531,623.7298 1742.7656,623.1829 Q1742.0938,622.6361 1741.1094,622.6361 Q1739.75,622.6361 1738.9063,623.6204 Q1738.0781,624.5892 1738.0781,626.7611 Q1738.0781,629.0579 1738.9063,630.0423 Q1739.7344,631.0267 1741.0625,631.0267 Q1742.0469,631.0267 1742.75,630.4017 Q1743.4531,629.7767 1743.75,628.4486 Z " fill="#000000"/><text fill="#000000" font-family="Verdana" font-size="14" lengthAdjust="spacing" textLength="98.5742" x="1758.4844" y="632.4852">UniformBuffer</text><line style="stroke:#888888;stroke-width:1.0;" x1="1684.5" x2="1903.543" y1="640.9173" y2="640.9173"/><text fill="#000000" font-family="Verdana" font-size="14" lengthAdjust="spacing" textLength="120.1143" x="1689.5" y="658.9925">usage: UNIFORM</text><text fill="#000000" font-family="Verdana" font-size="14" lengthAdjust="spacing" textLength="209.043" x="1689.5" y="676.0071">mapping: Persistent/Dynamic</text><line style="stroke:#888888;stroke-width:1.0;" x1="1684.5" x2="1903.543" y1="682.9466" y2="682.9466"/></g><!--class StorageBuffer--><g id="elem_StorageBuffer"><rect codeLine="89" fill="#F8F8F8" height="78.0293" id="StorageBuffer" rx="2.5" ry="2.5" style="stroke:#888888;stroke-width:1.0;" width="163.252" x="1939.5" y="612.9173"/><ellipse cx="1969.4233" cy="626.9173" fill="#FFFFFF" rx="9" ry="9" style="stroke:#000000;stroke-width:1.0;"/><path d="M1972.189,628.4486 L1974.5796,629.1986 Q1974.0327,631.1829 1972.7515,632.1517 Q1971.4858,633.1204 1969.5171,633.1204 Q1967.0952,633.1204 1965.5327,631.4642 Q1963.9858,629.8079 1963.9858,626.9329 Q1963.9858,623.9017 1965.5483,622.2298 Q1967.1108,620.5423 1969.6733,620.5423 Q1971.9077,620.5423 1973.2983,621.8548 Q1974.1265,622.6361 1974.5483,624.1048 L1972.1108,624.6829 Q1971.8921,623.7298 1971.2046,623.1829 Q1970.5327,622.6361 1969.5483,622.6361 Q1968.189,622.6361 1967.3452,623.6204 Q1966.5171,624.5892 1966.5171,626.7611 Q1966.5171,629.0579 1967.3452,630.0423 Q1968.1733,631.0267 1969.5015,631.0267 Q1970.4858,631.0267 1971.189,630.4017 Q1971.8921,629.7767 1972.189,628.4486 Z " fill="#000000"/><text fill="#000000" font-family="Verdana" font-size="14" lengthAdjust="spacing" textLength="97.6445" x="1985.1841" y="632.4852">StorageBuffer</text><line style="stroke:#888888;stroke-width:1.0;" x1="1940.5" x2="2101.752" y1="640.9173" y2="640.9173"/><text fill="#000000" font-family="Verdana" font-size="14" lengthAdjust="spacing" textLength="121.1328" x="1945.5" y="658.9925">usage: STORAGE</text><text fill="#000000" font-family="Verdana" font-size="14" lengthAdjust="spacing" textLength="151.252" x="1945.5" y="676.0071">mapping: Read/Write</text><line style="stroke:#888888;stroke-width:1.0;" x1="1940.5" x2="2101.752" y1="682.9466" y2="682.9466"/></g><!--class Texture2D--><g id="elem_Texture2D"><rect codeLine="94" fill="#F8F8F8" height="78.0293" id="Texture2D" rx="2.5" ry="2.5" style="stroke:#888888;stroke-width:1.0;" width="181.0117" x="2137.5" y="612.9173"/><ellipse cx="2187.4409" cy="626.9173" fill="#FFFFFF" rx="9" ry="9" style="stroke:#000000;stroke-width:1.0;"/><path d="M2190.2065,628.4486 L2192.5972,629.1986 Q2192.0503,631.1829 2190.769,632.1517 Q2189.5034,633.1204 2187.5347,633.1204 Q2185.1128,633.1204 2183.5503,631.4642 Q2182.0034,629.8079 2182.0034,626.9329 Q2182.0034,623.9017 2183.5659,622.2298 Q2185.1284,620.5423 2187.6909,620.5423 Q2189.9253,620.5423 2191.3159,621.8548 Q2192.144,622.6361 2192.5659,624.1048 L2190.1284,624.6829 Q2189.9097,623.7298 2189.2222,623.1829 Q2188.5503,622.6361 2187.5659,622.6361 Q2186.2065,622.6361 2185.3628,623.6204 Q2184.5347,624.5892 2184.5347,626.7611 Q2184.5347,629.0579 2185.3628,630.0423 Q2186.1909,631.0267 2187.519,631.0267 Q2188.5034,631.0267 2189.2065,630.4017 Q2189.9097,629.7767 2190.2065,628.4486 Z " fill="#000000"/><text fill="#000000" font-family="Verdana" font-size="14" lengthAdjust="spacing" textLength="73.6299" x="2204.9409" y="632.4852">Texture2D</text><line style="stroke:#888888;stroke-width:1.0;" x1="2138.5" x2="2317.5117" y1="640.9173" y2="640.9173"/><text fill="#000000" font-family="Verdana" font-size="14" lengthAdjust="spacing" textLength="169.0117" x="2143.5" y="658.9925">format: RGBA8/BC7/etc</text><text fill="#000000" font-family="Verdana" font-size="14" lengthAdjust="spacing" textLength="119.7178" x="2143.5" y="676.0071">usage: SAMPLED</text><line style="stroke:#888888;stroke-width:1.0;" x1="2138.5" x2="2317.5117" y1="682.9466" y2="682.9466"/></g><!--class Sampler--><g id="elem_Sampler"><rect codeLine="99" fill="#F8F8F8" height="78.0293" id="Sampler" rx="2.5" ry="2.5" style="stroke:#888888;stroke-width:1.0;" width="165.7061" x="2354" y="612.9173"/><ellipse cx="2403.8657" cy="626.9173" fill="#FFFFFF" rx="9" ry="9" style="stroke:#000000;stroke-width:1.0;"/><path d="M2406.6313,628.4486 L2409.022,629.1986 Q2408.4751,631.1829 2407.1938,632.1517 Q2405.9282,633.1204 2403.9595,633.1204 Q2401.5376,633.1204 2399.9751,631.4642 Q2398.4282,629.8079 2398.4282,626.9329 Q2398.4282,623.9017 2399.9907,622.2298 Q2401.5532,620.5423 2404.1157,620.5423 Q2406.3501,620.5423 2407.7407,621.8548 Q2408.5688,622.6361 2408.9907,624.1048 L2406.5532,624.6829 Q2406.3345,623.7298 2405.647,623.1829 Q2404.9751,622.6361 2403.9907,622.6361 Q2402.6313,622.6361 2401.7876,623.6204 Q2400.9595,624.5892 2400.9595,626.7611 Q2400.9595,629.0579 2401.7876,630.0423 Q2402.6157,631.0267 2403.9438,631.0267 Q2404.9282,631.0267 2405.6313,630.4017 Q2406.3345,629.7767 2406.6313,628.4486 Z " fill="#000000"/><text fill="#000000" font-family="Verdana" font-size="14" lengthAdjust="spacing" textLength="58.4746" x="2421.3657" y="632.4852">Sampler</text><line style="stroke:#888888;stroke-width:1.0;" x1="2355" x2="2518.7061" y1="640.9173" y2="640.9173"/><text fill="#000000" font-family="Verdana" font-size="14" lengthAdjust="spacing" textLength="128.4473" x="2360" y="658.9925">filter: Linear/Point</text><text fill="#000000" font-family="Verdana" font-size="14" lengthAdjust="spacing" textLength="153.7061" x="2360" y="676.0071">address: Wrap/Clamp</text><line style="stroke:#888888;stroke-width:1.0;" x1="2355" x2="2518.7061" y1="682.9466" y2="682.9466"/></g><g id="elem_GMN30"><path d="M1659,175.4173 L1659,232.8153 L1856.8267,232.8153 L1856.8267,185.4173 L1846.8267,175.4173 L1659,175.4173 " fill="#FFFFFF" style="stroke:#000000;stroke-width:1.0;"/><path d="M1846.8267,175.4173 L1846.8267,185.4173 L1856.8267,185.4173 L1846.8267,175.4173 " fill="#FFFFFF" style="stroke:#000000;stroke-width:1.0;"/><text fill="#000000" font-family="Verdana" font-size="13" lengthAdjust="spacing" textLength="150.979" x="1665" y="193.4871">Least frequent updates</text><text fill="#000000" font-family="Verdana" font-size="13" lengthAdjust="spacing" textLength="161.7065" x="1665" y="209.2864">Typically large resources</text><text fill="#000000" font-family="Verdana" font-size="13" lengthAdjust="spacing" textLength="176.8267" x="1665" y="225.0858">Shared across many draws</text></g><g id="elem_GMN33"><path d="M1892,167.4173 L1892,240.6146 L2060.0371,240.6146 L2060.0371,177.4173 L2050.0371,167.4173 L1892,167.4173 " fill="#FFFFFF" style="stroke:#000000;stroke-width:1.0;"/><path d="M2050.0371,167.4173 L2050.0371,177.4173 L2060.0371,177.4173 L2050.0371,167.4173 " fill="#FFFFFF" style="stroke:#000000;stroke-width:1.0;"/><text fill="#000000" font-family="Verdana" font-size="13" lengthAdjust="spacing" textLength="147.0371" x="1898" y="185.4871">Most frequent updates</text><text fill="#000000" font-family="Verdana" font-size="13" lengthAdjust="spacing" textLength="69.8813" x="1898" y="201.2864">Small data</text><text fill="#000000" font-family="Verdana" font-size="13" lengthAdjust="spacing" textLength="133.5166" x="1898" y="217.0858">Use dynamic buffers</text><text fill="#000000" font-family="Verdana" font-size="13" lengthAdjust="spacing" textLength="104.7808" x="1898" y="232.8851">or buffer offsets</text></g><g id="elem_GMN36"><path d="M1662.5,400.4173 L1662.5,457.8153 A0,0 0 0 0 1662.5,457.8153 L1879.4902,457.8153 A0,0 0 0 0 1879.4902,457.8153 L1879.4902,410.4173 L1869.4902,400.4173 L1742.03,400.4173 L1580.87,268.5173 L1734.03,400.4173 L1662.5,400.4173 A0,0 0 0 0 1662.5,400.4173 " fill="#FFFFFF" style="stroke:#000000;stroke-width:1.0;"/><path d="M1869.4902,400.4173 L1869.4902,410.4173 L1879.4902,410.4173 L1869.4902,400.4173 " fill="#FFFFFF" style="stroke:#000000;stroke-width:1.0;"/><text fill="#000000" font-family="Verdana" font-size="13" lengthAdjust="spacing" textLength="138.4043" x="1668.5" y="418.4871">Pool-based allocation</text><text fill="#000000" font-family="Verdana" font-size="13" lengthAdjust="spacing" textLength="148.2051" x="1668.5" y="434.2864">Frame-based recycling</text><text fill="#000000" font-family="Verdana" font-size="13" lengthAdjust="spacing" textLength="195.9902" x="1668.5" y="450.0858">Minimizes allocation overhead</text></g><!--link Set 0: Per-Frame to BindGroup--><g id="link_Set 0: Per-Frame_BindGroup"><path codeLine="106" d="M199.51,277.0573 C212.25,286.3673 225.94,294.7773 240,300.9173 C319.66,335.7173 347.35,318.8773 434,325.9173 C629.69,341.8173 1125.56,312.3373 1317,355.9173 C1322.91,357.2673 1323.1197,357.1384 1329.0897,358.8784 " fill="none" id="Set 0: Per-Frame-to-BindGroup" style="stroke:#000000;stroke-width:1.0;stroke-dasharray:7.0,7.0;"/><polygon fill="#000000" points="1334.85,360.5573,1327.3288,354.1988,1330.0497,359.1582,1325.0903,361.8792,1334.85,360.5573" style="stroke:#000000;stroke-width:1.0;"/><text fill="#000000" font-family="Verdana" font-size="13" lengthAdjust="spacing" textLength="52.9077" x="435" y="322.9871">maps to</text></g><!--link Set 1: Per-Pass to BindGroup--><g id="link_Set 1: Per-Pass_BindGroup"><path codeLine="107" d="M645.41,260.1573 C664.07,275.9273 686.07,291.3973 709,300.9173 C959.58,404.9673 1053.94,289.4773 1317,355.9173 C1322.88,357.3973 1323.0751,357.3135 1329.0251,359.1435 " fill="none" id="Set 1: Per-Pass-to-BindGroup" style="stroke:#000000;stroke-width:1.0;stroke-dasharray:7.0,7.0;"/><polygon fill="#000000" points="1334.76,360.9073,1327.3336,354.4383,1329.9809,359.4374,1324.9818,362.0848,1334.76,360.9073" style="stroke:#000000;stroke-width:1.0;"/><text fill="#000000" font-family="Verdana" font-size="13" lengthAdjust="spacing" textLength="52.9077" x="767" y="322.9871">maps to</text></g><!--link Set 2: Per-Material to BindGroup--><g id="link_Set 2: Per-Material_BindGroup"><path codeLine="108" d="M936.77,277.0573 C952.7,286.1773 969.41,294.5373 986,300.9173 C1125.2,354.4273 1174.06,313.3873 1317,355.9173 C1322.81,357.6473 1323.0105,357.5924 1328.9105,359.6024 " fill="none" id="Set 2: Per-Material-to-BindGroup" style="stroke:#000000;stroke-width:1.0;stroke-dasharray:7.0,7.0;"/><polygon fill="#000000" points="1334.59,361.5373,1327.3607,354.8487,1329.8571,359.9249,1324.7809,362.4213,1334.59,361.5373" style="stroke:#000000;stroke-width:1.0;"/><text fill="#000000" font-family="Verdana" font-size="13" lengthAdjust="spacing" textLength="52.9077" x="1074" y="322.9871">maps to</text></g><!--link Set 3: Per-Object to BindGroup--><g id="link_Set 3: Per-Object_BindGroup"><path codeLine="109" d="M421.65,268.6373 C437.65,281.2373 455.53,292.9973 474,300.9173 C646.53,374.9073 1134.22,313.0773 1317,355.9173 C1322.9,357.2973 1323.1049,357.1907 1329.0749,358.9507 " fill="none" id="Set 3: Per-Object-to-BindGroup" style="stroke:#000000;stroke-width:1.0;stroke-dasharray:7.0,7.0;"/><polygon fill="#000000" points="1334.83,360.6473,1327.3284,354.2656,1330.0341,359.2334,1325.0662,361.9391,1334.83,360.6473" style="stroke:#000000;stroke-width:1.0;"/><text fill="#000000" font-family="Verdana" font-size="13" lengthAdjust="spacing" textLength="52.9077" x="564" y="322.9871">maps to</text></g><!--link BindGroup to BindGroupLayout--><g id="link_BindGroup_BindGroupLayout"><path codeLine="111" d="M1377.97,501.9773 C1329.88,535.6073 1278.9469,571.2287 1236.5069,600.9087 " fill="none" id="BindGroup-to-BindGroupLayout" style="stroke:#000000;stroke-width:1.0;"/><polygon fill="#000000" points="1231.59,604.3473,1241.2578,602.4674,1235.6874,601.4818,1236.673,595.9115,1231.59,604.3473" style="stroke:#000000;stroke-width:1.0;"/><text fill="#000000" font-family="Verdana" font-size="13" lengthAdjust="spacing" textLength="68.415" x="1333" y="545.9871">defined by</text></g><!--link BindGroup to UniformBuffer--><g id="link_BindGroup_UniformBuffer"><path codeLine="112" d="M1583.05,501.9773 C1635.33,538.8773 1691.9486,578.8666 1735.0186,609.2766 " fill="none" id="BindGroup-to-UniformBuffer" style="stroke:#000000;stroke-width:1.0;"/><polygon fill="#000000" points="1739.92,612.7373,1734.875,604.2787,1735.8355,609.8534,1730.2608,610.8139,1739.92,612.7373" style="stroke:#000000;stroke-width:1.0;"/><text fill="#000000" font-family="Verdana" font-size="13" lengthAdjust="spacing" textLength="34.7661" x="1647" y="545.9871">binds</text></g><!--link BindGroup to StorageBuffer--><g id="link_BindGroup_StorageBuffer"><path codeLine="113" d="M1627.13,495.5973 C1633.13,497.8073 1639.11,499.9273 1645,501.9173 C1765.01,542.4173 1808.76,512.1673 1922,568.9173 C1944.35,580.1173 1961.6352,593.188 1979.0252,608.878 " fill="none" id="BindGroup-to-StorageBuffer" style="stroke:#000000;stroke-width:1.0;"/><polygon fill="#000000" points="1983.48,612.8973,1979.4773,603.8985,1979.7677,609.5479,1974.1183,609.8382,1983.48,612.8973" style="stroke:#000000;stroke-width:1.0;"/><text fill="#000000" font-family="Verdana" font-size="13" lengthAdjust="spacing" textLength="34.7661" x="1873" y="545.9871">binds</text></g><!--link BindGroup to Texture2D--><g id="link_BindGroup_Texture2D"><path codeLine="114" d="M1627.29,496.7073 C1633.23,498.5973 1639.14,500.3473 1645,501.9173 C1850.93,557.1373 1924.85,483.0673 2120,568.9173 C2144.35,579.6273 2163.6399,593.0171 2182.7399,608.9271 " fill="none" id="BindGroup-to-Texture2D" style="stroke:#000000;stroke-width:1.0;"/><polygon fill="#000000" points="2187.35,612.7673,2182.9949,603.9337,2183.5082,609.5672,2177.8747,610.0805,2187.35,612.7673" style="stroke:#000000;stroke-width:1.0;"/><text fill="#000000" font-family="Verdana" font-size="13" lengthAdjust="spacing" textLength="34.7661" x="2065" y="545.9871">binds</text></g><!--link BindGroup to Sampler--><g id="link_BindGroup_Sampler"><path codeLine="115" d="M1627.21,497.0473 C1633.16,498.8473 1639.11,500.4773 1645,501.9173 C1944.77,575.0173 2054.44,442.7073 2336,568.9173 C2359.29,579.3573 2377.2372,592.5468 2394.9972,608.5068 " fill="none" id="BindGroup-to-Sampler" style="stroke:#000000;stroke-width:1.0;"/><polygon fill="#000000" points="2399.46,612.5173,2395.4395,603.5264,2395.741,609.1753,2390.0922,609.4768,2399.46,612.5173" style="stroke:#000000;stroke-width:1.0;"/><text fill="#000000" font-family="Verdana" font-size="13" lengthAdjust="spacing" textLength="34.7661" x="2288" y="545.9871">binds</text></g><!--link PipelineLayout to BindGroupLayout--><g id="link_PipelineLayout_BindGroupLayout"><path codeLine="117" d="M1153.95,476.5173 C1156.33,514.1273 1159.291,560.7993 1161.671,598.3993 " fill="none" id="PipelineLayout-to-BindGroupLayout" style="stroke:#000000;stroke-width:1.0;"/><polygon fill="#000000" points="1162.05,604.3873,1165.4735,595.1526,1161.7341,599.3973,1157.4894,595.658,1162.05,604.3873" style="stroke:#000000;stroke-width:1.0;"/><text fill="#000000" font-family="Verdana" font-size="13" lengthAdjust="spacing" textLength="54.3867" x="1159" y="545.9871">contains</text></g><!--link BindGroupAllocator to BindGroup--><g id="link_BindGroupAllocator_BindGroup"><path codeLine="118" d="M1498.15,268.5173 C1495.23,295.6873 1492.4421,321.5618 1489.4221,349.6218 " fill="none" id="BindGroupAllocator-to-BindGroup" style="stroke:#000000;stroke-width:1.0;"/><polygon fill="#000000" points="1488.78,355.5873,1493.7201,347.067,1489.315,350.616,1485.766,346.2109,1488.78,355.5873" style="stroke:#000000;stroke-width:1.0;"/><text fill="#000000" font-family="Verdana" font-size="13" lengthAdjust="spacing" textLength="59.103" x="1494" y="322.9871">manages</text></g><!--link BindGroup to DynamicBuffer--><g id="link_BindGroup_DynamicBuffer"><path codeLine="119" d="M1481,501.9773 C1481,526.5373 1481,547.9973 1481,572.5773 " fill="none" id="BindGroup-to-DynamicBuffer" style="stroke:#000000;stroke-width:1.0;"/><polygon fill="#000000" points="1481,578.5773,1485,569.5773,1481,573.5773,1477,569.5773,1481,578.5773" style="stroke:#000000;stroke-width:1.0;"/><text fill="#000000" font-family="Verdana" font-size="13" lengthAdjust="spacing" textLength="29.5166" x="1482" y="545.9871">uses</text></g><!--link Set 0: Per-Frame to GMN30--><g id="link_Set 0: Per-Frame_GMN30"><path d="M177.12,130.9073 C198.83,106.9273 226.29,83.4673 257.5,71.9173 C293.14,58.7373 1589.86,58.7373 1625.5,71.9173 C1676.97,90.9573 1718.23,142.3873 1740.32,175.1373 " fill="none" id="Set 0: Per-Frame-GMN30" style="stroke:#000000;stroke-width:1.0;stroke-dasharray:7.0,7.0;"/></g><!--link Set 3: Per-Object to GMN33--><g id="link_Set 3: Per-Object_GMN33"><path d="M402.95,139.0773 C426.02,112.4473 456.52,84.8573 491.5,71.9173 C527.09,58.7573 1821.91,58.7573 1857.5,71.9173 C1902.7,88.6373 1936.92,134.2473 1956.7,167.1773 " fill="none" id="Set 3: Per-Object-GMN33" style="stroke:#000000;stroke-width:1.0;stroke-dasharray:7.0,7.0;"/></g><!--SRC=[ZLPjRo8t4FxEhvXo7qhQS5npbOfG5GaII9721K6uVAYgokmEu9wnjxRtacrr_xrZUm4l2qbPAT7EZ6UVUNiytzaDRX4omRXic2zSPaopBInPycMjLIxJ6oMKXdUZeNiYYqGmOmOriwvxQcPAfwXBaswtssXORWN2H95Omjrq0JCqAjS9me3BbCkrrmbeFU6Ir9tFkVZ2P6U2bWcOsqBWHQEHqTVP6g6vEpFI-7UECYdWDuwQwMHJDE7Ti3lwUTI5Vnj0Fuy7cdEqyA47KzJj4S54CXkDXjtXpipzVeJF79zXmgpcBv5qgjLVc5YkP5ttoBSOlTxpzSOQw6lDYaWytx1KES-PsKiNMSeizk11KX8orB1okBpwc_zx3F-d07zAWX3aw0Zz32Mb5nwPNfFvMAvK78JpSwEaiKnQ4okKiUrCgmJ9OEfgY1RrApWpylGApAi0apA5cZFXeJgm5QWxhSij-RGSOqYtVBNA3S8ZljXSn_dzfFIMJb4YOsUkIGHFEZELhpSIZJdrfNhikyW8BcntPkQPssJpIdmVGtmFIzSJPHiTH-TRkTOhuGYCRoFPs8EYpDuoooBvG4aC7gWkq7Bp9QdZBshWXrzH5v1gzWm9PQ44_YqQbZ1HCDvcWYPVMkOwkHb6TrWT4pTNTpJUsJqhL6wZeDf09pMLgNTiD2HvyViV4VP-cfO3sbg6_vTWYmmlWM9TuqLaUgEHecXTzE1vdUMztf7lqsNO6rNm2N-Y1Y-oq2NbK0mxzgdWfkeEyjKAzG7sqhzVWbgj35eAWFzJmKz7oYQDGWs28xCvS_cFN9iW-5_PE9s7ASzGS8adYhMi9g5UjLhWLNNBHnjI-Xh2AeGtojKNGYNCqfqGGysK4eIFHlhNuEMIA4c9wyZ4C-EOoEsb1pcNzkDLt6t1AxPAj56e5MwaY5e7Ht5GTqmlgI_fkX8qdwsBqs7S5f9jUH8wf9fiBzeNpRz5wj0xFTyxVyRzw0GriMEip2Nug-Bf3v5u8RTE4UCEPQDkshMpEnU-NofEqC7-udsaaNGtoUY3Uoeyi91yHKnRYpKtvA87Yq_ZqSDiiXSJi8m-vedHS6E9AZfbkaxdSavDG9xE-Py_FipwTyEw_ncojFEakJrpJvQpU7KR-NI1C4h_x6xGxtO6Dxzqq2QrB_Odq_lXxHcqOL9ZdrnOL_5xQdscErD5JRbNiZGbfg6MVj8iwzm8Edqem_SKW_0CR3QSje4JYydxzzSHnVMWIU4RiAhPgAy1RzZMxk8tx8_kjlFMZOEutRwktHjackAAafF2icWU6LURYqmTMPbZgsgBdBCw5Foidx9u1ttZY3VF190ekYgvZ1qU2Ano9cH64jhQrwkaGNQqrZW8Kba4xPP5eeSJswblc7janXBv-HtNGkvl_B2-qEnoTzqNnD6qxHskDg-bTLDJwbcY5RKlGGiBWcdGWWZkqoS1L8ll7KtKEG1pMiC4fBkbPK7RMXfYBUamc56gmcl9WZK8IsMjsZeCzInx3-ukQ2-PSV441SsEr_XCbIgDIP687U5DkEHRebKJ7G55YzA6-EE0u3y0]--></g></svg>