<svg xmlns="http://www.w3.org/2000/svg" xmlns:xlink="http://www.w3.org/1999/xlink" contentStyleType="text/css" height="1974px" preserveAspectRatio="none" style="width:1291px;height:1974px;background:#FEFEFE;" version="1.1" viewBox="0 0 1291 1974" width="1291px" zoomAndPan="magnify"><title>Frame Lifecycle - Command-Based Rendering</title><defs/><g><rect fill="#FEFEFE" height="1974" style="stroke:none;stroke-width:1.0;" width="1291" x="0" y="0"/><text fill="#000000" font-family="Verdana" font-size="22" font-weight="bold" lengthAdjust="spacing" textLength="561.623" x="363.4695" y="37.1182">Frame Lifecycle - Command-Based Rendering</text><rect fill="#FFFFFF" height="256.3945" style="stroke:#000000;stroke-width:1.0;" width="10" x="301.5986" y="160.3506"/><rect fill="#FFFFFF" height="279.1938" style="stroke:#000000;stroke-width:1.0;" width="10" x="301.5986" y="1060.1328"/><rect fill="#FFFFFF" height="784.3843" style="stroke:#000000;stroke-width:1.0;" width="10" x="500.5146" y="386.9458"/><rect fill="#FFFFFF" height="121.3979" style="stroke:#000000;stroke-width:1.0;" width="10" x="505.5146" y="568.9424"/><rect fill="#FFFFFF" height="72.5986" style="stroke:#000000;stroke-width:1.0;" width="10" x="673.5728" y="190.1499"/><rect fill="#FFFFFF" height="366.5918" style="stroke:#000000;stroke-width:1.0;" width="10" x="821.7354" y="1201.1294"/><rect fill="#FFFFFF" height="300.9932" style="stroke:#000000;stroke-width:1.0;" width="10" x="979.9927" y="1230.9287"/><rect fill="#FFFFFF" height="196.5952" style="stroke:#000000;stroke-width:1.0;" width="520.7017" x="79" y="790.939"/><rect fill="#FFFFFF" height="136.9966" style="stroke:#000000;stroke-width:1.0;" width="520.7017" x="79" y="1633.5205"/><rect fill="#FFFFFF" height="136.9966" style="stroke:#000000;stroke-width:1.0;" width="520.7017" x="79" y="1784.5171"/><line style="stroke:#000000;stroke-width:1.0;" x1="144" x2="144" y1="84.752" y2="1938.5137"/><line style="stroke:#000000;stroke-width:1.0;" x1="306.4561" x2="306.4561" y1="84.752" y2="1938.5137"/><line style="stroke:#000000;stroke-width:1.0;" x1="505.3276" x2="505.3276" y1="84.752" y2="1938.5137"/><line style="stroke:#000000;stroke-width:1.0;" x1="677.6216" x2="677.6216" y1="84.752" y2="1938.5137"/><line style="stroke:#000000;stroke-width:1.0;" x1="826.0264" x2="826.0264" y1="84.752" y2="1938.5137"/><line style="stroke:#000000;stroke-width:1.0;" x1="984.2202" x2="984.2202" y1="84.752" y2="1938.5137"/><rect fill="#F8F8F8" height="31.0146" rx="2.5" ry="2.5" style="stroke:#000000;stroke-width:1.0;" width="91.1162" x="99" y="52.7373"/><text fill="#000000" font-family="Verdana" font-size="14" lengthAdjust="spacing" textLength="77.1162" x="106" y="73.8125">Application</text><rect fill="#F8F8F8" height="31.0146" rx="2.5" ry="2.5" style="stroke:#000000;stroke-width:1.0;" width="91.1162" x="99" y="1937.5137"/><text fill="#000000" font-family="Verdana" font-size="14" lengthAdjust="spacing" textLength="77.1162" x="106" y="1958.5889">Application</text><rect fill="#F8F8F8" height="31.0146" rx="2.5" ry="2.5" style="stroke:#000000;stroke-width:1.0;" width="78.2852" x="267.4561" y="52.7373"/><text fill="#000000" font-family="Verdana" font-size="14" lengthAdjust="spacing" textLength="64.2852" x="274.4561" y="73.8125">Renderer</text><rect fill="#F8F8F8" height="31.0146" rx="2.5" ry="2.5" style="stroke:#000000;stroke-width:1.0;" width="78.2852" x="267.4561" y="1937.5137"/><text fill="#000000" font-family="Verdana" font-size="14" lengthAdjust="spacing" textLength="64.2852" x="274.4561" y="1958.5889">Renderer</text><rect fill="#F8F8F8" height="31.0146" rx="2.5" ry="2.5" style="stroke:#000000;stroke-width:1.0;" width="148.374" x="431.3276" y="52.7373"/><text fill="#000000" font-family="Verdana" font-size="14" lengthAdjust="spacing" textLength="134.374" x="438.3276" y="73.8125">CommandRecorder</text><rect fill="#F8F8F8" height="31.0146" rx="2.5" ry="2.5" style="stroke:#000000;stroke-width:1.0;" width="148.374" x="431.3276" y="1937.5137"/><text fill="#000000" font-family="Verdana" font-size="14" lengthAdjust="spacing" textLength="134.374" x="438.3276" y="1958.5889">CommandRecorder</text><rect fill="#F8F8F8" height="31.0146" rx="2.5" ry="2.5" style="stroke:#000000;stroke-width:1.0;" width="91.9023" x="632.6216" y="52.7373"/><text fill="#000000" font-family="Verdana" font-size="14" lengthAdjust="spacing" textLength="77.9023" x="639.6216" y="73.8125">SwapChain</text><rect fill="#F8F8F8" height="31.0146" rx="2.5" ry="2.5" style="stroke:#000000;stroke-width:1.0;" width="91.9023" x="632.6216" y="1937.5137"/><text fill="#000000" font-family="Verdana" font-size="14" lengthAdjust="spacing" textLength="77.9023" x="639.6216" y="1958.5889">SwapChain</text><rect fill="#F8F8F8" height="31.0146" rx="2.5" ry="2.5" style="stroke:#000000;stroke-width:1.0;" width="59.418" x="797.0264" y="52.7373"/><text fill="#000000" font-family="Verdana" font-size="14" lengthAdjust="spacing" textLength="45.418" x="804.0264" y="73.8125">Queue</text><rect fill="#F8F8F8" height="31.0146" rx="2.5" ry="2.5" style="stroke:#000000;stroke-width:1.0;" width="59.418" x="797.0264" y="1937.5137"/><text fill="#000000" font-family="Verdana" font-size="14" lengthAdjust="spacing" textLength="45.418" x="804.0264" y="1958.5889">Queue</text><rect fill="#F8F8F8" height="31.0146" rx="2.5" ry="2.5" style="stroke:#000000;stroke-width:1.0;" width="43.5449" x="963.2202" y="52.7373"/><text fill="#000000" font-family="Verdana" font-size="14" lengthAdjust="spacing" textLength="29.5449" x="970.2202" y="73.8125">GPU</text><rect fill="#F8F8F8" height="31.0146" rx="2.5" ry="2.5" style="stroke:#000000;stroke-width:1.0;" width="43.5449" x="963.2202" y="1937.5137"/><text fill="#000000" font-family="Verdana" font-size="14" lengthAdjust="spacing" textLength="29.5449" x="970.2202" y="1958.5889">GPU</text><rect fill="#FFFFFF" height="256.3945" style="stroke:#000000;stroke-width:1.0;" width="10" x="301.5986" y="160.3506"/><rect fill="#FFFFFF" height="279.1938" style="stroke:#000000;stroke-width:1.0;" width="10" x="301.5986" y="1060.1328"/><rect fill="#FFFFFF" height="784.3843" style="stroke:#000000;stroke-width:1.0;" width="10" x="500.5146" y="386.9458"/><rect fill="#FFFFFF" height="121.3979" style="stroke:#000000;stroke-width:1.0;" width="10" x="505.5146" y="568.9424"/><rect fill="#FFFFFF" height="72.5986" style="stroke:#000000;stroke-width:1.0;" width="10" x="673.5728" y="190.1499"/><rect fill="#FFFFFF" height="366.5918" style="stroke:#000000;stroke-width:1.0;" width="10" x="821.7354" y="1201.1294"/><rect fill="#FFFFFF" height="300.9932" style="stroke:#000000;stroke-width:1.0;" width="10" x="979.9927" y="1230.9287"/><rect fill="#FFFFFF" height="3" style="stroke:#FFFFFF;stroke-width:1.0;" width="1279.562" x="5" y="115.6516"/><line style="stroke:#000000;stroke-width:0.5;" x1="5" x2="1284.562" y1="115.6516" y2="115.6516"/><line style="stroke:#000000;stroke-width:0.5;" x1="5" x2="1284.562" y1="118.6516" y2="118.6516"/><rect fill="#FFFFFF" height="23.7993" style="stroke:#000000;stroke-width:1.0;" width="120.5518" x="584.5051" y="104.752"/><text fill="#000000" font-family="Verdana" font-size="13" font-weight="bold" lengthAdjust="spacing" textLength="102.1084" x="590.5051" y="121.8218">Frame N Start</text><polygon fill="#666666" points="289.5986,156.3506,299.5986,160.3506,289.5986,164.3506,293.5986,160.3506" style="stroke:#666666;stroke-width:1.0;"/><line style="stroke:#666666;stroke-width:1.0;" x1="144.5581" x2="295.5986" y1="160.3506" y2="160.3506"/><text fill="#000000" font-family="Verdana" font-size="13" lengthAdjust="spacing" textLength="89.5718" x="151.5581" y="155.6211">BeginFrame()</text><polygon fill="#666666" points="661.5728,186.1499,671.5728,190.1499,661.5728,194.1499,665.5728,190.1499" style="stroke:#666666;stroke-width:1.0;"/><line style="stroke:#666666;stroke-width:1.0;" x1="311.5986" x2="667.5728" y1="190.1499" y2="190.1499"/><text fill="#000000" font-family="Verdana" font-size="13" lengthAdjust="spacing" textLength="132.7041" x="318.5986" y="185.4204">AcquireNextImage()</text><line style="stroke:#666666;stroke-width:1.0;" x1="683.5728" x2="725.5728" y1="219.9492" y2="219.9492"/><line style="stroke:#666666;stroke-width:1.0;" x1="725.5728" x2="725.5728" y1="219.9492" y2="232.9492"/><line style="stroke:#666666;stroke-width:1.0;" x1="684.5728" x2="725.5728" y1="232.9492" y2="232.9492"/><polygon fill="#666666" points="694.5728,228.9492,684.5728,232.9492,694.5728,236.9492,690.5728,232.9492" style="stroke:#666666;stroke-width:1.0;"/><text fill="#000000" font-family="Verdana" font-size="13" lengthAdjust="spacing" textLength="114.1626" x="690.5728" y="215.2197">Wait for available</text><polygon fill="#666666" points="322.5986,258.7485,312.5986,262.7485,322.5986,266.7485,318.5986,262.7485" style="stroke:#666666;stroke-width:1.0;"/><line style="stroke:#666666;stroke-width:1.0;stroke-dasharray:2.0,2.0;" x1="316.5986" x2="677.5728" y1="262.7485" y2="262.7485"/><text fill="#000000" font-family="Verdana" font-size="13" lengthAdjust="spacing" textLength="91.4761" x="328.5986" y="258.019">Backbuffer[N]</text><line style="stroke:#666666;stroke-width:1.0;" x1="311.5986" x2="353.5986" y1="296.9475" y2="296.9475"/><line style="stroke:#666666;stroke-width:1.0;" x1="353.5986" x2="353.5986" y1="296.9475" y2="309.9475"/><line style="stroke:#666666;stroke-width:1.0;" x1="312.5986" x2="353.5986" y1="309.9475" y2="309.9475"/><polygon fill="#666666" points="322.5986,305.9475,312.5986,309.9475,322.5986,313.9475,318.5986,309.9475" style="stroke:#666666;stroke-width:1.0;"/><text fill="#000000" font-family="Verdana" font-size="13" lengthAdjust="spacing" textLength="114.8164" x="318.5986" y="292.218">Wait(Fence[N-2])</text><path d="M454.8164,275.7485 L454.8164,316.7485 L598.8164,316.7485 L598.8164,285.7485 L588.8164,275.7485 L454.8164,275.7485 " fill="#FFFFFF" style="stroke:#000000;stroke-width:1.0;"/><path d="M588.8164,275.7485 L588.8164,285.7485 L598.8164,285.7485 L588.8164,275.7485 " fill="#FFFFFF" style="stroke:#000000;stroke-width:1.0;"/><text fill="#000000" font-family="Verdana" font-size="13" lengthAdjust="spacing" textLength="105.6631" x="460.8164" y="293.8184">Triple buffering:</text><text fill="#000000" font-family="Verdana" font-size="13" lengthAdjust="spacing" textLength="123.2778" x="460.8164" y="309.6177">Wait for frame N-2</text><line style="stroke:#666666;stroke-width:1.0;" x1="311.5986" x2="353.5986" y1="344.1465" y2="344.1465"/><line style="stroke:#666666;stroke-width:1.0;" x1="353.5986" x2="353.5986" y1="344.1465" y2="357.1465"/><line style="stroke:#666666;stroke-width:1.0;" x1="312.5986" x2="353.5986" y1="357.1465" y2="357.1465"/><polygon fill="#666666" points="322.5986,353.1465,312.5986,357.1465,322.5986,361.1465,318.5986,357.1465" style="stroke:#666666;stroke-width:1.0;"/><text fill="#000000" font-family="Verdana" font-size="13" lengthAdjust="spacing" textLength="159.5293" x="318.5986" y="339.417">GetCommandRecorder()</text><polygon fill="#666666" points="488.5146,382.9458,498.5146,386.9458,488.5146,390.9458,492.5146,386.9458" style="stroke:#666666;stroke-width:1.0;"/><line style="stroke:#666666;stroke-width:1.0;" x1="311.5986" x2="494.5146" y1="386.9458" y2="386.9458"/><text fill="#000000" font-family="Verdana" font-size="13" lengthAdjust="spacing" textLength="48.3564" x="318.5986" y="382.2163">Begin()</text><polygon fill="#666666" points="155.5581,412.7451,145.5581,416.7451,155.5581,420.7451,151.5581,416.7451" style="stroke:#666666;stroke-width:1.0;"/><line style="stroke:#666666;stroke-width:1.0;stroke-dasharray:2.0,2.0;" x1="149.5581" x2="305.5986" y1="416.7451" y2="416.7451"/><text fill="#000000" font-family="Verdana" font-size="13" lengthAdjust="spacing" textLength="133.0405" x="161.5581" y="412.0156">CommandRecorder*</text><rect fill="#FFFFFF" height="3" style="stroke:#FFFFFF;stroke-width:1.0;" width="1279.562" x="5" y="445.6448"/><line style="stroke:#000000;stroke-width:0.5;" x1="5" x2="1284.562" y1="445.6448" y2="445.6448"/><line style="stroke:#000000;stroke-width:0.5;" x1="5" x2="1284.562" y1="448.6448" y2="448.6448"/><rect fill="#FFFFFF" height="23.7993" style="stroke:#000000;stroke-width:1.0;" width="169.4858" x="560.0381" y="434.7451"/><text fill="#000000" font-family="Verdana" font-size="13" font-weight="bold" lengthAdjust="spacing" textLength="151.0425" x="566.0381" y="451.8149">Command Recording</text><polygon fill="#666666" points="488.5146,489.3438,498.5146,493.3438,488.5146,497.3438,492.5146,493.3438" style="stroke:#666666;stroke-width:1.0;"/><line style="stroke:#666666;stroke-width:1.0;" x1="144.5581" x2="494.5146" y1="493.3438" y2="493.3438"/><text fill="#000000" font-family="Verdana" font-size="13" lengthAdjust="spacing" textLength="166.3086" x="151.5581" y="488.6143">BeginRenderPass(nullptr)</text><path d="M515,473.5444 L515,498.5444 L667,498.5444 L667,483.5444 L657,473.5444 L515,473.5444 " fill="#FFFFFF" style="stroke:#000000;stroke-width:1.0;"/><path d="M657,473.5444 L657,483.5444 L667,483.5444 L657,473.5444 " fill="#FFFFFF" style="stroke:#000000;stroke-width:1.0;"/><text fill="#000000" font-family="Verdana" font-size="13" lengthAdjust="spacing" textLength="131.2695" x="521" y="491.6143">nullptr = backbuffer</text><line style="stroke:#666666;stroke-width:1.0;" x1="510.5146" x2="552.5146" y1="526.1431" y2="526.1431"/><line style="stroke:#666666;stroke-width:1.0;" x1="552.5146" x2="552.5146" y1="526.1431" y2="539.1431"/><line style="stroke:#666666;stroke-width:1.0;" x1="511.5146" x2="552.5146" y1="539.1431" y2="539.1431"/><polygon fill="#666666" points="521.5146,535.1431,511.5146,539.1431,521.5146,543.1431,517.5146,539.1431" style="stroke:#666666;stroke-width:1.0;"/><text fill="#000000" font-family="Verdana" font-size="13" lengthAdjust="spacing" textLength="139.0581" x="517.5146" y="521.4136">Set RenderPass state</text><polygon fill="#666666" points="493.5146,564.9424,503.5146,568.9424,493.5146,572.9424,497.5146,568.9424" style="stroke:#666666;stroke-width:1.0;"/><line style="stroke:#666666;stroke-width:1.0;" x1="144.5581" x2="499.5146" y1="568.9424" y2="568.9424"/><text fill="#000000" font-family="Verdana" font-size="13" lengthAdjust="spacing" textLength="134.8433" x="151.5581" y="564.2129">RenderScene(scene)</text><line style="stroke:#666666;stroke-width:1.0;" x1="515.5146" x2="557.5146" y1="598.7417" y2="598.7417"/><line style="stroke:#666666;stroke-width:1.0;" x1="557.5146" x2="557.5146" y1="598.7417" y2="611.7417"/><line style="stroke:#666666;stroke-width:1.0;" x1="516.5146" x2="557.5146" y1="611.7417" y2="611.7417"/><polygon fill="#666666" points="526.5146,607.7417,516.5146,611.7417,526.5146,615.7417,522.5146,611.7417" style="stroke:#666666;stroke-width:1.0;"/><text fill="#000000" font-family="Verdana" font-size="13" lengthAdjust="spacing" textLength="83.916" x="522.5146" y="594.0122">SetPipeline()</text><line style="stroke:#666666;stroke-width:1.0;" x1="515.5146" x2="557.5146" y1="641.541" y2="641.541"/><line style="stroke:#666666;stroke-width:1.0;" x1="557.5146" x2="557.5146" y1="641.541" y2="654.541"/><line style="stroke:#666666;stroke-width:1.0;" x1="516.5146" x2="557.5146" y1="654.541" y2="654.541"/><polygon fill="#666666" points="526.5146,650.541,516.5146,654.541,526.5146,658.541,522.5146,654.541" style="stroke:#666666;stroke-width:1.0;"/><text fill="#000000" font-family="Verdana" font-size="13" lengthAdjust="spacing" textLength="108.9829" x="522.5146" y="636.8115">SetBindGroups()</text><line style="stroke:#666666;stroke-width:1.0;" x1="515.5146" x2="557.5146" y1="689.3403" y2="689.3403"/><line style="stroke:#666666;stroke-width:1.0;" x1="557.5146" x2="557.5146" y1="689.3403" y2="702.3403"/><line style="stroke:#666666;stroke-width:1.0;" x1="510.5146" x2="557.5146" y1="702.3403" y2="702.3403"/><polygon fill="#666666" points="520.5146,698.3403,510.5146,702.3403,520.5146,706.3403,516.5146,702.3403" style="stroke:#666666;stroke-width:1.0;"/><text fill="#000000" font-family="Verdana" font-size="13" lengthAdjust="spacing" textLength="81.2563" x="522.5146" y="684.6108">Draw calls...</text><polygon fill="#666666" points="488.5146,726.1396,498.5146,730.1396,488.5146,734.1396,492.5146,730.1396" style="stroke:#666666;stroke-width:1.0;"/><line style="stroke:#666666;stroke-width:1.0;" x1="144.5581" x2="494.5146" y1="730.1396" y2="730.1396"/><text fill="#000000" font-family="Verdana" font-size="13" lengthAdjust="spacing" textLength="111.9473" x="151.5581" y="725.4102">EndRenderPass()</text><path d="M515,710.3403 L515,735.3403 L687,735.3403 L687,720.3403 L677,710.3403 L515,710.3403 " fill="#FFFFFF" style="stroke:#000000;stroke-width:1.0;"/><path d="M677,710.3403 L677,720.3403 L687,720.3403 L677,710.3403 " fill="#FFFFFF" style="stroke:#000000;stroke-width:1.0;"/><text fill="#000000" font-family="Verdana" font-size="13" font-weight="bold" lengthAdjust="spacing" textLength="151.5122" x="521" y="728.4102">Explicit end required</text><line style="stroke:#666666;stroke-width:1.0;" x1="510.5146" x2="552.5146" y1="762.939" y2="762.939"/><line style="stroke:#666666;stroke-width:1.0;" x1="552.5146" x2="552.5146" y1="762.939" y2="775.939"/><line style="stroke:#666666;stroke-width:1.0;" x1="511.5146" x2="552.5146" y1="775.939" y2="775.939"/><polygon fill="#666666" points="521.5146,771.939,511.5146,775.939,521.5146,779.939,517.5146,775.939" style="stroke:#666666;stroke-width:1.0;"/><text fill="#000000" font-family="Verdana" font-size="13" lengthAdjust="spacing" textLength="115.2163" x="517.5146" y="758.2095">Close RenderPass</text><path d="M79,790.939 L143.0493,790.939 L143.0493,798.7383 L133.0493,808.7383 L79,808.7383 L79,790.939 " fill="#FFFFFF" style="stroke:#000000;stroke-width:1.0;"/><rect fill="none" height="196.5952" style="stroke:#000000;stroke-width:1.0;" width="520.7017" x="79" y="790.939"/><text fill="#000000" font-family="Verdana" font-size="13" font-weight="bold" lengthAdjust="spacing" textLength="19.0493" x="94" y="805.0088">alt</text><text fill="#000000" font-family="Verdana" font-size="11" font-weight="bold" lengthAdjust="spacing" textLength="143.376" x="158.0493" y="803.998">[Multi-pass Rendering]</text><polygon fill="#666666" points="488.5146,826.5376,498.5146,830.5376,488.5146,834.5376,492.5146,830.5376" style="stroke:#666666;stroke-width:1.0;"/><line style="stroke:#666666;stroke-width:1.0;" x1="144.5581" x2="494.5146" y1="830.5376" y2="830.5376"/><text fill="#000000" font-family="Verdana" font-size="13" lengthAdjust="spacing" textLength="200.2495" x="151.5581" y="825.8081">BeginRenderPass(shadowMap)</text><polygon fill="#666666" points="488.5146,856.3369,498.5146,860.3369,488.5146,864.3369,492.5146,860.3369" style="stroke:#666666;stroke-width:1.0;"/><line style="stroke:#666666;stroke-width:1.0;" x1="144.5581" x2="494.5146" y1="860.3369" y2="860.3369"/><text fill="#000000" font-family="Verdana" font-size="13" lengthAdjust="spacing" textLength="116.5303" x="151.5581" y="855.6074">RenderShadows()</text><polygon fill="#666666" points="488.5146,886.1362,498.5146,890.1362,488.5146,894.1362,492.5146,890.1362" style="stroke:#666666;stroke-width:1.0;"/><line style="stroke:#666666;stroke-width:1.0;" x1="144.5581" x2="494.5146" y1="890.1362" y2="890.1362"/><text fill="#000000" font-family="Verdana" font-size="13" lengthAdjust="spacing" textLength="111.9473" x="151.5581" y="885.4067">EndRenderPass()</text><polygon fill="#666666" points="488.5146,915.9355,498.5146,919.9355,488.5146,923.9355,492.5146,919.9355" style="stroke:#666666;stroke-width:1.0;"/><line style="stroke:#666666;stroke-width:1.0;" x1="144.5581" x2="494.5146" y1="919.9355" y2="919.9355"/><text fill="#000000" font-family="Verdana" font-size="13" lengthAdjust="spacing" textLength="166.3086" x="151.5581" y="915.2061">BeginRenderPass(nullptr)</text><polygon fill="#666666" points="488.5146,945.7349,498.5146,949.7349,488.5146,953.7349,492.5146,949.7349" style="stroke:#666666;stroke-width:1.0;"/><line style="stroke:#666666;stroke-width:1.0;" x1="144.5581" x2="494.5146" y1="949.7349" y2="949.7349"/><text fill="#000000" font-family="Verdana" font-size="13" lengthAdjust="spacing" textLength="88.7656" x="151.5581" y="945.0054">RenderMain()</text><polygon fill="#666666" points="488.5146,975.5342,498.5146,979.5342,488.5146,983.5342,492.5146,979.5342" style="stroke:#666666;stroke-width:1.0;"/><line style="stroke:#666666;stroke-width:1.0;" x1="144.5581" x2="494.5146" y1="979.5342" y2="979.5342"/><text fill="#000000" font-family="Verdana" font-size="13" lengthAdjust="spacing" textLength="111.9473" x="151.5581" y="974.8047">EndRenderPass()</text><rect fill="#FFFFFF" height="3" style="stroke:#FFFFFF;stroke-width:1.0;" width="1279.562" x="5" y="1015.4338"/><line style="stroke:#000000;stroke-width:0.5;" x1="5" x2="1284.562" y1="1015.4338" y2="1015.4338"/><line style="stroke:#000000;stroke-width:0.5;" x1="5" x2="1284.562" y1="1018.4338" y2="1018.4338"/><rect fill="#FFFFFF" height="23.7993" style="stroke:#000000;stroke-width:1.0;" width="152.7153" x="568.4233" y="1004.5342"/><text fill="#000000" font-family="Verdana" font-size="13" font-weight="bold" lengthAdjust="spacing" textLength="134.272" x="574.4233" y="1021.604">Frame Submission</text><polygon fill="#666666" points="289.5986,1056.1328,299.5986,1060.1328,289.5986,1064.1328,293.5986,1060.1328" style="stroke:#666666;stroke-width:1.0;"/><line style="stroke:#666666;stroke-width:1.0;" x1="144.5581" x2="295.5986" y1="1060.1328" y2="1060.1328"/><text fill="#000000" font-family="Verdana" font-size="13" lengthAdjust="spacing" textLength="105.0854" x="151.5581" y="1055.4033">EndFrame(cmd)</text><polygon fill="#666666" points="488.5146,1085.9321,498.5146,1089.9321,488.5146,1093.9321,492.5146,1089.9321" style="stroke:#666666;stroke-width:1.0;"/><line style="stroke:#666666;stroke-width:1.0;" x1="311.5986" x2="494.5146" y1="1089.9321" y2="1089.9321"/><text fill="#000000" font-family="Verdana" font-size="13" lengthAdjust="spacing" textLength="49.6387" x="318.5986" y="1085.2026">Finish()</text><line style="stroke:#666666;stroke-width:1.0;" x1="510.5146" x2="552.5146" y1="1124.1311" y2="1124.1311"/><line style="stroke:#666666;stroke-width:1.0;" x1="552.5146" x2="552.5146" y1="1124.1311" y2="1137.1311"/><line style="stroke:#666666;stroke-width:1.0;" x1="511.5146" x2="552.5146" y1="1137.1311" y2="1137.1311"/><polygon fill="#666666" points="521.5146,1133.1311,511.5146,1137.1311,521.5146,1141.1311,517.5146,1137.1311" style="stroke:#666666;stroke-width:1.0;"/><text fill="#000000" font-family="Verdana" font-size="13" lengthAdjust="spacing" textLength="89.7432" x="517.5146" y="1119.4016">Validate state</text><path d="M628.7432,1102.9321 L628.7432,1143.9321 L774.7432,1143.9321 L774.7432,1112.9321 L764.7432,1102.9321 L628.7432,1102.9321 " fill="#FFFFFF" style="stroke:#000000;stroke-width:1.0;"/><path d="M764.7432,1102.9321 L764.7432,1112.9321 L774.7432,1112.9321 L764.7432,1102.9321 " fill="#FFFFFF" style="stroke:#000000;stroke-width:1.0;"/><text fill="#000000" font-family="Verdana" font-size="13" lengthAdjust="spacing" textLength="125.6265" x="634.7432" y="1121.002">Error if RenderPass</text><text fill="#000000" font-family="Verdana" font-size="13" lengthAdjust="spacing" textLength="65.876" x="634.7432" y="1136.8013">still active</text><polygon fill="#666666" points="322.5986,1167.3301,312.5986,1171.3301,322.5986,1175.3301,318.5986,1171.3301" style="stroke:#666666;stroke-width:1.0;"/><line style="stroke:#666666;stroke-width:1.0;stroke-dasharray:2.0,2.0;" x1="316.5986" x2="504.5146" y1="1171.3301" y2="1171.3301"/><text fill="#000000" font-family="Verdana" font-size="13" lengthAdjust="spacing" textLength="105.9614" x="328.5986" y="1166.6006">CommandBuffer</text><polygon fill="#666666" points="809.7354,1197.1294,819.7354,1201.1294,809.7354,1205.1294,813.7354,1201.1294" style="stroke:#666666;stroke-width:1.0;"/><line style="stroke:#666666;stroke-width:1.0;" x1="311.5986" x2="815.7354" y1="1201.1294" y2="1201.1294"/><text fill="#000000" font-family="Verdana" font-size="13" lengthAdjust="spacing" textLength="233.105" x="318.5986" y="1196.3999">Submit(CommandBuffer, Fence[N])</text><polygon fill="#666666" points="967.9927,1226.9287,977.9927,1230.9287,967.9927,1234.9287,971.9927,1230.9287" style="stroke:#666666;stroke-width:1.0;"/><line style="stroke:#666666;stroke-width:1.0;" x1="831.7354" x2="973.9927" y1="1230.9287" y2="1230.9287"/><text fill="#000000" font-family="Verdana" font-size="13" lengthAdjust="spacing" textLength="129.2573" x="838.7354" y="1226.1992">Execute Commands</text><polygon fill="#666666" points="666.5728,1259.728,676.5728,1263.728,666.5728,1267.728,670.5728,1263.728" style="stroke:#666666;stroke-width:1.0;"/><line style="stroke:#666666;stroke-width:1.0;" x1="311.5986" x2="672.5728" y1="1263.728" y2="1263.728"/><text fill="#000000" font-family="Verdana" font-size="13" lengthAdjust="spacing" textLength="60.8042" x="318.5986" y="1258.9985">Present()</text><path d="M129,1243.9287 L129,1268.9287 L295,1268.9287 L295,1253.9287 L285,1243.9287 L129,1243.9287 " fill="#FFFFFF" style="stroke:#000000;stroke-width:1.0;"/><path d="M285,1243.9287 L285,1253.9287 L295,1253.9287 L285,1243.9287 " fill="#FFFFFF" style="stroke:#000000;stroke-width:1.0;"/><text fill="#000000" font-family="Verdana" font-size="13" lengthAdjust="spacing" textLength="145.7104" x="135" y="1261.9985">Schedule presentation</text><line style="stroke:#666666;stroke-width:1.0;" x1="311.5986" x2="353.5986" y1="1296.5273" y2="1296.5273"/><line style="stroke:#666666;stroke-width:1.0;" x1="353.5986" x2="353.5986" y1="1296.5273" y2="1309.5273"/><line style="stroke:#666666;stroke-width:1.0;" x1="312.5986" x2="353.5986" y1="1309.5273" y2="1309.5273"/><polygon fill="#666666" points="322.5986,1305.5273,312.5986,1309.5273,322.5986,1313.5273,318.5986,1309.5273" style="stroke:#666666;stroke-width:1.0;"/><text fill="#000000" font-family="Verdana" font-size="13" lengthAdjust="spacing" textLength="111.4521" x="318.5986" y="1291.7979">Signal(Fence[N])</text><polygon fill="#666666" points="155.5581,1335.3267,145.5581,1339.3267,155.5581,1343.3267,151.5581,1339.3267" style="stroke:#666666;stroke-width:1.0;"/><line style="stroke:#666666;stroke-width:1.0;stroke-dasharray:2.0,2.0;" x1="149.5581" x2="305.5986" y1="1339.3267" y2="1339.3267"/><text fill="#000000" font-family="Verdana" font-size="13" lengthAdjust="spacing" textLength="107.6753" x="161.5581" y="1334.5972">Frame Complete</text><rect fill="#FFFFFF" height="3" style="stroke:#FFFFFF;stroke-width:1.0;" width="1279.562" x="5" y="1368.2263"/><line style="stroke:#000000;stroke-width:0.5;" x1="5" x2="1284.562" y1="1368.2263" y2="1368.2263"/><line style="stroke:#000000;stroke-width:0.5;" x1="5" x2="1284.562" y1="1371.2263" y2="1371.2263"/><rect fill="#FFFFFF" height="23.7993" style="stroke:#000000;stroke-width:1.0;" width="149.8779" x="569.842" y="1357.3267"/><text fill="#000000" font-family="Verdana" font-size="13" font-weight="bold" lengthAdjust="spacing" textLength="131.4346" x="575.842" y="1374.3965">Parallel Execution</text><line style="stroke:#666666;stroke-width:1.0;" x1="989.9927" x2="1031.9927" y1="1425.2246" y2="1425.2246"/><line style="stroke:#666666;stroke-width:1.0;" x1="1031.9927" x2="1031.9927" y1="1425.2246" y2="1438.2246"/><line style="stroke:#666666;stroke-width:1.0;" x1="990.9927" x2="1031.9927" y1="1438.2246" y2="1438.2246"/><polygon fill="#666666" points="1000.9927,1434.2246,990.9927,1438.2246,1000.9927,1442.2246,996.9927,1438.2246" style="stroke:#666666;stroke-width:1.0;"/><text fill="#000000" font-family="Verdana" font-size="13" lengthAdjust="spacing" textLength="109.4209" x="996.9927" y="1420.4951">Process Frame N</text><path d="M1127.4209,1396.126 L1127.4209,1453.126 L1268.4209,1453.126 L1268.4209,1406.126 L1258.4209,1396.126 L1127.4209,1396.126 " fill="#FFFFFF" style="stroke:#000000;stroke-width:1.0;"/><path d="M1258.4209,1396.126 L1258.4209,1406.126 L1268.4209,1406.126 L1258.4209,1396.126 " fill="#FFFFFF" style="stroke:#000000;stroke-width:1.0;"/><text fill="#000000" font-family="Verdana" font-size="13" lengthAdjust="spacing" textLength="116.543" x="1133.4209" y="1414.1958">Vertex Processing</text><text fill="#000000" font-family="Verdana" font-size="13" lengthAdjust="spacing" textLength="85.0459" x="1133.4209" y="1429.9951">Rasterization</text><text fill="#000000" font-family="Verdana" font-size="13" lengthAdjust="spacing" textLength="120.1484" x="1133.4209" y="1445.7944">Fragment Shading</text><line style="stroke:#666666;stroke-width:1.0;" x1="144.5581" x2="186.5581" y1="1484.7229" y2="1484.7229"/><line style="stroke:#666666;stroke-width:1.0;" x1="186.5581" x2="186.5581" y1="1484.7229" y2="1497.7229"/><line style="stroke:#666666;stroke-width:1.0;" x1="145.5581" x2="186.5581" y1="1497.7229" y2="1497.7229"/><polygon fill="#666666" points="155.5581,1493.7229,145.5581,1497.7229,155.5581,1501.7229,151.5581,1497.7229" style="stroke:#666666;stroke-width:1.0;"/><text fill="#000000" font-family="Verdana" font-size="13" lengthAdjust="spacing" textLength="129.3145" x="151.5581" y="1479.9934">Prepare Frame N+1</text><path d="M10,1463.5239 L10,1504.5239 L139,1504.5239 L139,1473.5239 L129,1463.5239 L10,1463.5239 " fill="#FFFFFF" style="stroke:#000000;stroke-width:1.0;"/><path d="M129,1463.5239 L129,1473.5239 L139,1473.5239 L129,1463.5239 " fill="#FFFFFF" style="stroke:#000000;stroke-width:1.0;"/><text fill="#000000" font-family="Verdana" font-size="13" lengthAdjust="spacing" textLength="108.9702" x="16" y="1481.5938">CPU can prepare</text><text fill="#000000" font-family="Verdana" font-size="13" lengthAdjust="spacing" textLength="71.6714" x="16" y="1497.3931">next frame</text><polygon fill="#666666" points="972.9927,1527.9219,982.9927,1531.9219,972.9927,1535.9219,976.9927,1531.9219" style="stroke:#666666;stroke-width:1.0;"/><line style="stroke:#666666;stroke-width:1.0;stroke-dasharray:2.0,2.0;" x1="831.7354" x2="978.9927" y1="1531.9219" y2="1531.9219"/><text fill="#000000" font-family="Verdana" font-size="13" lengthAdjust="spacing" textLength="61.8896" x="838.7354" y="1527.1924">Complete</text><line style="stroke:#666666;stroke-width:1.0;" x1="984.9927" x2="1026.9927" y1="1561.7212" y2="1561.7212"/><line style="stroke:#666666;stroke-width:1.0;" x1="1026.9927" x2="1026.9927" y1="1561.7212" y2="1574.7212"/><line style="stroke:#666666;stroke-width:1.0;" x1="985.9927" x2="1026.9927" y1="1574.7212" y2="1574.7212"/><polygon fill="#666666" points="995.9927,1570.7212,985.9927,1574.7212,995.9927,1578.7212,991.9927,1574.7212" style="stroke:#666666;stroke-width:1.0;"/><text fill="#000000" font-family="Verdana" font-size="13" lengthAdjust="spacing" textLength="121.7734" x="991.9927" y="1556.9917">Display Frame N-1</text><rect fill="#FFFFFF" height="3" style="stroke:#FFFFFF;stroke-width:1.0;" width="1279.562" x="5" y="1603.6208"/><line style="stroke:#000000;stroke-width:0.5;" x1="5" x2="1284.562" y1="1603.6208" y2="1603.6208"/><line style="stroke:#000000;stroke-width:0.5;" x1="5" x2="1284.562" y1="1606.6208" y2="1606.6208"/><rect fill="#FFFFFF" height="23.7993" style="stroke:#000000;stroke-width:1.0;" width="102.2261" x="593.668" y="1592.7212"/><text fill="#000000" font-family="Verdana" font-size="13" font-weight="bold" lengthAdjust="spacing" textLength="83.7827" x="599.668" y="1609.791">Error Cases</text><path d="M79,1633.5205 L339.3442,1633.5205 L339.3442,1641.3198 L329.3442,1651.3198 L79,1651.3198 L79,1633.5205 " fill="#FFFFFF" style="stroke:#000000;stroke-width:1.0;"/><rect fill="none" height="136.9966" style="stroke:#000000;stroke-width:1.0;" width="520.7017" x="79" y="1633.5205"/><text fill="#000000" font-family="Verdana" font-size="13" font-weight="bold" lengthAdjust="spacing" textLength="215.3442" x="94" y="1647.5903">Error: Unfinished RenderPass</text><polygon fill="#666666" points="294.5986,1669.1191,304.5986,1673.1191,294.5986,1677.1191,298.5986,1673.1191" style="stroke:#666666;stroke-width:1.0;"/><line style="stroke:#666666;stroke-width:1.0;" x1="144.5581" x2="300.5986" y1="1673.1191" y2="1673.1191"/><text fill="#000000" font-family="Verdana" font-size="13" lengthAdjust="spacing" textLength="105.0854" x="151.5581" y="1668.3896">EndFrame(cmd)</text><polygon fill="#666666" points="493.5146,1698.9185,503.5146,1702.9185,493.5146,1706.9185,497.5146,1702.9185" style="stroke:#666666;stroke-width:1.0;"/><line style="stroke:#666666;stroke-width:1.0;" x1="306.5986" x2="499.5146" y1="1702.9185" y2="1702.9185"/><text fill="#000000" font-family="Verdana" font-size="13" lengthAdjust="spacing" textLength="49.6387" x="313.5986" y="1698.189">Finish()</text><polygon fill="#666666" points="317.5986,1728.7178,307.5986,1732.7178,317.5986,1736.7178,313.5986,1732.7178" style="stroke:#666666;stroke-width:1.0;"/><line style="stroke:#666666;stroke-width:1.0;stroke-dasharray:2.0,2.0;" x1="311.5986" x2="504.5146" y1="1732.7178" y2="1732.7178"/><text fill="#000000" font-family="Verdana" font-size="13" lengthAdjust="spacing" textLength="174.916" x="323.5986" y="1727.9883">ERROR: RenderPass active</text><polygon fill="#666666" points="155.5581,1758.5171,145.5581,1762.5171,155.5581,1766.5171,151.5581,1762.5171" style="stroke:#666666;stroke-width:1.0;"/><line style="stroke:#666666;stroke-width:1.0;stroke-dasharray:2.0,2.0;" x1="149.5581" x2="305.5986" y1="1762.5171" y2="1762.5171"/><text fill="#000000" font-family="Verdana" font-size="13" lengthAdjust="spacing" textLength="63.3369" x="161.5581" y="1757.7876">Exception</text><path d="M79,1784.5171 L343.4067,1784.5171 L343.4067,1792.3164 L333.4067,1802.3164 L79,1802.3164 L79,1784.5171 " fill="#FFFFFF" style="stroke:#000000;stroke-width:1.0;"/><rect fill="none" height="136.9966" style="stroke:#000000;stroke-width:1.0;" width="520.7017" x="79" y="1784.5171"/><text fill="#000000" font-family="Verdana" font-size="13" font-weight="bold" lengthAdjust="spacing" textLength="219.4067" x="94" y="1798.5869">Error: Missing EndRenderPass</text><polygon fill="#666666" points="493.5146,1820.1157,503.5146,1824.1157,493.5146,1828.1157,497.5146,1824.1157" style="stroke:#666666;stroke-width:1.0;"/><line style="stroke:#666666;stroke-width:1.0;" x1="144.5581" x2="499.5146" y1="1824.1157" y2="1824.1157"/><text fill="#000000" font-family="Verdana" font-size="13" lengthAdjust="spacing" textLength="123.9507" x="151.5581" y="1819.3862">BeginRenderPass()</text><polygon fill="#666666" points="493.5146,1849.915,503.5146,1853.915,493.5146,1857.915,497.5146,1853.915" style="stroke:#666666;stroke-width:1.0;"/><line style="stroke:#666666;stroke-width:1.0;" x1="144.5581" x2="499.5146" y1="1853.915" y2="1853.915"/><text fill="#000000" font-family="Verdana" font-size="13" lengthAdjust="spacing" textLength="45.8174" x="151.5581" y="1849.1855">Draw()</text><polygon fill="#666666" points="493.5146,1879.7144,503.5146,1883.7144,493.5146,1887.7144,497.5146,1883.7144" style="stroke:#666666;stroke-width:1.0;"/><line style="stroke:#666666;stroke-width:1.0;" x1="144.5581" x2="499.5146" y1="1883.7144" y2="1883.7144"/><text fill="#000000" font-family="Verdana" font-size="13" lengthAdjust="spacing" textLength="123.9507" x="151.5581" y="1878.9849">BeginRenderPass()</text><polygon fill="#666666" points="155.5581,1909.5137,145.5581,1913.5137,155.5581,1917.5137,151.5581,1913.5137" style="stroke:#666666;stroke-width:1.0;"/><line style="stroke:#666666;stroke-width:1.0;stroke-dasharray:2.0,2.0;" x1="149.5581" x2="504.5146" y1="1913.5137" y2="1913.5137"/><text fill="#000000" font-family="Verdana" font-size="13" lengthAdjust="spacing" textLength="215.6426" x="161.5581" y="1908.7842">ERROR: Previous pass not ended</text><!--SRC=[XLPTRzem57tth_2w5yf6fUsXcf2OL1Yj9gsCmJuUIXzSvmBM72UpdPRkr-_QJeWTO0Kf9BddNf_xuMDUsItaG4l9X2Bcjr0bqood3up_tkYYKjcaa8Mchw-dxXiX3FofG76uqhfuga6NbvSH0gzMS54oPSS7uJwuBo5MM0dq6k50luWry6UEpmCwAVASgMmmPWOokW2LWHPgGqWKb9vTbQKKd5bHg3FA3CNd510SGNjhyv12wfKMm0kTrSX9dgMWvHCh9riiaJUxfzJ-hO8AlCtVfSQR-Gzlmbz2HgCwsnbTMaJHqOWWRJhukEStf6FO2ELXlNF2k1MFp4BBdpHtpikH6T8h_gSI6cQmivzpjadyF5rtQU6_cB1qZOrWZqn8zY2X1gGqi6iFrNeD-cvsJp988oOiMYSNkdVj9kDkDdX_VqvKWHvQRBPsIBzhKM9_Gr3ivt2bzbJMeIo3zwSYtu3jD0kpZA7OjhfsSVgkcH4CSLZl8Us4wiVvjPN6TjL06f18EcfPks9mcJDZUggIihGwpRn-IKT-QuK247JVHrc2fMqGQYmI8SawmRhaeA1dtBMJP2VQN9GWXNAZqB6CXSfkS3UMfcFxfDaJvKnASt5n4HV4rp3cCdMLssUSfjhlJtTkNs9V4K8r-D7C-lrahOai34GP4yAafRULj69GkWgqcvxYvty5DrkM5K-th3m_WDOrym37isllvk7iBwwtR_3nrMwP7y2NbiBxI0wMrKCkZ44bEwe8w1pqWEVPYvBWbxiMIfXjfy4_cHIPSmpZ5NTjYZgkgLX7BLafOuMKr2y78L32gjuQup3DtNc9ANbP78OiRI_nUqjhjRYF4Wiowg_E7QKJ6Uw0Lovuy3OjsYlheIZEDHXGjXbF2MlCSycta5KeGcMm-jFZbEGinKOnsMi97X6Iq3yaXSg6DJqb8tCy4wK4MQTHDngPx_ERwu833dvzFYJT-GdQmgw1uAPOgGKp5lV7Nv_0oXqNcnppeMxO_L5P3v4dYQN0CwavQMTltiKbcI09pfIhY0EjbC9Z9EWnQNhGa3oMfoj_dCWdOV3_n7EpsE1T30wTTHK94pV14zwuKhZ_1sLuEQG_rDhFx_xmzn8HRQbJMyD1Jky5PpqSu-bYyNKnZDMtdlWqM5FBwOv3wQV6R-64zwtmtKat-uk2SYWMJecFl3xks6GKs8LaiE6FegWCzLgApNPQ39cd_0y0]--></g></svg>