<svg xmlns="http://www.w3.org/2000/svg" xmlns:xlink="http://www.w3.org/1999/xlink" contentStyleType="text/css" height="1868px" preserveAspectRatio="none" style="width:1156px;height:1868px;background:#FEFEFE;" version="1.1" viewBox="0 0 1156 1868" width="1156px" zoomAndPan="magnify"><title>Resource Binding Model - Hierarchical Structure</title><defs/><g><rect fill="#FEFEFE" height="1868" style="stroke:none;stroke-width:1.0;" width="1156" x="0" y="0"/><text fill="#000000" font-family="Verdana" font-size="22" font-weight="bold" lengthAdjust="spacing" textLength="594.5264" x="276.4868" y="37.1182">Resource Binding Model - Hierarchical Structure</text><!--cluster Binding Frequency Hierarchy--><g id="cluster_Binding Frequency Hierarchy"><path d="M63,309.7373 L291.4727,309.7373 A3.75,3.75 0 0 1 293.9727,312.2373 L300.9727,332.752 L326,332.752 A2.5,2.5 0 0 1 328.5,335.252 L328.5,1754.2373 A2.5,2.5 0 0 1 326,1756.7373 L63,1756.7373 A2.5,2.5 0 0 1 60.5,1754.2373 L60.5,312.2373 A2.5,2.5 0 0 1 63,309.7373 " fill="#E8F4F8" style="stroke:#000000;stroke-width:1.0;"/><line style="stroke:#000000;stroke-width:1.0;" x1="60.5" x2="300.9727" y1="332.752" y2="332.752"/><text fill="#000000" font-family="Verdana" font-size="14" font-weight="bold" lengthAdjust="spacing" textLength="227.4727" x="64.5" y="325.8125">Binding Frequency Hierarchy</text></g><!--cluster Optional Sets--><g id="cluster_Optional Sets"><path d="M677,58.7373 L783.2871,58.7373 A3.75,3.75 0 0 1 785.7871,61.2373 L792.7871,81.752 L1147,81.752 A2.5,2.5 0 0 1 1149.5,84.252 L1149.5,258.2373 A2.5,2.5 0 0 1 1147,260.7373 L677,260.7373 A2.5,2.5 0 0 1 674.5,258.2373 L674.5,61.2373 A2.5,2.5 0 0 1 677,58.7373 " fill="#F8F8E8" style="stroke:#000000;stroke-width:1.0;"/><line style="stroke:#000000;stroke-width:1.0;" x1="674.5" x2="792.7871" y1="81.752" y2="81.752"/><text fill="#000000" font-family="Verdana" font-size="14" font-weight="bold" lengthAdjust="spacing" textLength="105.2871" x="678.5" y="74.8125">Optional Sets</text></g><!--cluster GPU Pipeline Stages--><g id="cluster_GPU Pipeline Stages"><path d="M232,77.7373 L391.5938,77.7373 A3.75,3.75 0 0 1 394.0938,80.2373 L401.0938,100.752 L648,100.752 A2.5,2.5 0 0 1 650.5,103.252 L650.5,239.2373 A2.5,2.5 0 0 1 648,241.7373 L232,241.7373 A2.5,2.5 0 0 1 229.5,239.2373 L229.5,80.2373 A2.5,2.5 0 0 1 232,77.7373 " fill="#F0F0F0" style="stroke:#000000;stroke-width:1.0;"/><line style="stroke:#000000;stroke-width:1.0;" x1="229.5" x2="401.0938" y1="100.752" y2="100.752"/><text fill="#000000" font-family="Verdana" font-size="14" font-weight="bold" lengthAdjust="spacing" textLength="158.5938" x="233.5" y="93.8125">GPU Pipeline Stages</text></g><!--class Set 0: Per-Frame--><g id="elem_Set 0: Per-Frame"><rect codeLine="12" fill="#FFE8E8" height="315.7271" id="Set 0: Per-Frame" rx="2.5" ry="2.5" style="stroke:#888888;stroke-width:1.0;" width="178.8916" x="77" y="345.7373"/><ellipse cx="102.9885" cy="359.7373" fill="#FFFFFF" rx="9" ry="9" style="stroke:#000000;stroke-width:1.0;"/><path d="M105.7541,361.2686 L108.1447,362.0186 Q107.5979,364.0029 106.3166,364.9717 Q105.051,365.9404 103.0822,365.9404 Q100.6604,365.9404 99.0979,364.2842 Q97.551,362.6279 97.551,359.7529 Q97.551,356.7217 99.1135,355.0498 Q100.676,353.3623 103.2385,353.3623 Q105.4729,353.3623 106.8635,354.6748 Q107.6916,355.4561 108.1135,356.9248 L105.676,357.5029 Q105.4572,356.5498 104.7697,356.0029 Q104.0979,355.4561 103.1135,355.4561 Q101.7541,355.4561 100.9104,356.4404 Q100.0822,357.4092 100.0822,359.5811 Q100.0822,361.8779 100.9104,362.8623 Q101.7385,363.8467 103.0666,363.8467 Q104.051,363.8467 104.7541,363.2217 Q105.4572,362.5967 105.7541,361.2686 Z " fill="#000000"/><text fill="#000000" font-family="Verdana" font-size="14" lengthAdjust="spacing" textLength="122.0283" x="117.8748" y="365.3052">Set 0: Per-Frame</text><line style="stroke:#888888;stroke-width:1.0;" x1="78" x2="254.8916" y1="373.7373" y2="373.7373"/><line style="stroke:#888888;stroke-width:1.0;" x1="78" x2="81" y1="390.2446" y2="390.2446"/><line style="stroke:#888888;stroke-width:1.0;" x1="78" x2="81" y1="392.2446" y2="392.2446"/><text fill="#000000" font-family="Verdana" font-size="14" lengthAdjust="spacing" textLength="170.8916" x="81" y="395.3125">Update: Once per frame</text><line style="stroke:#888888;stroke-width:1.0;" x1="251.8916" x2="254.8916" y1="390.2446" y2="390.2446"/><line style="stroke:#888888;stroke-width:1.0;" x1="251.8916" x2="254.8916" y1="392.2446" y2="392.2446"/><ellipse cx="88" cy="434.2813" fill="none" rx="3" ry="3" style="stroke:#000000;stroke-width:1.0;"/><text fill="#000000" font-family="Verdana" font-size="14" lengthAdjust="spacing" textLength="81.9561" x="95" y="438.3491">View Matrix</text><ellipse cx="88" cy="451.2959" fill="none" rx="3" ry="3" style="stroke:#000000;stroke-width:1.0;"/><text fill="#000000" font-family="Verdana" font-size="14" lengthAdjust="spacing" textLength="118.8291" x="95" y="455.3638">Projection Matrix</text><ellipse cx="88" cy="468.3105" fill="none" rx="3" ry="3" style="stroke:#000000;stroke-width:1.0;"/><text fill="#000000" font-family="Verdana" font-size="14" lengthAdjust="spacing" textLength="114.2354" x="95" y="472.3784">Camera Position</text><ellipse cx="88" cy="485.3252" fill="none" rx="3" ry="3" style="stroke:#000000;stroke-width:1.0;"/><text fill="#000000" font-family="Verdana" font-size="14" lengthAdjust="spacing" textLength="121.9463" x="95" y="489.3931">Time / DeltaTime</text><ellipse cx="88" cy="502.3398" fill="none" rx="3" ry="3" style="stroke:#000000;stroke-width:1.0;"/><text fill="#000000" font-family="Verdana" font-size="14" lengthAdjust="spacing" textLength="90.8154" x="95" y="506.4077">Frame Count</text><line style="stroke:#888888;stroke-width:1.0;stroke-dasharray:1.0,2.0;" x1="78" x2="134.8193" y1="415.7666" y2="415.7666"/><text fill="#000000" font-family="Verdana" font-size="14" lengthAdjust="spacing" textLength="63.2529" x="134.8193" y="420.8345">Uniforms</text><line style="stroke:#888888;stroke-width:1.0;stroke-dasharray:1.0,2.0;" x1="198.0723" x2="254.8916" y1="415.7666" y2="415.7666"/><ellipse cx="88" cy="540.3691" fill="none" rx="3" ry="3" style="stroke:#000000;stroke-width:1.0;"/><text fill="#000000" font-family="Verdana" font-size="14" lengthAdjust="spacing" textLength="134.251" x="95" y="544.437">Global Lights Array</text><ellipse cx="88" cy="557.3838" fill="none" rx="3" ry="3" style="stroke:#000000;stroke-width:1.0;"/><text fill="#000000" font-family="Verdana" font-size="14" lengthAdjust="spacing" textLength="132.501" x="95" y="561.4517">Shadow Map Array</text><ellipse cx="88" cy="574.3984" fill="none" rx="3" ry="3" style="stroke:#000000;stroke-width:1.0;"/><text fill="#000000" font-family="Verdana" font-size="14" lengthAdjust="spacing" textLength="94.6504" x="95" y="578.4663">IBL Cubemap</text><ellipse cx="88" cy="591.4131" fill="none" rx="3" ry="3" style="stroke:#000000;stroke-width:1.0;"/><text fill="#000000" font-family="Verdana" font-size="14" lengthAdjust="spacing" textLength="69.7539" x="95" y="595.481">BRDF LUT</text><ellipse cx="88" cy="608.4277" fill="none" rx="3" ry="3" style="stroke:#000000;stroke-width:1.0;"/><text fill="#000000" font-family="Verdana" font-size="14" lengthAdjust="spacing" textLength="141.9619" x="95" y="612.4956">SSAO Noise Texture</text><line style="stroke:#888888;stroke-width:1.0;stroke-dasharray:1.0,2.0;" x1="78" x2="130.6323" y1="521.8545" y2="521.8545"/><text fill="#000000" font-family="Verdana" font-size="14" lengthAdjust="spacing" textLength="71.627" x="130.6323" y="526.9224">Resources</text><line style="stroke:#888888;stroke-width:1.0;stroke-dasharray:1.0,2.0;" x1="202.2593" x2="254.8916" y1="521.8545" y2="521.8545"/><line style="stroke:#888888;stroke-width:1.0;" x1="78" x2="254.8916" y1="619.4351" y2="619.4351"/><polygon fill="none" points="88,629.4424,84,635.4424,92,635.4424" style="stroke:#000000;stroke-width:1.0;"/><text fill="#000000" font-family="Verdana" font-size="14" lengthAdjust="spacing" textLength="136.5342" x="95" y="637.5103">1 update per frame</text><polygon fill="none" points="88,646.457,84,652.457,92,652.457" style="stroke:#000000;stroke-width:1.0;"/><text fill="#000000" font-family="Verdana" font-size="14" lengthAdjust="spacing" textLength="145.0928" x="95" y="654.5249">Shared by all passes</text></g><!--class Set 1: Per-Pass--><g id="elem_Set 1: Per-Pass"><rect codeLine="31" fill="#FFE8FF" height="281.6978" id="Set 1: Per-Pass" rx="2.5" ry="2.5" style="stroke:#888888;stroke-width:1.0;" width="201.8301" x="99.5" y="738.7373"/><ellipse cx="142.1245" cy="752.7373" fill="#FFFFFF" rx="9" ry="9" style="stroke:#000000;stroke-width:1.0;"/><path d="M144.8901,754.2686 L147.2808,755.0186 Q146.7339,757.0029 145.4526,757.9717 Q144.187,758.9404 142.2183,758.9404 Q139.7964,758.9404 138.2339,757.2842 Q136.687,755.6279 136.687,752.7529 Q136.687,749.7217 138.2495,748.0498 Q139.812,746.3623 142.3745,746.3623 Q144.6089,746.3623 145.9995,747.6748 Q146.8276,748.4561 147.2495,749.9248 L144.812,750.5029 Q144.5933,749.5498 143.9058,749.0029 Q143.2339,748.4561 142.2495,748.4561 Q140.8901,748.4561 140.0464,749.4404 Q139.2183,750.4092 139.2183,752.5811 Q139.2183,754.8779 140.0464,755.8623 Q140.8745,756.8467 142.2026,756.8467 Q143.187,756.8467 143.8901,756.2217 Q144.5933,755.5967 144.8901,754.2686 Z " fill="#000000"/><text fill="#000000" font-family="Verdana" font-size="14" lengthAdjust="spacing" textLength="109.0811" x="159.6245" y="758.3052">Set 1: Per-Pass</text><line style="stroke:#888888;stroke-width:1.0;" x1="100.5" x2="300.3301" y1="766.7373" y2="766.7373"/><line style="stroke:#888888;stroke-width:1.0;" x1="100.5" x2="119.7407" y1="783.2446" y2="783.2446"/><line style="stroke:#888888;stroke-width:1.0;" x1="100.5" x2="119.7407" y1="785.2446" y2="785.2446"/><text fill="#000000" font-family="Verdana" font-size="14" lengthAdjust="spacing" textLength="161.3486" x="119.7407" y="788.3125">Update: Once per pass</text><line style="stroke:#888888;stroke-width:1.0;" x1="281.0894" x2="300.3301" y1="783.2446" y2="783.2446"/><line style="stroke:#888888;stroke-width:1.0;" x1="281.0894" x2="300.3301" y1="785.2446" y2="785.2446"/><ellipse cx="110.5" cy="827.2813" fill="none" rx="3" ry="3" style="stroke:#000000;stroke-width:1.0;"/><text fill="#000000" font-family="Verdana" font-size="14" lengthAdjust="spacing" textLength="70.335" x="117.5" y="831.3491">Pass Type</text><ellipse cx="110.5" cy="844.2959" fill="none" rx="3" ry="3" style="stroke:#000000;stroke-width:1.0;"/><text fill="#000000" font-family="Verdana" font-size="14" lengthAdjust="spacing" textLength="95.0127" x="117.5" y="848.3638">Viewport Info</text><ellipse cx="110.5" cy="861.3105" fill="none" rx="3" ry="3" style="stroke:#000000;stroke-width:1.0;"/><text fill="#000000" font-family="Verdana" font-size="14" lengthAdjust="spacing" textLength="134.5107" x="117.5" y="865.3784">Render Target Size</text><ellipse cx="110.5" cy="878.3252" fill="#FFFFFF" rx="3" ry="3" style="stroke:#000000;stroke-width:1.0;"/><text fill="#000000" font-family="Verdana" font-size="14" lengthAdjust="spacing" textLength="177.8301" x="117.5" y="882.3931">Light View-Proj (shadow)</text><ellipse cx="110.5" cy="895.3398" fill="none" rx="3" ry="3" style="stroke:#000000;stroke-width:1.0;"/><text fill="#000000" font-family="Verdana" font-size="14" lengthAdjust="spacing" textLength="103.2637" x="117.5" y="899.4077">Cascade Index</text><line style="stroke:#888888;stroke-width:1.0;stroke-dasharray:1.0,2.0;" x1="100.5" x2="168.7886" y1="808.7666" y2="808.7666"/><text fill="#000000" font-family="Verdana" font-size="14" lengthAdjust="spacing" textLength="63.2529" x="168.7886" y="813.8345">Uniforms</text><line style="stroke:#888888;stroke-width:1.0;stroke-dasharray:1.0,2.0;" x1="232.0415" x2="300.3301" y1="808.7666" y2="808.7666"/><ellipse cx="110.5" cy="933.3691" fill="none" rx="3" ry="3" style="stroke:#000000;stroke-width:1.0;"/><text fill="#000000" font-family="Verdana" font-size="14" lengthAdjust="spacing" textLength="151.6963" x="117.5" y="937.437">Previous Pass Results</text><ellipse cx="110.5" cy="950.3838" fill="none" rx="3" ry="3" style="stroke:#000000;stroke-width:1.0;"/><text fill="#000000" font-family="Verdana" font-size="14" lengthAdjust="spacing" textLength="174.7607" x="117.5" y="954.4517">Post-process Parameters</text><ellipse cx="110.5" cy="967.3984" fill="none" rx="3" ry="3" style="stroke:#000000;stroke-width:1.0;"/><text fill="#000000" font-family="Verdana" font-size="14" lengthAdjust="spacing" textLength="155.5039" x="117.5" y="971.4663">Pass-specific Textures</text><line style="stroke:#888888;stroke-width:1.0;stroke-dasharray:1.0,2.0;" x1="100.5" x2="164.6016" y1="914.8545" y2="914.8545"/><text fill="#000000" font-family="Verdana" font-size="14" lengthAdjust="spacing" textLength="71.627" x="164.6016" y="919.9224">Resources</text><line style="stroke:#888888;stroke-width:1.0;stroke-dasharray:1.0,2.0;" x1="236.2285" x2="300.3301" y1="914.8545" y2="914.8545"/><line style="stroke:#888888;stroke-width:1.0;" x1="100.5" x2="300.3301" y1="978.4058" y2="978.4058"/><polygon fill="none" points="110.5,988.4131,106.5,994.4131,114.5,994.4131" style="stroke:#000000;stroke-width:1.0;"/><text fill="#000000" font-family="Verdana" font-size="14" lengthAdjust="spacing" textLength="159.0859" x="117.5" y="996.481">3-5 updates per frame</text><polygon fill="none" points="110.5,1005.4277,106.5,1011.4277,114.5,1011.4277" style="stroke:#000000;stroke-width:1.0;"/><text fill="#000000" font-family="Verdana" font-size="14" lengthAdjust="spacing" textLength="160.2822" x="117.5" y="1013.4956">Different for each pass</text></g><!--class Set 2: Per-Material--><g id="elem_Set 2: Per-Material"><rect codeLine="48" fill="#E8E8FF" height="315.7271" id="Set 2: Per-Material" rx="2.5" ry="2.5" style="stroke:#888888;stroke-width:1.0;" width="211.7012" x="94.5" y="1081.7373"/><ellipse cx="129.9679" cy="1095.7373" fill="#FFFFFF" rx="9" ry="9" style="stroke:#000000;stroke-width:1.0;"/><path d="M132.7335,1097.2686 L135.1242,1098.0186 Q134.5773,1100.0029 133.296,1100.9717 Q132.0304,1101.9404 130.0617,1101.9404 Q127.6398,1101.9404 126.0773,1100.2842 Q124.5304,1098.6279 124.5304,1095.7529 Q124.5304,1092.7217 126.0929,1091.0498 Q127.6554,1089.3623 130.2179,1089.3623 Q132.4523,1089.3623 133.8429,1090.6748 Q134.671,1091.4561 135.0929,1092.9248 L132.6554,1093.5029 Q132.4367,1092.5498 131.7492,1092.0029 Q131.0773,1091.4561 130.0929,1091.4561 Q128.7335,1091.4561 127.8898,1092.4404 Q127.0617,1093.4092 127.0617,1095.5811 Q127.0617,1097.8779 127.8898,1098.8623 Q128.7179,1099.8467 130.046,1099.8467 Q131.0304,1099.8467 131.7335,1099.2217 Q132.4367,1098.5967 132.7335,1097.2686 Z " fill="#000000"/><text fill="#000000" font-family="Verdana" font-size="14" lengthAdjust="spacing" textLength="133.7725" x="146.9608" y="1101.3052">Set 2: Per-Material</text><line style="stroke:#888888;stroke-width:1.0;" x1="95.5" x2="305.2012" y1="1109.7373" y2="1109.7373"/><line style="stroke:#888888;stroke-width:1.0;" x1="95.5" x2="100.6553" y1="1126.2446" y2="1126.2446"/><line style="stroke:#888888;stroke-width:1.0;" x1="95.5" x2="100.6553" y1="1128.2446" y2="1128.2446"/><text fill="#000000" font-family="Verdana" font-size="14" lengthAdjust="spacing" textLength="199.3906" x="100.6553" y="1131.3125">Update: On material change</text><line style="stroke:#888888;stroke-width:1.0;" x1="300.0459" x2="305.2012" y1="1126.2446" y2="1126.2446"/><line style="stroke:#888888;stroke-width:1.0;" x1="300.0459" x2="305.2012" y1="1128.2446" y2="1128.2446"/><ellipse cx="105.5" cy="1170.2813" fill="none" rx="3" ry="3" style="stroke:#000000;stroke-width:1.0;"/><text fill="#000000" font-family="Verdana" font-size="14" lengthAdjust="spacing" textLength="123.8057" x="112.5" y="1174.3491">Base Color Factor</text><ellipse cx="105.5" cy="1187.2959" fill="none" rx="3" ry="3" style="stroke:#000000;stroke-width:1.0;"/><text fill="#000000" font-family="Verdana" font-size="14" lengthAdjust="spacing" textLength="101.541" x="112.5" y="1191.3638">Metallic Factor</text><ellipse cx="105.5" cy="1204.3105" fill="none" rx="3" ry="3" style="stroke:#000000;stroke-width:1.0;"/><text fill="#000000" font-family="Verdana" font-size="14" lengthAdjust="spacing" textLength="125.1182" x="112.5" y="1208.3784">Roughness Factor</text><ellipse cx="105.5" cy="1221.3252" fill="none" rx="3" ry="3" style="stroke:#000000;stroke-width:1.0;"/><text fill="#000000" font-family="Verdana" font-size="14" lengthAdjust="spacing" textLength="93.1875" x="112.5" y="1225.3931">Normal Scale</text><ellipse cx="105.5" cy="1238.3398" fill="none" rx="3" ry="3" style="stroke:#000000;stroke-width:1.0;"/><text fill="#000000" font-family="Verdana" font-size="14" lengthAdjust="spacing" textLength="110.0244" x="112.5" y="1242.4077">Emissive Factor</text><line style="stroke:#888888;stroke-width:1.0;stroke-dasharray:1.0,2.0;" x1="95.5" x2="168.7241" y1="1151.7666" y2="1151.7666"/><text fill="#000000" font-family="Verdana" font-size="14" lengthAdjust="spacing" textLength="63.2529" x="168.7241" y="1156.8345">Uniforms</text><line style="stroke:#888888;stroke-width:1.0;stroke-dasharray:1.0,2.0;" x1="231.9771" x2="305.2012" y1="1151.7666" y2="1151.7666"/><ellipse cx="105.5" cy="1276.3691" fill="none" rx="3" ry="3" style="stroke:#000000;stroke-width:1.0;"/><text fill="#000000" font-family="Verdana" font-size="14" lengthAdjust="spacing" textLength="108.999" x="112.5" y="1280.437">Base Color Map</text><ellipse cx="105.5" cy="1293.3838" fill="none" rx="3" ry="3" style="stroke:#000000;stroke-width:1.0;"/><text fill="#000000" font-family="Verdana" font-size="14" lengthAdjust="spacing" textLength="84.6631" x="112.5" y="1297.4517">Normal Map</text><ellipse cx="105.5" cy="1310.3984" fill="none" rx="3" ry="3" style="stroke:#000000;stroke-width:1.0;"/><text fill="#000000" font-family="Verdana" font-size="14" lengthAdjust="spacing" textLength="169.5518" x="112.5" y="1314.4663">Metallic-Roughness Map</text><ellipse cx="105.5" cy="1327.4131" fill="none" rx="3" ry="3" style="stroke:#000000;stroke-width:1.0;"/><text fill="#000000" font-family="Verdana" font-size="14" lengthAdjust="spacing" textLength="100.6523" x="112.5" y="1331.481">Occlusion Map</text><ellipse cx="105.5" cy="1344.4277" fill="none" rx="3" ry="3" style="stroke:#000000;stroke-width:1.0;"/><text fill="#000000" font-family="Verdana" font-size="14" lengthAdjust="spacing" textLength="95.2178" x="112.5" y="1348.4956">Emissive Map</text><line style="stroke:#888888;stroke-width:1.0;stroke-dasharray:1.0,2.0;" x1="95.5" x2="169.7324" y1="1257.8545" y2="1257.8545"/><text fill="#000000" font-family="Verdana" font-size="14" lengthAdjust="spacing" textLength="61.2363" x="169.7324" y="1262.9224">Textures</text><line style="stroke:#888888;stroke-width:1.0;stroke-dasharray:1.0,2.0;" x1="230.9688" x2="305.2012" y1="1257.8545" y2="1257.8545"/><line style="stroke:#888888;stroke-width:1.0;" x1="95.5" x2="305.2012" y1="1355.4351" y2="1355.4351"/><polygon fill="none" points="105.5,1365.4424,101.5,1371.4424,109.5,1371.4424" style="stroke:#000000;stroke-width:1.0;"/><text fill="#000000" font-family="Verdana" font-size="14" lengthAdjust="spacing" textLength="187.7012" x="112.5" y="1373.5103">10-100 changes per frame</text><polygon fill="none" points="105.5,1382.457,101.5,1388.457,109.5,1388.457" style="stroke:#000000;stroke-width:1.0;"/><text fill="#000000" font-family="Verdana" font-size="14" lengthAdjust="spacing" textLength="142.4336" x="112.5" y="1390.5249">Shared by instances</text></g><!--class Set 3: Per-Object--><g id="elem_Set 3: Per-Object"><rect codeLine="67" fill="#E8FFE8" height="281.6978" id="Set 3: Per-Object" rx="2.5" ry="2.5" style="stroke:#888888;stroke-width:1.0;" width="236.4883" x="76.5" y="1458.7373"/><ellipse cx="129.3169" cy="1472.7373" fill="#FFFFFF" rx="9" ry="9" style="stroke:#000000;stroke-width:1.0;"/><path d="M132.0825,1474.2686 L134.4731,1475.0186 Q133.9263,1477.0029 132.645,1477.9717 Q131.3794,1478.9404 129.4106,1478.9404 Q126.9888,1478.9404 125.4263,1477.2842 Q123.8794,1475.6279 123.8794,1472.7529 Q123.8794,1469.7217 125.4419,1468.0498 Q127.0044,1466.3623 129.5669,1466.3623 Q131.8013,1466.3623 133.1919,1467.6748 Q134.02,1468.4561 134.4419,1469.9248 L132.0044,1470.5029 Q131.7856,1469.5498 131.0981,1469.0029 Q130.4263,1468.4561 129.4419,1468.4561 Q128.0825,1468.4561 127.2388,1469.4404 Q126.4106,1470.4092 126.4106,1472.5811 Q126.4106,1474.8779 127.2388,1475.8623 Q128.0669,1476.8467 129.395,1476.8467 Q130.3794,1476.8467 131.0825,1476.2217 Q131.7856,1475.5967 132.0825,1474.2686 Z " fill="#000000"/><text fill="#000000" font-family="Verdana" font-size="14" lengthAdjust="spacing" textLength="123.3545" x="146.8169" y="1478.3052">Set 3: Per-Object</text><line style="stroke:#888888;stroke-width:1.0;" x1="77.5" x2="311.9883" y1="1486.7373" y2="1486.7373"/><line style="stroke:#888888;stroke-width:1.0;" x1="77.5" x2="110.3613" y1="1503.2446" y2="1503.2446"/><line style="stroke:#888888;stroke-width:1.0;" x1="77.5" x2="110.3613" y1="1505.2446" y2="1505.2446"/><text fill="#000000" font-family="Verdana" font-size="14" lengthAdjust="spacing" textLength="168.7656" x="110.3613" y="1508.3125">Update: Every draw call</text><line style="stroke:#888888;stroke-width:1.0;" x1="279.127" x2="311.9883" y1="1503.2446" y2="1503.2446"/><line style="stroke:#888888;stroke-width:1.0;" x1="279.127" x2="311.9883" y1="1505.2446" y2="1505.2446"/><ellipse cx="87.5" cy="1547.2813" fill="none" rx="3" ry="3" style="stroke:#000000;stroke-width:1.0;"/><text fill="#000000" font-family="Verdana" font-size="14" lengthAdjust="spacing" textLength="89.9473" x="94.5" y="1551.3491">Model Matrix</text><ellipse cx="87.5" cy="1564.2959" fill="none" rx="3" ry="3" style="stroke:#000000;stroke-width:1.0;"/><text fill="#000000" font-family="Verdana" font-size="14" lengthAdjust="spacing" textLength="99.5586" x="94.5" y="1568.3638">Normal Matrix</text><ellipse cx="87.5" cy="1581.3105" fill="none" rx="3" ry="3" style="stroke:#000000;stroke-width:1.0;"/><text fill="#000000" font-family="Verdana" font-size="14" lengthAdjust="spacing" textLength="154.4033" x="94.5" y="1585.3784">Previous Model Matrix</text><ellipse cx="87.5" cy="1598.3252" fill="none" rx="3" ry="3" style="stroke:#000000;stroke-width:1.0;"/><text fill="#000000" font-family="Verdana" font-size="14" lengthAdjust="spacing" textLength="67.3135" x="94.5" y="1602.3931">Object ID</text><ellipse cx="87.5" cy="1615.3398" fill="none" rx="3" ry="3" style="stroke:#000000;stroke-width:1.0;"/><text fill="#000000" font-family="Verdana" font-size="14" lengthAdjust="spacing" textLength="101.9717" x="94.5" y="1619.4077">Instance Color</text><line style="stroke:#888888;stroke-width:1.0;stroke-dasharray:1.0,2.0;" x1="77.5" x2="163.1177" y1="1528.7666" y2="1528.7666"/><text fill="#000000" font-family="Verdana" font-size="14" lengthAdjust="spacing" textLength="63.2529" x="163.1177" y="1533.8345">Uniforms</text><line style="stroke:#888888;stroke-width:1.0;stroke-dasharray:1.0,2.0;" x1="226.3706" x2="311.9883" y1="1528.7666" y2="1528.7666"/><ellipse cx="87.5" cy="1653.3691" fill="#FFFFFF" rx="3" ry="3" style="stroke:#000000;stroke-width:1.0;"/><text fill="#000000" font-family="Verdana" font-size="14" lengthAdjust="spacing" textLength="174.8838" x="94.5" y="1657.437">Bone Matrices (skinning)</text><ellipse cx="87.5" cy="1670.3838" fill="none" rx="3" ry="3" style="stroke:#000000;stroke-width:1.0;"/><text fill="#000000" font-family="Verdana" font-size="14" lengthAdjust="spacing" textLength="105.1914" x="94.5" y="1674.4517">Morph Weights</text><ellipse cx="87.5" cy="1687.3984" fill="none" rx="3" ry="3" style="stroke:#000000;stroke-width:1.0;"/><text fill="#000000" font-family="Verdana" font-size="14" lengthAdjust="spacing" textLength="186.1016" x="94.5" y="1691.4663">Custom Per-Instance Data</text><line style="stroke:#888888;stroke-width:1.0;stroke-dasharray:1.0,2.0;" x1="77.5" x2="145.1768" y1="1634.8545" y2="1634.8545"/><text fill="#000000" font-family="Verdana" font-size="14" lengthAdjust="spacing" textLength="99.1348" x="145.1768" y="1639.9224">Dynamic Data</text><line style="stroke:#888888;stroke-width:1.0;stroke-dasharray:1.0,2.0;" x1="244.3115" x2="311.9883" y1="1634.8545" y2="1634.8545"/><line style="stroke:#888888;stroke-width:1.0;" x1="77.5" x2="311.9883" y1="1698.4058" y2="1698.4058"/><polygon fill="none" points="87.5,1708.4131,83.5,1714.4131,91.5,1714.4131" style="stroke:#000000;stroke-width:1.0;"/><text fill="#000000" font-family="Verdana" font-size="14" lengthAdjust="spacing" textLength="212.4883" x="94.5" y="1716.481">100-10000 updates per frame</text><polygon fill="none" points="87.5,1725.4277,83.5,1731.4277,91.5,1731.4277" style="stroke:#000000;stroke-width:1.0;"/><text fill="#000000" font-family="Verdana" font-size="14" lengthAdjust="spacing" textLength="124.9404" x="94.5" y="1733.4956">Unique per object</text></g><!--class Set 4: Per-View--><g id="elem_Set 4: Per-View"><rect codeLine="86" fill="#FFFFE8" height="150.0879" id="Set 4: Per-View" rx="2.5" ry="2.5" style="stroke:#888888;stroke-width:1.0;" width="210.4883" x="923.5" y="94.7373"/><ellipse cx="969.5684" cy="108.7373" fill="#FFFFFF" rx="9" ry="9" style="stroke:#000000;stroke-width:1.0;"/><path d="M972.334,110.2686 L974.7246,111.0186 Q974.1777,113.0029 972.8965,113.9717 Q971.6309,114.9404 969.6621,114.9404 Q967.2402,114.9404 965.6777,113.2842 Q964.1309,111.6279 964.1309,108.7529 Q964.1309,105.7217 965.6934,104.0498 Q967.2559,102.3623 969.8184,102.3623 Q972.0527,102.3623 973.4434,103.6748 Q974.2715,104.4561 974.6934,105.9248 L972.2559,106.5029 Q972.0371,105.5498 971.3496,105.0029 Q970.6777,104.4561 969.6934,104.4561 Q968.334,104.4561 967.4902,105.4404 Q966.6621,106.4092 966.6621,108.5811 Q966.6621,110.8779 967.4902,111.8623 Q968.3184,112.8467 969.6465,112.8467 Q970.6309,112.8467 971.334,112.2217 Q972.0371,111.5967 972.334,110.2686 Z " fill="#000000"/><text fill="#000000" font-family="Verdana" font-size="14" lengthAdjust="spacing" textLength="110.8516" x="987.0684" y="114.3052">Set 4: Per-View</text><line style="stroke:#888888;stroke-width:1.0;" x1="924.5" x2="1132.9883" y1="122.7373" y2="122.7373"/><ellipse cx="934.5" cy="157.7593" fill="none" rx="3" ry="3" style="stroke:#000000;stroke-width:1.0;"/><text fill="#000000" font-family="Verdana" font-size="14" lengthAdjust="spacing" textLength="81.9561" x="941.5" y="161.8271">View Matrix</text><ellipse cx="934.5" cy="174.7739" fill="none" rx="3" ry="3" style="stroke:#000000;stroke-width:1.0;"/><text fill="#000000" font-family="Verdana" font-size="14" lengthAdjust="spacing" textLength="118.8291" x="941.5" y="178.8418">Projection Matrix</text><ellipse cx="934.5" cy="191.7886" fill="none" rx="3" ry="3" style="stroke:#000000;stroke-width:1.0;"/><text fill="#000000" font-family="Verdana" font-size="14" lengthAdjust="spacing" textLength="135.8984" x="941.5" y="195.8564">Viewport Rectangle</text><ellipse cx="934.5" cy="208.8032" fill="none" rx="3" ry="3" style="stroke:#000000;stroke-width:1.0;"/><text fill="#000000" font-family="Verdana" font-size="14" lengthAdjust="spacing" textLength="108.2744" x="941.5" y="212.8711">Frustum Planes</text><line style="stroke:#888888;stroke-width:1.0;" x1="924.5" x2="978.3188" y1="139.2446" y2="139.2446"/><line style="stroke:#888888;stroke-width:1.0;" x1="924.5" x2="978.3188" y1="141.2446" y2="141.2446"/><text fill="#000000" font-family="Verdana" font-size="14" lengthAdjust="spacing" textLength="100.8506" x="978.3188" y="144.3125">Multi-viewport</text><line style="stroke:#888888;stroke-width:1.0;" x1="1079.1694" x2="1132.9883" y1="139.2446" y2="139.2446"/><line style="stroke:#888888;stroke-width:1.0;" x1="1079.1694" x2="1132.9883" y1="141.2446" y2="141.2446"/><line style="stroke:#888888;stroke-width:1.0;" x1="924.5" x2="1132.9883" y1="219.8105" y2="219.8105"/><text fill="#000000" font-family="Verdana" font-size="14" lengthAdjust="spacing" textLength="198.4883" x="929.5" y="237.8857">For: Editor, VR, Split-screen</text></g><!--class Set 5: Per-Light--><g id="elem_Set 5: Per-Light"><rect codeLine="96" fill="#F0E8FF" height="150.0879" id="Set 5: Per-Light" rx="2.5" ry="2.5" style="stroke:#888888;stroke-width:1.0;" width="196.8711" x="691" y="94.7373"/><ellipse cx="729.4976" cy="108.7373" fill="#FFFFFF" rx="9" ry="9" style="stroke:#000000;stroke-width:1.0;"/><path d="M732.2632,110.2686 L734.6538,111.0186 Q734.1069,113.0029 732.8257,113.9717 Q731.5601,114.9404 729.5913,114.9404 Q727.1694,114.9404 725.6069,113.2842 Q724.0601,111.6279 724.0601,108.7529 Q724.0601,105.7217 725.6226,104.0498 Q727.1851,102.3623 729.7476,102.3623 Q731.9819,102.3623 733.3726,103.6748 Q734.2007,104.4561 734.6226,105.9248 L732.1851,106.5029 Q731.9663,105.5498 731.2788,105.0029 Q730.6069,104.4561 729.6226,104.4561 Q728.2632,104.4561 727.4194,105.4404 Q726.5913,106.4092 726.5913,108.5811 Q726.5913,110.8779 727.4194,111.8623 Q728.2476,112.8467 729.5757,112.8467 Q730.5601,112.8467 731.2632,112.2217 Q731.9663,111.5967 732.2632,110.2686 Z " fill="#000000"/><text fill="#000000" font-family="Verdana" font-size="14" lengthAdjust="spacing" textLength="112.376" x="746.9976" y="114.3052">Set 5: Per-Light</text><line style="stroke:#888888;stroke-width:1.0;" x1="692" x2="886.8711" y1="122.7373" y2="122.7373"/><ellipse cx="702" cy="157.7593" fill="none" rx="3" ry="3" style="stroke:#000000;stroke-width:1.0;"/><text fill="#000000" font-family="Verdana" font-size="14" lengthAdjust="spacing" textLength="163.7549" x="709" y="161.8271">Light Position/Direction</text><ellipse cx="702" cy="174.7739" fill="none" rx="3" ry="3" style="stroke:#000000;stroke-width:1.0;"/><text fill="#000000" font-family="Verdana" font-size="14" lengthAdjust="spacing" textLength="145.0039" x="709" y="178.8418">Light Color/Intensity</text><ellipse cx="702" cy="191.7886" fill="none" rx="3" ry="3" style="stroke:#000000;stroke-width:1.0;"/><text fill="#000000" font-family="Verdana" font-size="14" lengthAdjust="spacing" textLength="171.8623" x="709" y="195.8564">Light Range/Attenuation</text><ellipse cx="702" cy="208.8032" fill="none" rx="3" ry="3" style="stroke:#000000;stroke-width:1.0;"/><text fill="#000000" font-family="Verdana" font-size="14" lengthAdjust="spacing" textLength="134.3877" x="709" y="212.8711">Shadow Map Index</text><line style="stroke:#888888;stroke-width:1.0;" x1="692" x2="713.7344" y1="139.2446" y2="139.2446"/><line style="stroke:#888888;stroke-width:1.0;" x1="692" x2="713.7344" y1="141.2446" y2="141.2446"/><text fill="#000000" font-family="Verdana" font-size="14" lengthAdjust="spacing" textLength="151.4023" x="713.7344" y="144.3125">Forward+ / Clustered</text><line style="stroke:#888888;stroke-width:1.0;" x1="865.1367" x2="886.8711" y1="139.2446" y2="139.2446"/><line style="stroke:#888888;stroke-width:1.0;" x1="865.1367" x2="886.8711" y1="141.2446" y2="141.2446"/><line style="stroke:#888888;stroke-width:1.0;" x1="692" x2="886.8711" y1="219.8105" y2="219.8105"/><text fill="#000000" font-family="Verdana" font-size="14" lengthAdjust="spacing" textLength="184.8711" x="697" y="237.8857">For: Many lights scenarios</text></g><!--class Vertex Shader--><g id="elem_Vertex Shader"><rect codeLine="108" fill="#F8F8F8" height="112.0586" id="Vertex Shader" rx="2.5" ry="2.5" style="stroke:#888888;stroke-width:1.0;" width="191.6924" x="442.5" y="113.7373"/><ellipse cx="484.1846" cy="127.7373" fill="#FFFFFF" rx="9" ry="9" style="stroke:#000000;stroke-width:1.0;"/><path d="M486.9502,129.2686 L489.3408,130.0186 Q488.7939,132.0029 487.5127,132.9717 Q486.2471,133.9404 484.2783,133.9404 Q481.8564,133.9404 480.2939,132.2842 Q478.7471,130.6279 478.7471,127.7529 Q478.7471,124.7217 480.3096,123.0498 Q481.8721,121.3623 484.4346,121.3623 Q486.6689,121.3623 488.0596,122.6748 Q488.8877,123.4561 489.3096,124.9248 L486.8721,125.5029 Q486.6533,124.5498 485.9658,124.0029 Q485.2939,123.4561 484.3096,123.4561 Q482.9502,123.4561 482.1064,124.4404 Q481.2783,125.4092 481.2783,127.5811 Q481.2783,129.8779 482.1064,130.8623 Q482.9346,131.8467 484.2627,131.8467 Q485.2471,131.8467 485.9502,131.2217 Q486.6533,130.5967 486.9502,129.2686 Z " fill="#000000"/><text fill="#000000" font-family="Verdana" font-size="14" lengthAdjust="spacing" textLength="100.8232" x="501.6846" y="133.3052">Vertex Shader</text><line style="stroke:#888888;stroke-width:1.0;" x1="443.5" x2="633.1924" y1="141.7373" y2="141.7373"/><text fill="#000000" font-family="Verdana" font-size="14" lengthAdjust="spacing" textLength="119.5332" x="460.5" y="159.8125">Uses: Set 0, 1, 3</text><ellipse cx="453.5" cy="172.7593" fill="none" rx="3" ry="3" style="stroke:#000000;stroke-width:1.0;"/><text fill="#000000" font-family="Verdana" font-size="14" lengthAdjust="spacing" textLength="131.9814" x="460.5" y="176.8271">Transform vertices</text><ellipse cx="453.5" cy="189.7739" fill="none" rx="3" ry="3" style="stroke:#000000;stroke-width:1.0;"/><text fill="#000000" font-family="Verdana" font-size="14" lengthAdjust="spacing" textLength="167.6924" x="460.5" y="193.8418">Calculate world position</text><ellipse cx="453.5" cy="206.7886" fill="none" rx="3" ry="3" style="stroke:#000000;stroke-width:1.0;"/><text fill="#000000" font-family="Verdana" font-size="14" lengthAdjust="spacing" textLength="119.6563" x="460.5" y="210.8564">Pass to fragment</text><line style="stroke:#888888;stroke-width:1.0;" x1="443.5" x2="633.1924" y1="217.7959" y2="217.7959"/></g><!--class Fragment Shader--><g id="elem_Fragment Shader"><rect codeLine="115" fill="#F8F8F8" height="112.0586" id="Fragment Shader" rx="2.5" ry="2.5" style="stroke:#888888;stroke-width:1.0;" width="162.4482" x="245.5" y="113.7373"/><ellipse cx="263.9751" cy="127.7373" fill="#FFFFFF" rx="9" ry="9" style="stroke:#000000;stroke-width:1.0;"/><path d="M266.7408,129.2686 L269.1314,130.0186 Q268.5845,132.0029 267.3033,132.9717 Q266.0376,133.9404 264.0689,133.9404 Q261.647,133.9404 260.0845,132.2842 Q258.5376,130.6279 258.5376,127.7529 Q258.5376,124.7217 260.1001,123.0498 Q261.6626,121.3623 264.2251,121.3623 Q266.4595,121.3623 267.8501,122.6748 Q268.6783,123.4561 269.1001,124.9248 L266.6626,125.5029 Q266.4439,124.5498 265.7564,124.0029 Q265.0845,123.4561 264.1001,123.4561 Q262.7408,123.4561 261.897,124.4404 Q261.0689,125.4092 261.0689,127.5811 Q261.0689,129.8779 261.897,130.8623 Q262.7251,131.8467 264.0533,131.8467 Q265.0376,131.8467 265.7408,131.2217 Q266.4439,130.5967 266.7408,129.2686 Z " fill="#000000"/><text fill="#000000" font-family="Verdana" font-size="14" lengthAdjust="spacing" textLength="122.2813" x="277.1918" y="133.3052">Fragment Shader</text><line style="stroke:#888888;stroke-width:1.0;" x1="246.5" x2="406.9482" y1="141.7373" y2="141.7373"/><text fill="#000000" font-family="Verdana" font-size="14" lengthAdjust="spacing" textLength="138.4482" x="263.5" y="159.8125">Uses: Set 0, 1, 2, 3</text><ellipse cx="256.5" cy="172.7593" fill="none" rx="3" ry="3" style="stroke:#000000;stroke-width:1.0;"/><text fill="#000000" font-family="Verdana" font-size="14" lengthAdjust="spacing" textLength="115.5479" x="263.5" y="176.8271">Sample textures</text><ellipse cx="256.5" cy="189.7739" fill="none" rx="3" ry="3" style="stroke:#000000;stroke-width:1.0;"/><text fill="#000000" font-family="Verdana" font-size="14" lengthAdjust="spacing" textLength="121.4131" x="263.5" y="193.8418">Calculate lighting</text><ellipse cx="256.5" cy="206.7886" fill="none" rx="3" ry="3" style="stroke:#000000;stroke-width:1.0;"/><text fill="#000000" font-family="Verdana" font-size="14" lengthAdjust="spacing" textLength="87.5205" x="263.5" y="210.8564">Output color</text><line style="stroke:#888888;stroke-width:1.0;" x1="246.5" x2="406.9482" y1="217.7959" y2="217.7959"/></g><g id="elem_GMN13"><path d="M11,141.2373 L11,198.6353 A0,0 0 0 0 11,198.6353 L111.18,198.6353 L139.96,345.3973 L119.18,198.6353 L209.855,198.6353 A0,0 0 0 0 209.855,198.6353 L209.855,151.2373 L199.855,141.2373 L11,141.2373 A0,0 0 0 0 11,141.2373 " fill="#FFFFFF" style="stroke:#000000;stroke-width:1.0;"/><path d="M199.855,141.2373 L199.855,151.2373 L209.855,151.2373 L199.855,141.2373 " fill="#FFFFFF" style="stroke:#000000;stroke-width:1.0;"/><text fill="#000000" font-family="Verdana" font-size="13" lengthAdjust="spacing" textLength="150.979" x="17" y="159.3071">Least frequent updates</text><text fill="#000000" font-family="Verdana" font-size="13" lengthAdjust="spacing" textLength="115.9209" x="17" y="175.1064">Largest resources</text><text fill="#000000" font-family="Verdana" font-size="13" lengthAdjust="spacing" textLength="177.855" x="17" y="190.9058">Shared across entire frame</text></g><g id="elem_GMN16"><path d="M110.5,1803.7373 L110.5,1861.1353 A0,0 0 0 0 110.5,1861.1353 L278.5371,1861.1353 A0,0 0 0 0 278.5371,1861.1353 L278.5371,1813.7373 L268.5371,1803.7373 L198.5,1803.7373 L194.5,1740.7973 L190.5,1803.7373 L110.5,1803.7373 A0,0 0 0 0 110.5,1803.7373 " fill="#FFFFFF" style="stroke:#000000;stroke-width:1.0;"/><path d="M268.5371,1803.7373 L268.5371,1813.7373 L278.5371,1813.7373 L268.5371,1803.7373 " fill="#FFFFFF" style="stroke:#000000;stroke-width:1.0;"/><text fill="#000000" font-family="Verdana" font-size="13" lengthAdjust="spacing" textLength="147.0371" x="116.5" y="1821.8071">Most frequent updates</text><text fill="#000000" font-family="Verdana" font-size="13" lengthAdjust="spacing" textLength="89.521" x="116.5" y="1837.6064">Smallest data</text><text fill="#000000" font-family="Verdana" font-size="13" lengthAdjust="spacing" textLength="131.4282" x="116.5" y="1853.4058">Use dynamic offsets</text></g><!--link Set 0: Per-Frame to Set 1: Per-Pass--><!--link Set 1: Per-Pass to Set 2: Per-Material--><!--link Set 2: Per-Material to Set 3: Per-Object--><!--link Vertex Shader to Set 0: Per-Frame--><g id="link_Vertex Shader_Set 0: Per-Frame"><path codeLine="132" d="M485.86,225.7373 C468.04,241.6673 447.13,257.7073 425.5,268.7373 C367.77,298.1573 335.62,263.2473 283.5,301.7373 C267.1,313.8473 256.2633,324.2477 243.5833,340.7677 " fill="none" id="Vertex Shader-to-Set 0: Per-Frame" style="stroke:#666666;stroke-width:1.0;stroke-dasharray:7.0,7.0;"/><polygon fill="#666666" points="239.93,345.5273,248.5829,340.8234,242.9744,341.561,242.2368,335.9524,239.93,345.5273" style="stroke:#666666;stroke-width:1.0;"/><text fill="#000000" font-family="Verdana" font-size="13" lengthAdjust="spacing" textLength="35.9722" x="406.5" y="290.8071">reads</text></g><!--link Vertex Shader to Set 3: Per-Object--><g id="link_Vertex Shader_Set 3: Per-Object"><path codeLine="133" d="M538.23,225.9573 C537.94,291.8373 537.5,405.3273 537.5,502.7373 C537.5,502.7373 537.5,502.7373 537.5,1240.7373 C537.5,1374.1573 416.8807,1474.1203 317.6607,1534.7103 " fill="none" id="Vertex Shader-to-Set 3: Per-Object" style="stroke:#666666;stroke-width:1.0;stroke-dasharray:7.0,7.0;"/><polygon fill="#666666" points="312.54,1537.8373,322.3058,1536.5606,316.8073,1535.2314,318.1364,1529.733,312.54,1537.8373" style="stroke:#666666;stroke-width:1.0;"/><text fill="#000000" font-family="Verdana" font-size="13" lengthAdjust="spacing" textLength="35.9722" x="538.5" y="885.3071">reads</text></g><!--link Fragment Shader to Set 2: Per-Material--><g id="link_Fragment Shader_Set 2: Per-Material"><path codeLine="134" d="M346.21,225.7573 C353.51,248.8973 360.89,276.2973 364.5,301.7373 C409.55,618.7373 417.84,716.0373 319.5,1020.7373 C312.94,1041.0473 307.029,1056.2257 297.629,1076.2557 " fill="none" id="Fragment Shader-to-Set 2: Per-Material" style="stroke:#666666;stroke-width:1.0;stroke-dasharray:7.0,7.0;"/><polygon fill="#666666" points="295.08,1081.6873,302.5246,1075.2392,297.2042,1077.161,295.2825,1071.8405,295.08,1081.6873" style="stroke:#666666;stroke-width:1.0;"/><text fill="#000000" font-family="Verdana" font-size="13" lengthAdjust="spacing" textLength="35.9722" x="394.5" y="705.8071">reads</text></g><!--link Fragment Shader to Set 1: Per-Pass--><g id="link_Fragment Shader_Set 1: Per-Pass"><path codeLine="135" d="M324.45,225.8573 C320.17,317.3573 307.68,505.9673 273.5,661.7373 C267.98,686.8773 262.3941,707.455 254.4241,732.735 " fill="none" id="Fragment Shader-to-Set 1: Per-Pass" style="stroke:#666666;stroke-width:1.0;stroke-dasharray:7.0,7.0;"/><polygon fill="#666666" points="252.62,738.4573,259.141,731.0765,254.1234,733.6887,251.5112,728.6711,252.62,738.4573" style="stroke:#666666;stroke-width:1.0;"/><text fill="#000000" font-family="Verdana" font-size="13" lengthAdjust="spacing" textLength="35.9722" x="320.5" y="509.3071">reads</text></g><!--SRC=[ZLPHRzis47xNhxYb3slHA76QDZ02j40JMrs0k37i97jOza1BPvihJMeabSGRkj- -8oMvb2Mdje70uHt9u_VTVNU_s2Mk47B1k8pCDovpfjaAPYpzjj2gaDcb4ah3gsJele57AfWn5ostllkst9JEK5Sk_Nvep-a4ji3sGJqwA0aScTRggJAUdPr5aULM84pGg4Ad21TSPbmkOAGo5133Rnmrq-cIfqp0rEeYjON6AAekX8DwGwBnxm9bkjviMH_0gs4_UP_quTy8wEF_-9V0mHGjzCvXZ3fEA2uatoGPzeUrh_jy_0XtUSOidiEDfDXor31tpcJPE1qTmPtaSwLNXdvlbj_2FSSd636h-NEmEjRgBqmjLxAoLM6LraiwN3COAyETIs2vvNJjCGnGMEP-1oOVFrmIwZQCgePqAwmlGiq8ock-M5e3dxLcwy0wNR9CkR3pbkdguXekYnckM1wiNam62LpVtOPdJ3_Vm5V53S8jFdkwQcCSRtx-1oTGU7H_u1eOAH2D6SpMm8IWz386ZJT_xwJofAHoJ0iLaqdo4oRTcNiHwGw5stMEM-JcIbkuadCLh4zGKed0BTCBYchA_matUSpzrjYb0Rms7kqtZGGmASkGZitmUGysnneVkIfC6IGv5SAQqAwCZNEjQAFpSI1Rr6RhTR79CULpdjQ4cMx6JkCF5MUcaxG1dyzHexH0C0AoTEbHVe6tToLlL0geEHE-Ob_Y3bQL9wHB9XVxLU85Cwu-dEOaBBLA1xOHMaemUddBCb75OYaTRYtJLxh3oH5fKiZlSCMDuO-ulO42gt7T6TYeKLNL1St5EjJuHsHDXviq5OKffINlYYjSRfPYBpxfzIfCpKyAaajZ6LNHIxoUbhpUp9pObJgSxDBMuIFgDMIQFK7gYdqVIilsq5BN3MujrQtAPCU-Cawu6eHwLpsp92WCQR2MR4KfCs2MRH6g99QdkqfzxTgUfERqfX6vpfVmEthz3Ik_C5QjF6gRczq5kmZpZ15dBzKZOKSzqPkKVs75sFUWVzxahjEuR4RhjPCQ_uQfWD7t9QDElRp2jlaSaVRm-B5Mne36lPjXby9Eo8FIKZHR7g5L45g2oMwnIfIcpCeurU4Xt4yEOPeBRcEJQaJvGk9-A9_ffTgzizTM8phwYUdiBRNZIwetqYEgYyPhIw6lk_ZnWElobIqNdrh7LzAY9DzropvnzNZysPAzO5id1AswsIssKHWnkGPHzdkJecIQAzEH2L_6Tp3cEGfEIJorjERpeUU-pNouHstnsKU0-Y10vuwwz3dusUeGJWxXD9nWD9F6bJ9GlLkUOYFxcKWBuOQ19wL51dbx0l8TpYgNv8iLIhk3nAGoxn7TksQ0KxRAQHIrsoqmZCx3I1KTQaTXyy92kb49ZwfKv6rL3chUDMoUmpKoGtsod5fjNSOFyjgD3cJHTSD_a9NqibGhUY5vKpvLjLxUCrFMQKTzrPRuKWQepgkcf9N2tKN_imT9y41MIPkQpmtfGHJzIlKdVEgP9SzDrF6M-8ybppAKVyQVsiDOr1xFMlxRGq3KFHgqzZNV6KNRUNbqzAaRUuqiCxlTM_XL_gtKsknenRh7dWOcjV__]--></g></svg>