<svg xmlns="http://www.w3.org/2000/svg" xmlns:xlink="http://www.w3.org/1999/xlink" contentStyleType="text/css" height="805px" preserveAspectRatio="none" style="width:1141px;height:805px;background:#FEFEFE;" version="1.1" viewBox="0 0 1141 805" width="1141px" zoomAndPan="magnify"><title>Resource Binding Model - Hierarchical Structure</title><defs/><g><rect fill="#FEFEFE" height="805" style="stroke:none;stroke-width:1.0;" width="1141" x="0" y="0"/><text fill="#000000" font-family="Verdana" font-size="22" font-weight="bold" lengthAdjust="spacing" textLength="594.5264" x="268.7368" y="37.1182">Resource Binding Model - Hierarchical Structure</text><!--cluster   Binding Frequency Hierarchy--><g id="cluster_  Binding Frequency Hierarchy"><path d="M13.5,309.7373 L251.543,309.7373 A3.75,3.75 0 0 1 254.043,312.2373 L261.043,332.752 L976.5,332.752 A2.5,2.5 0 0 1 979,335.252 L979,691.2373 A2.5,2.5 0 0 1 976.5,693.7373 L13.5,693.7373 A2.5,2.5 0 0 1 11,691.2373 L11,312.2373 A2.5,2.5 0 0 1 13.5,309.7373 " fill="#E8F4F8" style="stroke:#000000;stroke-width:1.0;"/><line style="stroke:#000000;stroke-width:1.0;" x1="11" x2="261.043" y1="332.752" y2="332.752"/><text fill="#000000" font-family="Verdana" font-size="14" font-weight="bold" lengthAdjust="spacing" textLength="227.4727" x="24.5703" y="325.8125">Binding Frequency Hierarchy</text></g><!--cluster Optional Sets--><g id="cluster_Optional Sets"><path d="M666.5,58.7373 L772.7871,58.7373 A3.75,3.75 0 0 1 775.2871,61.2373 L782.2871,81.752 L1131.5,81.752 A2.5,2.5 0 0 1 1134,84.252 L1134,258.2373 A2.5,2.5 0 0 1 1131.5,260.7373 L666.5,260.7373 A2.5,2.5 0 0 1 664,258.2373 L664,61.2373 A2.5,2.5 0 0 1 666.5,58.7373 " fill="#F8F8E8" style="stroke:#000000;stroke-width:1.0;"/><line style="stroke:#000000;stroke-width:1.0;" x1="664" x2="782.2871" y1="81.752" y2="81.752"/><text fill="#000000" font-family="Verdana" font-size="14" font-weight="bold" lengthAdjust="spacing" textLength="105.2871" x="668" y="74.8125">Optional Sets</text></g><!--cluster GPU Pipeline Stages--><g id="cluster_GPU Pipeline Stages"><path d="M226.5,77.7373 L386.0938,77.7373 A3.75,3.75 0 0 1 388.5938,80.2373 L395.5938,100.752 L637.5,100.752 A2.5,2.5 0 0 1 640,103.252 L640,239.2373 A2.5,2.5 0 0 1 637.5,241.7373 L226.5,241.7373 A2.5,2.5 0 0 1 224,239.2373 L224,80.2373 A2.5,2.5 0 0 1 226.5,77.7373 " fill="#F0F0F0" style="stroke:#000000;stroke-width:1.0;"/><line style="stroke:#000000;stroke-width:1.0;" x1="224" x2="395.5938" y1="100.752" y2="100.752"/><text fill="#000000" font-family="Verdana" font-size="14" font-weight="bold" lengthAdjust="spacing" textLength="158.5938" x="228" y="93.8125">GPU Pipeline Stages</text></g><!--class S0--><g id="elem_S0"><rect codeLine="13" fill="#FFE8E8" height="315.7271" id="S0" rx="2.5" ry="2.5" style="stroke:#888888;stroke-width:1.0;" width="178.8916" x="35.5" y="353.7373"/><ellipse cx="61.4885" cy="367.7373" fill="#FFFFFF" rx="9" ry="9" style="stroke:#000000;stroke-width:1.0;"/><path d="M64.2541,369.2686 L66.6447,370.0186 Q66.0979,372.0029 64.8166,372.9717 Q63.551,373.9404 61.5822,373.9404 Q59.1604,373.9404 57.5979,372.2842 Q56.051,370.6279 56.051,367.7529 Q56.051,364.7217 57.6135,363.0498 Q59.176,361.3623 61.7385,361.3623 Q63.9729,361.3623 65.3635,362.6748 Q66.1916,363.4561 66.6135,364.9248 L64.176,365.5029 Q63.9572,364.5498 63.2697,364.0029 Q62.5979,363.4561 61.6135,363.4561 Q60.2541,363.4561 59.4104,364.4404 Q58.5822,365.4092 58.5822,367.5811 Q58.5822,369.8779 59.4104,370.8623 Q60.2385,371.8467 61.5666,371.8467 Q62.551,371.8467 63.2541,371.2217 Q63.9572,370.5967 64.2541,369.2686 Z " fill="#000000"/><text fill="#000000" font-family="Verdana" font-size="14" lengthAdjust="spacing" textLength="122.0283" x="76.3748" y="373.3052">Set 0: Per-Frame</text><line style="stroke:#888888;stroke-width:1.0;" x1="36.5" x2="213.3916" y1="381.7373" y2="381.7373"/><line style="stroke:#888888;stroke-width:1.0;" x1="36.5" x2="39.5" y1="398.2446" y2="398.2446"/><line style="stroke:#888888;stroke-width:1.0;" x1="36.5" x2="39.5" y1="400.2446" y2="400.2446"/><text fill="#000000" font-family="Verdana" font-size="14" lengthAdjust="spacing" textLength="170.8916" x="39.5" y="403.3125">Update: Once per frame</text><line style="stroke:#888888;stroke-width:1.0;" x1="210.3916" x2="213.3916" y1="398.2446" y2="398.2446"/><line style="stroke:#888888;stroke-width:1.0;" x1="210.3916" x2="213.3916" y1="400.2446" y2="400.2446"/><ellipse cx="46.5" cy="442.2813" fill="none" rx="3" ry="3" style="stroke:#000000;stroke-width:1.0;"/><text fill="#000000" font-family="Verdana" font-size="14" lengthAdjust="spacing" textLength="81.9561" x="53.5" y="446.3491">View Matrix</text><ellipse cx="46.5" cy="459.2959" fill="none" rx="3" ry="3" style="stroke:#000000;stroke-width:1.0;"/><text fill="#000000" font-family="Verdana" font-size="14" lengthAdjust="spacing" textLength="118.8291" x="53.5" y="463.3638">Projection Matrix</text><ellipse cx="46.5" cy="476.3105" fill="none" rx="3" ry="3" style="stroke:#000000;stroke-width:1.0;"/><text fill="#000000" font-family="Verdana" font-size="14" lengthAdjust="spacing" textLength="114.2354" x="53.5" y="480.3784">Camera Position</text><ellipse cx="46.5" cy="493.3252" fill="none" rx="3" ry="3" style="stroke:#000000;stroke-width:1.0;"/><text fill="#000000" font-family="Verdana" font-size="14" lengthAdjust="spacing" textLength="121.9463" x="53.5" y="497.3931">Time / DeltaTime</text><ellipse cx="46.5" cy="510.3398" fill="none" rx="3" ry="3" style="stroke:#000000;stroke-width:1.0;"/><text fill="#000000" font-family="Verdana" font-size="14" lengthAdjust="spacing" textLength="90.8154" x="53.5" y="514.4077">Frame Count</text><line style="stroke:#888888;stroke-width:1.0;stroke-dasharray:1.0,2.0;" x1="36.5" x2="93.3193" y1="423.7666" y2="423.7666"/><text fill="#000000" font-family="Verdana" font-size="14" lengthAdjust="spacing" textLength="63.2529" x="93.3193" y="428.8345">Uniforms</text><line style="stroke:#888888;stroke-width:1.0;stroke-dasharray:1.0,2.0;" x1="156.5723" x2="213.3916" y1="423.7666" y2="423.7666"/><ellipse cx="46.5" cy="548.3691" fill="none" rx="3" ry="3" style="stroke:#000000;stroke-width:1.0;"/><text fill="#000000" font-family="Verdana" font-size="14" lengthAdjust="spacing" textLength="134.251" x="53.5" y="552.437">Global Lights Array</text><ellipse cx="46.5" cy="565.3838" fill="none" rx="3" ry="3" style="stroke:#000000;stroke-width:1.0;"/><text fill="#000000" font-family="Verdana" font-size="14" lengthAdjust="spacing" textLength="132.501" x="53.5" y="569.4517">Shadow Map Array</text><ellipse cx="46.5" cy="582.3984" fill="none" rx="3" ry="3" style="stroke:#000000;stroke-width:1.0;"/><text fill="#000000" font-family="Verdana" font-size="14" lengthAdjust="spacing" textLength="94.6504" x="53.5" y="586.4663">IBL Cubemap</text><ellipse cx="46.5" cy="599.4131" fill="none" rx="3" ry="3" style="stroke:#000000;stroke-width:1.0;"/><text fill="#000000" font-family="Verdana" font-size="14" lengthAdjust="spacing" textLength="69.7539" x="53.5" y="603.481">BRDF LUT</text><ellipse cx="46.5" cy="616.4277" fill="none" rx="3" ry="3" style="stroke:#000000;stroke-width:1.0;"/><text fill="#000000" font-family="Verdana" font-size="14" lengthAdjust="spacing" textLength="141.9619" x="53.5" y="620.4956">SSAO Noise Texture</text><line style="stroke:#888888;stroke-width:1.0;stroke-dasharray:1.0,2.0;" x1="36.5" x2="89.1323" y1="529.8545" y2="529.8545"/><text fill="#000000" font-family="Verdana" font-size="14" lengthAdjust="spacing" textLength="71.627" x="89.1323" y="534.9224">Resources</text><line style="stroke:#888888;stroke-width:1.0;stroke-dasharray:1.0,2.0;" x1="160.7593" x2="213.3916" y1="529.8545" y2="529.8545"/><line style="stroke:#888888;stroke-width:1.0;" x1="36.5" x2="213.3916" y1="627.4351" y2="627.4351"/><polygon fill="none" points="46.5,637.4424,42.5,643.4424,50.5,643.4424" style="stroke:#000000;stroke-width:1.0;"/><text fill="#000000" font-family="Verdana" font-size="14" lengthAdjust="spacing" textLength="136.5342" x="53.5" y="645.5103">1 update per frame</text><polygon fill="none" points="46.5,654.457,42.5,660.457,50.5,660.457" style="stroke:#000000;stroke-width:1.0;"/><text fill="#000000" font-family="Verdana" font-size="14" lengthAdjust="spacing" textLength="145.0928" x="53.5" y="662.5249">Shared by all passes</text></g><!--class S1--><g id="elem_S1"><rect codeLine="32" fill="#FFE8FF" height="281.6978" id="S1" rx="2.5" ry="2.5" style="stroke:#888888;stroke-width:1.0;" width="201.8301" x="245" y="370.7373"/><ellipse cx="287.6245" cy="384.7373" fill="#FFFFFF" rx="9" ry="9" style="stroke:#000000;stroke-width:1.0;"/><path d="M290.3901,386.2686 L292.7808,387.0186 Q292.2339,389.0029 290.9526,389.9717 Q289.687,390.9404 287.7183,390.9404 Q285.2964,390.9404 283.7339,389.2842 Q282.187,387.6279 282.187,384.7529 Q282.187,381.7217 283.7495,380.0498 Q285.312,378.3623 287.8745,378.3623 Q290.1089,378.3623 291.4995,379.6748 Q292.3276,380.4561 292.7495,381.9248 L290.312,382.5029 Q290.0933,381.5498 289.4058,381.0029 Q288.7339,380.4561 287.7495,380.4561 Q286.3901,380.4561 285.5464,381.4404 Q284.7183,382.4092 284.7183,384.5811 Q284.7183,386.8779 285.5464,387.8623 Q286.3745,388.8467 287.7026,388.8467 Q288.687,388.8467 289.3901,388.2217 Q290.0933,387.5967 290.3901,386.2686 Z " fill="#000000"/><text fill="#000000" font-family="Verdana" font-size="14" lengthAdjust="spacing" textLength="109.0811" x="305.1245" y="390.3052">Set 1: Per-Pass</text><line style="stroke:#888888;stroke-width:1.0;" x1="246" x2="445.8301" y1="398.7373" y2="398.7373"/><line style="stroke:#888888;stroke-width:1.0;" x1="246" x2="265.2407" y1="415.2446" y2="415.2446"/><line style="stroke:#888888;stroke-width:1.0;" x1="246" x2="265.2407" y1="417.2446" y2="417.2446"/><text fill="#000000" font-family="Verdana" font-size="14" lengthAdjust="spacing" textLength="161.3486" x="265.2407" y="420.3125">Update: Once per pass</text><line style="stroke:#888888;stroke-width:1.0;" x1="426.5894" x2="445.8301" y1="415.2446" y2="415.2446"/><line style="stroke:#888888;stroke-width:1.0;" x1="426.5894" x2="445.8301" y1="417.2446" y2="417.2446"/><ellipse cx="256" cy="459.2813" fill="none" rx="3" ry="3" style="stroke:#000000;stroke-width:1.0;"/><text fill="#000000" font-family="Verdana" font-size="14" lengthAdjust="spacing" textLength="70.335" x="263" y="463.3491">Pass Type</text><ellipse cx="256" cy="476.2959" fill="none" rx="3" ry="3" style="stroke:#000000;stroke-width:1.0;"/><text fill="#000000" font-family="Verdana" font-size="14" lengthAdjust="spacing" textLength="95.0127" x="263" y="480.3638">Viewport Info</text><ellipse cx="256" cy="493.3105" fill="none" rx="3" ry="3" style="stroke:#000000;stroke-width:1.0;"/><text fill="#000000" font-family="Verdana" font-size="14" lengthAdjust="spacing" textLength="134.5107" x="263" y="497.3784">Render Target Size</text><ellipse cx="256" cy="510.3252" fill="#FFFFFF" rx="3" ry="3" style="stroke:#000000;stroke-width:1.0;"/><text fill="#000000" font-family="Verdana" font-size="14" lengthAdjust="spacing" textLength="177.8301" x="263" y="514.3931">Light View-Proj (shadow)</text><ellipse cx="256" cy="527.3398" fill="none" rx="3" ry="3" style="stroke:#000000;stroke-width:1.0;"/><text fill="#000000" font-family="Verdana" font-size="14" lengthAdjust="spacing" textLength="103.2637" x="263" y="531.4077">Cascade Index</text><line style="stroke:#888888;stroke-width:1.0;stroke-dasharray:1.0,2.0;" x1="246" x2="314.2886" y1="440.7666" y2="440.7666"/><text fill="#000000" font-family="Verdana" font-size="14" lengthAdjust="spacing" textLength="63.2529" x="314.2886" y="445.8345">Uniforms</text><line style="stroke:#888888;stroke-width:1.0;stroke-dasharray:1.0,2.0;" x1="377.5415" x2="445.8301" y1="440.7666" y2="440.7666"/><ellipse cx="256" cy="565.3691" fill="none" rx="3" ry="3" style="stroke:#000000;stroke-width:1.0;"/><text fill="#000000" font-family="Verdana" font-size="14" lengthAdjust="spacing" textLength="151.6963" x="263" y="569.437">Previous Pass Results</text><ellipse cx="256" cy="582.3838" fill="none" rx="3" ry="3" style="stroke:#000000;stroke-width:1.0;"/><text fill="#000000" font-family="Verdana" font-size="14" lengthAdjust="spacing" textLength="174.7607" x="263" y="586.4517">Post-process Parameters</text><ellipse cx="256" cy="599.3984" fill="none" rx="3" ry="3" style="stroke:#000000;stroke-width:1.0;"/><text fill="#000000" font-family="Verdana" font-size="14" lengthAdjust="spacing" textLength="155.5039" x="263" y="603.4663">Pass-specific Textures</text><line style="stroke:#888888;stroke-width:1.0;stroke-dasharray:1.0,2.0;" x1="246" x2="310.1016" y1="546.8545" y2="546.8545"/><text fill="#000000" font-family="Verdana" font-size="14" lengthAdjust="spacing" textLength="71.627" x="310.1016" y="551.9224">Resources</text><line style="stroke:#888888;stroke-width:1.0;stroke-dasharray:1.0,2.0;" x1="381.7285" x2="445.8301" y1="546.8545" y2="546.8545"/><line style="stroke:#888888;stroke-width:1.0;" x1="246" x2="445.8301" y1="610.4058" y2="610.4058"/><polygon fill="none" points="256,620.4131,252,626.4131,260,626.4131" style="stroke:#000000;stroke-width:1.0;"/><text fill="#000000" font-family="Verdana" font-size="14" lengthAdjust="spacing" textLength="159.0859" x="263" y="628.481">3-5 updates per frame</text><polygon fill="none" points="256,637.4277,252,643.4277,260,643.4277" style="stroke:#000000;stroke-width:1.0;"/><text fill="#000000" font-family="Verdana" font-size="14" lengthAdjust="spacing" textLength="160.2822" x="263" y="645.4956">Different for each pass</text></g><!--class S2--><g id="elem_S2"><rect codeLine="51" fill="#E8E8FF" height="315.7271" id="S2" rx="2.5" ry="2.5" style="stroke:#888888;stroke-width:1.0;" width="211.7012" x="743" y="353.7373"/><ellipse cx="778.4679" cy="367.7373" fill="#FFFFFF" rx="9" ry="9" style="stroke:#000000;stroke-width:1.0;"/><path d="M781.2335,369.2686 L783.6242,370.0186 Q783.0773,372.0029 781.796,372.9717 Q780.5304,373.9404 778.5617,373.9404 Q776.1398,373.9404 774.5773,372.2842 Q773.0304,370.6279 773.0304,367.7529 Q773.0304,364.7217 774.5929,363.0498 Q776.1554,361.3623 778.7179,361.3623 Q780.9523,361.3623 782.3429,362.6748 Q783.171,363.4561 783.5929,364.9248 L781.1554,365.5029 Q780.9367,364.5498 780.2492,364.0029 Q779.5773,363.4561 778.5929,363.4561 Q777.2335,363.4561 776.3898,364.4404 Q775.5617,365.4092 775.5617,367.5811 Q775.5617,369.8779 776.3898,370.8623 Q777.2179,371.8467 778.546,371.8467 Q779.5304,371.8467 780.2335,371.2217 Q780.9367,370.5967 781.2335,369.2686 Z " fill="#000000"/><text fill="#000000" font-family="Verdana" font-size="14" lengthAdjust="spacing" textLength="133.7725" x="795.4608" y="373.3052">Set 2: Per-Material</text><line style="stroke:#888888;stroke-width:1.0;" x1="744" x2="953.7012" y1="381.7373" y2="381.7373"/><line style="stroke:#888888;stroke-width:1.0;" x1="744" x2="749.1553" y1="398.2446" y2="398.2446"/><line style="stroke:#888888;stroke-width:1.0;" x1="744" x2="749.1553" y1="400.2446" y2="400.2446"/><text fill="#000000" font-family="Verdana" font-size="14" lengthAdjust="spacing" textLength="199.3906" x="749.1553" y="403.3125">Update: On material change</text><line style="stroke:#888888;stroke-width:1.0;" x1="948.5459" x2="953.7012" y1="398.2446" y2="398.2446"/><line style="stroke:#888888;stroke-width:1.0;" x1="948.5459" x2="953.7012" y1="400.2446" y2="400.2446"/><ellipse cx="754" cy="442.2813" fill="none" rx="3" ry="3" style="stroke:#000000;stroke-width:1.0;"/><text fill="#000000" font-family="Verdana" font-size="14" lengthAdjust="spacing" textLength="123.8057" x="761" y="446.3491">Base Color Factor</text><ellipse cx="754" cy="459.2959" fill="none" rx="3" ry="3" style="stroke:#000000;stroke-width:1.0;"/><text fill="#000000" font-family="Verdana" font-size="14" lengthAdjust="spacing" textLength="101.541" x="761" y="463.3638">Metallic Factor</text><ellipse cx="754" cy="476.3105" fill="none" rx="3" ry="3" style="stroke:#000000;stroke-width:1.0;"/><text fill="#000000" font-family="Verdana" font-size="14" lengthAdjust="spacing" textLength="125.1182" x="761" y="480.3784">Roughness Factor</text><ellipse cx="754" cy="493.3252" fill="none" rx="3" ry="3" style="stroke:#000000;stroke-width:1.0;"/><text fill="#000000" font-family="Verdana" font-size="14" lengthAdjust="spacing" textLength="93.1875" x="761" y="497.3931">Normal Scale</text><ellipse cx="754" cy="510.3398" fill="none" rx="3" ry="3" style="stroke:#000000;stroke-width:1.0;"/><text fill="#000000" font-family="Verdana" font-size="14" lengthAdjust="spacing" textLength="110.0244" x="761" y="514.4077">Emissive Factor</text><line style="stroke:#888888;stroke-width:1.0;stroke-dasharray:1.0,2.0;" x1="744" x2="817.2241" y1="423.7666" y2="423.7666"/><text fill="#000000" font-family="Verdana" font-size="14" lengthAdjust="spacing" textLength="63.2529" x="817.2241" y="428.8345">Uniforms</text><line style="stroke:#888888;stroke-width:1.0;stroke-dasharray:1.0,2.0;" x1="880.4771" x2="953.7012" y1="423.7666" y2="423.7666"/><ellipse cx="754" cy="548.3691" fill="none" rx="3" ry="3" style="stroke:#000000;stroke-width:1.0;"/><text fill="#000000" font-family="Verdana" font-size="14" lengthAdjust="spacing" textLength="108.999" x="761" y="552.437">Base Color Map</text><ellipse cx="754" cy="565.3838" fill="none" rx="3" ry="3" style="stroke:#000000;stroke-width:1.0;"/><text fill="#000000" font-family="Verdana" font-size="14" lengthAdjust="spacing" textLength="84.6631" x="761" y="569.4517">Normal Map</text><ellipse cx="754" cy="582.3984" fill="none" rx="3" ry="3" style="stroke:#000000;stroke-width:1.0;"/><text fill="#000000" font-family="Verdana" font-size="14" lengthAdjust="spacing" textLength="169.5518" x="761" y="586.4663">Metallic-Roughness Map</text><ellipse cx="754" cy="599.4131" fill="none" rx="3" ry="3" style="stroke:#000000;stroke-width:1.0;"/><text fill="#000000" font-family="Verdana" font-size="14" lengthAdjust="spacing" textLength="100.6523" x="761" y="603.481">Occlusion Map</text><ellipse cx="754" cy="616.4277" fill="none" rx="3" ry="3" style="stroke:#000000;stroke-width:1.0;"/><text fill="#000000" font-family="Verdana" font-size="14" lengthAdjust="spacing" textLength="95.2178" x="761" y="620.4956">Emissive Map</text><line style="stroke:#888888;stroke-width:1.0;stroke-dasharray:1.0,2.0;" x1="744" x2="818.2324" y1="529.8545" y2="529.8545"/><text fill="#000000" font-family="Verdana" font-size="14" lengthAdjust="spacing" textLength="61.2363" x="818.2324" y="534.9224">Textures</text><line style="stroke:#888888;stroke-width:1.0;stroke-dasharray:1.0,2.0;" x1="879.4688" x2="953.7012" y1="529.8545" y2="529.8545"/><line style="stroke:#888888;stroke-width:1.0;" x1="744" x2="953.7012" y1="627.4351" y2="627.4351"/><polygon fill="none" points="754,637.4424,750,643.4424,758,643.4424" style="stroke:#000000;stroke-width:1.0;"/><text fill="#000000" font-family="Verdana" font-size="14" lengthAdjust="spacing" textLength="187.7012" x="761" y="645.5103">10-100 changes per frame</text><polygon fill="none" points="754,654.457,750,660.457,758,660.457" style="stroke:#000000;stroke-width:1.0;"/><text fill="#000000" font-family="Verdana" font-size="14" lengthAdjust="spacing" textLength="142.4336" x="761" y="662.5249">Shared by instances</text></g><!--class S3--><g id="elem_S3"><rect codeLine="70" fill="#E8FFE8" height="281.6978" id="S3" rx="2.5" ry="2.5" style="stroke:#888888;stroke-width:1.0;" width="236.4883" x="477" y="370.7373"/><ellipse cx="529.8169" cy="384.7373" fill="#FFFFFF" rx="9" ry="9" style="stroke:#000000;stroke-width:1.0;"/><path d="M532.5825,386.2686 L534.9731,387.0186 Q534.4263,389.0029 533.145,389.9717 Q531.8794,390.9404 529.9106,390.9404 Q527.4888,390.9404 525.9263,389.2842 Q524.3794,387.6279 524.3794,384.7529 Q524.3794,381.7217 525.9419,380.0498 Q527.5044,378.3623 530.0669,378.3623 Q532.3013,378.3623 533.6919,379.6748 Q534.52,380.4561 534.9419,381.9248 L532.5044,382.5029 Q532.2856,381.5498 531.5981,381.0029 Q530.9263,380.4561 529.9419,380.4561 Q528.5825,380.4561 527.7388,381.4404 Q526.9106,382.4092 526.9106,384.5811 Q526.9106,386.8779 527.7388,387.8623 Q528.5669,388.8467 529.895,388.8467 Q530.8794,388.8467 531.5825,388.2217 Q532.2856,387.5967 532.5825,386.2686 Z " fill="#000000"/><text fill="#000000" font-family="Verdana" font-size="14" lengthAdjust="spacing" textLength="123.3545" x="547.3169" y="390.3052">Set 3: Per-Object</text><line style="stroke:#888888;stroke-width:1.0;" x1="478" x2="712.4883" y1="398.7373" y2="398.7373"/><line style="stroke:#888888;stroke-width:1.0;" x1="478" x2="510.8613" y1="415.2446" y2="415.2446"/><line style="stroke:#888888;stroke-width:1.0;" x1="478" x2="510.8613" y1="417.2446" y2="417.2446"/><text fill="#000000" font-family="Verdana" font-size="14" lengthAdjust="spacing" textLength="168.7656" x="510.8613" y="420.3125">Update: Every draw call</text><line style="stroke:#888888;stroke-width:1.0;" x1="679.627" x2="712.4883" y1="415.2446" y2="415.2446"/><line style="stroke:#888888;stroke-width:1.0;" x1="679.627" x2="712.4883" y1="417.2446" y2="417.2446"/><ellipse cx="488" cy="459.2813" fill="none" rx="3" ry="3" style="stroke:#000000;stroke-width:1.0;"/><text fill="#000000" font-family="Verdana" font-size="14" lengthAdjust="spacing" textLength="89.9473" x="495" y="463.3491">Model Matrix</text><ellipse cx="488" cy="476.2959" fill="none" rx="3" ry="3" style="stroke:#000000;stroke-width:1.0;"/><text fill="#000000" font-family="Verdana" font-size="14" lengthAdjust="spacing" textLength="99.5586" x="495" y="480.3638">Normal Matrix</text><ellipse cx="488" cy="493.3105" fill="none" rx="3" ry="3" style="stroke:#000000;stroke-width:1.0;"/><text fill="#000000" font-family="Verdana" font-size="14" lengthAdjust="spacing" textLength="154.4033" x="495" y="497.3784">Previous Model Matrix</text><ellipse cx="488" cy="510.3252" fill="none" rx="3" ry="3" style="stroke:#000000;stroke-width:1.0;"/><text fill="#000000" font-family="Verdana" font-size="14" lengthAdjust="spacing" textLength="67.3135" x="495" y="514.3931">Object ID</text><ellipse cx="488" cy="527.3398" fill="none" rx="3" ry="3" style="stroke:#000000;stroke-width:1.0;"/><text fill="#000000" font-family="Verdana" font-size="14" lengthAdjust="spacing" textLength="101.9717" x="495" y="531.4077">Instance Color</text><line style="stroke:#888888;stroke-width:1.0;stroke-dasharray:1.0,2.0;" x1="478" x2="563.6177" y1="440.7666" y2="440.7666"/><text fill="#000000" font-family="Verdana" font-size="14" lengthAdjust="spacing" textLength="63.2529" x="563.6177" y="445.8345">Uniforms</text><line style="stroke:#888888;stroke-width:1.0;stroke-dasharray:1.0,2.0;" x1="626.8706" x2="712.4883" y1="440.7666" y2="440.7666"/><ellipse cx="488" cy="565.3691" fill="#FFFFFF" rx="3" ry="3" style="stroke:#000000;stroke-width:1.0;"/><text fill="#000000" font-family="Verdana" font-size="14" lengthAdjust="spacing" textLength="174.8838" x="495" y="569.437">Bone Matrices (skinning)</text><ellipse cx="488" cy="582.3838" fill="none" rx="3" ry="3" style="stroke:#000000;stroke-width:1.0;"/><text fill="#000000" font-family="Verdana" font-size="14" lengthAdjust="spacing" textLength="105.1914" x="495" y="586.4517">Morph Weights</text><ellipse cx="488" cy="599.3984" fill="none" rx="3" ry="3" style="stroke:#000000;stroke-width:1.0;"/><text fill="#000000" font-family="Verdana" font-size="14" lengthAdjust="spacing" textLength="186.1016" x="495" y="603.4663">Custom Per-Instance Data</text><line style="stroke:#888888;stroke-width:1.0;stroke-dasharray:1.0,2.0;" x1="478" x2="545.6768" y1="546.8545" y2="546.8545"/><text fill="#000000" font-family="Verdana" font-size="14" lengthAdjust="spacing" textLength="99.1348" x="545.6768" y="551.9224">Dynamic Data</text><line style="stroke:#888888;stroke-width:1.0;stroke-dasharray:1.0,2.0;" x1="644.8115" x2="712.4883" y1="546.8545" y2="546.8545"/><line style="stroke:#888888;stroke-width:1.0;" x1="478" x2="712.4883" y1="610.4058" y2="610.4058"/><polygon fill="none" points="488,620.4131,484,626.4131,492,626.4131" style="stroke:#000000;stroke-width:1.0;"/><text fill="#000000" font-family="Verdana" font-size="14" lengthAdjust="spacing" textLength="212.4883" x="495" y="628.481">100-10000 updates per frame</text><polygon fill="none" points="488,637.4277,484,643.4277,492,643.4277" style="stroke:#000000;stroke-width:1.0;"/><text fill="#000000" font-family="Verdana" font-size="14" lengthAdjust="spacing" textLength="124.9404" x="495" y="645.4956">Unique per object</text></g><!--class S4--><g id="elem_S4"><rect codeLine="94" fill="#FFFFE8" height="150.0879" id="S4" rx="2.5" ry="2.5" style="stroke:#888888;stroke-width:1.0;" width="210.4883" x="680" y="94.7373"/><ellipse cx="726.0684" cy="108.7373" fill="#FFFFFF" rx="9" ry="9" style="stroke:#000000;stroke-width:1.0;"/><path d="M728.834,110.2686 L731.2246,111.0186 Q730.6777,113.0029 729.3965,113.9717 Q728.1309,114.9404 726.1621,114.9404 Q723.7402,114.9404 722.1777,113.2842 Q720.6309,111.6279 720.6309,108.7529 Q720.6309,105.7217 722.1934,104.0498 Q723.7559,102.3623 726.3184,102.3623 Q728.5527,102.3623 729.9434,103.6748 Q730.7715,104.4561 731.1934,105.9248 L728.7559,106.5029 Q728.5371,105.5498 727.8496,105.0029 Q727.1777,104.4561 726.1934,104.4561 Q724.834,104.4561 723.9902,105.4404 Q723.1621,106.4092 723.1621,108.5811 Q723.1621,110.8779 723.9902,111.8623 Q724.8184,112.8467 726.1465,112.8467 Q727.1309,112.8467 727.834,112.2217 Q728.5371,111.5967 728.834,110.2686 Z " fill="#000000"/><text fill="#000000" font-family="Verdana" font-size="14" lengthAdjust="spacing" textLength="110.8516" x="743.5684" y="114.3052">Set 4: Per-View</text><line style="stroke:#888888;stroke-width:1.0;" x1="681" x2="889.4883" y1="122.7373" y2="122.7373"/><ellipse cx="691" cy="157.7593" fill="none" rx="3" ry="3" style="stroke:#000000;stroke-width:1.0;"/><text fill="#000000" font-family="Verdana" font-size="14" lengthAdjust="spacing" textLength="81.9561" x="698" y="161.8271">View Matrix</text><ellipse cx="691" cy="174.7739" fill="none" rx="3" ry="3" style="stroke:#000000;stroke-width:1.0;"/><text fill="#000000" font-family="Verdana" font-size="14" lengthAdjust="spacing" textLength="118.8291" x="698" y="178.8418">Projection Matrix</text><ellipse cx="691" cy="191.7886" fill="none" rx="3" ry="3" style="stroke:#000000;stroke-width:1.0;"/><text fill="#000000" font-family="Verdana" font-size="14" lengthAdjust="spacing" textLength="135.8984" x="698" y="195.8564">Viewport Rectangle</text><ellipse cx="691" cy="208.8032" fill="none" rx="3" ry="3" style="stroke:#000000;stroke-width:1.0;"/><text fill="#000000" font-family="Verdana" font-size="14" lengthAdjust="spacing" textLength="108.2744" x="698" y="212.8711">Frustum Planes</text><line style="stroke:#888888;stroke-width:1.0;" x1="681" x2="734.8188" y1="139.2446" y2="139.2446"/><line style="stroke:#888888;stroke-width:1.0;" x1="681" x2="734.8188" y1="141.2446" y2="141.2446"/><text fill="#000000" font-family="Verdana" font-size="14" lengthAdjust="spacing" textLength="100.8506" x="734.8188" y="144.3125">Multi-viewport</text><line style="stroke:#888888;stroke-width:1.0;" x1="835.6694" x2="889.4883" y1="139.2446" y2="139.2446"/><line style="stroke:#888888;stroke-width:1.0;" x1="835.6694" x2="889.4883" y1="141.2446" y2="141.2446"/><line style="stroke:#888888;stroke-width:1.0;" x1="681" x2="889.4883" y1="219.8105" y2="219.8105"/><text fill="#000000" font-family="Verdana" font-size="14" lengthAdjust="spacing" textLength="198.4883" x="686" y="237.8857">For: Editor, VR, Split-screen</text></g><!--class S5--><g id="elem_S5"><rect codeLine="104" fill="#F0E8FF" height="150.0879" id="S5" rx="2.5" ry="2.5" style="stroke:#888888;stroke-width:1.0;" width="196.8711" x="920.5" y="94.7373"/><ellipse cx="958.9976" cy="108.7373" fill="#FFFFFF" rx="9" ry="9" style="stroke:#000000;stroke-width:1.0;"/><path d="M961.7632,110.2686 L964.1538,111.0186 Q963.6069,113.0029 962.3257,113.9717 Q961.0601,114.9404 959.0913,114.9404 Q956.6694,114.9404 955.1069,113.2842 Q953.5601,111.6279 953.5601,108.7529 Q953.5601,105.7217 955.1226,104.0498 Q956.6851,102.3623 959.2476,102.3623 Q961.4819,102.3623 962.8726,103.6748 Q963.7007,104.4561 964.1226,105.9248 L961.6851,106.5029 Q961.4663,105.5498 960.7788,105.0029 Q960.1069,104.4561 959.1226,104.4561 Q957.7632,104.4561 956.9194,105.4404 Q956.0913,106.4092 956.0913,108.5811 Q956.0913,110.8779 956.9194,111.8623 Q957.7476,112.8467 959.0757,112.8467 Q960.0601,112.8467 960.7632,112.2217 Q961.4663,111.5967 961.7632,110.2686 Z " fill="#000000"/><text fill="#000000" font-family="Verdana" font-size="14" lengthAdjust="spacing" textLength="112.376" x="976.4976" y="114.3052">Set 5: Per-Light</text><line style="stroke:#888888;stroke-width:1.0;" x1="921.5" x2="1116.3711" y1="122.7373" y2="122.7373"/><ellipse cx="931.5" cy="157.7593" fill="none" rx="3" ry="3" style="stroke:#000000;stroke-width:1.0;"/><text fill="#000000" font-family="Verdana" font-size="14" lengthAdjust="spacing" textLength="163.7549" x="938.5" y="161.8271">Light Position/Direction</text><ellipse cx="931.5" cy="174.7739" fill="none" rx="3" ry="3" style="stroke:#000000;stroke-width:1.0;"/><text fill="#000000" font-family="Verdana" font-size="14" lengthAdjust="spacing" textLength="145.0039" x="938.5" y="178.8418">Light Color/Intensity</text><ellipse cx="931.5" cy="191.7886" fill="none" rx="3" ry="3" style="stroke:#000000;stroke-width:1.0;"/><text fill="#000000" font-family="Verdana" font-size="14" lengthAdjust="spacing" textLength="171.8623" x="938.5" y="195.8564">Light Range/Attenuation</text><ellipse cx="931.5" cy="208.8032" fill="none" rx="3" ry="3" style="stroke:#000000;stroke-width:1.0;"/><text fill="#000000" font-family="Verdana" font-size="14" lengthAdjust="spacing" textLength="134.3877" x="938.5" y="212.8711">Shadow Map Index</text><line style="stroke:#888888;stroke-width:1.0;" x1="921.5" x2="943.2344" y1="139.2446" y2="139.2446"/><line style="stroke:#888888;stroke-width:1.0;" x1="921.5" x2="943.2344" y1="141.2446" y2="141.2446"/><text fill="#000000" font-family="Verdana" font-size="14" lengthAdjust="spacing" textLength="151.4023" x="943.2344" y="144.3125">Forward+ / Clustered</text><line style="stroke:#888888;stroke-width:1.0;" x1="1094.6367" x2="1116.3711" y1="139.2446" y2="139.2446"/><line style="stroke:#888888;stroke-width:1.0;" x1="1094.6367" x2="1116.3711" y1="141.2446" y2="141.2446"/><line style="stroke:#888888;stroke-width:1.0;" x1="921.5" x2="1116.3711" y1="219.8105" y2="219.8105"/><text fill="#000000" font-family="Verdana" font-size="14" lengthAdjust="spacing" textLength="184.8711" x="926.5" y="237.8857">For: Many lights scenarios</text></g><!--class VS--><g id="elem_VS"><rect codeLine="118" fill="#F8F8F8" height="112.0586" id="VS" rx="2.5" ry="2.5" style="stroke:#888888;stroke-width:1.0;" width="191.6924" x="240" y="113.7373"/><ellipse cx="281.6846" cy="127.7373" fill="#FFFFFF" rx="9" ry="9" style="stroke:#000000;stroke-width:1.0;"/><path d="M284.4502,129.2686 L286.8408,130.0186 Q286.2939,132.0029 285.0127,132.9717 Q283.7471,133.9404 281.7783,133.9404 Q279.3564,133.9404 277.7939,132.2842 Q276.2471,130.6279 276.2471,127.7529 Q276.2471,124.7217 277.8096,123.0498 Q279.3721,121.3623 281.9346,121.3623 Q284.1689,121.3623 285.5596,122.6748 Q286.3877,123.4561 286.8096,124.9248 L284.3721,125.5029 Q284.1533,124.5498 283.4658,124.0029 Q282.7939,123.4561 281.8096,123.4561 Q280.4502,123.4561 279.6064,124.4404 Q278.7783,125.4092 278.7783,127.5811 Q278.7783,129.8779 279.6064,130.8623 Q280.4346,131.8467 281.7627,131.8467 Q282.7471,131.8467 283.4502,131.2217 Q284.1533,130.5967 284.4502,129.2686 Z " fill="#000000"/><text fill="#000000" font-family="Verdana" font-size="14" lengthAdjust="spacing" textLength="100.8232" x="299.1846" y="133.3052">Vertex Shader</text><line style="stroke:#888888;stroke-width:1.0;" x1="241" x2="430.6924" y1="141.7373" y2="141.7373"/><text fill="#000000" font-family="Verdana" font-size="14" lengthAdjust="spacing" textLength="119.5332" x="258" y="159.8125">Uses: Set 0, 1, 3</text><ellipse cx="251" cy="172.7593" fill="none" rx="3" ry="3" style="stroke:#000000;stroke-width:1.0;"/><text fill="#000000" font-family="Verdana" font-size="14" lengthAdjust="spacing" textLength="131.9814" x="258" y="176.8271">Transform vertices</text><ellipse cx="251" cy="189.7739" fill="none" rx="3" ry="3" style="stroke:#000000;stroke-width:1.0;"/><text fill="#000000" font-family="Verdana" font-size="14" lengthAdjust="spacing" textLength="167.6924" x="258" y="193.8418">Calculate world position</text><ellipse cx="251" cy="206.7886" fill="none" rx="3" ry="3" style="stroke:#000000;stroke-width:1.0;"/><text fill="#000000" font-family="Verdana" font-size="14" lengthAdjust="spacing" textLength="119.6563" x="258" y="210.8564">Pass to fragment</text><line style="stroke:#888888;stroke-width:1.0;" x1="241" x2="430.6924" y1="217.7959" y2="217.7959"/></g><!--class FS--><g id="elem_FS"><rect codeLine="125" fill="#F8F8F8" height="112.0586" id="FS" rx="2.5" ry="2.5" style="stroke:#888888;stroke-width:1.0;" width="162.4482" x="462" y="113.7373"/><ellipse cx="480.4751" cy="127.7373" fill="#FFFFFF" rx="9" ry="9" style="stroke:#000000;stroke-width:1.0;"/><path d="M483.2408,129.2686 L485.6314,130.0186 Q485.0845,132.0029 483.8033,132.9717 Q482.5376,133.9404 480.5689,133.9404 Q478.147,133.9404 476.5845,132.2842 Q475.0376,130.6279 475.0376,127.7529 Q475.0376,124.7217 476.6001,123.0498 Q478.1626,121.3623 480.7251,121.3623 Q482.9595,121.3623 484.3501,122.6748 Q485.1783,123.4561 485.6001,124.9248 L483.1626,125.5029 Q482.9439,124.5498 482.2564,124.0029 Q481.5845,123.4561 480.6001,123.4561 Q479.2408,123.4561 478.397,124.4404 Q477.5689,125.4092 477.5689,127.5811 Q477.5689,129.8779 478.397,130.8623 Q479.2251,131.8467 480.5533,131.8467 Q481.5376,131.8467 482.2408,131.2217 Q482.9439,130.5967 483.2408,129.2686 Z " fill="#000000"/><text fill="#000000" font-family="Verdana" font-size="14" lengthAdjust="spacing" textLength="122.2813" x="493.6918" y="133.3052">Fragment Shader</text><line style="stroke:#888888;stroke-width:1.0;" x1="463" x2="623.4482" y1="141.7373" y2="141.7373"/><text fill="#000000" font-family="Verdana" font-size="14" lengthAdjust="spacing" textLength="138.4482" x="480" y="159.8125">Uses: Set 0, 1, 2, 3</text><ellipse cx="473" cy="172.7593" fill="none" rx="3" ry="3" style="stroke:#000000;stroke-width:1.0;"/><text fill="#000000" font-family="Verdana" font-size="14" lengthAdjust="spacing" textLength="115.5479" x="480" y="176.8271">Sample textures</text><ellipse cx="473" cy="189.7739" fill="none" rx="3" ry="3" style="stroke:#000000;stroke-width:1.0;"/><text fill="#000000" font-family="Verdana" font-size="14" lengthAdjust="spacing" textLength="121.4131" x="480" y="193.8418">Calculate lighting</text><ellipse cx="473" cy="206.7886" fill="none" rx="3" ry="3" style="stroke:#000000;stroke-width:1.0;"/><text fill="#000000" font-family="Verdana" font-size="14" lengthAdjust="spacing" textLength="87.5205" x="480" y="210.8564">Output color</text><line style="stroke:#888888;stroke-width:1.0;" x1="463" x2="623.4482" y1="217.7959" y2="217.7959"/></g><g id="elem_GMN18"><path d="M25.5,740.7373 L25.5,798.1353 A0,0 0 0 0 25.5,798.1353 L224.355,798.1353 A0,0 0 0 0 224.355,798.1353 L224.355,750.7373 L214.355,740.7373 L129,740.7373 L125,669.8173 L121,740.7373 L25.5,740.7373 A0,0 0 0 0 25.5,740.7373 " fill="#FFFFFF" style="stroke:#000000;stroke-width:1.0;"/><path d="M214.355,740.7373 L214.355,750.7373 L224.355,750.7373 L214.355,740.7373 " fill="#FFFFFF" style="stroke:#000000;stroke-width:1.0;"/><text fill="#000000" font-family="Verdana" font-size="13" lengthAdjust="spacing" textLength="150.979" x="31.5" y="758.8071">Least frequent updates</text><text fill="#000000" font-family="Verdana" font-size="13" lengthAdjust="spacing" textLength="115.9209" x="31.5" y="774.6064">Largest resources</text><text fill="#000000" font-family="Verdana" font-size="13" lengthAdjust="spacing" textLength="177.855" x="31.5" y="790.4058">Shared across entire frame</text></g><g id="elem_GMN21"><path d="M511,740.7373 L511,798.1353 A0,0 0 0 0 511,798.1353 L679.0371,798.1353 A0,0 0 0 0 679.0371,798.1353 L679.0371,750.7373 L669.0371,740.7373 L599,740.7373 L595,652.8173 L591,740.7373 L511,740.7373 A0,0 0 0 0 511,740.7373 " fill="#FFFFFF" style="stroke:#000000;stroke-width:1.0;"/><path d="M669.0371,740.7373 L669.0371,750.7373 L679.0371,750.7373 L669.0371,740.7373 " fill="#FFFFFF" style="stroke:#000000;stroke-width:1.0;"/><text fill="#000000" font-family="Verdana" font-size="13" lengthAdjust="spacing" textLength="147.0371" x="517" y="758.8071">Most frequent updates</text><text fill="#000000" font-family="Verdana" font-size="13" lengthAdjust="spacing" textLength="89.521" x="517" y="774.6064">Smallest data</text><text fill="#000000" font-family="Verdana" font-size="13" lengthAdjust="spacing" textLength="131.4282" x="517" y="790.4058">Use dynamic offsets</text></g><!--link S0 to S1--><g id="link_S0_S1"><path codeLine="88" d="M214.78,511.7373 C224.78,511.7373 228.77,511.7373 238.77,511.7373 " fill="none" id="S0-to-S1" style="stroke:#666666;stroke-width:1.0;"/><polygon fill="#666666" points="244.77,511.7373,235.77,507.7373,239.77,511.7373,235.77,515.7373,244.77,511.7373" style="stroke:#666666;stroke-width:1.0;"/></g><!--link S1 to S2--><g id="link_S1_S2"><path codeLine="89" d="M392.13,370.5773 C410.9,336.9573 436.76,306.3273 472,290.7373 C497,279.6773 693,279.6773 718,290.7373 C747.37,303.7273 767.1923,321.9452 785.3823,348.5352 " fill="none" id="S1-to-S2" style="stroke:#666666;stroke-width:1.0;"/><polygon fill="#666666" points="788.77,353.4873,786.9899,343.8007,785.9469,349.3605,780.387,348.3176,788.77,353.4873" style="stroke:#666666;stroke-width:1.0;"/></g><!--link S2 to S3--><g id="link_S2_S3"><path codeLine="90" d="M742.8,511.7373 C732.89,511.7373 728.98,511.7373 719.07,511.7373 " fill="none" id="S2-to-S3" style="stroke:#666666;stroke-width:1.0;"/><polygon fill="#666666" points="713.07,511.7373,722.07,515.7373,718.07,511.7373,722.07,507.7373,713.07,511.7373" style="stroke:#666666;stroke-width:1.0;"/></g><!--link S4 to S5--><!--link VS to FS--><!--link VS to S0--><g id="link_VS_S0"><path codeLine="140" d="M287.05,225.7973 C268.07,248.4873 246.89,275.5573 230,301.7373 C219.43,318.1173 212.0284,330.4383 202.2684,348.2083 " fill="none" id="VS-to-S0" style="stroke:#666666;stroke-width:1.0;stroke-dasharray:7.0,7.0;"/><polygon fill="#666666" points="199.38,353.4673,207.2187,347.5045,201.787,349.0848,200.2067,343.6532,199.38,353.4673" style="stroke:#666666;stroke-width:1.0;"/><text fill="#000000" font-family="Verdana" font-size="13" lengthAdjust="spacing" textLength="35.9722" x="247" y="290.8071">reads</text></g><!--link VS to S3--><g id="link_VS_S3"><path codeLine="141" d="M363.77,225.8573 C378.73,250.1973 399.4,277.0173 425,293.7373 C439.09,302.9373 448.2,292.1173 462,301.7373 C487.76,319.6873 506.2223,339.4558 524.3523,365.6158 " fill="none" id="VS-to-S3" style="stroke:#666666;stroke-width:1.0;stroke-dasharray:7.0,7.0;"/><polygon fill="#666666" points="527.77,370.5473,525.9311,360.8716,524.9219,366.4378,519.3558,365.4286,527.77,370.5473" style="stroke:#666666;stroke-width:1.0;"/><text fill="#000000" font-family="Verdana" font-size="13" lengthAdjust="spacing" textLength="35.9722" x="426" y="290.8071">reads</text></g><!--link FS to S2--><g id="link_FS_S2"><path codeLine="142" d="M606.77,225.8073 C625.03,240.5073 645.34,255.8673 665,268.7373 C691.45,286.0473 705.18,279.8673 728,301.7373 C743.97,317.0373 755.0689,329.9882 768.0689,348.7182 " fill="none" id="FS-to-S2" style="stroke:#666666;stroke-width:1.0;stroke-dasharray:7.0,7.0;"/><polygon fill="#666666" points="771.49,353.6473,769.6443,343.9729,768.639,349.5397,763.0722,348.5345,771.49,353.6473" style="stroke:#666666;stroke-width:1.0;"/><text fill="#000000" font-family="Verdana" font-size="13" lengthAdjust="spacing" textLength="35.9722" x="718" y="290.8071">reads</text></g><!--link FS to S1--><g id="link_FS_S1"><path codeLine="143" d="M508.13,225.8373 C493.61,249.1073 476.74,276.5973 462,301.7373 C449.04,323.8473 438.5167,342.2151 425.5567,365.3051 " fill="none" id="FS-to-S1" style="stroke:#666666;stroke-width:1.0;stroke-dasharray:7.0,7.0;"/><polygon fill="#666666" points="422.62,370.5373,430.5132,364.6469,425.0673,366.1772,423.537,360.7312,422.62,370.5373" style="stroke:#666666;stroke-width:1.0;"/><text fill="#000000" font-family="Verdana" font-size="13" lengthAdjust="spacing" textLength="35.9722" x="476" y="290.8071">reads</text></g><!--SRC=[bLVRRkCs47ttLqop3zt5HealIM04s0MIEDe6YDU6vQGFJHzeQMopAvCgIILnY-stToZAZamfDmamRCwGdCkPC-DVp19N25dAk6Zf7rnaJB4Lp5ZyOw5aBf8BcKe57y9B-rOqufHfVLvJwzktfYPLWgfKwVUhyenEO0ki7zIcWyAA8bDAFfJ2avEJYaJ813Lcq6ktMeQR5662MkOgHZZd8k5Y0KDIII60tpWgfk8bZraAaL5vR7A5hLPf1Up1TakeyEySHRpURbhlmOVBVdWKzk7V5j1Zv08fVAhyQP_2NTYBq43x5CQeWf1Cn3rW6g8skHLUzY_xbGts-V85RhA46Jo5aI2hCpfoRhUHP4Vnu01k19zBjTBqVKVq6MuvFi2G6SKVFSbOoRymDboAKWxWQLpGPOh1M6fkrJpfb9CfXp30r33xtHCN7i859S_urcuIqM3kjrJEA0dNVB4q6iwKOcjF8rgoH5gNiaRnrVarNEGpNB7CavnF1Y5StqpzywAp4NoNN2DCyR58V5KX27P-_WSTo8kiFEN3Ko035IOmMmDBKqAorgYtAZ-ttvh0qN7W6DE2mqR7OICCtu0DUzExe66lWUawmmR8P58Pk19pwSacAAXcOSeKWHmY_e-_kSXSSKHW0GOVTP6lJpLewPWbI5Sa-FWEV8mLtdEPQsSyAUQfqRwEr2R8bAG3h9vDaK6b6xmFT8Ond_DuathzSkvxmN6PVVri-WTyFaU5mW257P35oo8p7WBSvnluekiWGHMAYhFKmQ9hAUSrMC2gt0Fnaed5-sZZd6bRl9PNGnORgJpv40sXcmBNA9t8VB4KDloDukzqfsLQebiVFfShhZM_nwQDPF0cJIyQFAoLVdbXNR1n8tYokAuqYkCqruudi-VizKLrtcW7dNQxp8L-0tjmeGsZuduhUVGSKaOpo-eE9xsYDOKljPRBUrHhI1HxWDZorNj0ulfdOtFPHhonyPGr_C9-vmLS3NnwBuFYKksREbWBjY9G3fXX3H2H0jrjbbe-sb51K4__LFDAPKlu7OiMvDDMherS5N7UMc8lUotrHUuf-w-H1yMQnej2B8i8F4yRD3S4ojeOVAK-uPOwbQMkM-fMbdgjdvMXPfJPfcxh40srcs98soAbWgiZXojBwGvLHxOfUQWYH0s9YdbmlsaU5I0rJo4D4qYheGbDI8DAfi8KThQWFEIKXvI9IdrK0XzAHTXEE778FjnEzY7AKcu27Ij4uOUoukonSxReOixROpjrUbnBtj853qmbdsa2kY1s8AQbgjtnsNN2pV1qEE3A-LfJAQ1yU2KC2j9Tr-GJonY7PuRaEVDEg4n3kwtKZyMGYJMaRgpICGgckDGrJ1r1yCUI9mcAFxUeETv1pRVn3OnvXYcdOeeChHNOQTjt5pktg0m-5XQYAc9v6rLYU4DZqIaK8_4-TFQXL_5ggfZGbdI0sCdmAWVQqI6DyzHEO0zIfGba_dXQJZP6sX9RhB0SGEi93qjnrSRm9HkxksP6R9NH_mhZpmvL6ukG4yjKXAFSPBc1UCjW5SieHBKCX97DW91qsamQopzoRil_5AwHQPept7yIis6NEt5jnpEIgCqWTIVAli9Y9SbrqYOubXHKExf7HmzbuyaHiNfgZwRVx4vGW20fILVEvvgOfDNwbMesBO2gbppJBVBfuE2hirWXIvvMUjkLi5pfrbOwsvN_0G00]--></g></svg>