<svg xmlns="http://www.w3.org/2000/svg" xmlns:xlink="http://www.w3.org/1999/xlink" contentStyleType="text/css" height="1074px" preserveAspectRatio="none" style="width:1200px;height:1074px;background:#FEFEFE;" version="1.1" viewBox="0 0 1200 1074" width="1200px" zoomAndPan="magnify"><title>CommandRecorder State Flow</title><defs/><g><rect fill="#FEFEFE" height="1074" style="stroke:none;stroke-width:1.0;" width="1200" x="0" y="0"/><text fill="#000000" font-family="Verdana" font-size="22" font-weight="bold" lengthAdjust="spacing" textLength="373.5596" x="408.864" y="37.1182">CommandRecorder State Flow</text><ellipse cx="1031.5" cy="68.7373" fill="#FFFFFF" rx="10" ry="10" style="stroke:#000000;stroke-width:1.0;"/><g id="Idle"><rect fill="#F8F8F8" height="50" rx="12.5" ry="12.5" style="stroke:#888888;stroke-width:1.0;" width="50" x="1006.5" y="155.7373"/><line style="stroke:#888888;stroke-width:1.0;" x1="1006.5" x2="1056.5" y1="182.752" y2="182.752"/><text fill="#000000" font-family="Verdana" font-size="14" lengthAdjust="spacing" textLength="26.7969" x="1018.1016" y="174.8125">Idle</text></g><path d="M567,282.7373 L884.3193,282.7373 A12.5,12.5 0 0 1 896.8193,295.2373 L896.8193,309.752 L554.5,309.752 L554.5,295.2373 A12.5,12.5 0 0 1 567,282.7373 " fill="#F8F8F8" style="stroke:#F8F8F8;stroke-width:1.0;"/><path d="M554.5,309.752 L896.8193,309.752 L896.8193,456.0186 A12.5,12.5 0 0 1 884.3193,468.5186 L567,468.5186 A12.5,12.5 0 0 1 554.5,456.0186 L554.5,309.752 " fill="#FFFFFF" style="stroke:#FFFFFF;stroke-width:1.0;"/><rect fill="none" height="185.7813" rx="12.5" ry="12.5" style="stroke:#888888;stroke-width:1.0;" width="342.3193" x="554.5" y="282.7373"/><line style="stroke:#888888;stroke-width:1.0;" x1="554.5" x2="896.8193" y1="309.752" y2="309.752"/><text fill="#000000" font-family="Verdana" font-size="14" lengthAdjust="spacing" textLength="69.9863" x="690.6665" y="301.8125">Recording</text><ellipse cx="644.5" cy="330.752" fill="#FFFFFF" rx="10" ry="10" style="stroke:#000000;stroke-width:1.0;"/><g id="Recording.Ready"><rect fill="#F8F8F8" height="80.7666" rx="12.5" ry="12.5" style="stroke:#888888;stroke-width:1.0;" width="155.6211" x="566.5" y="377.752"/><line style="stroke:#888888;stroke-width:1.0;" x1="566.5" x2="722.1211" y1="404.7666" y2="404.7666"/><text fill="#000000" font-family="Verdana" font-size="14" lengthAdjust="spacing" textLength="43.4902" x="622.5654" y="396.8271">Ready</text><text fill="#000000" font-family="Verdana" font-size="12" lengthAdjust="spacing" textLength="135.6211" x="571.5" y="421.8311">Can begin render pass</text><text fill="#000000" font-family="Verdana" font-size="12" lengthAdjust="spacing" textLength="131.4199" x="571.5" y="436.415">Can update resources</text><text fill="#000000" font-family="Verdana" font-size="12" lengthAdjust="spacing" textLength="109.5527" x="571.5" y="450.999">Can copy textures</text></g><!--link *start*Recording to Ready--><g id="link_*start*Recording_Ready"><path d="M644.5,340.902 C644.5,349.772 644.5,357.872 644.5,371.542 " fill="none" id="*start*Recording-to-Ready" style="stroke:#000000;stroke-width:1.0;"/><polygon fill="#000000" points="644.5,377.542,648.5,368.542,644.5,372.542,640.5,368.542,644.5,377.542" style="stroke:#000000;stroke-width:1.0;"/></g><!--link Ready to Ready--><g id="link_Ready_Ready"><path d="M722.85,408.602 C733.44,410.222 740.5,413.442 740.5,418.252 C740.5,423.062 739.371,425.3747 728.781,426.9947 " fill="none" id="Ready-to-Ready" style="stroke:#000000;stroke-width:1.0;"/><polygon fill="#000000" points="722.85,427.902,732.3514,430.495,727.7925,427.1459,731.1416,422.587,722.85,427.902" style="stroke:#000000;stroke-width:1.0;"/><text fill="#000000" font-family="Verdana" font-size="13" lengthAdjust="spacing" textLength="135.3193" x="746.5" y="423.8218">Resource Operations</text></g><ellipse cx="1008.5" cy="1057.7373" fill="none" rx="11" ry="11" style="stroke:#000000;stroke-width:1.0;"/><ellipse cx="1008.5" cy="1057.7373" fill="#FFFFFF" rx="6" ry="6" style="stroke:#000000;stroke-width:1.0;"/><path d="M317.5,545.7373 L803.7046,545.7373 A12.5,12.5 0 0 1 816.2046,558.2373 L816.2046,572.752 L305,572.752 L305,558.2373 A12.5,12.5 0 0 1 317.5,545.7373 " fill="#F8F8F8" style="stroke:#F8F8F8;stroke-width:1.0;"/><path d="M305,572.752 L816.2046,572.752 L816.2046,791.4458 A12.5,12.5 0 0 1 803.7046,803.9458 L317.5,803.9458 A12.5,12.5 0 0 1 305,791.4458 L305,572.752 " fill="#FFFFFF" style="stroke:#FFFFFF;stroke-width:1.0;"/><rect fill="none" height="258.2085" rx="12.5" ry="12.5" style="stroke:#888888;stroke-width:1.0;" width="511.2046" x="305" y="545.7373"/><line style="stroke:#888888;stroke-width:1.0;" x1="305" x2="816.2046" y1="572.752" y2="572.752"/><text fill="#000000" font-family="Verdana" font-size="14" lengthAdjust="spacing" textLength="96.1611" x="512.5217" y="564.8125">InRenderPass</text><ellipse cx="380.5" cy="593.752" fill="#FFFFFF" rx="10" ry="10" style="stroke:#000000;stroke-width:1.0;"/><g id="InRenderPass.Drawing"><rect fill="#F8F8F8" height="109.9346" rx="12.5" ry="12.5" style="stroke:#888888;stroke-width:1.0;" width="126.957" x="317" y="661.752"/><line style="stroke:#888888;stroke-width:1.0;" x1="317" x2="443.957" y1="688.7666" y2="688.7666"/><text fill="#000000" font-family="Verdana" font-size="14" lengthAdjust="spacing" textLength="58.0508" x="351.4531" y="680.8271">Drawing</text><text fill="#000000" font-family="Verdana" font-size="12" lengthAdjust="spacing" textLength="77.4609" x="322" y="705.8311">SetPipeline()</text><text fill="#000000" font-family="Verdana" font-size="12" lengthAdjust="spacing" textLength="94.3477" x="322" y="720.415">SetBindGroup()</text><text fill="#000000" font-family="Verdana" font-size="12" lengthAdjust="spacing" textLength="106.957" x="322" y="734.999">SetVertexBuffer()</text><text fill="#000000" font-family="Verdana" font-size="12" lengthAdjust="spacing" textLength="42.293" x="322" y="749.583">Draw()</text><text fill="#000000" font-family="Verdana" font-size="12" lengthAdjust="spacing" textLength="91.2891" x="322" y="764.167">DrawIndexed()</text></g><g id="elem_GMN25"><path d="M603.5,640.752 L603.5,712.752 L444.29,716.752 L603.5,720.752 L603.5,792.9458 A0,0 0 0 0 603.5,792.9458 L807.2046,792.9458 A0,0 0 0 0 807.2046,792.9458 L807.2046,650.752 L797.2046,640.752 L603.5,640.752 A0,0 0 0 0 603.5,640.752 " fill="#FFFFFF" style="stroke:#000000;stroke-width:1.0;"/><path d="M797.2046,640.752 L797.2046,650.752 L807.2046,650.752 L797.2046,640.752 " fill="#FFFFFF" style="stroke:#000000;stroke-width:1.0;"/><text fill="#000000" font-family="Verdana" font-size="13" font-weight="bold" lengthAdjust="spacing" textLength="126.4453" x="609.5" y="658.8218">Valid Operations:</text><text fill="#000000" font-family="Verdana" font-size="13" lengthAdjust="spacing" textLength="138.5884" x="609.5" y="674.6211">- All draw commands</text><text fill="#000000" font-family="Verdana" font-size="13" lengthAdjust="spacing" textLength="156.1904" x="609.5" y="690.4204">- Pipeline state changes</text><text fill="#000000" font-family="Verdana" font-size="13" lengthAdjust="spacing" textLength="129.4414" x="609.5" y="706.2197">- Resource bindings</text><text fill="#000000" font-family="Verdana" font-size="13" lengthAdjust="spacing" textLength="4.5703" x="609.5" y="722.019">&#160;</text><text fill="#000000" font-family="Verdana" font-size="13" font-weight="bold" lengthAdjust="spacing" textLength="141.3242" x="609.5" y="737.8184">Invalid Operations:</text><text fill="#000000" font-family="Verdana" font-size="13" lengthAdjust="spacing" textLength="182.7046" x="609.5" y="753.6177">- BeginRenderPass (nested)</text><text fill="#000000" font-family="Verdana" font-size="13" lengthAdjust="spacing" textLength="127.4609" x="609.5" y="769.417">- Resource creation</text><text fill="#000000" font-family="Verdana" font-size="13" lengthAdjust="spacing" textLength="106.4883" x="609.5" y="785.2163">- Buffer updates</text></g><!--link *start*InRenderPass to Drawing--><g id="link_*start*InRenderPass_Drawing"><path d="M380.5,603.842 C380.5,616.272 380.5,633.522 380.5,655.632 " fill="none" id="*start*InRenderPass-to-Drawing" style="stroke:#000000;stroke-width:1.0;"/><polygon fill="#000000" points="380.5,661.632,384.5,652.632,380.5,656.632,376.5,652.632,380.5,661.632" style="stroke:#000000;stroke-width:1.0;"/></g><!--link Drawing to Drawing--><g id="link_Drawing_Drawing"><path d="M444.06,700.372 C454.67,702.662 462,708.122 462,716.752 C462,725.382 460.5349,729.5761 449.9249,731.8661 " fill="none" id="Drawing-to-Drawing" style="stroke:#000000;stroke-width:1.0;"/><polygon fill="#000000" points="444.06,733.132,453.7013,735.1431,448.9475,732.0771,452.0135,727.3232,444.06,733.132" style="stroke:#000000;stroke-width:1.0;"/><text fill="#000000" font-family="Verdana" font-size="13" lengthAdjust="spacing" textLength="111.7441" x="468" y="722.3218">Draw Commands</text></g><g id="Finished"><rect fill="#F8F8F8" height="50" rx="12.5" ry="12.5" style="stroke:#888888;stroke-width:1.0;" width="77.8047" x="992.5" y="649.7373"/><line style="stroke:#888888;stroke-width:1.0;" x1="992.5" x2="1070.3047" y1="676.752" y2="676.752"/><text fill="#000000" font-family="Verdana" font-size="14" lengthAdjust="spacing" textLength="57.8047" x="1002.5" y="668.8125">Finished</text></g><g id="Error"><rect fill="#F8F8F8" height="50" rx="12.5" ry="12.5" style="stroke:#888888;stroke-width:1.0;" width="55.2734" x="774" y="900.2373"/><line style="stroke:#888888;stroke-width:1.0;" x1="774" x2="829.2734" y1="927.252" y2="927.252"/><text fill="#000000" font-family="Verdana" font-size="14" lengthAdjust="spacing" textLength="35.2734" x="784" y="919.3125">Error</text></g><g id="Submitted"><rect fill="#F8F8F8" height="50" rx="12.5" ry="12.5" style="stroke:#888888;stroke-width:1.0;" width="92.707" x="968" y="900.2373"/><line style="stroke:#888888;stroke-width:1.0;" x1="968" x2="1060.707" y1="927.252" y2="927.252"/><text fill="#000000" font-family="Verdana" font-size="14" lengthAdjust="spacing" textLength="72.707" x="978" y="919.3125">Submitted</text></g><g id="elem_GMN33"><path d="M512.5,880.7373 L512.5,969.7339 A0,0 0 0 0 512.5,969.7339 L738.5991,969.7339 A0,0 0 0 0 738.5991,969.7339 L738.5991,929.2373 L773.98,925.2373 L738.5991,921.2373 L738.5991,890.7373 L728.5991,880.7373 L512.5,880.7373 A0,0 0 0 0 512.5,880.7373 " fill="#FFFFFF" style="stroke:#000000;stroke-width:1.0;"/><path d="M728.5991,880.7373 L728.5991,890.7373 L738.5991,890.7373 L728.5991,880.7373 " fill="#FFFFFF" style="stroke:#000000;stroke-width:1.0;"/><text fill="#000000" font-family="Verdana" font-size="13" font-weight="bold" lengthAdjust="spacing" textLength="118.606" x="518.5" y="898.8071">Common Errors:</text><text fill="#000000" font-family="Verdana" font-size="13" lengthAdjust="spacing" textLength="205.0991" x="518.5" y="914.6064">- BeginRenderPass without End</text><text fill="#000000" font-family="Verdana" font-size="13" lengthAdjust="spacing" textLength="153.0356" x="518.5" y="930.4058">- Draw without pipeline</text><text fill="#000000" font-family="Verdana" font-size="13" lengthAdjust="spacing" textLength="157.7329" x="518.5" y="946.2051">- Finish with active pass</text><text fill="#000000" font-family="Verdana" font-size="13" lengthAdjust="spacing" textLength="112.271" x="518.5" y="962.0044">- Use after Finish</text></g><g id="elem_GMN36"><path d="M11,638.2373 L11,711.4346 L269.7578,711.4346 L269.7578,648.2373 L259.7578,638.2373 L11,638.2373 " fill="#FFFFFF" style="stroke:#000000;stroke-width:1.0;"/><path d="M259.7578,638.2373 L259.7578,648.2373 L269.7578,648.2373 L259.7578,638.2373 " fill="#FFFFFF" style="stroke:#000000;stroke-width:1.0;"/><text fill="#000000" font-family="Verdana" font-size="13" font-weight="bold" lengthAdjust="spacing" textLength="135.7764" x="17" y="656.3071">RenderPass Rules:</text><text fill="#000000" font-family="Verdana" font-size="13" lengthAdjust="spacing" textLength="208.2285" x="17" y="672.1064">- Must explicitly EndRenderPass</text><text fill="#000000" font-family="Verdana" font-size="13" lengthAdjust="spacing" textLength="237.7578" x="17" y="687.9058">- No auto-close on BeginRenderPass</text><text fill="#000000" font-family="Verdana" font-size="13" lengthAdjust="spacing" textLength="212.1006" x="17" y="703.7051">- No auto-close on Finish (error)</text></g><!--link *start* to Idle--><g id="link_*start*_Idle"><path d="M1031.5,78.7373 C1031.5,95.3673 1031.5,125.3973 1031.5,149.6073 " fill="none" id="*start*-to-Idle" style="stroke:#000000;stroke-width:1.0;"/><polygon fill="#000000" points="1031.5,155.6073,1035.5,146.6073,1031.5,150.6073,1027.5,146.6073,1031.5,155.6073" style="stroke:#000000;stroke-width:1.0;"/><text fill="#000000" font-family="Verdana" font-size="13" lengthAdjust="spacing" textLength="43.0435" x="1032.5" y="122.8071">Create</text></g><!--link Idle to Recording--><g id="link_Idle_Recording"><path d="M1006.46,197.5273 C976.34,216.5273 928.4048,246.7563 876.4848,279.5063 " fill="none" id="Idle-to-Recording" style="stroke:#000000;stroke-width:1.0;"/><polygon fill="#000000" points="871.41,282.7073,881.1562,281.2889,875.639,280.0398,876.8881,274.5225,871.41,282.7073" style="stroke:#000000;stroke-width:1.0;"/><text fill="#000000" font-family="Verdana" font-size="13" lengthAdjust="spacing" textLength="48.3564" x="942.5" y="249.8071">Begin()</text></g><!--link Idle to *end*--><g id="link_Idle_*end*"><path d="M1055.96,205.7873 C1088.1,240.0673 1140.5,306.4373 1140.5,374.7373 C1140.5,374.7373 1140.5,374.7373 1140.5,926.2373 C1140.5,967.6273 1146.11,985.8973 1118.5,1016.7373 C1091.93,1046.4073 1047.5464,1053.5658 1025.3964,1055.5358 " fill="none" id="Idle-to-*end*" style="stroke:#000000;stroke-width:1.0;"/><polygon fill="#000000" points="1019.42,1056.0673,1028.739,1059.2543,1024.4003,1055.6244,1028.0303,1051.2857,1019.42,1056.0673" style="stroke:#000000;stroke-width:1.0;"/><text fill="#000000" font-family="Verdana" font-size="13" lengthAdjust="spacing" textLength="50.7876" x="1141.5" y="680.3071">Destroy</text></g><!--link Recording to InRenderPass--><g id="link_Recording_InRenderPass"><path d="M577.45,469.0573 C569.7,478.2473 562.9,488.1373 557.5,498.7373 C550.12,513.2173 546.6673,523.3403 544.6973,539.7003 " fill="none" id="Recording-to-InRenderPass" style="stroke:#000000;stroke-width:1.0;"/><polygon fill="#000000" points="543.98,545.6573,549.0273,537.2001,544.5778,540.6932,541.0847,536.2436,543.98,545.6573" style="stroke:#000000;stroke-width:1.0;"/><text fill="#000000" font-family="Verdana" font-size="13" lengthAdjust="spacing" textLength="123.9507" x="558.5" y="512.8071">BeginRenderPass()</text></g><!--link InRenderPass to Recording--><g id="link_InRenderPass_Recording"><path d="M669.33,545.4773 C675.57,535.6973 681.38,525.7273 686.5,515.7373 C693.98,501.1273 698.375,490.6062 703.475,474.5362 " fill="none" id="InRenderPass-to-Recording" style="stroke:#000000;stroke-width:1.0;"/><polygon fill="#000000" points="705.29,468.8173,698.755,476.1857,703.7775,473.5831,706.3802,478.6056,705.29,468.8173" style="stroke:#000000;stroke-width:1.0;"/><text fill="#000000" font-family="Verdana" font-size="13" lengthAdjust="spacing" textLength="111.9473" x="694.5" y="512.8071">EndRenderPass()</text></g><!--link Recording to Finished--><g id="link_Recording_Finished"><path d="M889.73,468.9073 C920.52,491.2573 950.53,517.0873 974.5,545.7373 C1000.57,576.8973 1015.168,616.1167 1023.358,643.6267 " fill="none" id="Recording-to-Finished" style="stroke:#000000;stroke-width:1.0;"/><polygon fill="#000000" points="1025.07,649.3773,1026.3357,639.6101,1023.6433,644.5852,1018.6683,641.8928,1025.07,649.3773" style="stroke:#000000;stroke-width:1.0;"/><text fill="#000000" font-family="Verdana" font-size="13" lengthAdjust="spacing" textLength="49.6387" x="942.5" y="512.8071">Finish()</text></g><!--link InRenderPass to InRenderPass--><g id="link_InRenderPass_InRenderPass"><path d="M816.41,650.6773 C837.73,655.8573 851,663.8773 851,674.7373 C851,685.5973 843.5604,692.2007 822.2404,697.3807 " fill="none" id="InRenderPass-to-InRenderPass" style="stroke:#000000;stroke-width:1.0;"/><polygon fill="#000000" points="816.41,698.7973,826.1,700.5594,821.2686,697.6168,824.2112,692.7855,816.41,698.7973" style="stroke:#000000;stroke-width:1.0;"/><text fill="#000000" font-family="Verdana" font-size="13" lengthAdjust="spacing" textLength="111.7441" x="857" y="680.3071">Draw Commands</text></g><!--link InRenderPass to Error--><g id="link_InRenderPass_Error"><path d="M684.88,803.9873 C720.56,840.7773 751.6136,872.7894 773.8536,895.7294 " fill="none" id="InRenderPass-to-Error" style="stroke:#000000;stroke-width:1.0;"/><polygon fill="#000000" points="778.03,900.0373,774.6373,890.7912,774.5497,896.4474,768.8935,896.3598,778.03,900.0373" style="stroke:#000000;stroke-width:1.0;"/><text fill="#000000" font-family="Verdana" font-size="13" lengthAdjust="spacing" textLength="113.2422" x="725.5" y="847.8071">Invalid Operation</text></g><!--link Finished to Idle--><g id="link_Finished_Idle"><path d="M1031.5,649.7173 C1031.5,566.2573 1031.5,295.3373 1031.5,211.7973 " fill="none" id="Finished-to-Idle" style="stroke:#000000;stroke-width:1.0;"/><polygon fill="#000000" points="1031.5,205.7973,1027.5,214.7973,1031.5,210.7973,1035.5,214.7973,1031.5,205.7973" style="stroke:#000000;stroke-width:1.0;"/><text fill="#000000" font-family="Verdana" font-size="13" lengthAdjust="spacing" textLength="48.2295" x="1034.052" y="373.3071">Reset()</text><text fill="#000000" font-family="Verdana" font-size="13" lengthAdjust="spacing" textLength="51.3335" x="1032.5" y="389.1064">(Reuse)</text></g><!--link Finished to Submitted--><g id="link_Finished_Submitted"><path d="M1029.84,700.0173 C1026.58,747.6473 1019.8003,846.8213 1016.5503,894.2413 " fill="none" id="Finished-to-Submitted" style="stroke:#000000;stroke-width:1.0;"/><polygon fill="#000000" points="1016.14,900.2273,1020.746,891.5219,1016.4819,895.239,1012.7647,890.9749,1016.14,900.2273" style="stroke:#000000;stroke-width:1.0;"/><text fill="#000000" font-family="Verdana" font-size="13" lengthAdjust="spacing" textLength="58.354" x="1021.5" y="847.8071">Submit()</text></g><!--link Submitted to *end*--><g id="link_Submitted_*end*"><path d="M1010.29,950.3773 C1007.56,968.5773 1004.66,994.1773 1005.5,1016.7373 C1005.88,1026.8973 1006.2601,1032.5016 1006.9901,1040.5816 " fill="none" id="Submitted-to-*end*" style="stroke:#000000;stroke-width:1.0;"/><polygon fill="#000000" points="1007.53,1046.5573,1010.704,1037.2339,1007.0801,1041.5776,1002.7364,1037.9537,1007.53,1046.5573" style="stroke:#000000;stroke-width:1.0;"/><text fill="#000000" font-family="Verdana" font-size="13" lengthAdjust="spacing" textLength="107.6753" x="1006.5" y="1013.8071">Frame Complete</text></g><!--link Error to *end*--><g id="link_Error_*end*"><path d="M829.22,946.8373 C855.3,965.8673 895.73,994.4673 932.5,1016.7373 C955.71,1030.7973 978.932,1042.4578 993.542,1049.5478 " fill="none" id="Error-to-*end*" style="stroke:#000000;stroke-width:1.0;"/><polygon fill="#000000" points="998.94,1052.1673,992.5894,1044.6393,994.4417,1049.9844,989.0967,1051.8366,998.94,1052.1673" style="stroke:#000000;stroke-width:1.0;"/><text fill="#000000" font-family="Verdana" font-size="13" lengthAdjust="spacing" textLength="63.3369" x="933.5" y="1013.8071">Exception</text></g><!--link Recording to GMN36--><g id="link_Recording_GMN36"><path d="M554.29,427.3073 C470.64,455.8073 370.4,495.7773 287.5,545.7373 C244.75,571.4973 202.46,610.0673 174.3,638.1273 " fill="none" id="Recording-GMN36" style="stroke:#000000;stroke-width:1.0;stroke-dasharray:7.0,7.0;"/></g><!--SRC=[TLHDZnen3BtdLxZg1P2u8mwL2WlL7jgk1dKlRGzXOY3QJ39ACWkewd-layptK91Gi5_ivvUyVF0NB11AnQLcxatgabjUm97dRsThAYssHXaB7_UxyEqXdESUDnFOAdmdC6C5sXgoMgqOyz8hXAqf2gv5Xda4m260OQ_CbR6VYz-mN7w2Pq70DMmjKewn-3V4qoQfpvJSu5dgsRnBXirhU4BdhRaprc5ZHPsXfdOltBbcSnUXCaFuNchfBYW8cfQ4O8CQOpgxC5AltWGyOl1a-RNHmatHEsj9jpNjUkTA2lXUekLU6irOLBVN-my3-ZJIPSZ5FKRYAgZ8DHp3l61Z3oYfoGHHbIAKjUXCPNES0d9Jti7ZpLTsa6sR4YwhTtTq7VlRC1xCE2GTnA1HOgnUKxK3-XTPef8QIT19RYEr-4Bti7oKV4LBN3VLwOHsaW-hXy5dudT3CShr64uEBk3YZpP1FNc-U32dmK3XirYy3e_HhHUBDhk4pqg128NpVk6KQpH8jeBymlKP-u1MzICfGbsxNA__v2AD68mS0JDDHa8nVzGd3xuCTx6tFIfTtw94W6f5LS8DQFtKSpULGp-R_zAp32k7yo7eK1qBwNsqO5e72tRHpl5xUdBYir8g3Az5iawNtzroB9DruY4fFCKpYZYMr0ddQNGAjS9CHRbAVp6L3sQl4V4sDE6oFgawb-Q9MU2vb-_OMMy9Fnm2FtaIBU5OgrUYUJJUco8GRQrUa-qHoYg5FRvVA-S1RwMIERsrz-6ZL6E-6U2LDyjS6M90Gu-6_1-idcQ6GQDvn_OV]--></g></svg>