<svg xmlns="http://www.w3.org/2000/svg" xmlns:xlink="http://www.w3.org/1999/xlink" contentStyleType="text/css" height="756px" preserveAspectRatio="none" style="width:1096px;height:756px;background:#FEFEFE;" version="1.1" viewBox="0 0 1096 756" width="1096px" zoomAndPan="magnify"><title>Command-Based Renderer Architecture</title><defs/><g><rect fill="#FEFEFE" height="756" style="stroke:none;stroke-width:1.0;" width="1096" x="0" y="0"/><text fill="#000000" font-family="Verdana" font-size="22" font-weight="bold" lengthAdjust="spacing" textLength="490.3594" x="298.6062" y="37.1182">Command-Based Renderer Architecture</text><!--cluster Application Layer--><g id="cluster_Application Layer"><path d="M686.5,58.7373 L824.2803,58.7373 A3.75,3.75 0 0 1 826.7803,61.2373 L833.7803,81.752 L948.5,81.752 A2.5,2.5 0 0 1 951,84.252 L951,155.2373 A2.5,2.5 0 0 1 948.5,157.7373 L686.5,157.7373 A2.5,2.5 0 0 1 684,155.2373 L684,61.2373 A2.5,2.5 0 0 1 686.5,58.7373 " fill="#E8F4F8" style="stroke:#000000;stroke-width:1.0;"/><line style="stroke:#000000;stroke-width:1.0;" x1="684" x2="833.7803" y1="81.752" y2="81.752"/><text fill="#000000" font-family="Verdana" font-size="14" font-weight="bold" lengthAdjust="spacing" textLength="136.7803" x="688" y="74.8125">Application Layer</text></g><!--cluster Renderer Core--><g id="cluster_Renderer Core"><path d="M639.5,217.7373 L753.8057,217.7373 A3.75,3.75 0 0 1 756.3057,220.2373 L763.3057,240.752 L979.5,240.752 A2.5,2.5 0 0 1 982,243.252 L982,460.2373 A2.5,2.5 0 0 1 979.5,462.7373 L639.5,462.7373 A2.5,2.5 0 0 1 637,460.2373 L637,220.2373 A2.5,2.5 0 0 1 639.5,217.7373 " fill="#FFE8E8" style="stroke:#000000;stroke-width:1.0;"/><line style="stroke:#000000;stroke-width:1.0;" x1="637" x2="763.3057" y1="240.752" y2="240.752"/><text fill="#000000" font-family="Verdana" font-size="14" font-weight="bold" lengthAdjust="spacing" textLength="113.3057" x="641" y="233.8125">Renderer Core</text></g><!--cluster Resource Management--><g id="cluster_Resource Management"><path d="M223.5,511.7373 L403.4102,511.7373 A3.75,3.75 0 0 1 405.9102,514.2373 L412.9102,534.752 L944.5,534.752 A2.5,2.5 0 0 1 947,537.252 L947,608.2373 A2.5,2.5 0 0 1 944.5,610.7373 L223.5,610.7373 A2.5,2.5 0 0 1 221,608.2373 L221,514.2373 A2.5,2.5 0 0 1 223.5,511.7373 " fill="#E8FFE8" style="stroke:#000000;stroke-width:1.0;"/><line style="stroke:#000000;stroke-width:1.0;" x1="221" x2="412.9102" y1="534.752" y2="534.752"/><text fill="#000000" font-family="Verdana" font-size="14" font-weight="bold" lengthAdjust="spacing" textLength="178.9102" x="225" y="527.8125">Resource Management</text></g><!--cluster GPU Backend--><g id="cluster_GPU Backend"><path d="M13.5,363.7373 L118.9736,363.7373 A3.75,3.75 0 0 1 121.4736,366.2373 L128.4736,386.752 L194.5,386.752 A2.5,2.5 0 0 1 197,389.252 L197,747.2373 A2.5,2.5 0 0 1 194.5,749.7373 L13.5,749.7373 A2.5,2.5 0 0 1 11,747.2373 L11,366.2373 A2.5,2.5 0 0 1 13.5,363.7373 " fill="#E8E8FF" style="stroke:#000000;stroke-width:1.0;"/><line style="stroke:#000000;stroke-width:1.0;" x1="11" x2="128.4736" y1="386.752" y2="386.752"/><text fill="#000000" font-family="Verdana" font-size="14" font-weight="bold" lengthAdjust="spacing" textLength="104.4736" x="15" y="379.8125">GPU Backend</text></g><!--entity App--><g id="elem_App"><rect fill="#F8F8F8" height="47.0146" rx="2.5" ry="2.5" style="stroke:#888888;stroke-width:1.0;" width="117.1162" x="817.5" y="94.7373"/><rect fill="#F8F8F8" height="10" style="stroke:#888888;stroke-width:1.0;" width="15" x="914.6162" y="99.7373"/><rect fill="#F8F8F8" height="2" style="stroke:#888888;stroke-width:1.0;" width="4" x="912.6162" y="101.7373"/><rect fill="#F8F8F8" height="2" style="stroke:#888888;stroke-width:1.0;" width="4" x="912.6162" y="105.7373"/><text fill="#000000" font-family="Verdana" font-size="14" lengthAdjust="spacing" textLength="77.1162" x="832.5" y="128.8125">Application</text></g><!--entity Scene--><g id="elem_Scene"><rect fill="#F8F8F8" height="47.0146" rx="2.5" ry="2.5" style="stroke:#888888;stroke-width:1.0;" width="82.4033" x="700" y="94.7373"/><rect fill="#F8F8F8" height="10" style="stroke:#888888;stroke-width:1.0;" width="15" x="762.4033" y="99.7373"/><rect fill="#F8F8F8" height="2" style="stroke:#888888;stroke-width:1.0;" width="4" x="760.4033" y="101.7373"/><rect fill="#F8F8F8" height="2" style="stroke:#888888;stroke-width:1.0;" width="4" x="760.4033" y="105.7373"/><text fill="#000000" font-family="Verdana" font-size="14" lengthAdjust="spacing" textLength="42.4033" x="715" y="128.8125">Scene</text></g><!--entity Renderer--><g id="elem_Renderer"><rect fill="#F8F8F8" height="47.0146" rx="2.5" ry="2.5" style="stroke:#888888;stroke-width:1.0;" width="104.2852" x="862" y="253.7373"/><rect fill="#F8F8F8" height="10" style="stroke:#888888;stroke-width:1.0;" width="15" x="946.2852" y="258.7373"/><rect fill="#F8F8F8" height="2" style="stroke:#888888;stroke-width:1.0;" width="4" x="944.2852" y="260.7373"/><rect fill="#F8F8F8" height="2" style="stroke:#888888;stroke-width:1.0;" width="4" x="944.2852" y="264.7373"/><text fill="#000000" font-family="Verdana" font-size="14" lengthAdjust="spacing" textLength="64.2852" x="877" y="287.8125">Renderer</text></g><!--entity SwapChain--><g id="elem_SwapChain"><rect fill="#F8F8F8" height="47.0146" rx="2.5" ry="2.5" style="stroke:#888888;stroke-width:1.0;" width="117.9023" x="848" y="399.7373"/><rect fill="#F8F8F8" height="10" style="stroke:#888888;stroke-width:1.0;" width="15" x="945.9023" y="404.7373"/><rect fill="#F8F8F8" height="2" style="stroke:#888888;stroke-width:1.0;" width="4" x="943.9023" y="406.7373"/><rect fill="#F8F8F8" height="2" style="stroke:#888888;stroke-width:1.0;" width="4" x="943.9023" y="410.7373"/><text fill="#000000" font-family="Verdana" font-size="14" lengthAdjust="spacing" textLength="77.9023" x="863" y="433.8125">SwapChain</text></g><!--entity CmdRec--><g id="elem_CmdRec"><rect fill="#F8F8F8" height="47.0146" rx="2.5" ry="2.5" style="stroke:#888888;stroke-width:1.0;" width="174.374" x="653" y="253.7373"/><rect fill="#F8F8F8" height="10" style="stroke:#888888;stroke-width:1.0;" width="15" x="807.374" y="258.7373"/><rect fill="#F8F8F8" height="2" style="stroke:#888888;stroke-width:1.0;" width="4" x="805.374" y="260.7373"/><rect fill="#F8F8F8" height="2" style="stroke:#888888;stroke-width:1.0;" width="4" x="805.374" y="264.7373"/><text fill="#000000" font-family="Verdana" font-size="14" lengthAdjust="spacing" textLength="134.374" x="668" y="287.8125">CommandRecorder</text></g><!--entity FrameMgr--><g id="elem_FrameMgr"><rect fill="#F8F8F8" height="47.0146" rx="2.5" ry="2.5" style="stroke:#888888;stroke-width:1.0;" width="144.8975" x="785.5" y="547.7373"/><rect fill="#F8F8F8" height="10" style="stroke:#888888;stroke-width:1.0;" width="15" x="910.3975" y="552.7373"/><rect fill="#F8F8F8" height="2" style="stroke:#888888;stroke-width:1.0;" width="4" x="908.3975" y="554.7373"/><rect fill="#F8F8F8" height="2" style="stroke:#888888;stroke-width:1.0;" width="4" x="908.3975" y="558.7373"/><text fill="#000000" font-family="Verdana" font-size="14" lengthAdjust="spacing" textLength="104.8975" x="800.5" y="581.8125">FrameManager</text></g><!--entity CmdPool--><g id="elem_CmdPool"><rect fill="#F8F8F8" height="47.0146" rx="2.5" ry="2.5" style="stroke:#888888;stroke-width:1.0;" width="140.7754" x="437.5" y="547.7373"/><rect fill="#F8F8F8" height="10" style="stroke:#888888;stroke-width:1.0;" width="15" x="558.2754" y="552.7373"/><rect fill="#F8F8F8" height="2" style="stroke:#888888;stroke-width:1.0;" width="4" x="556.2754" y="554.7373"/><rect fill="#F8F8F8" height="2" style="stroke:#888888;stroke-width:1.0;" width="4" x="556.2754" y="558.7373"/><text fill="#000000" font-family="Verdana" font-size="14" lengthAdjust="spacing" textLength="100.7754" x="452.5" y="581.8125">CommandPool</text></g><!--entity RT--><g id="elem_RT"><rect fill="#F8F8F8" height="47.0146" rx="2.5" ry="2.5" style="stroke:#888888;stroke-width:1.0;" width="135.5596" x="614" y="547.7373"/><rect fill="#F8F8F8" height="10" style="stroke:#888888;stroke-width:1.0;" width="15" x="729.5596" y="552.7373"/><rect fill="#F8F8F8" height="2" style="stroke:#888888;stroke-width:1.0;" width="4" x="727.5596" y="554.7373"/><rect fill="#F8F8F8" height="2" style="stroke:#888888;stroke-width:1.0;" width="4" x="727.5596" y="558.7373"/><text fill="#000000" font-family="Verdana" font-size="14" lengthAdjust="spacing" textLength="95.5596" x="629" y="581.8125">RenderTarget</text></g><!--entity ResMgr--><g id="elem_ResMgr"><rect fill="#F8F8F8" height="47.0146" rx="2.5" ry="2.5" style="stroke:#888888;stroke-width:1.0;" width="164.8447" x="237.5" y="547.7373"/><rect fill="#F8F8F8" height="10" style="stroke:#888888;stroke-width:1.0;" width="15" x="382.3447" y="552.7373"/><rect fill="#F8F8F8" height="2" style="stroke:#888888;stroke-width:1.0;" width="4" x="380.3447" y="554.7373"/><rect fill="#F8F8F8" height="2" style="stroke:#888888;stroke-width:1.0;" width="4" x="380.3447" y="558.7373"/><text fill="#000000" font-family="Verdana" font-size="14" lengthAdjust="spacing" textLength="124.8447" x="252.5" y="581.8125">ResourceManager</text></g><!--entity Device--><g id="elem_Device"><rect fill="#F8F8F8" height="47.0146" rx="2.5" ry="2.5" style="stroke:#888888;stroke-width:1.0;" width="86.8877" x="66.5" y="399.7373"/><rect fill="#F8F8F8" height="10" style="stroke:#888888;stroke-width:1.0;" width="15" x="133.3877" y="404.7373"/><rect fill="#F8F8F8" height="2" style="stroke:#888888;stroke-width:1.0;" width="4" x="131.3877" y="406.7373"/><rect fill="#F8F8F8" height="2" style="stroke:#888888;stroke-width:1.0;" width="4" x="131.3877" y="410.7373"/><text fill="#000000" font-family="Verdana" font-size="14" lengthAdjust="spacing" textLength="46.8877" x="81.5" y="433.8125">Device</text></g><!--entity Queue--><g id="elem_Queue"><rect fill="#F8F8F8" height="47.0146" rx="2.5" ry="2.5" style="stroke:#888888;stroke-width:1.0;" width="85.418" x="50.5" y="547.7373"/><rect fill="#F8F8F8" height="10" style="stroke:#888888;stroke-width:1.0;" width="15" x="115.918" y="552.7373"/><rect fill="#F8F8F8" height="2" style="stroke:#888888;stroke-width:1.0;" width="4" x="113.918" y="554.7373"/><rect fill="#F8F8F8" height="2" style="stroke:#888888;stroke-width:1.0;" width="4" x="113.918" y="558.7373"/><text fill="#000000" font-family="Verdana" font-size="14" lengthAdjust="spacing" textLength="45.418" x="65.5" y="581.8125">Queue</text></g><!--entity CmdBuf--><g id="elem_CmdBuf"><rect fill="#F8F8F8" height="47.0146" rx="2.5" ry="2.5" style="stroke:#888888;stroke-width:1.0;" width="154.1123" x="27" y="686.7373"/><rect fill="#F8F8F8" height="10" style="stroke:#888888;stroke-width:1.0;" width="15" x="161.1123" y="691.7373"/><rect fill="#F8F8F8" height="2" style="stroke:#888888;stroke-width:1.0;" width="4" x="159.1123" y="693.7373"/><rect fill="#F8F8F8" height="2" style="stroke:#888888;stroke-width:1.0;" width="4" x="159.1123" y="697.7373"/><text fill="#000000" font-family="Verdana" font-size="14" lengthAdjust="spacing" textLength="114.1123" x="42" y="720.8125">CommandBuffer</text></g><g id="elem_GMN30"><path d="M471.5,81.7373 L471.5,154.9346 L634.2432,154.9346 L634.2432,91.7373 L624.2432,81.7373 L471.5,81.7373 " fill="#FFFFFF" style="stroke:#000000;stroke-width:1.0;"/><path d="M624.2432,81.7373 L624.2432,91.7373 L634.2432,91.7373 L624.2432,81.7373 " fill="#FFFFFF" style="stroke:#000000;stroke-width:1.0;"/><text fill="#000000" font-family="Verdana" font-size="13" lengthAdjust="spacing" textLength="62.9307" x="477.5" y="99.8071">Core API:</text><text fill="#000000" font-family="Verdana" font-size="13" lengthAdjust="spacing" textLength="137.249" x="477.5" y="115.6064">- Explicit RenderPass</text><text fill="#000000" font-family="Verdana" font-size="13" lengthAdjust="spacing" textLength="141.7432" x="477.5" y="131.4058">- nullptr = backbuffer</text><text fill="#000000" font-family="Verdana" font-size="13" lengthAdjust="spacing" textLength="113.7627" x="477.5" y="147.2051">- No hidden state</text></g><g id="elem_GMN33"><path d="M773,673.7373 L773,746.9346 A0,0 0 0 0 773,746.9346 L943.043,746.9346 A0,0 0 0 0 943.043,746.9346 L943.043,683.7373 L933.043,673.7373 L862,673.7373 L858,594.8573 L854,673.7373 L773,673.7373 A0,0 0 0 0 773,673.7373 " fill="#FFFFFF" style="stroke:#000000;stroke-width:1.0;"/><path d="M933.043,673.7373 L933.043,683.7373 L943.043,683.7373 L933.043,673.7373 " fill="#FFFFFF" style="stroke:#000000;stroke-width:1.0;"/><text fill="#000000" font-family="Verdana" font-size="13" lengthAdjust="spacing" textLength="106.4756" x="779" y="691.8071">Triple Buffering:</text><text fill="#000000" font-family="Verdana" font-size="13" lengthAdjust="spacing" textLength="130.9712" x="779" y="707.6064">Frame N: Recording</text><text fill="#000000" font-family="Verdana" font-size="13" lengthAdjust="spacing" textLength="143.8252" x="779" y="723.4058">Frame N-1: Executing</text><text fill="#000000" font-family="Verdana" font-size="13" lengthAdjust="spacing" textLength="149.043" x="779" y="739.2051">Frame N-2: Presenting</text></g><!--link App to Renderer--><g id="link_App_Renderer"><path d="M934.61,137.1773 C957.3,147.3073 980.93,162.5273 994,184.7373 C1009.31,210.7373 987.5677,232.9575 960.9677,250.3975 " fill="none" id="App-to-Renderer" style="stroke:#000000;stroke-width:1.0;"/><polygon fill="#000000" points="955.95,253.6873,965.6697,252.0977,960.1314,250.9458,961.2833,245.4075,955.95,253.6873" style="stroke:#000000;stroke-width:1.0;"/><text fill="#000000" font-family="Verdana" font-size="13" lengthAdjust="spacing" textLength="89.5718" x="999" y="198.8071">BeginFrame()</text></g><!--link App to Renderer--><g id="link_App_Renderer"><path d="M881.53,142.0673 C888.75,171.9173 899.9182,218.0658 907.1182,247.8058 " fill="none" id="App-to-Renderer-1" style="stroke:#000000;stroke-width:1.0;"/><polygon fill="#000000" points="908.53,253.6373,910.3,243.9488,907.3535,248.7777,902.5246,245.8312,908.53,253.6373" style="stroke:#000000;stroke-width:1.0;"/><text fill="#000000" font-family="Verdana" font-size="13" lengthAdjust="spacing" textLength="77.5684" x="896" y="198.8071">EndFrame()</text></g><!--link App to CmdRec--><g id="link_App_CmdRec"><path d="M840.88,141.7873 C828.17,149.6673 813.6,158.3673 800,165.7373 C782.69,175.1073 772.24,169.3273 760,184.7373 C744.42,204.3473 740.5797,227.4817 739.8097,247.5817 " fill="none" id="App-to-CmdRec" style="stroke:#000000;stroke-width:1.0;"/><polygon fill="#000000" points="739.58,253.5773,743.9216,244.737,739.7714,248.581,735.9275,244.4308,739.58,253.5773" style="stroke:#000000;stroke-width:1.0;"/><text fill="#000000" font-family="Verdana" font-size="13" lengthAdjust="spacing" textLength="122.8271" x="761" y="198.8071">Record Commands</text></g><!--link Renderer to SwapChain--><g id="link_Renderer_SwapChain"><path d="M912.89,301.0573 C911.58,328.0173 909.7016,366.6144 908.3916,393.5344 " fill="none" id="Renderer-to-SwapChain" style="stroke:#000000;stroke-width:1.0;"/><polygon fill="#000000" points="908.1,399.5273,912.5327,390.7324,908.343,394.5332,904.5422,390.3435,908.1,399.5273" style="stroke:#000000;stroke-width:1.0;"/><text fill="#000000" font-family="Verdana" font-size="13" lengthAdjust="spacing" textLength="132.7041" x="912" y="344.8071">AcquireNextImage()</text></g><!--link Renderer to CmdPool--><g id="link_Renderer_CmdPool"><path d="M861.82,295.9673 C856.17,297.6773 850.48,299.2973 845,300.7373 C724.43,332.3373 661.76,271.3773 570,355.7373 C514.64,406.6373 507.6032,497.5773 507.4332,541.5473 " fill="none" id="Renderer-to-CmdPool" style="stroke:#000000;stroke-width:1.0;"/><polygon fill="#000000" points="507.41,547.5473,511.4448,538.5628,507.4293,542.5473,503.4448,538.5319,507.41,547.5473" style="stroke:#000000;stroke-width:1.0;"/><text fill="#000000" font-family="Verdana" font-size="13" lengthAdjust="spacing" textLength="152.293" x="571" y="428.8071">Get CommandRecorder</text></g><!--link Renderer to FrameMgr--><g id="link_Renderer_FrameMgr"><path d="M861.98,295.8973 C818.95,311.6773 762.89,335.3873 750,355.7373 C722.65,398.9173 730.92,423.3173 750,470.7373 C763.27,503.7273 789.1995,526.9272 814.5495,544.2872 " fill="none" id="Renderer-to-FrameMgr" style="stroke:#000000;stroke-width:1.0;"/><polygon fill="#000000" points="819.5,547.6773,814.3344,539.2918,815.3746,544.8522,809.8142,545.8924,819.5,547.6773" style="stroke:#000000;stroke-width:1.0;"/><text fill="#000000" font-family="Verdana" font-size="13" lengthAdjust="spacing" textLength="79.6123" x="751" y="428.8071">Synchronize</text></g><!--link CmdRec to RT--><g id="link_CmdRec_RT"><path d="M652.8,282.3973 C529.98,289.1673 318.32,304.4973 295,330.7373 C270.1,358.7473 126.69,284.7773 300,470.7373 C345.12,519.1573 534.65,478.9073 596,503.7373 C620.32,513.5773 639.1909,528.2464 655.3809,543.3364 " fill="none" id="CmdRec-to-RT" style="stroke:#000000;stroke-width:1.0;"/><polygon fill="#000000" points="659.77,547.4273,655.9136,538.3648,656.1124,544.0182,650.459,544.217,659.77,547.4273" style="stroke:#000000;stroke-width:1.0;"/><text fill="#000000" font-family="Verdana" font-size="13" lengthAdjust="spacing" textLength="163.395" x="301" y="428.8071">BeginRenderPass(target)</text></g><!--link CmdRec to Scene--><g id="link_CmdRec_Scene"><path d="M661.07,253.5773 C622.44,238.1473 588.09,215.0273 608,184.7373 C619.7,166.9373 632.77,174.8973 652,165.7373 C667.74,158.2373 679.4531,152.3068 694.3531,144.4468 " fill="none" id="CmdRec-to-Scene" style="stroke:#000000;stroke-width:1.0;"/><polygon fill="#000000" points="699.66,141.6473,689.8334,142.3086,695.2376,143.9802,693.566,149.3844,699.66,141.6473" style="stroke:#000000;stroke-width:1.0;"/><text fill="#000000" font-family="Verdana" font-size="13" lengthAdjust="spacing" textLength="97.5825" x="609" y="198.8071">RenderScene()</text></g><!--link Renderer to Device--><g id="link_Renderer_Device"><path d="M862,296.7373 C856.31,298.2973 850.57,299.6773 845,300.7373 C575.42,352.0873 487.7,261.3873 230,355.7373 C199.47,366.9173 172.4728,381.905 149.1628,396.425 " fill="none" id="Renderer-to-Device" style="stroke:#000000;stroke-width:1.0;"/><polygon fill="#000000" points="144.07,399.5973,153.824,398.234,148.314,396.9537,149.5943,391.4436,144.07,399.5973" style="stroke:#000000;stroke-width:1.0;"/><text fill="#000000" font-family="Verdana" font-size="13" lengthAdjust="spacing" textLength="124.2808" x="303" y="344.8071">Submit Commands</text></g><!--link Device to Queue--><g id="link_Device_Queue"><path d="M107.34,447.0473 C104.15,474.4773 99.5127,514.2674 96.3327,541.6274 " fill="none" id="Device-to-Queue" style="stroke:#000000;stroke-width:1.0;"/><polygon fill="#000000" points="95.64,547.5873,100.6523,539.1093,96.2173,542.6207,92.7058,538.1857,95.64,547.5873" style="stroke:#000000;stroke-width:1.0;"/><text fill="#000000" font-family="Verdana" font-size="13" lengthAdjust="spacing" textLength="96.1353" x="104" y="492.8071">Submit to GPU</text></g><!--link Queue to CmdBuf--><g id="link_Queue_CmdBuf"><path d="M94.82,594.8573 C96.85,620.2473 99.6595,655.2066 101.6995,680.5966 " fill="none" id="Queue-to-CmdBuf" style="stroke:#000000;stroke-width:1.0;"/><polygon fill="#000000" points="102.18,686.5773,105.4464,677.2859,101.7796,681.5934,97.4721,677.9266,102.18,686.5773" style="stroke:#000000;stroke-width:1.0;"/><text fill="#000000" font-family="Verdana" font-size="13" lengthAdjust="spacing" textLength="51.5239" x="99" y="640.8071">Execute</text></g><!--link SwapChain to RT--><g id="link_SwapChain_RT"><path d="M864.11,446.7573 C836.16,461.9273 799.21,482.8873 768,503.7373 C747.6,517.3673 730.4106,530.531 713.8306,543.901 " fill="none" id="SwapChain-to-RT" style="stroke:#000000;stroke-width:1.0;"/><polygon fill="#000000" points="709.16,547.6673,718.6768,545.1315,713.0522,544.5287,713.655,538.904,709.16,547.6673" style="stroke:#000000;stroke-width:1.0;"/><text fill="#000000" font-family="Verdana" font-size="13" lengthAdjust="spacing" textLength="129.6699" x="806" y="492.8071">Provides Backbuffer</text></g><!--link GMN30 to CmdRec--><g id="link_GMN30_CmdRec"><path d="M564.84,154.8473 C571.48,170.6873 581.06,188.6673 594,201.7373 C616.52,224.4973 647.44,241.6373 675.03,253.7073 " fill="none" id="GMN30-CmdRec" style="stroke:#000000;stroke-width:1.0;stroke-dasharray:7.0,7.0;"/></g><!--SRC=[TLHDRzGm4BtxLmpjWVOG2H27g198kykcgWIhq2uduE1rPhDM4piuJZz0_U-CxNpj9aqkzlXbtfjvuxon1omHge9BnUfxgIfkU0axBkvpenkLhNIX3PmdQ_UE44ANbLQex782ZTqx2zKcGzF2udYCgIWBpt6Qx1qbInYpqXO8ArsMN6NHajUOmIqgIeS65aOSf4LX6uECjQdWR55LXHJSIgtWAtz6SmRdwpZvcCJmZm4zlJ3uESB-1bu3xJta57SdKA57-1Lx6V7rUbRQ874boJfUpt1rE9-csqo87dcrEf0hWQpRdSBQZjoYyBtru5NfzYVIQjqOWV2DAmgKz6reHZ8dC257C213nX38pIligTP5n-pMymLlkSdHXgAtKqWGE6QbcECSrt6T_W0t8vJGwtSLJFL_mGSfWajXUGhutc0JpltgbRAMpNu_j9HsJifRQg5Ki2_q8wCXWIZwF0pY5Imnbygtw-AoFm-6q6cmgHlZUYx1McNTvwmFEqm_0WHQY3-DDBZ19tjJKcC8V8HjVI3aDLeucP5ZQ6SjOU-UbJWOhUHVkaMjPgzksnKMlanvNLzOx-Rb6ETlXA_IeVnkKaNmmv4rkrBQeHNjWSDuJmQ8rK2sin1jgoCpNA-UK3IMn0wzwVMcHZ_836i_BZll96DAMwHy5UZzO8gxhR18Rwv-gOXIkly0iGwbkh1gYgAo1ZxvFsD8v-8R3GUPPQYWjjmfyGmxRQqk7ScekriZA_g5XQ6IAYSwVmgRRYuesCUYzrrvHz4FhZ2iQKefpFu3]--></g></svg>