<svg xmlns="http://www.w3.org/2000/svg" xmlns:xlink="http://www.w3.org/1999/xlink" contentStyleType="text/css" height="2072px" preserveAspectRatio="none" style="width:1203px;height:2072px;background:#FEFEFE;" version="1.1" viewBox="0 0 1203 2072" width="1203px" zoomAndPan="magnify"><title>Resource Binding Logic Flow</title><defs/><g><rect fill="#FEFEFE" height="2072" style="stroke:none;stroke-width:1.0;" width="1203" x="0" y="0"/><text fill="#000000" font-family="Verdana" font-size="22" font-weight="bold" lengthAdjust="spacing" textLength="354.0518" x="423.2396" y="37.1182">Resource Binding Logic Flow</text><ellipse cx="693.9849" cy="62.7373" fill="#FFFFFF" rx="10" ry="10" style="stroke:#000000;stroke-width:1.0;"/><path d="M761.9858,97.1296 L761.9858,106.0293 L741.9858,110.0293 L761.9858,114.0293 L761.9858,122.929 A0,0 0 0 0 761.9858,122.929 L948.7549,122.929 A0,0 0 0 0 948.7549,122.929 L948.7549,107.1296 L938.7549,97.1296 L761.9858,97.1296 A0,0 0 0 0 761.9858,97.1296 " fill="#FFFFFF" style="stroke:#000000;stroke-width:1.0;"/><path d="M938.7549,97.1296 L938.7549,107.1296 L948.7549,107.1296 L938.7549,97.1296 " fill="#FFFFFF" style="stroke:#000000;stroke-width:1.0;"/><text fill="#000000" font-family="Verdana" font-size="13" lengthAdjust="spacing" textLength="165.769" x="767.9858" y="115.1995">Acquire swapchain image</text><rect fill="#F8F8F8" height="34.584" rx="12.5" ry="12.5" style="stroke:#888888;stroke-width:1.0;" width="96.002" x="645.9839" y="92.7373"/><text fill="#000000" font-family="Verdana" font-size="12" lengthAdjust="spacing" textLength="76.002" x="655.9839" y="114.8018">Begin Frame</text><rect fill="#F8F8F8" height="34.584" rx="12.5" ry="12.5" style="stroke:#888888;stroke-width:1.0;" width="170.6973" x="608.6362" y="147.3213"/><text fill="#000000" font-family="Verdana" font-size="12" lengthAdjust="spacing" textLength="150.6973" x="618.6362" y="169.3857">Update Frame Resources</text><rect fill="#000000" height="6" rx="2.5" ry="2.5" style="stroke:#000000;stroke-width:1.0;" width="584.959" x="401.5054" y="201.9053"/><rect fill="#F8F8F8" height="34.584" rx="12.5" ry="12.5" style="stroke:#888888;stroke-width:1.0;" width="215.3574" x="415.5054" y="227.9053"/><text fill="#000000" font-family="Verdana" font-size="12" lengthAdjust="spacing" textLength="195.3574" x="425.5054" y="249.9697">Update View/Projection Matrices</text><rect fill="#F8F8F8" height="34.584" rx="12.5" ry="12.5" style="stroke:#888888;stroke-width:1.0;" width="140.4629" x="658.8628" y="227.9053"/><text fill="#000000" font-family="Verdana" font-size="12" lengthAdjust="spacing" textLength="120.4629" x="668.8628" y="249.9697">Update Time Values</text><rect fill="#F8F8F8" height="34.584" rx="12.5" ry="12.5" style="stroke:#888888;stroke-width:1.0;" width="145.1387" x="827.3257" y="227.9053"/><text fill="#000000" font-family="Verdana" font-size="12" lengthAdjust="spacing" textLength="125.1387" x="837.3257" y="249.9697">Update Global Lights</text><rect fill="#000000" height="6" rx="2.5" ry="2.5" style="stroke:#000000;stroke-width:1.0;" width="584.959" x="401.5054" y="282.4893"/><path d="M822.9116,312.8816 L822.9116,321.7813 L802.9116,325.7813 L822.9116,329.7813 L822.9116,338.6809 A0,0 0 0 0 822.9116,338.6809 L995.3667,338.6809 A0,0 0 0 0 995.3667,338.6809 L995.3667,322.8816 L985.3667,312.8816 L822.9116,312.8816 A0,0 0 0 0 822.9116,312.8816 " fill="#FFFFFF" style="stroke:#000000;stroke-width:1.0;"/><path d="M985.3667,312.8816 L985.3667,322.8816 L995.3667,322.8816 L985.3667,312.8816 " fill="#FFFFFF" style="stroke:#000000;stroke-width:1.0;"/><text fill="#000000" font-family="Verdana" font-size="13" lengthAdjust="spacing" textLength="151.4551" x="828.9116" y="330.9514">Set 0 - Once per frame</text><rect fill="#F8F8F8" height="34.584" rx="12.5" ry="12.5" style="stroke:#888888;stroke-width:1.0;" width="217.8535" x="585.0581" y="308.4893"/><text fill="#000000" font-family="Verdana" font-size="12" lengthAdjust="spacing" textLength="197.8535" x="595.0581" y="330.5537">Create/Update Frame BindGroup</text><path d="M489.0151,353.0732 L489.0151,442.0698 A0,0 0 0 0 489.0151,442.0698 L617.189,442.0698 A0,0 0 0 0 617.189,442.0698 L617.189,401.5715 L637.189,397.5715 L617.189,393.5715 L617.189,363.0732 L607.189,353.0732 L489.0151,353.0732 A0,0 0 0 0 489.0151,353.0732 " fill="#FFFFFF" style="stroke:#000000;stroke-width:1.0;"/><path d="M607.189,353.0732 L607.189,363.0732 L617.189,363.0732 L607.189,353.0732 " fill="#FFFFFF" style="stroke:#000000;stroke-width:1.0;"/><text fill="#000000" font-family="Verdana" font-size="13" lengthAdjust="spacing" textLength="53.7139" x="495.0151" y="371.1431">Sort by:</text><text fill="#000000" font-family="Verdana" font-size="13" lengthAdjust="spacing" textLength="97.7285" x="495.0151" y="386.9424">1. Render Pass</text><text fill="#000000" font-family="Verdana" font-size="13" lengthAdjust="spacing" textLength="107.1738" x="495.0151" y="402.7417">2. Pipeline State</text><text fill="#000000" font-family="Verdana" font-size="13" lengthAdjust="spacing" textLength="69.6846" x="495.0151" y="418.541">3. Material</text><text fill="#000000" font-family="Verdana" font-size="13" lengthAdjust="spacing" textLength="51.2637" x="495.0151" y="434.3403">4. Mesh</text><rect fill="#F8F8F8" height="34.584" rx="12.5" ry="12.5" style="stroke:#888888;stroke-width:1.0;" width="113.5918" x="637.189" y="380.2795"/><text fill="#000000" font-family="Verdana" font-size="12" lengthAdjust="spacing" textLength="93.5918" x="647.189" y="402.344">Sort Draw Calls</text><rect fill="#E8F4F8" height="1219.519" style="stroke:#000000;stroke-width:1.0;" width="1191.531" x="6" y="452.0698"/><path d="M168.1064,452.0698 L168.1064,462.0845 L158.1064,472.0845 L6,472.0845 " fill="none" style="stroke:#000000;stroke-width:1.0;"/><text fill="#000000" font-family="Verdana" font-size="14" lengthAdjust="spacing" textLength="152.1064" x="9" y="467.145">For Each Render Pass</text><rect fill="#F8F8F8" height="34.584" rx="12.5" ry="12.5" style="stroke:#888888;stroke-width:1.0;" width="131.9551" x="628.0073" y="489.0845"/><text fill="#000000" font-family="Verdana" font-size="12" lengthAdjust="spacing" textLength="111.9551" x="638.0073" y="511.1489">Begin Render Pass</text><rect fill="#F8F8F8" height="34.584" rx="12.5" ry="12.5" style="stroke:#888888;stroke-width:1.0;" width="141.8809" x="623.0444" y="543.6685"/><text fill="#000000" font-family="Verdana" font-size="12" lengthAdjust="spacing" textLength="121.8809" x="633.0444" y="565.7329">Configure Pass Data</text><rect fill="#000000" height="6" rx="2.5" ry="2.5" style="stroke:#000000;stroke-width:1.0;" width="519.4805" x="434.2446" y="598.2524"/><rect fill="#F8F8F8" height="34.584" rx="12.5" ry="12.5" style="stroke:#888888;stroke-width:1.0;" width="97.373" x="448.2446" y="624.2524"/><text fill="#000000" font-family="Verdana" font-size="12" lengthAdjust="spacing" textLength="77.373" x="458.2446" y="646.3169">Set Viewport</text><rect fill="#F8F8F8" height="34.584" rx="12.5" ry="12.5" style="stroke:#888888;stroke-width:1.0;" width="158.791" x="573.6177" y="624.2524"/><text fill="#000000" font-family="Verdana" font-size="12" lengthAdjust="spacing" textLength="138.791" x="583.6177" y="646.3169">Set Render Target Info</text><rect fill="#F8F8F8" height="34.584" rx="12.5" ry="12.5" style="stroke:#888888;stroke-width:1.0;" width="179.3164" x="760.4087" y="624.2524"/><text fill="#000000" font-family="Verdana" font-size="12" lengthAdjust="spacing" textLength="159.3164" x="770.4087" y="646.3169">Set Pass-specific Uniforms</text><rect fill="#000000" height="6" rx="2.5" ry="2.5" style="stroke:#000000;stroke-width:1.0;" width="519.4805" x="434.2446" y="678.8364"/><path d="M786.6567,709.2288 L786.6567,718.1284 L766.6567,722.1284 L786.6567,726.1284 L786.6567,735.0281 A0,0 0 0 0 786.6567,735.0281 L912.4438,735.0281 A0,0 0 0 0 912.4438,735.0281 L912.4438,719.2288 L902.4438,709.2288 L786.6567,709.2288 A0,0 0 0 0 786.6567,709.2288 " fill="#FFFFFF" style="stroke:#000000;stroke-width:1.0;"/><path d="M902.4438,709.2288 L902.4438,719.2288 L912.4438,719.2288 L902.4438,709.2288 " fill="#FFFFFF" style="stroke:#000000;stroke-width:1.0;"/><text fill="#000000" font-family="Verdana" font-size="13" lengthAdjust="spacing" textLength="104.7871" x="792.6567" y="727.2986">Set 1 - Per pass</text><rect fill="#F8F8F8" height="34.584" rx="12.5" ry="12.5" style="stroke:#888888;stroke-width:1.0;" width="145.3438" x="621.313" y="704.8364"/><text fill="#000000" font-family="Verdana" font-size="12" lengthAdjust="spacing" textLength="125.3438" x="631.313" y="726.9009">Bind Pass BindGroup</text><rect fill="#FFE8E8" height="855.5845" style="stroke:#000000;stroke-width:1.0;" width="1171.531" x="16" y="749.4204"/><path d="M192.5029,749.4204 L192.5029,759.4351 L182.5029,769.4351 L16,769.4351 " fill="none" style="stroke:#000000;stroke-width:1.0;"/><text fill="#000000" font-family="Verdana" font-size="14" lengthAdjust="spacing" textLength="166.5029" x="19" y="764.4956">For Each Material Batch</text><polygon fill="#F8F8F8" points="642.7661,786.4351,745.2036,786.4351,757.2036,798.4351,745.2036,810.4351,642.7661,810.4351,630.7661,798.4351,642.7661,786.4351" style="stroke:#888888;stroke-width:1.0;"/><text fill="#000000" font-family="Verdana" font-size="11" lengthAdjust="spacing" textLength="102.4375" x="642.7661" y="802.8098">Material Changed?</text><text fill="#000000" font-family="Verdana" font-size="11" lengthAdjust="spacing" textLength="18.7935" x="611.9727" y="796.1255">yes</text><text fill="#000000" font-family="Verdana" font-size="11" lengthAdjust="spacing" textLength="13.6372" x="757.2036" y="796.1255">no</text><rect fill="#F8F8F8" height="34.584" rx="12.5" ry="12.5" style="stroke:#888888;stroke-width:1.0;" width="133.584" x="369.4775" y="820.4351"/><text fill="#000000" font-family="Verdana" font-size="12" lengthAdjust="spacing" textLength="113.584" x="379.4775" y="842.4995">Load Material Data</text><rect fill="#000000" height="6" rx="2.5" ry="2.5" style="stroke:#000000;stroke-width:1.0;" width="827.5391" x="28" y="875.019"/><rect fill="#F8F8F8" height="34.584" rx="12.5" ry="12.5" style="stroke:#888888;stroke-width:1.0;" width="155.627" x="254.7627" y="901.019"/><text fill="#000000" font-family="Verdana" font-size="12" lengthAdjust="spacing" textLength="135.627" x="264.7627" y="923.0835">Bind Material Textures</text><rect fill="#000000" height="6" rx="2.5" ry="2.5" style="stroke:#000000;stroke-width:1.0;" width="594.1523" x="40" y="964.395"/><rect fill="#F8F8F8" height="34.584" rx="12.5" ry="12.5" style="stroke:#888888;stroke-width:1.0;" width="84.4121" x="52" y="990.395"/><text fill="#000000" font-family="Verdana" font-size="12" lengthAdjust="spacing" textLength="64.4121" x="62" y="1012.4595">Base Color</text><rect fill="#F8F8F8" height="34.584" rx="12.5" ry="12.5" style="stroke:#888888;stroke-width:1.0;" width="92.5684" x="157.4121" y="990.395"/><text fill="#000000" font-family="Verdana" font-size="12" lengthAdjust="spacing" textLength="72.5684" x="167.4121" y="1012.4595">Normal Map</text><rect fill="#F8F8F8" height="34.584" rx="12.5" ry="12.5" style="stroke:#888888;stroke-width:1.0;" width="136.3145" x="277.9805" y="990.395"/><text fill="#000000" font-family="Verdana" font-size="12" lengthAdjust="spacing" textLength="116.3145" x="287.9805" y="1012.4595">Metallic/Roughness</text><rect fill="#F8F8F8" height="34.584" rx="12.5" ry="12.5" style="stroke:#888888;stroke-width:1.0;" width="77.2578" x="442.2949" y="990.395"/><text fill="#000000" font-family="Verdana" font-size="12" lengthAdjust="spacing" textLength="57.2578" x="452.2949" y="1012.4595">Occlusion</text><rect fill="#F8F8F8" height="34.584" rx="12.5" ry="12.5" style="stroke:#888888;stroke-width:1.0;" width="72.5996" x="547.5527" y="990.395"/><text fill="#000000" font-family="Verdana" font-size="12" lengthAdjust="spacing" textLength="52.5996" x="557.5527" y="1012.4595">Emissive</text><rect fill="#000000" height="6" rx="2.5" ry="2.5" style="stroke:#000000;stroke-width:1.0;" width="594.1523" x="40" y="1044.979"/><rect fill="#F8F8F8" height="34.584" rx="12.5" ry="12.5" style="stroke:#888888;stroke-width:1.0;" width="179.3867" x="662.1523" y="955.603"/><text fill="#000000" font-family="Verdana" font-size="12" lengthAdjust="spacing" textLength="159.3867" x="672.1523" y="977.6675">Update Material Constants</text><rect fill="#000000" height="6" rx="2.5" ry="2.5" style="stroke:#000000;stroke-width:1.0;" width="827.5391" x="28" y="1070.979"/><path d="M539.5234,1101.3713 L539.5234,1110.271 L519.5234,1114.271 L539.5234,1118.271 L539.5234,1127.1707 A0,0 0 0 0 539.5234,1127.1707 L689.6665,1127.1707 A0,0 0 0 0 689.6665,1127.1707 L689.6665,1111.3713 L679.6665,1101.3713 L539.5234,1101.3713 A0,0 0 0 0 539.5234,1101.3713 " fill="#FFFFFF" style="stroke:#000000;stroke-width:1.0;"/><path d="M679.6665,1101.3713 L679.6665,1111.3713 L689.6665,1111.3713 L679.6665,1101.3713 " fill="#FFFFFF" style="stroke:#000000;stroke-width:1.0;"/><text fill="#000000" font-family="Verdana" font-size="13" lengthAdjust="spacing" textLength="129.1431" x="545.5234" y="1119.4412">Set 2 - Per material</text><rect fill="#F8F8F8" height="34.584" rx="12.5" ry="12.5" style="stroke:#888888;stroke-width:1.0;" width="166.5078" x="353.0156" y="1096.979"/><text fill="#000000" font-family="Verdana" font-size="12" lengthAdjust="spacing" textLength="146.5078" x="363.0156" y="1119.0435">Bind Material BindGroup</text><rect fill="#F8F8F8" height="34.584" rx="12.5" ry="12.5" style="stroke:#888888;stroke-width:1.0;" width="152.3223" x="875.5391" y="820.4351"/><text fill="#000000" font-family="Verdana" font-size="12" lengthAdjust="spacing" textLength="132.3223" x="885.5391" y="842.4995">Keep Current Material</text><polygon fill="#F8F8F8" points="693.9849,1137.563,705.9849,1149.563,693.9849,1161.563,681.9849,1149.563,693.9849,1137.563" style="stroke:#888888;stroke-width:1.0;"/><rect fill="#E8FFE8" height="421.4419" style="stroke:#000000;stroke-width:1.0;" width="784.728" x="392.803" y="1171.563"/><path d="M514.2903,1171.563 L514.2903,1181.5776 L504.2903,1191.5776 L392.803,1191.5776 " fill="none" style="stroke:#000000;stroke-width:1.0;"/><text fill="#000000" font-family="Verdana" font-size="14" lengthAdjust="spacing" textLength="111.4873" x="395.803" y="1186.6382">For Each Object</text><polygon fill="#F8F8F8" points="654.6738,1208.5776,733.2959,1208.5776,745.2959,1220.5776,733.2959,1232.5776,654.6738,1232.5776,642.6738,1220.5776,654.6738,1208.5776" style="stroke:#888888;stroke-width:1.0;"/><text fill="#000000" font-family="Verdana" font-size="11" lengthAdjust="spacing" textLength="78.6221" x="654.6738" y="1224.9524">Can Instance?</text><text fill="#000000" font-family="Verdana" font-size="11" lengthAdjust="spacing" textLength="18.7935" x="623.8804" y="1218.2681">yes</text><text fill="#000000" font-family="Verdana" font-size="11" lengthAdjust="spacing" textLength="13.6372" x="745.2959" y="1218.2681">no</text><rect fill="#F8F8F8" height="34.584" rx="12.5" ry="12.5" style="stroke:#888888;stroke-width:1.0;" width="149.7559" x="417.7307" y="1242.5776"/><text fill="#000000" font-family="Verdana" font-size="12" lengthAdjust="spacing" textLength="129.7559" x="427.7307" y="1264.6421">Gather Instance Data</text><rect fill="#F8F8F8" height="34.584" rx="12.5" ry="12.5" style="stroke:#888888;stroke-width:1.0;" width="159.6113" x="412.803" y="1297.1616"/><text fill="#000000" font-family="Verdana" font-size="12" lengthAdjust="spacing" textLength="139.6113" x="422.803" y="1319.2261">Update Instance Buffer</text><rect fill="#F8F8F8" height="34.584" rx="12.5" ry="12.5" style="stroke:#888888;stroke-width:1.0;" width="114.916" x="435.1506" y="1351.7456"/><text fill="#000000" font-family="Verdana" font-size="12" lengthAdjust="spacing" textLength="94.916" x="445.1506" y="1373.8101">Draw Instanced</text><path d="M592.4143,1246.97 L592.4143,1272.7693 A0,0 0 0 0 592.4143,1272.7693 L789.4031,1272.7693 A0,0 0 0 0 789.4031,1272.7693 L789.4031,1264.97 L809.4031,1259.8696 L789.4031,1256.97 L789.4031,1256.97 L779.4031,1246.97 L592.4143,1246.97 A0,0 0 0 0 592.4143,1246.97 " fill="#FFFFFF" style="stroke:#000000;stroke-width:1.0;"/><path d="M779.4031,1246.97 L779.4031,1256.97 L789.4031,1256.97 L779.4031,1246.97 " fill="#FFFFFF" style="stroke:#000000;stroke-width:1.0;"/><text fill="#000000" font-family="Verdana" font-size="13" lengthAdjust="spacing" textLength="175.9888" x="598.4143" y="1265.0398">offset = objectIndex * 256</text><rect fill="#F8F8F8" height="34.584" rx="12.5" ry="12.5" style="stroke:#888888;stroke-width:1.0;" width="171.916" x="809.4031" y="1242.5776"/><text fill="#000000" font-family="Verdana" font-size="12" lengthAdjust="spacing" textLength="151.916" x="819.4031" y="1264.6421">Calculate Dynamic Offset</text><rect fill="#F8F8F8" height="34.584" rx="12.5" ry="12.5" style="stroke:#888888;stroke-width:1.0;" width="138.8281" x="825.947" y="1297.1616"/><text fill="#000000" font-family="Verdana" font-size="12" lengthAdjust="spacing" textLength="118.8281" x="835.947" y="1319.2261">Update Object Data</text><rect fill="#000000" height="6" rx="2.5" ry="2.5" style="stroke:#000000;stroke-width:1.0;" width="364.1309" x="713.2957" y="1351.7456"/><rect fill="#F8F8F8" height="34.584" rx="12.5" ry="12.5" style="stroke:#888888;stroke-width:1.0;" width="97.0977" x="727.2957" y="1377.7456"/><text fill="#000000" font-family="Verdana" font-size="12" lengthAdjust="spacing" textLength="77.0977" x="737.2957" y="1399.8101">Model Matrix</text><rect fill="#F8F8F8" height="34.584" rx="12.5" ry="12.5" style="stroke:#888888;stroke-width:1.0;" width="105.3359" x="852.3933" y="1377.7456"/><text fill="#000000" font-family="Verdana" font-size="12" lengthAdjust="spacing" textLength="85.3359" x="862.3933" y="1399.8101">Normal Matrix</text><rect fill="#F8F8F8" height="34.584" rx="12.5" ry="12.5" style="stroke:#888888;stroke-width:1.0;" width="77.6973" x="985.7292" y="1377.7456"/><text fill="#000000" font-family="Verdana" font-size="12" lengthAdjust="spacing" textLength="57.6973" x="995.7292" y="1399.8101">Object ID</text><rect fill="#000000" height="6" rx="2.5" ry="2.5" style="stroke:#000000;stroke-width:1.0;" width="364.1309" x="713.2957" y="1432.3296"/><path d="M1029.0925,1454.8223 L1029.0925,1471.6216 L1009.0925,1475.6216 L1029.0925,1479.6216 L1029.0925,1496.4209 A0,0 0 0 0 1029.0925,1496.4209 L1165.531,1496.4209 A0,0 0 0 0 1165.531,1496.4209 L1165.531,1464.8223 L1155.531,1454.8223 L1029.0925,1454.8223 A0,0 0 0 0 1029.0925,1454.8223 " fill="#FFFFFF" style="stroke:#000000;stroke-width:1.0;"/><path d="M1155.531,1454.8223 L1155.531,1464.8223 L1165.531,1464.8223 L1155.531,1454.8223 " fill="#FFFFFF" style="stroke:#000000;stroke-width:1.0;"/><text fill="#000000" font-family="Verdana" font-size="13" lengthAdjust="spacing" textLength="115.4385" x="1035.0925" y="1472.8921">Set 3 - Per object</text><text fill="#000000" font-family="Verdana" font-size="13" lengthAdjust="spacing" textLength="97.9697" x="1035.0925" y="1488.6914">Dynamic offset</text><rect fill="#F8F8F8" height="34.584" rx="12.5" ry="12.5" style="stroke:#888888;stroke-width:1.0;" width="227.4629" x="781.6296" y="1458.3296"/><text fill="#000000" font-family="Verdana" font-size="12" lengthAdjust="spacing" textLength="207.4629" x="791.6296" y="1480.394">Bind Object BindGroup with Offset</text><rect fill="#F8F8F8" height="34.584" rx="12.5" ry="12.5" style="stroke:#888888;stroke-width:1.0;" width="104.6094" x="843.0564" y="1516.4209"/><text fill="#000000" font-family="Verdana" font-size="12" lengthAdjust="spacing" textLength="84.6094" x="853.0564" y="1538.4854">Draw Indexed</text><polygon fill="#F8F8F8" points="693.9849,1557.0049,705.9849,1569.0049,693.9849,1581.0049,681.9849,1569.0049,693.9849,1557.0049" style="stroke:#888888;stroke-width:1.0;"/><rect fill="#F8F8F8" height="34.584" rx="12.5" ry="12.5" style="stroke:#888888;stroke-width:1.0;" width="120.875" x="633.5474" y="1625.0049"/><text fill="#000000" font-family="Verdana" font-size="12" lengthAdjust="spacing" textLength="100.875" x="643.5474" y="1647.0693">End Render Pass</text><rect fill="#F8F8F8" height="34.584" rx="12.5" ry="12.5" style="stroke:#888888;stroke-width:1.0;" width="169.2148" x="609.3774" y="1691.5889"/><text fill="#000000" font-family="Verdana" font-size="12" lengthAdjust="spacing" textLength="149.2148" x="619.3774" y="1713.6533">Submit Command Buffer</text><rect fill="#F8F8F8" height="34.584" rx="12.5" ry="12.5" style="stroke:#888888;stroke-width:1.0;" width="107.4922" x="640.2388" y="1746.1729"/><text fill="#000000" font-family="Verdana" font-size="12" lengthAdjust="spacing" textLength="87.4922" x="650.2388" y="1768.2373">Present Frame</text><ellipse cx="693.9849" cy="1811.7568" fill="none" rx="11" ry="11" style="stroke:#000000;stroke-width:1.0;"/><ellipse cx="693.9849" cy="1811.7568" fill="#FFFFFF" rx="6" ry="6" style="stroke:#000000;stroke-width:1.0;"/><rect fill="#F0F0F0" height="234.2085" style="stroke:#000000;stroke-width:1.0;" width="361.4731" x="410.2031" y="1832.7568"/><path d="M585.6875,1832.7568 L585.6875,1842.7715 L575.6875,1852.7715 L410.2031,1852.7715 " fill="none" style="stroke:#000000;stroke-width:1.0;"/><text fill="#000000" font-family="Verdana" font-size="14" lengthAdjust="spacing" textLength="165.4844" x="413.2031" y="1847.832">Optimization Strategies</text><path d="M428.665,1862.7715 L428.665,1920.1694 A0,0 0 0 0 428.665,1920.1694 L606.2935,1920.1694 A0,0 0 0 0 606.2935,1920.1694 L606.2935,1895.4705 L626.2935,1891.4705 L606.2935,1887.4705 L606.2935,1872.7715 L596.2935,1862.7715 L428.665,1862.7715 A0,0 0 0 0 428.665,1862.7715 " fill="#FFFFFF" style="stroke:#000000;stroke-width:1.0;"/><path d="M596.2935,1862.7715 L596.2935,1872.7715 L606.2935,1872.7715 L596.2935,1862.7715 " fill="#FFFFFF" style="stroke:#000000;stroke-width:1.0;"/><text fill="#000000" font-family="Verdana" font-size="13" lengthAdjust="spacing" textLength="138.5693" x="434.665" y="1880.8413">- Hash material state</text><text fill="#000000" font-family="Verdana" font-size="13" lengthAdjust="spacing" textLength="156.6284" x="434.665" y="1896.6406">- Cache frequently used</text><text fill="#000000" font-family="Verdana" font-size="13" lengthAdjust="spacing" textLength="91.4189" x="434.665" y="1912.4399">- LRU eviction</text><rect fill="#F8F8F8" height="34.584" style="stroke:#888888;stroke-width:1.0;" width="135.3828" x="626.2935" y="1874.1785"/><line style="stroke:#888888;stroke-width:1.0;" x1="631.2935" x2="631.2935" y1="1874.1785" y2="1908.7625"/><line style="stroke:#888888;stroke-width:1.0;" x1="756.6763" x2="756.6763" y1="1874.1785" y2="1908.7625"/><text fill="#000000" font-family="Verdana" font-size="12" lengthAdjust="spacing" textLength="115.3828" x="636.2935" y="1896.2429">BindGroup Caching</text><path d="M455.4868,1930.1694 L455.4868,1987.5674 A0,0 0 0 0 455.4868,1987.5674 L614.561,1987.5674 A0,0 0 0 0 614.561,1987.5674 L614.561,1962.8684 L634.561,1958.8684 L614.561,1954.8684 L614.561,1940.1694 L604.561,1930.1694 L455.4868,1930.1694 A0,0 0 0 0 455.4868,1930.1694 " fill="#FFFFFF" style="stroke:#000000;stroke-width:1.0;"/><path d="M604.561,1930.1694 L604.561,1940.1694 L614.561,1940.1694 L604.561,1930.1694 " fill="#FFFFFF" style="stroke:#000000;stroke-width:1.0;"/><text fill="#000000" font-family="Verdana" font-size="13" lengthAdjust="spacing" textLength="131.2314" x="461.4868" y="1948.2393">- Single large buffer</text><text fill="#000000" font-family="Verdana" font-size="13" lengthAdjust="spacing" textLength="138.0742" x="461.4868" y="1964.0386">- 256 byte alignment</text><text fill="#000000" font-family="Verdana" font-size="13" lengthAdjust="spacing" textLength="117.3301" x="461.4868" y="1979.8379">- Reduce bindings</text><rect fill="#F8F8F8" height="34.584" style="stroke:#888888;stroke-width:1.0;" width="118.8477" x="634.561" y="1941.5764"/><line style="stroke:#888888;stroke-width:1.0;" x1="639.561" x2="639.561" y1="1941.5764" y2="1976.1604"/><line style="stroke:#888888;stroke-width:1.0;" x1="748.4087" x2="748.4087" y1="1941.5764" y2="1976.1604"/><text fill="#000000" font-family="Verdana" font-size="12" lengthAdjust="spacing" textLength="98.8477" x="644.561" y="1963.6409">Dynamic Offsets</text><path d="M420.2031,1997.5674 L420.2031,2054.9653 A0,0 0 0 0 420.2031,2054.9653 L632.4644,2054.9653 A0,0 0 0 0 632.4644,2054.9653 L632.4644,2030.2664 L652.4644,2026.2664 L632.4644,2022.2664 L632.4644,2007.5674 L622.4644,1997.5674 L420.2031,1997.5674 A0,0 0 0 0 420.2031,1997.5674 " fill="#FFFFFF" style="stroke:#000000;stroke-width:1.0;"/><path d="M622.4644,1997.5674 L622.4644,2007.5674 L632.4644,2007.5674 L622.4644,1997.5674 " fill="#FFFFFF" style="stroke:#000000;stroke-width:1.0;"/><text fill="#000000" font-family="Verdana" font-size="13" lengthAdjust="spacing" textLength="191.2612" x="426.2031" y="2015.6372">- Batch same mesh+material</text><text fill="#000000" font-family="Verdana" font-size="13" lengthAdjust="spacing" textLength="136.646" x="426.2031" y="2031.4365">- Use instance buffer</text><text fill="#000000" font-family="Verdana" font-size="13" lengthAdjust="spacing" textLength="127.8228" x="426.2031" y="2047.2358">- Reduce draw calls</text><rect fill="#F8F8F8" height="34.584" style="stroke:#888888;stroke-width:1.0;" width="83.041" x="652.4644" y="2008.9744"/><line style="stroke:#888888;stroke-width:1.0;" x1="657.4644" x2="657.4644" y1="2008.9744" y2="2043.5583"/><line style="stroke:#888888;stroke-width:1.0;" x1="730.5054" x2="730.5054" y1="2008.9744" y2="2043.5583"/><text fill="#000000" font-family="Verdana" font-size="12" lengthAdjust="spacing" textLength="63.041" x="662.4644" y="2031.0388">Instancing</text><line style="stroke:#000000;stroke-width:1.0;" x1="693.9849" x2="693.9849" y1="72.7373" y2="92.7373"/><polygon fill="#000000" points="689.9849,82.7373,693.9849,92.7373,697.9849,82.7373,693.9849,86.7373" style="stroke:#000000;stroke-width:1.0;"/><line style="stroke:#000000;stroke-width:1.0;" x1="693.9849" x2="693.9849" y1="127.3213" y2="147.3213"/><polygon fill="#000000" points="689.9849,137.3213,693.9849,147.3213,697.9849,137.3213,693.9849,141.3213" style="stroke:#000000;stroke-width:1.0;"/><line style="stroke:#000000;stroke-width:1.0;" x1="523.1841" x2="523.1841" y1="207.9053" y2="227.9053"/><polygon fill="#000000" points="519.1841,217.9053,523.1841,227.9053,527.1841,217.9053,523.1841,221.9053" style="stroke:#000000;stroke-width:1.0;"/><line style="stroke:#000000;stroke-width:1.0;" x1="729.0942" x2="729.0942" y1="207.9053" y2="227.9053"/><polygon fill="#000000" points="725.0942,217.9053,729.0942,227.9053,733.0942,217.9053,729.0942,221.9053" style="stroke:#000000;stroke-width:1.0;"/><line style="stroke:#000000;stroke-width:1.0;" x1="899.895" x2="899.895" y1="207.9053" y2="227.9053"/><polygon fill="#000000" points="895.895,217.9053,899.895,227.9053,903.895,217.9053,899.895,221.9053" style="stroke:#000000;stroke-width:1.0;"/><line style="stroke:#000000;stroke-width:1.0;" x1="523.1841" x2="523.1841" y1="262.4893" y2="282.4893"/><polygon fill="#000000" points="519.1841,272.4893,523.1841,282.4893,527.1841,272.4893,523.1841,276.4893" style="stroke:#000000;stroke-width:1.0;"/><line style="stroke:#000000;stroke-width:1.0;" x1="729.0942" x2="729.0942" y1="262.4893" y2="282.4893"/><polygon fill="#000000" points="725.0942,272.4893,729.0942,282.4893,733.0942,272.4893,729.0942,276.4893" style="stroke:#000000;stroke-width:1.0;"/><line style="stroke:#000000;stroke-width:1.0;" x1="899.895" x2="899.895" y1="262.4893" y2="282.4893"/><polygon fill="#000000" points="895.895,272.4893,899.895,282.4893,903.895,272.4893,899.895,276.4893" style="stroke:#000000;stroke-width:1.0;"/><line style="stroke:#000000;stroke-width:1.0;" x1="693.9849" x2="693.9849" y1="181.9053" y2="201.9053"/><polygon fill="#000000" points="689.9849,191.9053,693.9849,201.9053,697.9849,191.9053,693.9849,195.9053" style="stroke:#000000;stroke-width:1.0;"/><line style="stroke:#000000;stroke-width:1.0;" x1="693.9849" x2="693.9849" y1="288.4893" y2="308.4893"/><polygon fill="#000000" points="689.9849,298.4893,693.9849,308.4893,697.9849,298.4893,693.9849,302.4893" style="stroke:#000000;stroke-width:1.0;"/><line style="stroke:#000000;stroke-width:1.0;" x1="693.9849" x2="693.9849" y1="343.0732" y2="380.2795"/><polygon fill="#000000" points="689.9849,370.2795,693.9849,380.2795,697.9849,370.2795,693.9849,374.2795" style="stroke:#000000;stroke-width:1.0;"/><line style="stroke:#000000;stroke-width:1.0;" x1="693.9849" x2="693.9849" y1="523.6685" y2="543.6685"/><polygon fill="#000000" points="689.9849,533.6685,693.9849,543.6685,697.9849,533.6685,693.9849,537.6685" style="stroke:#000000;stroke-width:1.0;"/><line style="stroke:#000000;stroke-width:1.0;" x1="496.9312" x2="496.9312" y1="604.2524" y2="624.2524"/><polygon fill="#000000" points="492.9312,614.2524,496.9312,624.2524,500.9312,614.2524,496.9312,618.2524" style="stroke:#000000;stroke-width:1.0;"/><line style="stroke:#000000;stroke-width:1.0;" x1="653.0132" x2="653.0132" y1="604.2524" y2="624.2524"/><polygon fill="#000000" points="649.0132,614.2524,653.0132,624.2524,657.0132,614.2524,653.0132,618.2524" style="stroke:#000000;stroke-width:1.0;"/><line style="stroke:#000000;stroke-width:1.0;" x1="850.0669" x2="850.0669" y1="604.2524" y2="624.2524"/><polygon fill="#000000" points="846.0669,614.2524,850.0669,624.2524,854.0669,614.2524,850.0669,618.2524" style="stroke:#000000;stroke-width:1.0;"/><line style="stroke:#000000;stroke-width:1.0;" x1="496.9312" x2="496.9312" y1="658.8364" y2="678.8364"/><polygon fill="#000000" points="492.9312,668.8364,496.9312,678.8364,500.9312,668.8364,496.9312,672.8364" style="stroke:#000000;stroke-width:1.0;"/><line style="stroke:#000000;stroke-width:1.0;" x1="653.0132" x2="653.0132" y1="658.8364" y2="678.8364"/><polygon fill="#000000" points="649.0132,668.8364,653.0132,678.8364,657.0132,668.8364,653.0132,672.8364" style="stroke:#000000;stroke-width:1.0;"/><line style="stroke:#000000;stroke-width:1.0;" x1="850.0669" x2="850.0669" y1="658.8364" y2="678.8364"/><polygon fill="#000000" points="846.0669,668.8364,850.0669,678.8364,854.0669,668.8364,850.0669,672.8364" style="stroke:#000000;stroke-width:1.0;"/><line style="stroke:#000000;stroke-width:1.0;" x1="693.9849" x2="693.9849" y1="578.2524" y2="598.2524"/><polygon fill="#000000" points="689.9849,588.2524,693.9849,598.2524,697.9849,588.2524,693.9849,592.2524" style="stroke:#000000;stroke-width:1.0;"/><line style="stroke:#000000;stroke-width:1.0;" x1="693.9849" x2="693.9849" y1="684.8364" y2="704.8364"/><polygon fill="#000000" points="689.9849,694.8364,693.9849,704.8364,697.9849,694.8364,693.9849,698.8364" style="stroke:#000000;stroke-width:1.0;"/><line style="stroke:#000000;stroke-width:1.0;" x1="94.2061" x2="94.2061" y1="970.395" y2="990.395"/><polygon fill="#000000" points="90.2061,980.395,94.2061,990.395,98.2061,980.395,94.2061,984.395" style="stroke:#000000;stroke-width:1.0;"/><line style="stroke:#000000;stroke-width:1.0;" x1="203.6963" x2="203.6963" y1="970.395" y2="990.395"/><polygon fill="#000000" points="199.6963,980.395,203.6963,990.395,207.6963,980.395,203.6963,984.395" style="stroke:#000000;stroke-width:1.0;"/><line style="stroke:#000000;stroke-width:1.0;" x1="346.1377" x2="346.1377" y1="970.395" y2="990.395"/><polygon fill="#000000" points="342.1377,980.395,346.1377,990.395,350.1377,980.395,346.1377,984.395" style="stroke:#000000;stroke-width:1.0;"/><line style="stroke:#000000;stroke-width:1.0;" x1="480.9238" x2="480.9238" y1="970.395" y2="990.395"/><polygon fill="#000000" points="476.9238,980.395,480.9238,990.395,484.9238,980.395,480.9238,984.395" style="stroke:#000000;stroke-width:1.0;"/><line style="stroke:#000000;stroke-width:1.0;" x1="583.8525" x2="583.8525" y1="970.395" y2="990.395"/><polygon fill="#000000" points="579.8525,980.395,583.8525,990.395,587.8525,980.395,583.8525,984.395" style="stroke:#000000;stroke-width:1.0;"/><line style="stroke:#000000;stroke-width:1.0;" x1="94.2061" x2="94.2061" y1="1024.979" y2="1044.979"/><polygon fill="#000000" points="90.2061,1034.979,94.2061,1044.979,98.2061,1034.979,94.2061,1038.979" style="stroke:#000000;stroke-width:1.0;"/><line style="stroke:#000000;stroke-width:1.0;" x1="203.6963" x2="203.6963" y1="1024.979" y2="1044.979"/><polygon fill="#000000" points="199.6963,1034.979,203.6963,1044.979,207.6963,1034.979,203.6963,1038.979" style="stroke:#000000;stroke-width:1.0;"/><line style="stroke:#000000;stroke-width:1.0;" x1="346.1377" x2="346.1377" y1="1024.979" y2="1044.979"/><polygon fill="#000000" points="342.1377,1034.979,346.1377,1044.979,350.1377,1034.979,346.1377,1038.979" style="stroke:#000000;stroke-width:1.0;"/><line style="stroke:#000000;stroke-width:1.0;" x1="480.9238" x2="480.9238" y1="1024.979" y2="1044.979"/><polygon fill="#000000" points="476.9238,1034.979,480.9238,1044.979,484.9238,1034.979,480.9238,1038.979" style="stroke:#000000;stroke-width:1.0;"/><line style="stroke:#000000;stroke-width:1.0;" x1="583.8525" x2="583.8525" y1="1024.979" y2="1044.979"/><polygon fill="#000000" points="579.8525,1034.979,583.8525,1044.979,587.8525,1034.979,583.8525,1038.979" style="stroke:#000000;stroke-width:1.0;"/><line style="stroke:#000000;stroke-width:1.0;" x1="332.5762" x2="332.5762" y1="935.603" y2="964.395"/><polygon fill="#000000" points="328.5762,954.395,332.5762,964.395,336.5762,954.395,332.5762,958.395" style="stroke:#000000;stroke-width:1.0;"/><line style="stroke:#000000;stroke-width:1.0;" x1="332.5762" x2="332.5762" y1="881.019" y2="901.019"/><polygon fill="#000000" points="328.5762,891.019,332.5762,901.019,336.5762,891.019,332.5762,895.019" style="stroke:#000000;stroke-width:1.0;"/><line style="stroke:#000000;stroke-width:1.0;" x1="751.8457" x2="751.8457" y1="881.019" y2="955.603"/><polygon fill="#000000" points="747.8457,945.603,751.8457,955.603,755.8457,945.603,751.8457,949.603" style="stroke:#000000;stroke-width:1.0;"/><line style="stroke:#000000;stroke-width:1.0;" x1="332.5762" x2="332.5762" y1="1050.979" y2="1070.979"/><polygon fill="#000000" points="328.5762,1060.979,332.5762,1070.979,336.5762,1060.979,332.5762,1064.979" style="stroke:#000000;stroke-width:1.0;"/><line style="stroke:#000000;stroke-width:1.0;" x1="751.8457" x2="751.8457" y1="990.187" y2="1070.979"/><polygon fill="#000000" points="747.8457,1060.979,751.8457,1070.979,755.8457,1060.979,751.8457,1064.979" style="stroke:#000000;stroke-width:1.0;"/><line style="stroke:#000000;stroke-width:1.0;" x1="436.2695" x2="436.2695" y1="855.019" y2="875.019"/><polygon fill="#000000" points="432.2695,865.019,436.2695,875.019,440.2695,865.019,436.2695,869.019" style="stroke:#000000;stroke-width:1.0;"/><line style="stroke:#000000;stroke-width:1.0;" x1="436.2695" x2="436.2695" y1="1076.979" y2="1096.979"/><polygon fill="#000000" points="432.2695,1086.979,436.2695,1096.979,440.2695,1086.979,436.2695,1090.979" style="stroke:#000000;stroke-width:1.0;"/><line style="stroke:#000000;stroke-width:1.0;" x1="630.7661" x2="436.2695" y1="798.4351" y2="798.4351"/><line style="stroke:#000000;stroke-width:1.0;" x1="436.2695" x2="436.2695" y1="798.4351" y2="820.4351"/><polygon fill="#000000" points="432.2695,810.4351,436.2695,820.4351,440.2695,810.4351,436.2695,814.4351" style="stroke:#000000;stroke-width:1.0;"/><line style="stroke:#000000;stroke-width:1.0;" x1="757.2036" x2="951.7002" y1="798.4351" y2="798.4351"/><line style="stroke:#000000;stroke-width:1.0;" x1="951.7002" x2="951.7002" y1="798.4351" y2="820.4351"/><polygon fill="#000000" points="947.7002,810.4351,951.7002,820.4351,955.7002,810.4351,951.7002,814.4351" style="stroke:#000000;stroke-width:1.0;"/><line style="stroke:#000000;stroke-width:1.0;" x1="436.2695" x2="436.2695" y1="1131.563" y2="1149.563"/><line style="stroke:#000000;stroke-width:1.0;" x1="436.2695" x2="681.9849" y1="1149.563" y2="1149.563"/><polygon fill="#000000" points="671.9849,1145.563,681.9849,1149.563,671.9849,1153.563,675.9849,1149.563" style="stroke:#000000;stroke-width:1.0;"/><line style="stroke:#000000;stroke-width:1.0;" x1="951.7002" x2="951.7002" y1="855.019" y2="1149.563"/><line style="stroke:#000000;stroke-width:1.0;" x1="951.7002" x2="705.9849" y1="1149.563" y2="1149.563"/><polygon fill="#000000" points="715.9849,1145.563,705.9849,1149.563,715.9849,1153.563,711.9849,1149.563" style="stroke:#000000;stroke-width:1.0;"/><line style="stroke:#000000;stroke-width:1.0;" x1="492.6086" x2="492.6086" y1="1277.1616" y2="1297.1616"/><polygon fill="#000000" points="488.6086,1287.1616,492.6086,1297.1616,496.6086,1287.1616,492.6086,1291.1616" style="stroke:#000000;stroke-width:1.0;"/><line style="stroke:#000000;stroke-width:1.0;" x1="492.6086" x2="492.6086" y1="1331.7456" y2="1351.7456"/><polygon fill="#000000" points="488.6086,1341.7456,492.6086,1351.7456,496.6086,1341.7456,492.6086,1345.7456" style="stroke:#000000;stroke-width:1.0;"/><line style="stroke:#000000;stroke-width:1.0;" x1="895.3611" x2="895.3611" y1="1277.1616" y2="1297.1616"/><polygon fill="#000000" points="891.3611,1287.1616,895.3611,1297.1616,899.3611,1287.1616,895.3611,1291.1616" style="stroke:#000000;stroke-width:1.0;"/><line style="stroke:#000000;stroke-width:1.0;" x1="775.8445" x2="775.8445" y1="1357.7456" y2="1377.7456"/><polygon fill="#000000" points="771.8445,1367.7456,775.8445,1377.7456,779.8445,1367.7456,775.8445,1371.7456" style="stroke:#000000;stroke-width:1.0;"/><line style="stroke:#000000;stroke-width:1.0;" x1="905.0613" x2="905.0613" y1="1357.7456" y2="1377.7456"/><polygon fill="#000000" points="901.0613,1367.7456,905.0613,1377.7456,909.0613,1367.7456,905.0613,1371.7456" style="stroke:#000000;stroke-width:1.0;"/><line style="stroke:#000000;stroke-width:1.0;" x1="1024.5779" x2="1024.5779" y1="1357.7456" y2="1377.7456"/><polygon fill="#000000" points="1020.5779,1367.7456,1024.5779,1377.7456,1028.5779,1367.7456,1024.5779,1371.7456" style="stroke:#000000;stroke-width:1.0;"/><line style="stroke:#000000;stroke-width:1.0;" x1="775.8445" x2="775.8445" y1="1412.3296" y2="1432.3296"/><polygon fill="#000000" points="771.8445,1422.3296,775.8445,1432.3296,779.8445,1422.3296,775.8445,1426.3296" style="stroke:#000000;stroke-width:1.0;"/><line style="stroke:#000000;stroke-width:1.0;" x1="905.0613" x2="905.0613" y1="1412.3296" y2="1432.3296"/><polygon fill="#000000" points="901.0613,1422.3296,905.0613,1432.3296,909.0613,1422.3296,905.0613,1426.3296" style="stroke:#000000;stroke-width:1.0;"/><line style="stroke:#000000;stroke-width:1.0;" x1="1024.5779" x2="1024.5779" y1="1412.3296" y2="1432.3296"/><polygon fill="#000000" points="1020.5779,1422.3296,1024.5779,1432.3296,1028.5779,1422.3296,1024.5779,1426.3296" style="stroke:#000000;stroke-width:1.0;"/><line style="stroke:#000000;stroke-width:1.0;" x1="895.3611" x2="895.3611" y1="1331.7456" y2="1351.7456"/><polygon fill="#000000" points="891.3611,1341.7456,895.3611,1351.7456,899.3611,1341.7456,895.3611,1345.7456" style="stroke:#000000;stroke-width:1.0;"/><line style="stroke:#000000;stroke-width:1.0;" x1="895.3611" x2="895.3611" y1="1438.3296" y2="1458.3296"/><polygon fill="#000000" points="891.3611,1448.3296,895.3611,1458.3296,899.3611,1448.3296,895.3611,1452.3296" style="stroke:#000000;stroke-width:1.0;"/><line style="stroke:#000000;stroke-width:1.0;" x1="895.3611" x2="895.3611" y1="1492.9136" y2="1516.4209"/><polygon fill="#000000" points="891.3611,1506.4209,895.3611,1516.4209,899.3611,1506.4209,895.3611,1510.4209" style="stroke:#000000;stroke-width:1.0;"/><line style="stroke:#000000;stroke-width:1.0;" x1="642.6738" x2="492.6086" y1="1220.5776" y2="1220.5776"/><line style="stroke:#000000;stroke-width:1.0;" x1="492.6086" x2="492.6086" y1="1220.5776" y2="1242.5776"/><polygon fill="#000000" points="488.6086,1232.5776,492.6086,1242.5776,496.6086,1232.5776,492.6086,1236.5776" style="stroke:#000000;stroke-width:1.0;"/><line style="stroke:#000000;stroke-width:1.0;" x1="745.2959" x2="895.3611" y1="1220.5776" y2="1220.5776"/><line style="stroke:#000000;stroke-width:1.0;" x1="895.3611" x2="895.3611" y1="1220.5776" y2="1242.5776"/><polygon fill="#000000" points="891.3611,1232.5776,895.3611,1242.5776,899.3611,1232.5776,895.3611,1236.5776" style="stroke:#000000;stroke-width:1.0;"/><line style="stroke:#000000;stroke-width:1.0;" x1="492.6086" x2="492.6086" y1="1386.3296" y2="1569.0049"/><line style="stroke:#000000;stroke-width:1.0;" x1="492.6086" x2="681.9849" y1="1569.0049" y2="1569.0049"/><polygon fill="#000000" points="671.9849,1565.0049,681.9849,1569.0049,671.9849,1573.0049,675.9849,1569.0049" style="stroke:#000000;stroke-width:1.0;"/><line style="stroke:#000000;stroke-width:1.0;" x1="895.3611" x2="895.3611" y1="1551.0049" y2="1569.0049"/><line style="stroke:#000000;stroke-width:1.0;" x1="895.3611" x2="705.9849" y1="1569.0049" y2="1569.0049"/><polygon fill="#000000" points="715.9849,1565.0049,705.9849,1569.0049,715.9849,1573.0049,711.9849,1569.0049" style="stroke:#000000;stroke-width:1.0;"/><line style="stroke:#000000;stroke-width:1.0;" x1="693.9849" x2="693.9849" y1="1161.563" y2="1208.5776"/><polygon fill="#000000" points="689.9849,1198.5776,693.9849,1208.5776,697.9849,1198.5776,693.9849,1202.5776" style="stroke:#000000;stroke-width:1.0;"/><line style="stroke:#000000;stroke-width:1.0;" x1="693.9849" x2="693.9849" y1="739.4204" y2="786.4351"/><polygon fill="#000000" points="689.9849,776.4351,693.9849,786.4351,697.9849,776.4351,693.9849,780.4351" style="stroke:#000000;stroke-width:1.0;"/><line style="stroke:#000000;stroke-width:1.0;" x1="693.9849" x2="693.9849" y1="1581.0049" y2="1625.0049"/><polygon fill="#000000" points="689.9849,1615.0049,693.9849,1625.0049,697.9849,1615.0049,693.9849,1619.0049" style="stroke:#000000;stroke-width:1.0;"/><line style="stroke:#000000;stroke-width:1.0;" x1="693.9849" x2="693.9849" y1="414.8635" y2="489.0845"/><polygon fill="#000000" points="689.9849,479.0845,693.9849,489.0845,697.9849,479.0845,693.9849,483.0845" style="stroke:#000000;stroke-width:1.0;"/><line style="stroke:#000000;stroke-width:1.0;" x1="693.9849" x2="693.9849" y1="1659.5889" y2="1691.5889"/><polygon fill="#000000" points="689.9849,1681.5889,693.9849,1691.5889,697.9849,1681.5889,693.9849,1685.5889" style="stroke:#000000;stroke-width:1.0;"/><line style="stroke:#000000;stroke-width:1.0;" x1="693.9849" x2="693.9849" y1="1726.1729" y2="1746.1729"/><polygon fill="#000000" points="689.9849,1736.1729,693.9849,1746.1729,697.9849,1736.1729,693.9849,1740.1729" style="stroke:#000000;stroke-width:1.0;"/><line style="stroke:#000000;stroke-width:1.0;" x1="693.9849" x2="693.9849" y1="1780.7568" y2="1800.7568"/><polygon fill="#000000" points="689.9849,1790.7568,693.9849,1800.7568,697.9849,1790.7568,693.9849,1794.7568" style="stroke:#000000;stroke-width:1.0;"/><line style="stroke:#000000;stroke-width:1.0;" x1="693.9849" x2="693.9849" y1="1908.7625" y2="1941.5764"/><polygon fill="#000000" points="689.9849,1931.5764,693.9849,1941.5764,697.9849,1931.5764,693.9849,1935.5764" style="stroke:#000000;stroke-width:1.0;"/><line style="stroke:#000000;stroke-width:1.0;" x1="693.9849" x2="693.9849" y1="1976.1604" y2="2008.9744"/><polygon fill="#000000" points="689.9849,1998.9744,693.9849,2008.9744,697.9849,1998.9744,693.9849,2002.9744" style="stroke:#000000;stroke-width:1.0;"/><!--SRC=[fLRVRzis47xNNt5hNz8DITgq6mm7mx0uLXeicOquwTDUQEaaSP58bQJYU6l-znufYPPiEKWs2J1CtHtvtNS_U3-O30k4CcTS1FgUYv8fLi2IHVUfafM89pAN2jw6K_jsD5Xa-0CtwxCTpP5zXpIbYb4rMgFHA0WCDpd23MfPgGZXZ8kOYnIkPCeZ27Ev2W9jc391C3x3b0i8QJyy3OGq28gdcHd3xz7NYYi4lM9bb94Nm0kM8fdSbJ4ZFMVZ3z6dGIBLVG3qj1fVEAwEvqh-ZOHK2hXcHd6l2Yort7GDRZdj-8NbrJCw5xbSiXokB4hIGX63EtWyKKZounuww_a5aLZsVLkWWVTm23D1x9Ie8B7QvDf2AWFdYgrWml9SDrOv9iPXSEBbUkmM7ux8UK7CmvnfxJwT7C6SbvXpWR0m1CDz_NXaFKV5MUxMdsYDEdFGxVv1GF6aa5cAteGKn2cBikxUR-3jT1H-2aVmRqr57RIEngdxNWidKYGyhIXqLWBdpB1QxEFZr2m7Da0b-RIHTmZtMiqvjqobjBeKYNnUtnvxg4kCU4BfTYSuAHODH1-ksWyAJuso4oWhsGxM1mhMd32KBTFkPuYsbcauOoRAYBamd8wcBNFsuGaSUAr9naIAyM_lWEfLmC4QzJklwJ1UIHPlTjsmsJuzLhsLyynRtUAZeO3eqnt5GUjw1wOHN54FMsqntxFzamYdOwzP-NhRQpIK-Zmwlf5LcWdK-lLxpA8ehpG5vlMcqu9hpHzmrxANEY_OhcqOcrXBGLrFc2s71lVT2k1MUhRFTfgUD6bQTClTdP5JC0-4tCgjFn1Bc5HAeJ3-iCqHX8mdVkN_3ANzR6cRRDqembwwjoa_OO9grn8GuVvqTx0k64cLrnv8-Yw_NksiIX8SoDQnQwYjMhp5_Y0pTIDZULJbzeZpjM05zP9PacWqkoVuBZq6wLJWLv2EaKjgNO_m8vpy_CkErLwFQZBtkBs_OgzbZ7bzoJt-ZvhzR-ODvilp5nREC04kwvkjVCx3YfliUUuxDV2ngO6Q_xz46xiwC2_0q6GBnMqdLthry1HiVklhP4hWUvVYaxtIgsN13HL_KJ2IjqawdbC_jcNNZ3uq4CcoTnFFIiCB_WzpguLHb1afHtiPX-_jwozZpzE4Af7ch6_-2lDO3-4pqvdl2w3zS51BhINI589VAyAKhw7I67VaLpTtW0_SZL7-7lKdr3ZwHQ87KIm87as6kRtAOUcew4YfI6YweN2odAUY82GTuGt65HNvifubzJuKJPdley7Tog3jR5RG3FJJJgSyX3jg2BpjAJiO6nYnJPB8pcXz84_1Tm00]--></g></svg>