<svg xmlns="http://www.w3.org/2000/svg" xmlns:xlink="http://www.w3.org/1999/xlink" contentStyleType="text/css" height="2522px" preserveAspectRatio="none" style="width:1271px;height:2522px;background:#FEFEFE;" version="1.1" viewBox="0 0 1271 2522" width="1271px" zoomAndPan="magnify"><title>Resource Binding Flow - Frame Rendering Sequence</title><defs/><g><rect fill="#FEFEFE" height="2522" style="stroke:none;stroke-width:1.0;" width="1271" x="0" y="0"/><text fill="#000000" font-family="Verdana" font-size="22" font-weight="bold" lengthAdjust="spacing" textLength="646.1533" x="311.2651" y="37.1182">Resource Binding Flow - Frame Rendering Sequence</text><rect fill="#FFFFFF" height="59.5986" style="stroke:#000000;stroke-width:1.0;" width="10" x="338.5986" y="160.3506"/><rect fill="#FFFFFF" height="119.1973" style="stroke:#000000;stroke-width:1.0;" width="10" x="338.5986" y="2107.9116"/><rect fill="#FFFFFF" height="115.3979" style="stroke:#000000;stroke-width:1.0;" width="10" x="651.4189" y="293.5479"/><rect fill="#FFFFFF" height="72.5986" style="stroke:#000000;stroke-width:1.0;" width="10" x="651.4189" y="632.541"/><rect fill="#FFFFFF" height="189.9966" style="stroke:#000000;stroke-width:1.0;" width="10" x="651.4189" y="1197.1294"/><rect fill="#FFFFFF" height="72.5986" style="stroke:#000000;stroke-width:1.0;" width="10" x="651.4189" y="1521.3232"/><rect fill="#FFFFFF" height="372.5918" style="stroke:#000000;stroke-width:1.0;" width="815.7148" x="106" y="519.3438"/><rect fill="#FFFFFF" height="99.1973" style="stroke:#000000;stroke-width:1.0;" width="563.231" x="116" y="755.939"/><rect fill="#FFFFFF" height="906.7822" style="stroke:#000000;stroke-width:1.0;" width="1240.6836" x="14" y="905.9355"/><rect fill="#FFFFFF" height="662.187" style="stroke:#000000;stroke-width:1.0;" width="1138.6836" x="106" y="1113.7314"/><rect fill="#FFFFFF" height="146.1973" style="stroke:#000000;stroke-width:1.0;" width="343.9092" x="571.1152" y="1212.1294"/><rect fill="#FFFFFF" height="330.9932" style="stroke:#000000;stroke-width:1.0;" width="1118.6836" x="116" y="1437.9253"/><rect fill="#FFFFFF" height="208.5952" style="stroke:#000000;stroke-width:1.0;" width="549.5581" x="116" y="1826.7178"/><line style="stroke:#000000;stroke-width:1.0;" x1="181" x2="181" y1="84.752" y2="2486.9014"/><line style="stroke:#000000;stroke-width:1.0;" x1="343.4561" x2="343.4561" y1="84.752" y2="2486.9014"/><line style="stroke:#000000;stroke-width:1.0;" x1="486.7412" x2="486.7412" y1="84.752" y2="2486.9014"/><line style="stroke:#000000;stroke-width:1.0;" x1="656.1152" x2="656.1152" y1="84.752" y2="2486.9014"/><line style="stroke:#000000;stroke-width:1.0;" x1="942.7085" x2="942.7085" y1="84.752" y2="2486.9014"/><rect fill="#F8F8F8" height="31.0146" rx="2.5" ry="2.5" style="stroke:#000000;stroke-width:1.0;" width="91.1162" x="136" y="52.7373"/><text fill="#000000" font-family="Verdana" font-size="14" lengthAdjust="spacing" textLength="77.1162" x="143" y="73.8125">Application</text><rect fill="#F8F8F8" height="31.0146" rx="2.5" ry="2.5" style="stroke:#000000;stroke-width:1.0;" width="91.1162" x="136" y="2485.9014"/><text fill="#000000" font-family="Verdana" font-size="14" lengthAdjust="spacing" textLength="77.1162" x="143" y="2506.9766">Application</text><rect fill="#F8F8F8" height="31.0146" rx="2.5" ry="2.5" style="stroke:#000000;stroke-width:1.0;" width="78.2852" x="304.4561" y="52.7373"/><text fill="#000000" font-family="Verdana" font-size="14" lengthAdjust="spacing" textLength="64.2852" x="311.4561" y="73.8125">Renderer</text><rect fill="#F8F8F8" height="31.0146" rx="2.5" ry="2.5" style="stroke:#000000;stroke-width:1.0;" width="78.2852" x="304.4561" y="2485.9014"/><text fill="#000000" font-family="Verdana" font-size="14" lengthAdjust="spacing" textLength="64.2852" x="311.4561" y="2506.9766">Renderer</text><rect fill="#F8F8F8" height="31.0146" rx="2.5" ry="2.5" style="stroke:#000000;stroke-width:1.0;" width="148.374" x="412.7412" y="52.7373"/><text fill="#000000" font-family="Verdana" font-size="14" lengthAdjust="spacing" textLength="134.374" x="419.7412" y="73.8125">CommandRecorder</text><rect fill="#F8F8F8" height="31.0146" rx="2.5" ry="2.5" style="stroke:#000000;stroke-width:1.0;" width="148.374" x="412.7412" y="2485.9014"/><text fill="#000000" font-family="Verdana" font-size="14" lengthAdjust="spacing" textLength="134.374" x="419.7412" y="2506.9766">CommandRecorder</text><rect fill="#F8F8F8" height="31.0146" rx="2.5" ry="2.5" style="stroke:#000000;stroke-width:1.0;" width="130.6074" x="591.1152" y="52.7373"/><text fill="#000000" font-family="Verdana" font-size="14" lengthAdjust="spacing" textLength="116.6074" x="598.1152" y="73.8125">BindGroupCache</text><rect fill="#F8F8F8" height="31.0146" rx="2.5" ry="2.5" style="stroke:#000000;stroke-width:1.0;" width="130.6074" x="591.1152" y="2485.9014"/><text fill="#000000" font-family="Verdana" font-size="14" lengthAdjust="spacing" textLength="116.6074" x="598.1152" y="2506.9766">BindGroupCache</text><rect fill="#F8F8F8" height="31.0146" rx="2.5" ry="2.5" style="stroke:#000000;stroke-width:1.0;" width="43.5449" x="921.7085" y="52.7373"/><text fill="#000000" font-family="Verdana" font-size="14" lengthAdjust="spacing" textLength="29.5449" x="928.7085" y="73.8125">GPU</text><rect fill="#F8F8F8" height="31.0146" rx="2.5" ry="2.5" style="stroke:#000000;stroke-width:1.0;" width="43.5449" x="921.7085" y="2485.9014"/><text fill="#000000" font-family="Verdana" font-size="14" lengthAdjust="spacing" textLength="29.5449" x="928.7085" y="2506.9766">GPU</text><rect fill="#FFFFFF" height="59.5986" style="stroke:#000000;stroke-width:1.0;" width="10" x="338.5986" y="160.3506"/><rect fill="#FFFFFF" height="119.1973" style="stroke:#000000;stroke-width:1.0;" width="10" x="338.5986" y="2107.9116"/><rect fill="#FFFFFF" height="115.3979" style="stroke:#000000;stroke-width:1.0;" width="10" x="651.4189" y="293.5479"/><rect fill="#FFFFFF" height="72.5986" style="stroke:#000000;stroke-width:1.0;" width="10" x="651.4189" y="632.541"/><rect fill="#FFFFFF" height="189.9966" style="stroke:#000000;stroke-width:1.0;" width="10" x="651.4189" y="1197.1294"/><rect fill="#FFFFFF" height="72.5986" style="stroke:#000000;stroke-width:1.0;" width="10" x="651.4189" y="1521.3232"/><rect fill="#FFFFFF" height="3" style="stroke:#FFFFFF;stroke-width:1.0;" width="1259.6836" x="5" y="115.6516"/><line style="stroke:#000000;stroke-width:0.5;" x1="5" x2="1264.6836" y1="115.6516" y2="115.6516"/><line style="stroke:#000000;stroke-width:0.5;" x1="5" x2="1264.6836" y1="118.6516" y2="118.6516"/><rect fill="#FFFFFF" height="23.7993" style="stroke:#000000;stroke-width:1.0;" width="162.605" x="553.5393" y="104.752"/><text fill="#000000" font-family="Verdana" font-size="13" font-weight="bold" lengthAdjust="spacing" textLength="144.1616" x="559.5393" y="121.8218">Frame Initialization</text><polygon fill="#666666" points="326.5986,156.3506,336.5986,160.3506,326.5986,164.3506,330.5986,160.3506" style="stroke:#666666;stroke-width:1.0;"/><line style="stroke:#666666;stroke-width:1.0;" x1="181.5581" x2="332.5986" y1="160.3506" y2="160.3506"/><text fill="#000000" font-family="Verdana" font-size="13" lengthAdjust="spacing" textLength="89.5718" x="188.5581" y="155.6211">BeginFrame()</text><polygon fill="#666666" points="474.9282,186.1499,484.9282,190.1499,474.9282,194.1499,478.9282,190.1499" style="stroke:#666666;stroke-width:1.0;"/><line style="stroke:#666666;stroke-width:1.0;" x1="348.5986" x2="480.9282" y1="190.1499" y2="190.1499"/><text fill="#000000" font-family="Verdana" font-size="13" lengthAdjust="spacing" textLength="85.3696" x="355.5986" y="185.4204">Create/Reset</text><polygon fill="#666666" points="192.5581,215.9492,182.5581,219.9492,192.5581,223.9492,188.5581,219.9492" style="stroke:#666666;stroke-width:1.0;"/><line style="stroke:#666666;stroke-width:1.0;stroke-dasharray:2.0,2.0;" x1="186.5581" x2="342.5986" y1="219.9492" y2="219.9492"/><text fill="#000000" font-family="Verdana" font-size="13" lengthAdjust="spacing" textLength="133.0405" x="198.5581" y="215.2197">CommandRecorder*</text><rect fill="#FFFFFF" height="3" style="stroke:#FFFFFF;stroke-width:1.0;" width="1259.6836" x="5" y="248.8489"/><line style="stroke:#000000;stroke-width:0.5;" x1="5" x2="1264.6836" y1="248.8489" y2="248.8489"/><line style="stroke:#000000;stroke-width:0.5;" x1="5" x2="1264.6836" y1="251.8489" y2="251.8489"/><rect fill="#FFFFFF" height="23.7993" style="stroke:#000000;stroke-width:1.0;" width="322.4453" x="473.6191" y="237.9492"/><text fill="#000000" font-family="Verdana" font-size="13" font-weight="bold" lengthAdjust="spacing" textLength="304.002" x="479.6191" y="255.019">Set 0: Frame Resources (Once per frame)</text><polygon fill="#666666" points="639.4189,289.5479,649.4189,293.5479,639.4189,297.5479,643.4189,293.5479" style="stroke:#666666;stroke-width:1.0;"/><line style="stroke:#666666;stroke-width:1.0;" x1="181.5581" x2="645.4189" y1="293.5479" y2="293.5479"/><text fill="#000000" font-family="Verdana" font-size="13" lengthAdjust="spacing" textLength="272.5112" x="188.5581" y="288.8184">GetOrCreateFrameBindGroup(frameData)</text><line style="stroke:#666666;stroke-width:1.0;" x1="661.4189" x2="703.4189" y1="323.3472" y2="323.3472"/><line style="stroke:#666666;stroke-width:1.0;" x1="703.4189" x2="703.4189" y1="323.3472" y2="336.3472"/><line style="stroke:#666666;stroke-width:1.0;" x1="662.4189" x2="703.4189" y1="336.3472" y2="336.3472"/><polygon fill="#666666" points="672.4189,332.3472,662.4189,336.3472,672.4189,340.3472,668.4189,336.3472" style="stroke:#666666;stroke-width:1.0;"/><text fill="#000000" font-family="Verdana" font-size="13" lengthAdjust="spacing" textLength="253.062" x="668.4189" y="318.6177">UpdateUniformBuffer(view, proj, time)</text><line style="stroke:#666666;stroke-width:1.0;" x1="661.4189" x2="703.4189" y1="366.1465" y2="366.1465"/><line style="stroke:#666666;stroke-width:1.0;" x1="703.4189" x2="703.4189" y1="366.1465" y2="379.1465"/><line style="stroke:#666666;stroke-width:1.0;" x1="662.4189" x2="703.4189" y1="379.1465" y2="379.1465"/><polygon fill="#666666" points="672.4189,375.1465,662.4189,379.1465,672.4189,383.1465,668.4189,379.1465" style="stroke:#666666;stroke-width:1.0;"/><text fill="#000000" font-family="Verdana" font-size="13" lengthAdjust="spacing" textLength="248.9995" x="668.4189" y="361.417">BindGlobalResources(lights, shadows)</text><polygon fill="#666666" points="192.5581,404.9458,182.5581,408.9458,192.5581,412.9458,188.5581,408.9458" style="stroke:#666666;stroke-width:1.0;"/><line style="stroke:#666666;stroke-width:1.0;stroke-dasharray:2.0,2.0;" x1="186.5581" x2="655.4189" y1="408.9458" y2="408.9458"/><text fill="#000000" font-family="Verdana" font-size="13" lengthAdjust="spacing" textLength="88.7212" x="198.5581" y="404.2163">BindGroup[0]</text><polygon fill="#666666" points="474.9282,445.6448,484.9282,449.6448,474.9282,453.6448,478.9282,449.6448" style="stroke:#666666;stroke-width:1.0;"/><line style="stroke:#666666;stroke-width:1.0;" x1="181.5581" x2="480.9282" y1="449.6448" y2="449.6448"/><text fill="#000000" font-family="Verdana" font-size="13" lengthAdjust="spacing" textLength="226.7383" x="188.5581" y="444.9153">SetBindGroup(0, frameBindGroup)</text><path d="M491,421.9458 L491,462.9458 L631,462.9458 L631,431.9458 L621,421.9458 L491,421.9458 " fill="#FFFACD" style="stroke:#000000;stroke-width:1.0;"/><path d="M621,421.9458 L621,431.9458 L631,431.9458 L621,421.9458 " fill="#FFFACD" style="stroke:#000000;stroke-width:1.0;"/><text fill="#000000" font-family="Verdana" font-size="13" lengthAdjust="spacing" textLength="81.2881" x="497" y="440.0156">Bound once,</text><text fill="#000000" font-family="Verdana" font-size="13" lengthAdjust="spacing" textLength="119.2598" x="497" y="455.8149">used by all passes</text><rect fill="#FFFFFF" height="3" style="stroke:#FFFFFF;stroke-width:1.0;" width="1259.6836" x="5" y="489.4441"/><line style="stroke:#000000;stroke-width:0.5;" x1="5" x2="1264.6836" y1="489.4441" y2="489.4441"/><line style="stroke:#000000;stroke-width:0.5;" x1="5" x2="1264.6836" y1="492.4441" y2="492.4441"/><rect fill="#FFFFFF" height="23.7993" style="stroke:#000000;stroke-width:1.0;" width="125.1157" x="572.2839" y="478.5444"/><text fill="#000000" font-family="Verdana" font-size="13" font-weight="bold" lengthAdjust="spacing" textLength="106.6724" x="578.2839" y="495.6143">Render Passes</text><path d="M106,519.3438 L300.4619,519.3438 L300.4619,527.1431 L290.4619,537.1431 L106,537.1431 L106,519.3438 " fill="#FFFFFF" style="stroke:#000000;stroke-width:1.0;"/><rect fill="none" height="372.5918" style="stroke:#000000;stroke-width:1.0;" width="815.7148" x="106" y="519.3438"/><text fill="#000000" font-family="Verdana" font-size="13" font-weight="bold" lengthAdjust="spacing" textLength="149.4619" x="121" y="533.4136">Pass 1: Shadow Map</text><polygon fill="#666666" points="474.9282,554.9424,484.9282,558.9424,474.9282,562.9424,478.9282,558.9424" style="stroke:#666666;stroke-width:1.0;"/><line style="stroke:#666666;stroke-width:1.0;" x1="181.5581" x2="480.9282" y1="558.9424" y2="558.9424"/><text fill="#000000" font-family="Verdana" font-size="13" lengthAdjust="spacing" textLength="200.2495" x="188.5581" y="554.2129">BeginRenderPass(shadowMap)</text><rect fill="#FFFFFF" height="3" style="stroke:#FFFFFF;stroke-width:1.0;" width="1259.6836" x="5" y="587.842"/><line style="stroke:#000000;stroke-width:0.5;" x1="5" x2="1264.6836" y1="587.842" y2="587.842"/><line style="stroke:#000000;stroke-width:0.5;" x1="5" x2="1264.6836" y1="590.842" y2="590.842"/><rect fill="#FFFFFF" height="23.7993" style="stroke:#000000;stroke-width:1.0;" width="178.8296" x="545.427" y="576.9424"/><text fill="#000000" font-family="Verdana" font-size="13" font-weight="bold" lengthAdjust="spacing" textLength="160.3862" x="551.427" y="594.0122">Set 1: Pass Resources</text><polygon fill="#666666" points="639.4189,628.541,649.4189,632.541,639.4189,636.541,643.4189,632.541" style="stroke:#666666;stroke-width:1.0;"/><line style="stroke:#666666;stroke-width:1.0;" x1="181.5581" x2="645.4189" y1="632.541" y2="632.541"/><text fill="#000000" font-family="Verdana" font-size="13" lengthAdjust="spacing" textLength="241.979" x="188.5581" y="627.8115">GetPassBindGroup(shadowPassData)</text><line style="stroke:#666666;stroke-width:1.0;" x1="661.4189" x2="703.4189" y1="662.3403" y2="662.3403"/><line style="stroke:#666666;stroke-width:1.0;" x1="703.4189" x2="703.4189" y1="662.3403" y2="675.3403"/><line style="stroke:#666666;stroke-width:1.0;" x1="662.4189" x2="703.4189" y1="675.3403" y2="675.3403"/><polygon fill="#666666" points="672.4189,671.3403,662.4189,675.3403,672.4189,679.3403,668.4189,675.3403" style="stroke:#666666;stroke-width:1.0;"/><text fill="#000000" font-family="Verdana" font-size="13" lengthAdjust="spacing" textLength="231.2959" x="668.4189" y="657.6108">UpdatePassUniforms(lightViewProj)</text><polygon fill="#666666" points="192.5581,701.1396,182.5581,705.1396,192.5581,709.1396,188.5581,705.1396" style="stroke:#666666;stroke-width:1.0;"/><line style="stroke:#666666;stroke-width:1.0;stroke-dasharray:2.0,2.0;" x1="186.5581" x2="655.4189" y1="705.1396" y2="705.1396"/><text fill="#000000" font-family="Verdana" font-size="13" lengthAdjust="spacing" textLength="88.7212" x="198.5581" y="700.4102">BindGroup[1]</text><polygon fill="#666666" points="474.9282,733.939,484.9282,737.939,474.9282,741.939,478.9282,737.939" style="stroke:#666666;stroke-width:1.0;"/><line style="stroke:#666666;stroke-width:1.0;" x1="181.5581" x2="480.9282" y1="737.939" y2="737.939"/><text fill="#000000" font-family="Verdana" font-size="13" lengthAdjust="spacing" textLength="267.0522" x="188.5581" y="733.2095">SetBindGroup(1, shadowPassBindGroup)</text><path d="M491,718.1396 L491,743.1396 L650,743.1396 L650,728.1396 L640,718.1396 L491,718.1396 " fill="#FFFACD" style="stroke:#000000;stroke-width:1.0;"/><path d="M640,718.1396 L640,728.1396 L650,728.1396 L640,718.1396 " fill="#FFFACD" style="stroke:#000000;stroke-width:1.0;"/><text fill="#000000" font-family="Verdana" font-size="13" lengthAdjust="spacing" textLength="138.728" x="497" y="736.2095">Shadow-specific data</text><path d="M116,755.939 L192.3828,755.939 L192.3828,763.7383 L182.3828,773.7383 L116,773.7383 L116,755.939 " fill="#FFFFFF" style="stroke:#000000;stroke-width:1.0;"/><rect fill="none" height="99.1973" style="stroke:#000000;stroke-width:1.0;" width="563.231" x="116" y="755.939"/><text fill="#000000" font-family="Verdana" font-size="13" font-weight="bold" lengthAdjust="spacing" textLength="31.3828" x="131" y="770.0088">loop</text><text fill="#000000" font-family="Verdana" font-size="11" font-weight="bold" lengthAdjust="spacing" textLength="158.2271" x="207.3828" y="768.998">[For each shadow caster]</text><polygon fill="#666666" points="474.9282,802.4373,484.9282,806.4373,474.9282,810.4373,478.9282,806.4373" style="stroke:#666666;stroke-width:1.0;"/><line style="stroke:#666666;stroke-width:1.0;" x1="181.5581" x2="480.9282" y1="806.4373" y2="806.4373"/><text fill="#000000" font-family="Verdana" font-size="13" lengthAdjust="spacing" textLength="228.5283" x="188.5581" y="801.7078">SetBindGroup(3, objectBindGroup)</text><path d="M491,778.7383 L491,819.7383 L663,819.7383 L663,788.7383 L653,778.7383 L491,778.7383 " fill="#FFFACD" style="stroke:#000000;stroke-width:1.0;"/><path d="M653,778.7383 L653,788.7383 L663,788.7383 L653,778.7383 " fill="#FFFACD" style="stroke:#000000;stroke-width:1.0;"/><text fill="#000000" font-family="Verdana" font-size="13" lengthAdjust="spacing" textLength="121.1069" x="497" y="796.8081">Only Set 3 needed</text><text fill="#000000" font-family="Verdana" font-size="13" lengthAdjust="spacing" textLength="151.3027" x="497" y="812.6074">(no materials in depth)</text><polygon fill="#666666" points="474.9282,843.1362,484.9282,847.1362,474.9282,851.1362,478.9282,847.1362" style="stroke:#666666;stroke-width:1.0;"/><line style="stroke:#666666;stroke-width:1.0;" x1="181.5581" x2="480.9282" y1="847.1362" y2="847.1362"/><text fill="#000000" font-family="Verdana" font-size="13" lengthAdjust="spacing" textLength="98.8965" x="188.5581" y="842.4067">DrawIndexed()</text><polygon fill="#666666" points="474.9282,879.9355,484.9282,883.9355,474.9282,887.9355,478.9282,883.9355" style="stroke:#666666;stroke-width:1.0;"/><line style="stroke:#666666;stroke-width:1.0;" x1="181.5581" x2="480.9282" y1="883.9355" y2="883.9355"/><text fill="#000000" font-family="Verdana" font-size="13" lengthAdjust="spacing" textLength="111.9473" x="188.5581" y="879.2061">EndRenderPass()</text><path d="M14,905.9355 L230.1899,905.9355 L230.1899,913.7349 L220.1899,923.7349 L14,923.7349 L14,905.9355 " fill="#FFFFFF" style="stroke:#000000;stroke-width:1.0;"/><rect fill="none" height="906.7822" style="stroke:#000000;stroke-width:1.0;" width="1240.6836" x="14" y="905.9355"/><text fill="#000000" font-family="Verdana" font-size="13" font-weight="bold" lengthAdjust="spacing" textLength="171.1899" x="29" y="920.0054">Pass 2: Main Rendering</text><polygon fill="#666666" points="474.9282,944.5342,484.9282,948.5342,474.9282,952.5342,478.9282,948.5342" style="stroke:#666666;stroke-width:1.0;"/><line style="stroke:#666666;stroke-width:1.0;" x1="181.5581" x2="480.9282" y1="948.5342" y2="948.5342"/><text fill="#000000" font-family="Verdana" font-size="13" lengthAdjust="spacing" textLength="166.3086" x="188.5581" y="943.8047">BeginRenderPass(nullptr)</text><path d="M24,928.7349 L24,953.7349 L176,953.7349 L176,938.7349 L166,928.7349 L24,928.7349 " fill="#FFFACD" style="stroke:#000000;stroke-width:1.0;"/><path d="M166,928.7349 L166,938.7349 L176,938.7349 L166,928.7349 " fill="#FFFACD" style="stroke:#000000;stroke-width:1.0;"/><text fill="#000000" font-family="Verdana" font-size="13" lengthAdjust="spacing" textLength="131.2695" x="30" y="946.8047">nullptr = backbuffer</text><rect fill="#FFFFFF" height="3" style="stroke:#FFFFFF;stroke-width:1.0;" width="1259.6836" x="5" y="980.4338"/><line style="stroke:#000000;stroke-width:0.5;" x1="5" x2="1264.6836" y1="980.4338" y2="980.4338"/><line style="stroke:#000000;stroke-width:0.5;" x1="5" x2="1264.6836" y1="983.4338" y2="983.4338"/><rect fill="#FFFFFF" height="23.7993" style="stroke:#000000;stroke-width:1.0;" width="178.8296" x="545.427" y="969.5342"/><text fill="#000000" font-family="Verdana" font-size="13" font-weight="bold" lengthAdjust="spacing" textLength="160.3862" x="551.427" y="986.604">Set 1: Pass Resources</text><polygon fill="#666666" points="644.4189,1021.1328,654.4189,1025.1328,644.4189,1029.1328,648.4189,1025.1328" style="stroke:#666666;stroke-width:1.0;"/><line style="stroke:#666666;stroke-width:1.0;" x1="181.5581" x2="650.4189" y1="1025.1328" y2="1025.1328"/><text fill="#000000" font-family="Verdana" font-size="13" lengthAdjust="spacing" textLength="224.7896" x="188.5581" y="1020.4033">GetPassBindGroup(mainPassData)</text><polygon fill="#666666" points="474.9282,1050.9321,484.9282,1054.9321,474.9282,1058.9321,478.9282,1054.9321" style="stroke:#666666;stroke-width:1.0;"/><line style="stroke:#666666;stroke-width:1.0;" x1="181.5581" x2="480.9282" y1="1054.9321" y2="1054.9321"/><text fill="#000000" font-family="Verdana" font-size="13" lengthAdjust="spacing" textLength="249.8628" x="188.5581" y="1050.2026">SetBindGroup(1, mainPassBindGroup)</text><rect fill="#FFFFFF" height="3" style="stroke:#FFFFFF;stroke-width:1.0;" width="1259.6836" x="5" y="1083.8318"/><line style="stroke:#000000;stroke-width:0.5;" x1="5" x2="1264.6836" y1="1083.8318" y2="1083.8318"/><line style="stroke:#000000;stroke-width:0.5;" x1="5" x2="1264.6836" y1="1086.8318" y2="1086.8318"/><rect fill="#FFFFFF" height="23.7993" style="stroke:#000000;stroke-width:1.0;" width="148.9575" x="560.363" y="1072.9321"/><text fill="#000000" font-family="Verdana" font-size="13" font-weight="bold" lengthAdjust="spacing" textLength="130.5142" x="566.363" y="1090.002">Sorted Draw Calls</text><path d="M106,1113.7314 L182.3828,1113.7314 L182.3828,1121.5308 L172.3828,1131.5308 L106,1131.5308 L106,1113.7314 " fill="#FFFFFF" style="stroke:#000000;stroke-width:1.0;"/><rect fill="none" height="662.187" style="stroke:#000000;stroke-width:1.0;" width="1138.6836" x="106" y="1113.7314"/><text fill="#000000" font-family="Verdana" font-size="13" font-weight="bold" lengthAdjust="spacing" textLength="31.3828" x="121" y="1127.8013">loop</text><text fill="#000000" font-family="Verdana" font-size="11" font-weight="bold" lengthAdjust="spacing" textLength="158.3667" x="197.3828" y="1126.7905">[For each material batch]</text><rect fill="#FFFFFF" height="3" style="stroke:#FFFFFF;stroke-width:1.0;" width="1259.6836" x="5" y="1152.4304"/><line style="stroke:#000000;stroke-width:0.5;" x1="5" x2="1264.6836" y1="1152.4304" y2="1152.4304"/><line style="stroke:#000000;stroke-width:0.5;" x1="5" x2="1264.6836" y1="1155.4304" y2="1155.4304"/><rect fill="#FFFFFF" height="23.7993" style="stroke:#000000;stroke-width:1.0;" width="204.7852" x="532.4492" y="1141.5308"/><text fill="#000000" font-family="Verdana" font-size="13" font-weight="bold" lengthAdjust="spacing" textLength="186.3418" x="538.4492" y="1158.6006">Set 2: Material Resources</text><polygon fill="#666666" points="639.4189,1193.1294,649.4189,1197.1294,639.4189,1201.1294,643.4189,1197.1294" style="stroke:#666666;stroke-width:1.0;"/><line style="stroke:#666666;stroke-width:1.0;" x1="181.5581" x2="645.4189" y1="1197.1294" y2="1197.1294"/><text fill="#000000" font-family="Verdana" font-size="13" lengthAdjust="spacing" textLength="209.333" x="188.5581" y="1192.3999">GetMaterialBindGroup(material)</text><path d="M571.1152,1212.1294 L635.1646,1212.1294 L635.1646,1219.9287 L625.1646,1229.9287 L571.1152,1229.9287 L571.1152,1212.1294 " fill="#FFFFFF" style="stroke:#000000;stroke-width:1.0;"/><rect fill="none" height="146.1973" style="stroke:#000000;stroke-width:1.0;" width="343.9092" x="571.1152" y="1212.1294"/><text fill="#000000" font-family="Verdana" font-size="13" font-weight="bold" lengthAdjust="spacing" textLength="19.0493" x="586.1152" y="1226.1992">alt</text><text fill="#000000" font-family="Verdana" font-size="11" font-weight="bold" lengthAdjust="spacing" textLength="133.4233" x="650.1646" y="1225.1885">[Material not cached]</text><line style="stroke:#666666;stroke-width:1.0;" x1="661.4189" x2="703.4189" y1="1251.728" y2="1251.728"/><line style="stroke:#666666;stroke-width:1.0;" x1="703.4189" x2="703.4189" y1="1251.728" y2="1264.728"/><line style="stroke:#666666;stroke-width:1.0;" x1="662.4189" x2="703.4189" y1="1264.728" y2="1264.728"/><polygon fill="#666666" points="672.4189,1260.728,662.4189,1264.728,672.4189,1268.728,668.4189,1264.728" style="stroke:#666666;stroke-width:1.0;"/><text fill="#000000" font-family="Verdana" font-size="13" lengthAdjust="spacing" textLength="123.5" x="668.4189" y="1246.9985">CreateBindGroup()</text><line style="stroke:#666666;stroke-width:1.0;" x1="661.4189" x2="703.4189" y1="1294.5273" y2="1294.5273"/><line style="stroke:#666666;stroke-width:1.0;" x1="703.4189" x2="703.4189" y1="1294.5273" y2="1307.5273"/><line style="stroke:#666666;stroke-width:1.0;" x1="662.4189" x2="703.4189" y1="1307.5273" y2="1307.5273"/><polygon fill="#666666" points="672.4189,1303.5273,662.4189,1307.5273,672.4189,1311.5273,668.4189,1307.5273" style="stroke:#666666;stroke-width:1.0;"/><text fill="#000000" font-family="Verdana" font-size="13" lengthAdjust="spacing" textLength="224.6055" x="668.4189" y="1289.7979">BindTextures(albedo, normal, etc)</text><line style="stroke:#666666;stroke-width:1.0;" x1="661.4189" x2="703.4189" y1="1337.3267" y2="1337.3267"/><line style="stroke:#666666;stroke-width:1.0;" x1="703.4189" x2="703.4189" y1="1337.3267" y2="1350.3267"/><line style="stroke:#666666;stroke-width:1.0;" x1="662.4189" x2="703.4189" y1="1350.3267" y2="1350.3267"/><polygon fill="#666666" points="672.4189,1346.3267,662.4189,1350.3267,672.4189,1354.3267,668.4189,1350.3267" style="stroke:#666666;stroke-width:1.0;"/><text fill="#000000" font-family="Verdana" font-size="13" lengthAdjust="spacing" textLength="169.0508" x="668.4189" y="1332.5972">UpdateMaterialUniforms()</text><polygon fill="#666666" points="192.5581,1383.126,182.5581,1387.126,192.5581,1391.126,188.5581,1387.126" style="stroke:#666666;stroke-width:1.0;"/><line style="stroke:#666666;stroke-width:1.0;stroke-dasharray:2.0,2.0;" x1="186.5581" x2="655.4189" y1="1387.126" y2="1387.126"/><text fill="#000000" font-family="Verdana" font-size="13" lengthAdjust="spacing" textLength="88.7212" x="198.5581" y="1382.3965">BindGroup[2]</text><polygon fill="#666666" points="474.9282,1415.9253,484.9282,1419.9253,474.9282,1423.9253,478.9282,1419.9253" style="stroke:#666666;stroke-width:1.0;"/><line style="stroke:#666666;stroke-width:1.0;" x1="181.5581" x2="480.9282" y1="1419.9253" y2="1419.9253"/><text fill="#000000" font-family="Verdana" font-size="13" lengthAdjust="spacing" textLength="242.2329" x="188.5581" y="1415.1958">SetBindGroup(2, materialBindGroup)</text><path d="M491,1400.126 L491,1425.126 L652,1425.126 L652,1410.126 L642,1400.126 L491,1400.126 " fill="#FFFACD" style="stroke:#000000;stroke-width:1.0;"/><path d="M642,1400.126 L642,1410.126 L652,1410.126 L642,1400.126 " fill="#FFFACD" style="stroke:#000000;stroke-width:1.0;"/><text fill="#000000" font-family="Verdana" font-size="13" lengthAdjust="spacing" textLength="140.2959" x="497" y="1418.1958">Changes per material</text><path d="M116,1437.9253 L192.3828,1437.9253 L192.3828,1445.7246 L182.3828,1455.7246 L116,1455.7246 L116,1437.9253 " fill="#FFFFFF" style="stroke:#000000;stroke-width:1.0;"/><rect fill="none" height="330.9932" style="stroke:#000000;stroke-width:1.0;" width="1118.6836" x="116" y="1437.9253"/><text fill="#000000" font-family="Verdana" font-size="13" font-weight="bold" lengthAdjust="spacing" textLength="31.3828" x="131" y="1451.9951">loop</text><text fill="#000000" font-family="Verdana" font-size="11" font-weight="bold" lengthAdjust="spacing" textLength="220.5049" x="207.3828" y="1450.9844">[For each object with this material]</text><rect fill="#FFFFFF" height="3" style="stroke:#FFFFFF;stroke-width:1.0;" width="1259.6836" x="5" y="1476.6243"/><line style="stroke:#000000;stroke-width:0.5;" x1="5" x2="1264.6836" y1="1476.6243" y2="1476.6243"/><line style="stroke:#000000;stroke-width:0.5;" x1="5" x2="1264.6836" y1="1479.6243" y2="1479.6243"/><rect fill="#FFFFFF" height="23.7993" style="stroke:#000000;stroke-width:1.0;" width="192.7754" x="538.4541" y="1465.7246"/><text fill="#000000" font-family="Verdana" font-size="13" font-weight="bold" lengthAdjust="spacing" textLength="174.332" x="544.4541" y="1482.7944">Set 3: Object Resources</text><polygon fill="#666666" points="639.4189,1517.3232,649.4189,1521.3232,639.4189,1525.3232,643.4189,1521.3232" style="stroke:#666666;stroke-width:1.0;"/><line style="stroke:#666666;stroke-width:1.0;" x1="181.5581" x2="645.4189" y1="1521.3232" y2="1521.3232"/><text fill="#000000" font-family="Verdana" font-size="13" lengthAdjust="spacing" textLength="231.9243" x="188.5581" y="1516.5938">GetObjectBindGroup(object, offset)</text><line style="stroke:#666666;stroke-width:1.0;" x1="661.4189" x2="703.4189" y1="1551.1226" y2="1551.1226"/><line style="stroke:#666666;stroke-width:1.0;" x1="703.4189" x2="703.4189" y1="1551.1226" y2="1564.1226"/><line style="stroke:#666666;stroke-width:1.0;" x1="662.4189" x2="703.4189" y1="1564.1226" y2="1564.1226"/><polygon fill="#666666" points="672.4189,1560.1226,662.4189,1564.1226,672.4189,1568.1226,668.4189,1564.1226" style="stroke:#666666;stroke-width:1.0;"/><text fill="#000000" font-family="Verdana" font-size="13" lengthAdjust="spacing" textLength="201.2778" x="668.4189" y="1546.3931">UpdateModelMatrix(transform)</text><polygon fill="#666666" points="192.5581,1589.9219,182.5581,1593.9219,192.5581,1597.9219,188.5581,1593.9219" style="stroke:#666666;stroke-width:1.0;"/><line style="stroke:#666666;stroke-width:1.0;stroke-dasharray:2.0,2.0;" x1="186.5581" x2="655.4189" y1="1593.9219" y2="1593.9219"/><text fill="#000000" font-family="Verdana" font-size="13" lengthAdjust="spacing" textLength="191.8452" x="198.5581" y="1589.1924">BindGroup[3], dynamicOffset</text><polygon fill="#666666" points="474.9282,1630.6208,484.9282,1634.6208,474.9282,1638.6208,478.9282,1634.6208" style="stroke:#666666;stroke-width:1.0;"/><line style="stroke:#666666;stroke-width:1.0;" x1="181.5581" x2="480.9282" y1="1634.6208" y2="1634.6208"/><text fill="#000000" font-family="Verdana" font-size="13" lengthAdjust="spacing" textLength="274.498" x="188.5581" y="1629.8914">SetBindGroup(3, objectBindGroup, offset)</text><path d="M491,1606.9219 L491,1647.9219 L632,1647.9219 L632,1616.9219 L622,1606.9219 L491,1606.9219 " fill="#FFFACD" style="stroke:#000000;stroke-width:1.0;"/><path d="M622,1606.9219 L622,1616.9219 L632,1616.9219 L622,1606.9219 " fill="#FFFACD" style="stroke:#000000;stroke-width:1.0;"/><text fill="#000000" font-family="Verdana" font-size="13" lengthAdjust="spacing" textLength="120.5483" x="497" y="1624.9917">Dynamic offset for</text><text fill="#000000" font-family="Verdana" font-size="13" lengthAdjust="spacing" textLength="108.3291" x="497" y="1640.791">efficient updates</text><polygon fill="#666666" points="474.9282,1671.3198,484.9282,1675.3198,474.9282,1679.3198,478.9282,1675.3198" style="stroke:#666666;stroke-width:1.0;"/><line style="stroke:#666666;stroke-width:1.0;" x1="181.5581" x2="480.9282" y1="1675.3198" y2="1675.3198"/><text fill="#000000" font-family="Verdana" font-size="13" lengthAdjust="spacing" textLength="212.8877" x="188.5581" y="1670.5903">DrawIndexed(mesh.indexCount)</text><line style="stroke:#666666;stroke-width:1.0;" x1="943.481" x2="985.481" y1="1705.1191" y2="1705.1191"/><line style="stroke:#666666;stroke-width:1.0;" x1="985.481" x2="985.481" y1="1705.1191" y2="1718.1191"/><line style="stroke:#666666;stroke-width:1.0;" x1="944.481" x2="985.481" y1="1718.1191" y2="1718.1191"/><polygon fill="#666666" points="954.481,1714.1191,944.481,1718.1191,954.481,1722.1191,950.481,1718.1191" style="stroke:#666666;stroke-width:1.0;"/><text fill="#000000" font-family="Verdana" font-size="13" lengthAdjust="spacing" textLength="93.6216" x="950.481" y="1700.3896">Vertex Shader</text><path d="M1055.6216,1691.8198 L1055.6216,1716.8198 L1163.6216,1716.8198 L1163.6216,1701.8198 L1153.6216,1691.8198 L1055.6216,1691.8198 " fill="#FFFACD" style="stroke:#000000;stroke-width:1.0;"/><path d="M1153.6216,1691.8198 L1153.6216,1701.8198 L1163.6216,1701.8198 L1153.6216,1691.8198 " fill="#FFFACD" style="stroke:#000000;stroke-width:1.0;"/><text fill="#000000" font-family="Verdana" font-size="13" lengthAdjust="spacing" textLength="87.5278" x="1061.6216" y="1709.8896">Uses Set 0, 3</text><line style="stroke:#666666;stroke-width:1.0;" x1="943.481" x2="985.481" y1="1747.9185" y2="1747.9185"/><line style="stroke:#666666;stroke-width:1.0;" x1="985.481" x2="985.481" y1="1747.9185" y2="1760.9185"/><line style="stroke:#666666;stroke-width:1.0;" x1="944.481" x2="985.481" y1="1760.9185" y2="1760.9185"/><polygon fill="#666666" points="954.481,1756.9185,944.481,1760.9185,954.481,1764.9185,950.481,1760.9185" style="stroke:#666666;stroke-width:1.0;"/><text fill="#000000" font-family="Verdana" font-size="13" lengthAdjust="spacing" textLength="113.5469" x="950.481" y="1743.189">Fragment Shader</text><path d="M1075.5469,1734.6191 L1075.5469,1759.6191 L1218.5469,1759.6191 L1218.5469,1744.6191 L1208.5469,1734.6191 L1075.5469,1734.6191 " fill="#FFFACD" style="stroke:#000000;stroke-width:1.0;"/><path d="M1208.5469,1734.6191 L1208.5469,1744.6191 L1218.5469,1744.6191 L1208.5469,1734.6191 " fill="#FFFACD" style="stroke:#000000;stroke-width:1.0;"/><text fill="#000000" font-family="Verdana" font-size="13" lengthAdjust="spacing" textLength="122.6558" x="1081.5469" y="1752.689">Uses Set 0, 1, 2, 3</text><polygon fill="#666666" points="474.9282,1800.7178,484.9282,1804.7178,474.9282,1808.7178,478.9282,1804.7178" style="stroke:#666666;stroke-width:1.0;"/><line style="stroke:#666666;stroke-width:1.0;" x1="181.5581" x2="480.9282" y1="1804.7178" y2="1804.7178"/><text fill="#000000" font-family="Verdana" font-size="13" lengthAdjust="spacing" textLength="111.9473" x="188.5581" y="1799.9883">EndRenderPass()</text><path d="M116,1826.7178 L335.7383,1826.7178 L335.7383,1834.5171 L325.7383,1844.5171 L116,1844.5171 L116,1826.7178 " fill="#FFFFFF" style="stroke:#000000;stroke-width:1.0;"/><rect fill="none" height="208.5952" style="stroke:#000000;stroke-width:1.0;" width="549.5581" x="116" y="1826.7178"/><text fill="#000000" font-family="Verdana" font-size="13" font-weight="bold" lengthAdjust="spacing" textLength="174.7383" x="131" y="1840.7876">Pass 3: Post-Processing</text><polygon fill="#666666" points="474.9282,1862.3164,484.9282,1866.3164,474.9282,1870.3164,478.9282,1866.3164" style="stroke:#666666;stroke-width:1.0;"/><line style="stroke:#666666;stroke-width:1.0;" x1="181.5581" x2="480.9282" y1="1866.3164" y2="1866.3164"/><text fill="#000000" font-family="Verdana" font-size="13" lengthAdjust="spacing" textLength="166.3086" x="188.5581" y="1861.5869">BeginRenderPass(nullptr)</text><rect fill="#FFFFFF" height="3" style="stroke:#FFFFFF;stroke-width:1.0;" width="1259.6836" x="5" y="1895.2161"/><line style="stroke:#000000;stroke-width:0.5;" x1="5" x2="1264.6836" y1="1895.2161" y2="1895.2161"/><line style="stroke:#000000;stroke-width:0.5;" x1="5" x2="1264.6836" y1="1898.2161" y2="1898.2161"/><rect fill="#FFFFFF" height="23.7993" style="stroke:#000000;stroke-width:1.0;" width="198.6216" x="535.531" y="1884.3164"/><text fill="#000000" font-family="Verdana" font-size="13" font-weight="bold" lengthAdjust="spacing" textLength="180.1782" x="541.531" y="1901.3862">Set 1: Post-Process Pass</text><polygon fill="#666666" points="474.9282,1946.8147,484.9282,1950.8147,474.9282,1954.8147,478.9282,1950.8147" style="stroke:#666666;stroke-width:1.0;"/><line style="stroke:#666666;stroke-width:1.0;" x1="181.5581" x2="480.9282" y1="1950.8147" y2="1950.8147"/><text fill="#000000" font-family="Verdana" font-size="13" lengthAdjust="spacing" textLength="265.6494" x="188.5581" y="1946.0852">SetBindGroup(1, postProcessBindGroup)</text><path d="M491,1923.1157 L491,1964.1157 L649,1964.1157 L649,1933.1157 L639,1923.1157 L491,1923.1157 " fill="#FFFACD" style="stroke:#000000;stroke-width:1.0;"/><path d="M639,1923.1157 L639,1933.1157 L649,1933.1157 L639,1923.1157 " fill="#FFFACD" style="stroke:#000000;stroke-width:1.0;"/><text fill="#000000" font-family="Verdana" font-size="13" lengthAdjust="spacing" textLength="137.6299" x="497" y="1941.1855">Previous pass results</text><text fill="#000000" font-family="Verdana" font-size="13" lengthAdjust="spacing" textLength="110.938" x="497" y="1956.9849">as input textures</text><polygon fill="#666666" points="474.9282,1990.5137,484.9282,1994.5137,474.9282,1998.5137,478.9282,1994.5137" style="stroke:#666666;stroke-width:1.0;"/><line style="stroke:#666666;stroke-width:1.0;" x1="181.5581" x2="480.9282" y1="1994.5137" y2="1994.5137"/><text fill="#000000" font-family="Verdana" font-size="13" lengthAdjust="spacing" textLength="54.082" x="188.5581" y="1989.7842">Draw(3)</text><path d="M491,1974.7144 L491,1999.7144 L631,1999.7144 L631,1984.7144 L621,1974.7144 L491,1974.7144 " fill="#FFFACD" style="stroke:#000000;stroke-width:1.0;"/><path d="M621,1974.7144 L621,1984.7144 L631,1984.7144 L621,1974.7144 " fill="#FFFACD" style="stroke:#000000;stroke-width:1.0;"/><text fill="#000000" font-family="Verdana" font-size="13" lengthAdjust="spacing" textLength="119.8945" x="497" y="1992.7842">Fullscreen triangle</text><polygon fill="#666666" points="474.9282,2023.313,484.9282,2027.313,474.9282,2031.313,478.9282,2027.313" style="stroke:#666666;stroke-width:1.0;"/><line style="stroke:#666666;stroke-width:1.0;" x1="181.5581" x2="480.9282" y1="2027.313" y2="2027.313"/><text fill="#000000" font-family="Verdana" font-size="13" lengthAdjust="spacing" textLength="111.9473" x="188.5581" y="2022.5835">EndRenderPass()</text><rect fill="#FFFFFF" height="3" style="stroke:#FFFFFF;stroke-width:1.0;" width="1259.6836" x="5" y="2063.2126"/><line style="stroke:#000000;stroke-width:0.5;" x1="5" x2="1264.6836" y1="2063.2126" y2="2063.2126"/><line style="stroke:#000000;stroke-width:0.5;" x1="5" x2="1264.6836" y1="2066.2126" y2="2066.2126"/><rect fill="#FFFFFF" height="23.7993" style="stroke:#000000;stroke-width:1.0;" width="152.7153" x="558.4841" y="2052.313"/><text fill="#000000" font-family="Verdana" font-size="13" font-weight="bold" lengthAdjust="spacing" textLength="134.272" x="564.4841" y="2069.3828">Frame Submission</text><polygon fill="#666666" points="326.5986,2103.9116,336.5986,2107.9116,326.5986,2111.9116,330.5986,2107.9116" style="stroke:#666666;stroke-width:1.0;"/><line style="stroke:#666666;stroke-width:1.0;" x1="181.5581" x2="332.5986" y1="2107.9116" y2="2107.9116"/><text fill="#000000" font-family="Verdana" font-size="13" lengthAdjust="spacing" textLength="105.0854" x="188.5581" y="2103.1821">EndFrame(cmd)</text><polygon fill="#666666" points="474.9282,2133.7109,484.9282,2137.7109,474.9282,2141.7109,478.9282,2137.7109" style="stroke:#666666;stroke-width:1.0;"/><line style="stroke:#666666;stroke-width:1.0;" x1="348.5986" x2="480.9282" y1="2137.7109" y2="2137.7109"/><text fill="#000000" font-family="Verdana" font-size="13" lengthAdjust="spacing" textLength="49.6387" x="355.5986" y="2132.9814">Finish()</text><polygon fill="#666666" points="359.5986,2163.5103,349.5986,2167.5103,359.5986,2171.5103,355.5986,2167.5103" style="stroke:#666666;stroke-width:1.0;"/><line style="stroke:#666666;stroke-width:1.0;stroke-dasharray:2.0,2.0;" x1="353.5986" x2="485.9282" y1="2167.5103" y2="2167.5103"/><text fill="#000000" font-family="Verdana" font-size="13" lengthAdjust="spacing" textLength="105.9614" x="365.5986" y="2162.7808">CommandBuffer</text><polygon fill="#666666" points="931.481,2193.3096,941.481,2197.3096,931.481,2201.3096,935.481,2197.3096" style="stroke:#666666;stroke-width:1.0;"/><line style="stroke:#666666;stroke-width:1.0;" x1="348.5986" x2="937.481" y1="2197.3096" y2="2197.3096"/><text fill="#000000" font-family="Verdana" font-size="13" lengthAdjust="spacing" textLength="162.0112" x="355.5986" y="2192.5801">Submit(commandBuffer)</text><polygon fill="#666666" points="931.481,2223.1089,941.481,2227.1089,931.481,2231.1089,935.481,2227.1089" style="stroke:#666666;stroke-width:1.0;"/><line style="stroke:#666666;stroke-width:1.0;" x1="343.5986" x2="937.481" y1="2227.1089" y2="2227.1089"/><text fill="#000000" font-family="Verdana" font-size="13" lengthAdjust="spacing" textLength="60.8042" x="350.5986" y="2222.3794">Present()</text><rect fill="#FFFFFF" height="3" style="stroke:#FFFFFF;stroke-width:1.0;" width="1259.6836" x="5" y="2256.0085"/><line style="stroke:#000000;stroke-width:0.5;" x1="5" x2="1264.6836" y1="2256.0085" y2="2256.0085"/><line style="stroke:#000000;stroke-width:0.5;" x1="5" x2="1264.6836" y1="2259.0085" y2="2259.0085"/><rect fill="#FFFFFF" height="23.7993" style="stroke:#000000;stroke-width:1.0;" width="218.7183" x="525.4827" y="2245.1089"/><text fill="#000000" font-family="Verdana" font-size="13" font-weight="bold" lengthAdjust="spacing" textLength="200.2749" x="531.4827" y="2262.1787">Binding Optimization Notes</text><path d="M561,2283.9082 L561,2371.9082 L750,2371.9082 L750,2293.9082 L740,2283.9082 L561,2283.9082 " fill="#FFFACD" style="stroke:#000000;stroke-width:1.0;"/><path d="M740,2283.9082 L740,2293.9082 L750,2293.9082 L740,2283.9082 " fill="#FFFACD" style="stroke:#000000;stroke-width:1.0;"/><text fill="#000000" font-family="Verdana" font-size="13" lengthAdjust="spacing" textLength="130.9014" x="567" y="2301.978">BindGroup Caching:</text><text fill="#000000" font-family="Verdana" font-size="13" lengthAdjust="spacing" textLength="139.2739" x="567" y="2317.7773">- Frame: 1 per frame</text><text fill="#000000" font-family="Verdana" font-size="13" lengthAdjust="spacing" textLength="137.8901" x="567" y="2333.5767">- Pass: ~5 per frame</text><text fill="#000000" font-family="Verdana" font-size="13" lengthAdjust="spacing" textLength="150.23" x="567" y="2349.376">- Material: ~50 cached</text><text fill="#000000" font-family="Verdana" font-size="13" lengthAdjust="spacing" textLength="168.1367" x="567" y="2365.1753">- Object: Dynamic offsets</text><path d="M845,2382.9048 L845,2470.9048 L1041,2470.9048 L1041,2392.9048 L1031,2382.9048 L845,2382.9048 " fill="#FFFACD" style="stroke:#000000;stroke-width:1.0;"/><path d="M1031,2382.9048 L1031,2392.9048 L1041,2392.9048 L1031,2382.9048 " fill="#FFFACD" style="stroke:#000000;stroke-width:1.0;"/><text fill="#000000" font-family="Verdana" font-size="13" lengthAdjust="spacing" textLength="101.1118" x="851" y="2400.9746">State Changes:</text><text fill="#000000" font-family="Verdana" font-size="13" lengthAdjust="spacing" textLength="140.3403" x="851" y="2416.7739">- Set 0: 1x per frame</text><text fill="#000000" font-family="Verdana" font-size="13" lengthAdjust="spacing" textLength="131.479" x="851" y="2432.5732">- Set 1: 1x per pass</text><text fill="#000000" font-family="Verdana" font-size="13" lengthAdjust="spacing" textLength="159.2437" x="851" y="2448.3726">- Set 2: ~50x per frame</text><text fill="#000000" font-family="Verdana" font-size="13" lengthAdjust="spacing" textLength="175.7729" x="851" y="2464.1719">- Set 3: ~1000x per frame</text><!--SRC=[hLTBR-Cs4BxhLqot5xbGMZj6Wy902YJEUh67heDDivSc1rgYBUvIf4fISTB3_lOEIJqeI_PkYjg04v7p_BwP8VM3oMb1eUI4YKX_OQ8aYXIm8UcNdPALo9QIImK_hjxQRo2XwTyL5IczKahkQw6BYuj00dyDIrb9XBaUcFlDVWDX8GqTIgrMLykRA3BCS0eVgPQLIYbSCv4niOCLbtiuWnNgsrsHKMMNx-h8eYY80DvSbILdAJ5CYZT0DE1pNy1ReChjDWzzaQKi2YAoZpILAgibbqNM5xBXlSCqoYL9S-fbx7zzgNUtzsuB_qRHvMMTnNl132ES_UFYXClB2CE4iz_RU1PmJNTCEEbu4f7Ki2TYQ1TlyuzLmj0Mi5GK1Nv1zAW9Td4RJUDsFwMVeemEZTe0xwY1wQ95stEX8LuZr52YoQtTcGGnkwmNy8wQjV9HEEKMdzXft113WaGyLEuti75VPhXvBzXMgkAwscwfYfyOtITGAlav0SFGzK3BUU9oGtWRRypPBZSw0PsJJEvrgzJWqKRtr_GnnCB7rQPcaKL4kbocYGUWNPb4jgP1MNzerfOrICGgUH2LfXbiNe1mZbsYDTKEOGyttBeLYwDjXj8zmmpTkOZX3r96W9ym4bSJNjrAnpuvb9muKVTJKuY6dC6EGNGKscj9is9TVjwaNVE4MPK3SEpIE75MhIQlPk0JadUBr4r2hI47iqUtF-3X480U5RE6tLu6tbF8YGVqJ9SqPLkM0aPAEhoub2MiS0oXxxms22dH1li1wi_H4EO9oCrdcfe3zuSXh0L_SRJCGL2QqUn1n492WPagd0CQcC3aIvDFHdtUAB9_Zwm_qops4bW3NGgXw5lRuss1J28h61RO-G8h2xsrS_IRHIOgpakZ0bmvtM9EzJfSkbDauvhrVol30cFi5-6fCcYa3rXe0v7AO2TQ5D4XvsqGVUuRDZ0Va-Oj4NKc3hXQO93DQ4QDU9YLN-bO7gbtjynDvmqnnuB4xQpT7sj1FtexPvEJqbRkJ_fiAeN3al0DpMI2dbH1U0BKfAUrVRit4ROjtoarzNcowyyVMvdHpcyvFCd_UT8ozuqkNEP4x90qUuerAaD7_QBmxGrxPd8mETD3nQ16vjZfNdwqGaQhPDsV7x5tY7DbkyMJl4_34OnEC2Gpof4cnPvZeuZGbgTHQeVip1yJo5u4ALYwTh7qr8uIriFobSDpFEkGmXiVK2q7cCw3e5kSwepYRQjoIUllYoKSgWNL-S_CFYpn03_mttl0UvorW7yMy8dYN7bsvqjmM1o6V6zFUNUhIc1-r1PUcNQ5pU4Lrd3odOSscwRxpuS3rk-jrEOCJsmiNVtgq-5myWUsl8E3uJysoqjKgdLEdEctYZunMMbthmASOHKt-a4GUvAMbG5JZxPn72pryNneTON9w5HHAW1R1eS5fwy0ihtTtrMRWY5yHsxsgEplzMcHVTVLViK4qpcwmIVNgPsj-bhlhyezJLTLBX8Jfw7KP2Y6Q6giFVHmxAsWUHTRbtW5RrvRFY1qZbE7eNn2Y-6DtDMLNK35nOEet-0MCEjU8-ogXN01Nt_jhpPdYzsPriUVNVVZyd0GuCMwYy5dRjneyXFVUQzVR6RFVKTrhTRBjfoQrNFdUqGSs-JhR3eDjw9_0G00]--></g></svg>